<?xml version="1.0" standalone="no"?>
<!DOCTYPE svg PUBLIC "-//W3C//DTD SVG 1.1//EN" "http://www.w3.org/Graphics/SVG/1.1/DTD/svg11.dtd" >
<svg xmlns="http://www.w3.org/2000/svg" xmlns:xlink="http://www.w3.org/1999/xlink" version="1.1">
<metadata>
Created by FontForge 20170731 at Thu Sep 10 13:03:30 2020
 By Aleksey,,,
Copyright (c) 2018 by Mostafa Amin . All rights reserved.
</metadata>
<defs>
<font id="Fairuz-Normal" horiz-adv-x="0" >
  <font-face 
    font-family="Fairuz Normal"
    font-weight="400"
    font-stretch="normal"
    units-per-em="2048"
    panose-1="0 0 5 0 0 0 0 0 0 0"
    ascent="1638"
    descent="-410"
    x-height="1059"
    cap-height="1499"
    bbox="-78 -1220 3063 2702"
    underline-thickness="217"
    underline-position="-652"
    unicode-range="U+0020-FEFC"
  />
<missing-glyph horiz-adv-x="1960" 
d="M1608 2702v-3922h-1242v3922h1242zM1307 2440h-649v-131h257v-143h-261v-131h653v131h-261v143h261v131zM1046 1935h-392v-410h653v135h-261v275zM915 1800v-140h-131v140h131zM1307 1421h-653v-131h261v-144h-261v-131h392v275h261v131zM1307 1185h-130v-261h-523v-131
h653v392zM1307 706h-392v-218h131v87h131v-183h-393v314h-130v-445h653v445zM1307 26h-653v-444h653v444zM1177 -105v-183h-393v183h393zM1307 -505h-653v-131h274l-274 -183v-131h653v131h-401l275 183h126v131z" />
    <glyph glyph-name="uniFEF5" unicode="&#xfedf;&#xfe82;" horiz-adv-x="1176" arabic-form="isolated" 
d="M963 1442q0 41 31.5 58t63 0t31.5 -58v-1106q0 -156 -85.5 -244.5t-236.5 -91.5h-370q-104 0 -186.5 56.5t-110.5 135.5q-15 39 7.5 65t57 19.5t49.5 -45.5q19 -49 70.5 -79.5t116.5 -33.5h353q108 0 158.5 60.5t50.5 157.5v1106zM357 1285q-18 -18 -41 -12t-29.5 25.5
t5.5 39.5q37 31 71.5 40.5t60.5 3t60 -26.5q43 -19 76 -12t46 34q27 36 61 25q27 -8 25 -34q0 -8 -4 -17q-51 -91 -187 -74q-18 3 -41 13t-36.5 16.5t-31.5 2.5t-35 -24zM431 1142q0 43 32.5 61t65.5 0t33 -61v-789q0 -37 -32.5 -53t-65.5 -1t-33 54v789z" />
    <glyph glyph-name="uniFEF6" unicode="&#xfee0;&#xfe82;" horiz-adv-x="1302" arabic-form="final" 
d="M1355 118l22 -57l-22 -61h-117q-160 0 -218 105q-87 -99 -253 -105h-366q-104 0 -187 56.5t-114 135.5q-12 39 10.5 65t56.5 19.5t51 -45.5q20 -49 69.5 -79.5t117.5 -33.5h349q110 0 159.5 60t49.5 158v1106q0 41 32.5 58t65.5 0t33 -58v-1098q0 -126 29 -176t115 -50
h117zM353 1312q-18 -21 -41 -16t-28.5 24.5t8.5 39.5q35 33 69 42.5t58 3t60 -24.5q43 -19 76.5 -12t50.5 34q16 24 39.5 27t36.5 -13.5t2 -39.5q-48 -92 -187 -74q-18 3 -41 12.5t-36.5 15.5t-31.5 2.5t-35 -21.5zM436 1142q0 43 32.5 61t65 0t32.5 -61v-789
q0 -37 -32.5 -53t-65 -1t-32.5 54v789z" />
    <glyph glyph-name="uniFEF7" unicode="&#xfedf;&#xfe84;" horiz-adv-x="1176" arabic-form="isolated" 
d="M357 1373q-29 0 -41 20.5t-1 41t38 20.5h70q-33 58 -38 114t14 98t55 72.5t80.5 41t95 -1.5t93.5 -49q17 -17 13 -39.5t-21 -29t-40 7.5q-42 36 -92 38t-84.5 -27t-36.5 -76q0 -71 26 -110t70 -39h135q25 0 35 -20.5t0 -41t-35 -20.5h-336zM963 1442q0 41 31.5 58t63 0
t31.5 -58v-1106q0 -156 -85.5 -244.5t-236.5 -91.5h-370q-104 0 -186.5 56.5t-110.5 135.5q-15 39 7.5 65t57 19.5t49.5 -45.5q19 -49 70.5 -79.5t116.5 -33.5h353q108 0 158.5 60.5t50.5 157.5v1106zM431 1142q0 43 32.5 61t65.5 0t33 -61v-789q0 -37 -32.5 -53t-65.5 -1
t-33 54v789z" />
    <glyph glyph-name="uniFEF8" unicode="&#xfee0;&#xfe84;" horiz-adv-x="1302" arabic-form="final" 
d="M357 1373q-29 0 -41 20.5t0 41t41 20.5h70q-33 58 -38.5 114t13 98t54.5 72.5t79.5 41t94 -1.5t93.5 -49q19 -17 16 -39.5t-20 -29t-39 7.5q-44 36 -94 37.5t-84 -27t-36 -75.5q-3 -70 24.5 -109.5t71.5 -39.5h135q25 0 35 -20.5t0 -41t-35 -20.5h-340zM1355 118l18 -57
l-18 -61h-117q-160 0 -218 105q-87 -99 -253 -105h-366q-104 0 -187 56.5t-114 135.5q-12 39 10.5 65t56.5 19.5t51 -45.5q20 -49 69.5 -79.5t117.5 -33.5h349q110 0 159.5 60t49.5 158v1106q0 41 32.5 58t65.5 0t33 -58v-1106q0 -32 -5 -53q7 -89 40.5 -127t108.5 -38h117z
M436 1142q0 43 32.5 61t65 0t32.5 -61v-789q0 -37 -32.5 -53t-65 -1t-32.5 54v789z" />
    <glyph glyph-name="uniFEF9" unicode="&#xfedf;&#xfe88;" horiz-adv-x="1176" arabic-form="isolated" 
d="M963 1442q0 41 31.5 58t63 0t31.5 -58v-1106q0 -156 -85.5 -244.5t-236.5 -91.5h-370q-104 0 -186.5 56.5t-110.5 135.5q-15 39 7.5 65t57 19.5t49.5 -45.5q19 -49 70.5 -79.5t116.5 -33.5h353q108 0 158.5 60.5t50.5 157.5v1106zM562 353q0 -37 -32.5 -53t-65.5 -1
t-33 54v789q0 43 32.5 61t65.5 0t33 -61v-789zM601 -248q-44 34 -94 35t-83.5 -27.5t-35.5 -73.5q-3 -73 23 -110.5t73 -37.5h135q18 0 28.5 -13t10.5 -28.5t-10.5 -28.5t-28.5 -13h-340q-22 0 -34 13t-12 28.5t12 28.5t34 13h70q-33 58 -38.5 114t13 98t54.5 71.5t79.5 40
t94 -2.5t93.5 -51q19 -15 16 -36t-20.5 -27.5t-39.5 7.5z" />
    <glyph glyph-name="uniFEFA" unicode="&#xfee0;&#xfe88;" horiz-adv-x="1302" arabic-form="final" 
d="M1355 118l22 -57l-22 -61h-117q-160 0 -218 105q-87 -99 -253 -105h-366q-104 0 -187 56.5t-114 135.5q-12 39 10.5 65t56.5 19.5t51 -45.5q20 -49 69.5 -79.5t117.5 -33.5h349q110 0 159.5 60t49.5 158v1106q0 41 32.5 58t65.5 0t33 -58v-1098q0 -126 29 -176t115 -50
h117zM566 353q0 -37 -32.5 -53t-65 -1t-32.5 54v789q0 43 32.5 61t65 0t32.5 -61v-789zM654 -231q-44 34 -94 35t-84 -27t-36 -73q-3 -72 24 -110t72 -38h135q18 0 28.5 -13t10.5 -28.5t-10.5 -28.5t-28.5 -13h-340q-22 0 -34 13t-12 28.5t12 28.5t34 13h70
q-33 56 -38.5 112t13 98t54.5 72t79.5 40.5t94 -2t93.5 -50.5q19 -15 16 -36.5t-20 -28t-39 7.5z" />
    <glyph glyph-name="uniFEFB" unicode="&#xfedf;&#xfe8e;" horiz-adv-x="1176" arabic-form="isolated" 
d="M963 1442q0 41 31.5 58t63 0t31.5 -58v-1106q0 -156 -85.5 -244.5t-236.5 -91.5h-370q-104 0 -186.5 56.5t-110.5 135.5q-15 39 7.5 65t57 19.5t49.5 -45.5q19 -49 70.5 -79.5t116.5 -33.5h353q108 0 158.5 60.5t50.5 157.5v1106zM562 353q0 -37 -32.5 -53t-65.5 -1
t-33 54v789q0 43 32.5 61t65.5 0t33 -61v-789z" />
    <glyph glyph-name="uniFEFC" unicode="&#xfee0;&#xfe8e;" horiz-adv-x="1302" arabic-form="final" 
d="M1355 118l22 -57l-22 -61h-117q-160 0 -218 105q-87 -99 -253 -105h-366q-104 0 -187 56.5t-114 135.5q-12 39 10.5 65t56.5 19.5t51 -45.5q20 -49 69.5 -79.5t117.5 -33.5h349q110 0 159.5 60t49.5 158v1106q0 41 32.5 58t65.5 0t33 -58v-1098q0 -126 29 -176t115 -50
h117zM566 353q0 -37 -32.5 -53t-65 -1t-32.5 54v789q0 43 32.5 61t65 0t32.5 -61v-789z" />
    <glyph glyph-name="uni06440671" unicode="&#xfedf;&#xfb51;" horiz-adv-x="1167" 
d="M257 1329q-17 -24 -39 -9q-15 15 0 53l35 52q10 13 24.5 16t27.5 -7l74 -31q4 6 18 28.5t20 31t20 27t23.5 26t25.5 17.5t30.5 11t33 -2t38.5 -13q84 -47 77 -115q-6 -55 -66 -89q-81 -45 -182 -8q-4 2 -7 3q-111 50 -115 51q-12 3 -18 -8q-1 -1 -2 -3zM954 1442
q0 41 32 58t63.5 0t31.5 -58v-1106q0 -157 -84.5 -245t-238.5 -91h-366q-103 0 -186 56.5t-114 135.5q-12 39 10 65t56 19.5t51 -45.5q16 -49 67.5 -79.5t120.5 -33.5h348q110 0 159.5 60t49.5 158v1106zM532 1486q-21 -2 -44 -29t-36 -53l-12 -27q57 -16 97.5 -5t62.5 32
l23 21q-5 12 -35.5 36.5t-55.5 24.5zM423 1142q0 43 33.5 61t67.5 0t34 -61v-789q0 -37 -34 -53t-67.5 -1t-33.5 54v789z" />
    <glyph glyph-name="uni06440671.fina" unicode="&#xfee0;&#xfb51;" horiz-adv-x="1315" 
d="M257 1329q-17 -24 -39 -9q-15 15 0 53l35 52q10 13 24.5 16t27.5 -7l74 -31q4 6 18 28.5t20 31t20 27t23.5 26t25.5 17.5t30.5 11t33 -2t38.5 -13q84 -47 77 -115q-6 -55 -66 -89q-81 -45 -182 -8q-4 2 -7 3q-111 50 -115 51q-12 3 -18 -8q-1 -1 -2 -3zM1338 118l22 -57
l-18 -61h-118q-163 0 -217 100q-88 -94 -249 -100h-366q-103 0 -186 56.5t-114 135.5q-12 39 10 65t56 19.5t51 -45.5q16 -49 67.5 -79.5t120.5 -33.5h348q110 0 159.5 60t49.5 158v1106q0 41 32 58t63.5 0t31.5 -58v-1106q0 -32 -5 -53q7 -89 40.5 -127t107.5 -38h114z
M532 1486q-21 -2 -44 -29t-36 -53l-12 -27q57 -16 97.5 -5t62.5 32l23 21q-5 12 -35.5 36.5t-55.5 24.5zM423 1142q0 43 33.5 61t67.5 0t34 -61v-789q0 -37 -34 -53t-67.5 -1t-33.5 54v789z" />
    <glyph glyph-name="uniFED3" unicode="&#x641;" horiz-adv-x="1115" arabic-form="initial" 
d="M649 1316q0 -41 -31.5 -58t-63 0t-31.5 58v70q0 37 31.5 53t63 1t31.5 -54v-70zM580 1081q103 0 186.5 -43.5t136 -116.5t80.5 -165.5t28 -193.5v-562h-1055v118h401q-92 86 -141.5 211t-49.5 233q0 224 114 371.5t295 147.5h5zM898 118l-9 444q0 177 -80 291t-225 114
h-4q-142 0 -217 -108t-75 -297q0 -93 32.5 -177t85 -141.5t118 -91.5t130.5 -34h244z" />
    <glyph glyph-name="uni066E.init" unicode="&#x66e;" horiz-adv-x="723" 
d="M-44 118h332q86 0 137.5 59t58.5 154v610q0 21 12.5 36t30.5 18.5t36 0t30.5 -19t12.5 -39.5v-606q-13 -331 -318 -331h-332v118z" />
    <glyph glyph-name="uni066E.medi" unicode="&#x66e;" horiz-adv-x="845" 
d="M867 118l22 -57l-22 -61h-118q-159 0 -213 100q-81 -100 -248 -100h-332v118h332q86 0 137.5 59t58.5 154v610q0 21 12.5 36t30.5 18.5t36 0t30.5 -19t12.5 -39.5v-593q0 -124 30 -175t113 -51h118z" />
    <glyph glyph-name="uni066E.fina" unicode="&#x66e;" horiz-adv-x="1647" 
d="M1669 118l22 -61l-22 -57h-96q-155 0 -209 100q-80 -100 -244 -100h-715q-151 0 -231 87t-87 244v479q0 37 30.5 52t61 0t30.5 -52v-479q3 -93 56 -153t140 -60h715q83 0 134 59.5t58 153.5v610q0 21 12.5 36t30.5 18.5t36 0t30.5 -19t12.5 -39.5v-588q0 -59 3 -97
t16.5 -65t25 -40t45.5 -20t59.5 -8t85.5 -1z" />
    <glyph glyph-name="uni066F.fina" unicode="&#x66f;" horiz-adv-x="1799" 
d="M1468 118h375v-118h-375v-78q-3 -230 -186.5 -344t-518.5 -114h-5q-152 0 -285 61.5t-223 164.5t-128.5 247.5t-8.5 302.5q17 85 28 104q16 26 51 26q44 0 50 -38t-11 -97q-28 -136 3.5 -259.5t106.5 -208.5t184.5 -135t232.5 -50q277 0 431.5 91.5t161.5 248.5v78h-235
q-99 0 -182.5 38.5t-138.5 99t-94 136t-56.5 148t-17.5 136.5q0 228 112.5 375.5t293.5 147.5h4q104 0 188 -43.5t136 -117t79.5 -166.5t27.5 -196v-440zM1116 113h235v5h4l-4 440q0 179 -82 294t-228 115h-4q-139 0 -215.5 -109t-76.5 -300q0 -92 33.5 -176t86.5 -142
t119.5 -92.5t131.5 -34.5z" />
    <glyph glyph-name="uni06A1.init" unicode="&#x6a1;" horiz-adv-x="1115" 
d="M580 1081q103 0 186.5 -43.5t136 -116.5t80.5 -165.5t28 -193.5v-562h-1055v118h401q-92 86 -141.5 211t-49.5 233q0 224 114 371.5t295 147.5h5zM898 118l-9 444q0 177 -80 291t-225 114h-4q-142 0 -217 -108t-75 -297q0 -93 32.5 -177t85 -141.5t118 -91.5t130.5 -34
h244z" />
    <glyph glyph-name="uni06A1.medi" unicode="&#x6a1;" horiz-adv-x="1193" 
d="M1011 118h240l-5 -118h-1290v118h401q-92 86 -141.5 211t-49.5 233q0 224 114 371.5t295 147.5h5q103 0 186.5 -43.5t136 -116.5t80.5 -165.5t28 -193.5v-444zM898 118l-9 444q0 177 -80 291t-225 114h-4q-142 0 -217 -108t-75 -297q0 -93 32.5 -177t85 -141.5t118 -91.5
t130.5 -34h244z" />
    <glyph glyph-name="uni06A1.fina" unicode="&#x6a1;" horiz-adv-x="2056" 
d="M1869 118h240v-118h-1394q-281 0 -454.5 184.5t-173.5 482.5v56q0 26 17.5 43.5t43.5 17.5t43.5 -17.5t17.5 -43.5v-39q0 -258 137.5 -412t368.5 -154h501q-92 86 -142 211t-50 233q0 224 114.5 371.5t295.5 147.5h4q103 0 186.5 -43.5t136 -116.5t80.5 -165.5t28 -193.5
v-444zM1756 118l-9 444q0 177 -80 291t-225 114h-4q-142 0 -217 -108t-75 -297q0 -93 32.5 -177t85 -141.5t118 -91.5t130.5 -34h244z" />
    <glyph glyph-name="uni06C2.fina" unicode="&#x6c2;" horiz-adv-x="1311" 
d="M449 1220q-22 0 -34 13t-12 28.5t12 28.5t34 13h70q-33 58 -38.5 114t13 98t54.5 72t79.5 40.5t94 -1.5t93.5 -49q19 -17 16 -39.5t-20.5 -29t-39.5 7.5q-44 34 -94 35t-83.5 -27t-35.5 -73q-3 -73 23 -110.5t73 -37.5h135q18 0 28.5 -13t10.5 -28.5t-10.5 -28.5
t-28.5 -13h-340zM1050 536q0 178 -121 302.5t-302 124.5q-122 0 -219 -60.5t-148 -157.5t-51 -209v-4v-532h-122v527v5q0 147 70 272.5t197 201t282 75.5q111 0 210.5 -42.5t171 -115t113 -173.5t41.5 -214v-418h148l35 -61l-35 -57h-270v536z" />
    <glyph glyph-name="uni06C3.fina" unicode="&#x6c3;" horiz-adv-x="1311" 
d="M453 1299v69q0 37 31.5 53t63.5 1t32 -54v-69q0 -41 -32 -58t-63.5 0t-31.5 58zM649 1299v69q0 37 31.5 53t63.5 1t32 -54v-69q0 -41 -32 -58t-63.5 0t-31.5 58zM1050 536q0 178 -121 302.5t-302 124.5q-122 0 -219 -60.5t-148 -157.5t-51 -209v-4v-532h-122v527v5
q0 147 70 272.5t197 201t282 75.5q111 0 210.5 -42.5t171 -115t113 -173.5t41.5 -214v-418h148l35 -61l-35 -57h-270v536z" />
    <glyph glyph-name="uniFB51" unicode="&#x671;" horiz-adv-x="440" arabic-form="final" 
d="M-35 1647q-16 -22 -35 -9q-15 15 0 53l35 52q15 28 52 13l70 -35q6 8 25.5 38t28.5 41.5t29.5 32t37 26t41.5 6t52 -12.5q84 -50 76 -119q-7 -57 -70 -90q-83 -45 -184 -7q-3 1 -5 2q-111 50 -115 51q-12 3 -18 -8q-1 -1 -2 -3zM153 1695q55 -16 96 -5t64 32l23 21
q-5 12 -36.5 36.5t-59.5 24.5q-20 -2 -41.5 -29t-33.5 -53zM414 0q-143 0 -229 83.5t-89 234.5v1124q0 43 31.5 61t63 0t31.5 -61v-1115q0 -124 56.5 -166.5t183.5 -42.5v-118h-48z" />
    <glyph glyph-name="uniFB57" unicode="&#x67e;" horiz-adv-x="1647" arabic-form="final" 
d="M1669 118l22 -61l-22 -57h-96q-155 0 -209 100q-80 -100 -244 -100h-715q-151 0 -231 87t-87 244v479q0 37 30.5 52t61 0t30.5 -52v-479q3 -93 56 -153t140 -60h715q83 0 134 59.5t58 153.5v610q0 21 12.5 36t30.5 18.5t36 0t30.5 -19t12.5 -39.5v-588q0 -59 3 -97
t16.5 -65t25 -40t45.5 -20t59.5 -8t85.5 -1zM767 -279q0 -39 -31.5 -54t-63 1t-31.5 53v70q0 41 31.5 58t63 0t31.5 -58v-70zM837 -209q0 41 31.5 58t63 0t31.5 -58v-70q0 -39 -31.5 -54t-63 1t-31.5 53v70zM741 -492q0 41 31.5 58t63 0t31.5 -58v-70q0 -41 -31.5 -57t-63 1
t-31.5 56v70z" />
    <glyph glyph-name="uniFB58" unicode="&#x67e;" horiz-adv-x="723" arabic-form="initial" 
d="M-44 118h332q86 0 137.5 59t58.5 154v610q0 21 12.5 36t30.5 18.5t36 0t30.5 -19t12.5 -39.5v-606q-13 -331 -318 -331h-332v118zM122 -209q0 41 31.5 58t63 0t31.5 -58v-70q0 -39 -31.5 -54t-63 1t-31.5 53v70zM318 -209q0 41 31.5 58t63 0t31.5 -58v-70
q0 -39 -31.5 -54t-63 1t-31.5 53v70zM222 -492q0 41 32 58t63.5 0t31.5 -58v-70q0 -41 -31.5 -57t-63.5 1t-32 56v70z" />
    <glyph glyph-name="uniFB59" unicode="&#x67e;" horiz-adv-x="845" arabic-form="medial" 
d="M867 118l22 -57l-22 -61h-118q-159 0 -213 100q-81 -100 -248 -100h-332v118h332q86 0 137.5 59t58.5 154v610q0 21 12.5 36t30.5 18.5t36 0t30.5 -19t12.5 -39.5v-593q0 -124 30 -175t113 -51h118zM279 -288q0 -39 -31.5 -54t-63 1t-31.5 53v70q0 41 31.5 58t63 0
t31.5 -58v-70zM349 -218q0 41 31.5 58t63 0t31.5 -58v-70q0 -39 -31.5 -54t-63 1t-31.5 53v70zM253 -501q0 41 31.5 58t63 0t31.5 -58v-70q0 -41 -31.5 -57t-63 1t-31.5 56v70z" />
    <glyph glyph-name="uniFB67" unicode="&#x679;" horiz-adv-x="1647" arabic-form="final" 
d="M619 1081q-10 0 -18 6t-8 15v27q0 9 8 15t18 6h26v240q0 18 15.5 26t30.5 0t15 -26v-78q30 30 104 30q71 0 103.5 -36t32.5 -112q0 -44 -19 -78.5t-60 -34.5h-248zM810 1268q-94 0 -100 -118h135q17 0 24 8.5t7 31.5q0 45 -14.5 61.5t-51.5 16.5zM1669 118l22 -61
l-22 -57h-96q-155 0 -209 100q-80 -100 -244 -100h-715q-151 0 -231 87t-87 244v479q0 37 30.5 52t61 0t30.5 -52v-479q3 -93 56 -153t140 -60h715q83 0 134 59.5t58 153.5v610q0 21 12.5 36t30.5 18.5t36 0t30.5 -19t12.5 -39.5v-588q0 -59 3 -97t16.5 -65t25 -40t45.5 -20
t59.5 -8t85.5 -1z" />
    <glyph glyph-name="uniFB68" unicode="&#x679;" horiz-adv-x="723" arabic-form="initial" 
d="M553 1342q71 0 103 -36t32 -112q0 -44 -18.5 -78.5t-59.5 -34.5h-248q-10 0 -18 6t-8 15v27q0 9 8 15t18 6h26v240q0 18 15 26t30.5 0t15.5 -26v-78q30 30 104 30zM588 1150q17 0 24 8.5t7 31.5q0 45 -14.5 61.5t-51.5 16.5q-94 0 -100 -118h135zM484 941q0 21 12.5 36
t30.5 18.5t36 0t30.5 -19t12.5 -39.5v-606q-13 -331 -318 -331h-332v118h332q86 0 137.5 59t58.5 154v610z" />
    <glyph glyph-name="uniFB69" unicode="&#x679;" horiz-adv-x="845" arabic-form="medial" 
d="M379 1081q-10 0 -18 6t-8 15v27q0 9 8 15t18 6h26v240q0 18 15.5 26t30.5 0t15 -26v-78q30 30 105 30q71 0 103 -36t32 -112q0 -44 -19 -78.5t-60 -34.5h-248zM571 1268q-94 0 -100 -118h135q17 0 23.5 8.5t6.5 31.5q0 45 -14 61.5t-51 16.5zM867 118l22 -57l-22 -61
h-118q-159 0 -213 100q-81 -100 -248 -100h-332v118h332q86 0 137.5 59t58.5 154v610q0 21 12.5 36t30.5 18.5t36 0t30.5 -19t12.5 -39.5v-593q0 -124 30 -175t113 -51h118z" />
    <glyph glyph-name="uniFB6B" unicode="&#x6a4;" horiz-adv-x="2056" arabic-form="final" 
d="M1503 1608q0 -41 -31.5 -58t-63 0t-31.5 58v70q0 39 31.5 56t63 1t31.5 -57v-70zM1403 1325q0 -41 -31.5 -58t-63 0t-31.5 58v69q0 39 31.5 56t63 1t31.5 -57v-69zM1473 1394q0 39 31.5 56t63 1t31.5 -57v-69q0 -41 -31.5 -58t-63 0t-31.5 58v69zM1869 118h240v-118
h-1394q-281 0 -454.5 184.5t-173.5 482.5v56q0 26 17.5 43.5t43.5 17.5t43.5 -17.5t17.5 -43.5v-39q0 -258 137.5 -412t368.5 -154h501q-92 86 -142 211t-50 233q0 224 114.5 371.5t295.5 147.5h4q103 0 186.5 -43.5t136 -116.5t80.5 -165.5t28 -193.5v-444zM1756 118
l-9 444q0 177 -80 291t-225 114h-4q-142 0 -217 -108t-75 -297q0 -93 32.5 -177t85 -141.5t118 -91.5t130.5 -34h244z" />
    <glyph glyph-name="uniFB6C" unicode="&#x6a4;" horiz-adv-x="1115" arabic-form="initial" 
d="M649 1599q0 -41 -31.5 -58t-63 0t-31.5 58v70q0 39 31.5 56t63 1t31.5 -57v-70zM549 1316q0 -41 -31.5 -58t-63 0t-31.5 58v70q0 39 31.5 56t63 1t31.5 -57v-70zM619 1386q0 39 31.5 56t63 1t31.5 -57v-70q0 -41 -31.5 -58t-63 0t-31.5 58v70zM580 1081
q103 0 186.5 -43.5t136 -116.5t80.5 -165.5t28 -193.5v-562h-1055v118h401q-92 86 -141.5 211t-49.5 233q0 224 114 371.5t295 147.5h5zM898 118l-9 444q0 177 -80 291t-225 114h-4q-142 0 -217 -108t-75 -297q0 -93 32.5 -177t85 -141.5t118 -91.5t130.5 -34h244z" />
    <glyph glyph-name="uniFB6D" unicode="&#x6a4;" horiz-adv-x="1193" arabic-form="medial" 
d="M649 1599q0 -41 -31.5 -58t-63 0t-31.5 58v70q0 39 31.5 56t63 1t31.5 -57v-70zM549 1316q0 -41 -31.5 -58t-63 0t-31.5 58v70q0 39 31.5 56t63 1t31.5 -57v-70zM619 1386q0 39 31.5 56t63 1t31.5 -57v-70q0 -41 -31.5 -58t-63 0t-31.5 58v70zM1011 118h240l-5 -118
h-1290v118h401q-92 86 -141.5 211t-49.5 233q0 224 114 371.5t295 147.5h5q103 0 186.5 -43.5t136 -116.5t80.5 -165.5t28 -193.5v-444zM898 118l-9 444q0 177 -80 291t-225 114h-4q-142 0 -217 -108t-75 -297q0 -93 32.5 -177t85 -141.5t118 -91.5t130.5 -34h244z" />
    <glyph glyph-name="uniFB7B" unicode="&#x686;" horiz-adv-x="1673" arabic-form="final" 
d="M1695 118l22 -57l-18 -61h-117q-93 0 -148 31v-31h-1020q-96 0 -152.5 -69.5t-56.5 -174.5q0 -115 81 -186t202 -71q26 0 41.5 -18t15.5 -47q-3 -20 -22.5 -36.5t-38.5 -16.5q-166 0 -281.5 107t-115.5 268q0 137 81.5 240.5t206.5 116.5q11 5 26 5h906v283
q0 258 -131.5 408t-378.5 150q-117 0 -209 -40t-178 -126q-24 -24 -53 -15.5t-36.5 34.5t10.5 51q64 89 194.5 153.5t284.5 64.5q288 0 456 -181t168 -482v-74q0 -125 31 -175.5t117 -50.5h113zM915 -283q0 -39 -31.5 -54t-63 1t-31.5 53v69q0 41 31.5 58t63 0t31.5 -58v-69
zM985 -214q0 41 31.5 58t63 0t31.5 -58v-69q0 -39 -31.5 -54t-63 1t-31.5 53v69zM889 -497q0 41 31.5 58t63 0t31.5 -58v-69q0 -41 -31.5 -57t-63 1t-31.5 56v69z" />
    <glyph glyph-name="uniFB7C" unicode="&#x686;" horiz-adv-x="1324" arabic-form="initial" 
d="M610 1081q196 0 339.5 -85t216 -234t72.5 -344v-418h-1247l-13 61l13 57h1120v283q0 260 -132 409t-382 149q-110 0 -208 -43.5t-171 -122.5q-29 -27 -64.5 -15t-35.5 50q0 6 13 35q93 107 209 162.5t270 55.5zM645 -279q0 -39 -31.5 -54t-63 1t-31.5 53v70q0 41 31.5 58
t63 0t31.5 -58v-70zM715 -209q0 41 31.5 58t63 0t31.5 -58v-70q0 -39 -31.5 -54t-63 1t-31.5 53v70zM619 -492q0 41 31.5 58t63 0t31.5 -58v-70q0 -41 -31.5 -57t-63 1t-31.5 56v70z" />
    <glyph glyph-name="uniFB7D" unicode="&#x686;" horiz-adv-x="1346" arabic-form="medial" 
d="M1233 118h135v-118h-1381l-9 61l9 57h1120v283q0 260 -132 409t-382 149q-110 0 -208 -43.5t-171 -122.5q-29 -27 -65 -15t-36 50q0 6 13 35q191 218 480 218q148 0 267 -49t197.5 -137t120.5 -209.5t42 -267.5v-300zM632 -379q0 -39 -32 -54t-63.5 1t-31.5 53v70
q0 41 31.5 58t63.5 0t32 -58v-70zM702 -309q0 41 31.5 58t63 0t31.5 -58v-70q0 -39 -31.5 -54t-63 1t-31.5 53v70zM606 -593q0 41 31.5 58t63 0t31.5 -58v-69q0 -41 -31.5 -57t-63 1t-31.5 56v69z" />
    <glyph glyph-name="uniFB89" unicode="&#x688;" horiz-adv-x="1146" arabic-form="final" 
d="M214 1172q-10 0 -18.5 6.5t-8.5 15.5v26q0 9 8.5 15.5t18.5 6.5h26v240q0 18 15 26t30.5 0t15.5 -26v-79q31 31 104 31q71 0 103 -36.5t32 -112.5q0 -44 -18.5 -78.5t-59.5 -34.5h-248zM405 1360q-94 0 -100 -118h135q17 0 24 8t7 31q0 45 -14.5 62t-51.5 17zM880 118
h310l-5 -118h-1037q-37 0 -53 29.5t-1 59t54 29.5h606v296q0 231 -115 376.5t-330 168.5q-26 3 -41 20.5t-15 44.5q0 26 20 43t49 14q174 -11 302 -104t192 -238.5t64 -324.5v-296z" />
    <glyph glyph-name="uniFB8B" unicode="&#x698;" horiz-adv-x="666" arabic-form="final" 
d="M410 1573q0 -41 -32 -58t-63.5 0t-31.5 58v70q0 39 31.5 56t63.5 1t32 -57v-70zM309 1290q0 -41 -31.5 -58t-63 0t-31.5 58v70q0 39 31.5 56t63 1t31.5 -57v-70zM379 1360q0 39 31.5 56t63 1t31.5 -57v-70q0 -41 -31.5 -58t-63 0t-31.5 58v70zM675 118l22 -57l-22 -61
h-117q-98 0 -157 39v-48q0 -177 -86.5 -271.5t-236.5 -94.5q-43 0 -61 29.5t0 59t61 29.5q92 0 144.5 66.5t52.5 173.5v958q0 39 31.5 56t63 1t31.5 -57v-592q0 -123 37.5 -177t119.5 -54h117z" />
    <glyph glyph-name="uniFB8D" unicode="&#x691;" horiz-adv-x="666" arabic-form="final" 
d="M192 1142q-10 0 -18 6t-8 15v27q0 9 8 15t18 6h26v240q0 18 15 26t30.5 0t15.5 -26v-78q30 30 104 30q71 0 103.5 -36t32.5 -112q0 -44 -19 -78.5t-60 -34.5h-248zM383 1329q-94 0 -100 -118h135q17 0 24 8.5t7 31.5q0 45 -14.5 61.5t-51.5 16.5zM675 118l22 -57l-22 -61
h-117q-98 0 -157 39v-48q0 -177 -86.5 -271.5t-236.5 -94.5q-43 0 -61 29.5t0 59t61 29.5q92 0 144.5 66.5t52.5 173.5v958q0 39 31.5 56t63 1t31.5 -57v-592q0 -123 37.5 -177t119.5 -54h117z" />
    <glyph glyph-name="uniFB8F" unicode="&#x6a9;" horiz-adv-x="2130" arabic-form="final" 
d="M2153 118l21 -57l-21 -61h-114q-114 0 -174 48q-34 -48 -100 -48h-1072q-117 4 -216.5 41t-168.5 100.5t-107.5 145.5t-38 181.5t42.5 202.5q33 75 82 75q34 1 48 -32q10 -22 1 -47q-57 -118 -50 -218.5t60 -174t149.5 -115t219.5 -41.5h1024q21 0 21 21v214
q0 294 -127.5 452t-373.5 158h-462q-36 0 -61.5 28t-25.5 64q0 41 26 61l401 322q12 17 40 17q39 0 55.5 -37t-12.5 -63l-344 -274h383q162 0 285 -54.5t198 -153.5t112 -229.5t37 -290.5v-9q0 -125 31 -175.5t117 -50.5h114z" />
    <glyph glyph-name="uniFB90" unicode="&#x6a9;" horiz-adv-x="1403" arabic-form="initial" 
d="M-13 0l-22 57l22 61h1185q7 0 12.5 6t5.5 15v223q0 286 -125 443.5t-359 157.5h-475q-36 0 -64 28t-28 64q0 34 27 61l400 322q17 17 44 17q40 0 53.5 -36t-18.5 -59l-340 -279h370q168 0 293.5 -54.5t201.5 -154.5t113 -232t37 -296v-218q0 -52 -36.5 -89t-85.5 -37
h-1211z" />
    <glyph glyph-name="uniFB91" unicode="&#x6a9;" horiz-adv-x="1551" arabic-form="medial" 
d="M1586 118l18 -57l-18 -61h-118q-114 0 -174 48q-34 -48 -96 -48h-1211l-22 57l22 61h1185q7 0 12.5 6t5.5 15v223q0 286 -125 443.5t-359 157.5h-475q-36 0 -64 28t-28 64q0 34 27 61l400 322q17 17 44 17q40 0 53.5 -36t-18.5 -59l-340 -279h370q168 0 293.5 -54.5
t201.5 -154.5t113 -232t37 -296q0 -125 31 -175.5t117 -50.5h118z" />
    <glyph glyph-name="uniFB93" unicode="&#x6af;" horiz-adv-x="2130" arabic-form="final" 
d="M680 1172q-23 -21 -47 -10.5t-27.5 35.5t17.5 49l449 366q21 12 43.5 -1t26 -35.5t-17.5 -41.5zM2153 118l21 -57l-21 -61h-114q-114 0 -174 48q-34 -48 -100 -48h-1072q-117 4 -216.5 41t-168.5 100.5t-107.5 145.5t-38 181.5t42.5 202.5q33 75 82 75q34 1 48 -32
q10 -22 1 -47q-57 -118 -50 -218.5t60 -174t149.5 -115t219.5 -41.5h1024q21 0 21 21v214q0 294 -127.5 452t-373.5 158h-462q-36 0 -61.5 28t-25.5 64q0 41 26 61l401 322q12 17 40 17q39 0 55.5 -37t-12.5 -63l-344 -274h383q162 0 285 -54.5t198 -153.5t112 -229.5
t37 -290.5v-9q0 -125 31 -175.5t117 -50.5h114z" />
    <glyph glyph-name="uniFB94" unicode="&#x6af;" horiz-adv-x="1403" arabic-form="initial" 
d="M113 1172q-23 -21 -46.5 -10.5t-27 35.5t17.5 49l448 366q21 12 44 -1t26.5 -35.5t-17.5 -41.5zM-13 0l-22 57l22 61h1185q7 0 12.5 6t5.5 15v223q0 286 -125 443.5t-359 157.5h-475q-36 0 -64 28t-28 64q0 34 27 61l400 322q17 17 44 17q40 0 53.5 -36t-18.5 -59
l-340 -279h370q168 0 293.5 -54.5t201.5 -154.5t113 -232t37 -296v-218q0 -52 -36.5 -89t-85.5 -37h-1211z" />
    <glyph glyph-name="uniFB95" unicode="&#x6af;" horiz-adv-x="1551" arabic-form="medial" 
d="M122 1185q-29 -27 -56 -4q-24 20 -15 51q5 15 19 27l431 353q21 12 43.5 -1t26 -35.5t-17.5 -41.5zM1586 118l18 -57l-18 -61h-118q-114 0 -174 48q-34 -48 -96 -48h-1211l-22 57l22 61h1185q7 0 12.5 6t5.5 15v223q0 286 -125 443.5t-359 157.5h-475q-36 0 -64 28
t-28 64q0 34 27 61l400 322q17 17 44 17q40 0 53.5 -36t-18.5 -59l-340 -279h370q168 0 293.5 -54.5t201.5 -154.5t113 -232t37 -296q0 -125 31 -175.5t117 -50.5h118z" />
    <glyph glyph-name="uniFB9F" unicode="&#x6ba;" horiz-adv-x="1551" arabic-form="final" 
d="M1573 118l22 -57l-22 -61h-118q-126 0 -187 61q-69 -211 -239 -325t-362 -111q-104 1 -199 28.5t-175.5 83.5t-136.5 135t-82 190.5t-13 242.5l57 471q3 22 17 37.5t32.5 18.5t36 -1.5t28.5 -21.5t8 -42l-57 -462q-28 -250 111.5 -398t376.5 -155q133 3 232.5 45.5
t160.5 118.5t91 176.5t30 225.5v623q0 21 12.5 36t30.5 18.5t36 0t30.5 -19t12.5 -39.5v-593q0 -125 31 -175.5t117 -50.5h118z" />
    <glyph glyph-name="uniFBA7" unicode="&#x6c1;" horiz-adv-x="1311" arabic-form="final" 
d="M1050 536q0 178 -121 302.5t-302 124.5q-122 0 -219 -60.5t-148 -157.5t-51 -209v-4v-532h-122v527v5q0 147 70 272.5t197 201t282 75.5q111 0 210.5 -42.5t171 -115t113 -173.5t41.5 -214v-418h148l35 -61l-35 -57h-270v536z" />
    <glyph glyph-name="uniFBA8" unicode="&#x6c1;" horiz-adv-x="723" arabic-form="initial" 
d="M-44 118h332q86 0 137.5 59t58.5 154v610q0 21 12.5 36t30.5 18.5t36 0t30.5 -19t12.5 -39.5v-606q-13 -331 -318 -331h-332v118zM296 -488q-13 0 -21 7t-5 19l74 323q0 13 22 13h39q9 0 15.5 -8.5t6.5 -18.5l-57 -318q0 -17 -21 -17h-53z" />
    <glyph glyph-name="uniFBA9" unicode="&#x6c1;" horiz-adv-x="919" arabic-form="medial" 
d="M941 118l22 -57l-22 -61h-174v-549h-235q-206 0 -306 82t-100 262v205h-143l-27 61l27 57h265v-327q0 -119 67.5 -170.5t216.5 -51.5h113v549h296z" />
    <glyph glyph-name="uniFBAB" unicode="&#x6be;" horiz-adv-x="1878" arabic-form="final" 
d="M1909 118l21 -57l-17 -61h-118q-93 0 -148 31v-31h-1673l-18 61l18 57h327q-196 153 -196 444q0 122 42.5 221.5t113.5 163.5t159.5 100.5t185.5 41.5q163 149 405 149q154 0 275.5 -50.5t200 -141t119.5 -213.5t41 -271v-218q0 -125 31 -175.5t117 -50.5h114zM976 118
h545v444q0 258 -137 408t-373 150q-122 0 -218 -52q106 -27 189.5 -90.5t136.5 -171.5t53 -244q0 -291 -196 -444zM227 562q0 -184 118.5 -314t290.5 -130q183 0 298.5 127.5t115.5 316.5q0 164 -122 284.5t-292 120.5q-118 0 -213 -58.5t-145.5 -151t-50.5 -195.5z" />
    <glyph glyph-name="uniFBAC" unicode="&#x6be;" horiz-adv-x="1734" arabic-form="initial" 
d="M1011 1238q154 0 275.5 -50.5t200 -141t119.5 -213.5t41 -271v-562h-1673l-18 61l18 57h327q-196 153 -196 444q0 122 42.5 221.5t113.5 163.5t159.5 100.5t185.5 41.5q163 149 405 149zM976 118h545v444q0 258 -137 408t-373 150q-122 0 -218 -52q106 -27 189.5 -90.5
t136.5 -171.5t53 -244q0 -291 -196 -444zM227 562q0 -184 118.5 -314t290.5 -130q183 0 298.5 127.5t115.5 316.5q0 164 -122 284.5t-292 120.5q-118 0 -213 -58.5t-145.5 -151t-50.5 -195.5z" />
    <glyph glyph-name="uniFBAD" unicode="&#x6be;" horiz-adv-x="1878" arabic-form="medial" 
d="M1909 118l21 -57l-17 -61h-118q-93 0 -148 31v-31h-1673l-18 61l18 57h327q-196 153 -196 444q0 122 42.5 221.5t113.5 163.5t159.5 100.5t185.5 41.5q163 149 405 149q154 0 275.5 -50.5t200 -141t119.5 -213.5t41 -271v-218q0 -125 31 -175.5t117 -50.5h114zM976 118
h545v444q0 258 -137 408t-373 150q-122 0 -218 -52q106 -27 189.5 -90.5t136.5 -171.5t53 -244q0 -291 -196 -444zM227 562q0 -184 118.5 -314t290.5 -130q183 0 298.5 127.5t115.5 316.5q0 164 -122 284.5t-292 120.5q-118 0 -213 -58.5t-145.5 -151t-50.5 -195.5z" />
    <glyph glyph-name="uniFBAF" unicode="&#x6d2;" horiz-adv-x="1651" arabic-form="final" 
d="M684 -462q-99 0 -178 15.5t-150 55.5t-118.5 103.5t-75 165t-27.5 235.5l1573 5v-118h-1433q0 -174 112 -259t297 -85h475q17 0 30.5 -14.5t13.5 -33.5v-18q0 -22 -13.5 -37t-30.5 -15h-475z" />
    <glyph glyph-name="uniFBB1" unicode="&#x6d3;" horiz-adv-x="1651" arabic-form="final" 
d="M126 314q-22 0 -34 13t-12 28.5t12 28.5t34 13h70q-33 58 -38.5 114t13 98t54.5 72t79.5 40.5t94 -1.5t93.5 -49q19 -17 16 -39.5t-20 -29t-39 7.5q-44 34 -94 35t-84 -27t-36 -73q-3 -73 23 -110.5t73 -37.5h135q18 0 28.5 -13t10.5 -28.5t-10.5 -28.5t-28.5 -13h-340z
M684 -462q-99 0 -178 15.5t-150 55.5t-118.5 103.5t-75 165t-27.5 235.5l1573 5v-118h-1433q0 -174 112 -259t297 -85h475q17 0 30.5 -14.5t13.5 -33.5v-18q0 -22 -13.5 -37t-30.5 -15h-475z" />
    <glyph glyph-name="uniFBFD" unicode="&#x6cc;" horiz-adv-x="1629" arabic-form="final" 
d="M1673 118v-118h-231q-15 -125 -71.5 -235t-147 -194t-221 -132.5t-283.5 -48.5q-214 0 -372.5 105t-219 292.5t11.5 447.5q10 37 43.5 52t60.5 0t23 -52q-59 -183 -44 -320t89 -229t179.5 -137.5t228.5 -45.5q86 -1 167.5 17.5t155.5 59t132 99t98 141t53 180.5h-22
q-227 0 -248 135q-6 39 20.5 59.5t58.5 9t38 -50.5q1 -6 4.5 -11.5t11 -9t14.5 -6t18 -4t18.5 -2.5t20 -1.5t17.5 -0.5h16h11h370z" />
    <glyph glyph-name="uniFBFE" unicode="&#x6cc;" horiz-adv-x="723" arabic-form="initial" 
d="M-44 118h332q86 0 137.5 59t58.5 154v610q0 21 12.5 36t30.5 18.5t36 0t30.5 -19t12.5 -39.5v-606q-13 -331 -318 -331h-332v118zM122 -266v70q0 37 31.5 53t63 1t31.5 -54v-70q0 -41 -31.5 -58t-63 0t-31.5 58zM318 -266v70q0 37 31.5 53t63 1t31.5 -54v-70
q0 -41 -31.5 -58t-63 0t-31.5 58z" />
    <glyph glyph-name="uniFBFF" unicode="&#x6cc;" horiz-adv-x="845" arabic-form="medial" 
d="M867 118l22 -57l-22 -61h-118q-159 0 -213 100q-81 -100 -248 -100h-332v118h332q86 0 137.5 59t58.5 154v610q0 21 12.5 36t30.5 18.5t36 0t30.5 -19t12.5 -39.5v-593q0 -124 30 -175t113 -51h118zM153 -205q0 37 31.5 53t63 1t31.5 -54v-70q0 -41 -31.5 -58t-63 0
t-31.5 58v70zM349 -205q0 37 31.5 53t63 1t31.5 -54v-70q0 -41 -31.5 -58t-63 0t-31.5 58v70z" />
    <glyph glyph-name="uniFE82" unicode="&#x622;" horiz-adv-x="440" arabic-form="final" 
d="M26 1691q-18 -21 -41 -15t-29.5 26.5t5.5 40.5q53 45 95.5 45t96.5 -28q39 -19 74 -12t48 34q27 36 61 25q27 -8 25 -34q0 -8 -4 -17q-57 -91 -187 -74q-18 3 -41 12.5t-36.5 15.5t-31.5 2.5t-35 -21.5zM414 0q-143 0 -229 83.5t-89 234.5v1124q0 43 31.5 61t63 0
t31.5 -61v-1115q0 -124 56.5 -166.5t183.5 -42.5v-118h-48z" />
    <glyph glyph-name="uniFE84" unicode="&#x623;" horiz-adv-x="440" arabic-form="final" 
d="M52 1699q-29 0 -41 20.5t-1 41.5t38 21h70q-33 56 -38 112t14 98t55 72t80.5 40.5t95 -2t93.5 -50.5q17 -15 13 -36t-21 -28t-40 8q-42 34 -92 35t-84.5 -27.5t-36.5 -73.5q0 -73 26 -110.5t70 -37.5h135q18 0 28.5 -13t10.5 -28.5t-10.5 -28.5t-28.5 -13h-336zM414 0
q-143 0 -229 83.5t-89 234.5v1124q0 43 31.5 61t63 0t31.5 -61v-1115q0 -124 56.5 -166.5t183.5 -42.5v-118h-48z" />
    <glyph glyph-name="uniFE86" unicode="&#x624;" horiz-adv-x="1193" arabic-form="final" 
d="M410 1224q-22 0 -34 13t-12 28.5t12 28.5t34 13h69q-33 58 -38 114t13.5 98t54 72.5t79.5 41t94.5 -1.5t93.5 -49q19 -17 16 -39.5t-20.5 -29t-39.5 7.5q-44 34 -94 35t-83.5 -27.5t-35.5 -73.5q-3 -73 22.5 -110.5t72.5 -37.5h135q18 0 28.5 -13t10.5 -28.5t-10.5 -28.5
t-28.5 -13h-339zM1272 61l-34 -61h-183v-9q0 -176 -86 -271t-233 -95q-34 0 -53.5 18.5t-19.5 40.5t19.5 40.5t53.5 18.5q90 0 141 66.5t51 173.5v17h-244q-601 0 -601 536q0 152 60 276t171 196.5t252 72.5q238 0 363.5 -138.5t125.5 -384.5v-440h183zM205 536
q0 -203 119 -310.5t360 -107.5h244v440q0 212 -87.5 304t-274.5 92q-163 0 -262 -119t-99 -299z" />
    <glyph glyph-name="uniFE88" unicode="&#x625;" horiz-adv-x="440" arabic-form="final" 
d="M414 0q-143 0 -229 83.5t-89 234.5v1124q0 43 31.5 61t63 0t31.5 -61v-1115q0 -124 56.5 -166.5t183.5 -42.5v-118h-48zM35 -575q-22 0 -34 13t-12 28.5t12 28.5t34 13h70q-33 58 -38.5 114t13 98t54.5 72t79.5 40.5t94 -1.5t93.5 -49q19 -17 16 -39.5t-20.5 -29
t-39.5 7.5q-44 34 -94 35t-83.5 -27t-35.5 -73q-3 -72 24 -110t72 -38h135q18 0 28.5 -13t10.5 -28.5t-10.5 -28.5t-28.5 -13h-340z" />
    <glyph glyph-name="uniFE8A" unicode="&#x626;" horiz-adv-x="1629" arabic-form="final" 
d="M357 558q18 0 28.5 -13t10.5 -28.5t-10.5 -28.5t-28.5 -13h-340q-22 0 -34 13t-12 28.5t12 28.5t34 13h70q-33 58 -38.5 114t13 98t54.5 72t79.5 40.5t94 -1.5t93.5 -49q19 -17 16 -39.5t-20 -29t-39 7.5q-44 34 -94 35t-84 -27t-36 -73q-3 -73 23 -110.5t73 -37.5h135z
M1673 118v-118h-231q-15 -125 -71.5 -235t-147 -194t-221 -132.5t-283.5 -48.5q-214 0 -372.5 105t-219 292.5t11.5 447.5q10 37 43.5 52t60.5 0t23 -52q-59 -183 -44 -320t89 -229t179.5 -137.5t228.5 -45.5q86 -1 167.5 17.5t155.5 59t132 99t98 141t53 180.5h-22
q-227 0 -248 135q-6 39 20.5 59.5t58.5 9t38 -50.5q1 -6 4.5 -11.5t11 -9t14.5 -6t18 -4t18.5 -2.5t20 -1.5t17.5 -0.5h16h11h370z" />
    <glyph glyph-name="uniFE8B" unicode="&#x626;" horiz-adv-x="723" arabic-form="initial" 
d="M344 1155q-22 0 -34 13t-12 28.5t12 28.5t34 13h70q-33 58 -38.5 114t13 98t54.5 72t79.5 40.5t94 -1.5t93.5 -49q19 -17 16 -39.5t-20 -29t-39 7.5q-44 34 -94 35t-84 -27t-36 -73q-3 -73 23 -110.5t73 -37.5h135q18 0 28.5 -13t10.5 -28.5t-10.5 -28.5t-28.5 -13h-340z
M-44 118h332q86 0 137.5 59t58.5 154v610q0 21 12.5 36t30.5 18.5t36 0t30.5 -19t12.5 -39.5v-606q-13 -331 -318 -331h-332v118z" />
    <glyph glyph-name="uniFE8C" unicode="&#x626;" horiz-adv-x="845" arabic-form="medial" 
d="M366 1155q-22 0 -34 13t-12 28.5t12 28.5t34 13h70q-33 58 -38.5 114t13 98t54.5 72t79.5 40.5t94 -1.5t93.5 -49q19 -17 16 -39.5t-20.5 -29t-39.5 7.5q-44 34 -94 35t-83.5 -27t-35.5 -73q-3 -73 23 -110.5t73 -37.5h135q18 0 28.5 -13t10.5 -28.5t-10.5 -28.5
t-28.5 -13h-340zM867 118l22 -57l-22 -61h-118q-159 0 -213 100q-81 -100 -248 -100h-332v118h332q86 0 137.5 59t58.5 154v610q0 21 12.5 36t30.5 18.5t36 0t30.5 -19t12.5 -39.5v-593q0 -124 30 -175t113 -51h118z" />
    <glyph glyph-name="uniFE8E" unicode="&#x627;" horiz-adv-x="440" arabic-form="final" 
d="M414 0q-143 0 -229 83.5t-89 234.5v1124q0 43 31.5 61t63 0t31.5 -61v-1115q0 -124 56.5 -166.5t183.5 -42.5v-118h-48z" />
    <glyph glyph-name="uniFE90" unicode="&#x628;" horiz-adv-x="1647" arabic-form="final" 
d="M1669 118l22 -61l-22 -57h-96q-155 0 -209 100q-80 -100 -244 -100h-715q-151 0 -231 87t-87 244v479q0 37 30.5 52t61 0t30.5 -52v-479q3 -93 56 -153t140 -60h715q83 0 134 59.5t58 153.5v610q0 21 12.5 36t30.5 18.5t36 0t30.5 -19t12.5 -39.5v-588q0 -59 3 -97
t16.5 -65t25 -40t45.5 -20t59.5 -8t85.5 -1zM736 -209q0 37 32 53t63.5 1t31.5 -54v-70q0 -41 -31.5 -58t-63.5 0t-32 58v70z" />
    <glyph glyph-name="uniFE91" unicode="&#x628;" horiz-adv-x="723" arabic-form="initial" 
d="M-44 118h332q86 0 137.5 59t58.5 154v610q0 21 12.5 36t30.5 18.5t36 0t30.5 -19t12.5 -39.5v-606q-13 -331 -318 -331h-332v118zM218 -275v70q0 37 31.5 53t63 1t31.5 -54v-70q0 -41 -31.5 -58t-63 0t-31.5 58z" />
    <glyph glyph-name="uniFE92" unicode="&#x628;" horiz-adv-x="845" arabic-form="medial" 
d="M867 118l22 -57l-22 -61h-118q-159 0 -213 100q-81 -100 -248 -100h-332v118h332q86 0 137.5 59t58.5 154v610q0 21 12.5 36t30.5 18.5t36 0t30.5 -19t12.5 -39.5v-593q0 -124 30 -175t113 -51h118zM253 -214q0 37 31.5 53t63 1t31.5 -54v-69q0 -41 -31.5 -58t-63 0
t-31.5 58v69z" />
    <glyph glyph-name="uniFE94" unicode="&#x629;" horiz-adv-x="1315" arabic-form="final" 
d="M458 1299v69q0 37 31.5 53t63 1t31.5 -54v-69q0 -41 -31.5 -58t-63 0t-31.5 58zM654 1299v69q0 37 31.5 53t63 1t31.5 -54v-69q0 -41 -31.5 -58t-63 0t-31.5 58zM87 527v5q0 147 70 272.5t197 201t282 75.5q111 0 210.5 -42.5t171 -115t113 -173.5t41.5 -214v-418h148
l35 -61l-35 -57h-771q-94 0 -180.5 44.5t-147.5 117.5t-97.5 169t-36.5 196zM209 532q0 -80 29.5 -158t75 -133t101.5 -89t108 -34h527v418q0 178 -121 302.5t-302 124.5q-122 0 -219 -60.5t-148 -157.5t-51 -209v-4z" />
    <glyph glyph-name="uniFE96" unicode="&#x62a;" horiz-adv-x="1647" arabic-form="final" 
d="M736 1233q0 -41 -31.5 -58t-63 0t-31.5 58v70q0 37 31.5 53t63 1t31.5 -54v-70zM932 1233q0 -41 -31.5 -58t-63 0t-31.5 58v70q0 37 31.5 53t63 1t31.5 -54v-70zM1669 118l22 -61l-22 -57h-96q-155 0 -209 100q-80 -100 -244 -100h-715q-151 0 -231 87t-87 244v479
q0 37 30.5 52t61 0t30.5 -52v-479q3 -93 56 -153t140 -60h715q83 0 134 59.5t58 153.5v610q0 21 12.5 36t30.5 18.5t36 0t30.5 -19t12.5 -39.5v-588q0 -59 3 -97t16.5 -65t25 -40t45.5 -20t59.5 -8t85.5 -1z" />
    <glyph glyph-name="uniFE97" unicode="&#x62a;" horiz-adv-x="723" arabic-form="initial" 
d="M353 1233v70q0 37 31.5 53t63 1t31.5 -54v-70q0 -41 -31.5 -58t-63 0t-31.5 58zM549 1233v70q0 37 31.5 53t63 1t31.5 -54v-70q0 -41 -31.5 -58t-63 0t-31.5 58zM-44 118h332q86 0 137.5 59t58.5 154v610q0 21 12.5 36t30.5 18.5t36 0t30.5 -19t12.5 -39.5v-606
q-13 -331 -318 -331h-332v118z" />
    <glyph glyph-name="uniFE98" unicode="&#x62a;" horiz-adv-x="845" arabic-form="medial" 
d="M497 1233q0 -41 -31.5 -58t-63.5 0t-32 58v70q0 37 32 53t63.5 1t31.5 -54v-70zM693 1233q0 -41 -31.5 -58t-63.5 0t-32 58v70q0 37 32 53t63.5 1t31.5 -54v-70zM867 118l22 -57l-22 -61h-118q-159 0 -213 100q-81 -100 -248 -100h-332v118h332q86 0 137.5 59t58.5 154
v610q0 21 12.5 36t30.5 18.5t36 0t30.5 -19t12.5 -39.5v-593q0 -124 30 -175t113 -51h118z" />
    <glyph glyph-name="uniFE9A" unicode="&#x62b;" horiz-adv-x="1647" arabic-form="final" 
d="M837 1516q0 -41 -31.5 -58t-63.5 0t-32 58v70q0 39 32 56t63.5 1t31.5 -57v-70zM736 1233q0 -41 -31.5 -58t-63 0t-31.5 58v70q0 39 31.5 56t63 1t31.5 -57v-70zM806 1303q0 39 31.5 56t63 1t31.5 -57v-70q0 -41 -31.5 -58t-63 0t-31.5 58v70zM1669 118l22 -61l-22 -57
h-96q-155 0 -209 100q-80 -100 -244 -100h-715q-151 0 -231 87t-87 244v479q0 37 30.5 52t61 0t30.5 -52v-479q3 -93 56 -153t140 -60h715q83 0 134 59.5t58 153.5v610q0 21 12.5 36t30.5 18.5t36 0t30.5 -19t12.5 -39.5v-588q0 -59 3 -97t16.5 -65t25 -40t45.5 -20t59.5 -8
t85.5 -1z" />
    <glyph glyph-name="uniFE9B" unicode="&#x62b;" horiz-adv-x="723" arabic-form="initial" 
d="M453 1516v70q0 39 31.5 56t63.5 1t32 -57v-70q0 -41 -32 -58t-63.5 0t-31.5 58zM353 1233v70q0 39 31.5 56t63 1t31.5 -57v-70q0 -41 -31.5 -58t-63 0t-31.5 58zM549 1233v70q0 39 31.5 56t63 1t31.5 -57v-70q0 -41 -31.5 -58t-63 0t-31.5 58zM-44 118h332q86 0 137.5 59
t58.5 154v610q0 21 12.5 36t30.5 18.5t36 0t30.5 -19t12.5 -39.5v-606q-13 -331 -318 -331h-332v118z" />
    <glyph glyph-name="uniFE9C" unicode="&#x62b;" horiz-adv-x="845" arabic-form="medial" 
d="M597 1516q0 -41 -31.5 -58t-63 0t-31.5 58v70q0 39 31.5 56t63 1t31.5 -57v-70zM497 1233q0 -41 -31.5 -58t-63.5 0t-32 58v70q0 39 32 56t63.5 1t31.5 -57v-70zM566 1303q0 39 32 56t63.5 1t31.5 -57v-70q0 -41 -31.5 -58t-63.5 0t-32 58v70zM867 118l22 -57l-22 -61
h-118q-159 0 -213 100q-81 -100 -248 -100h-332v118h332q86 0 137.5 59t58.5 154v610q0 21 12.5 36t30.5 18.5t36 0t30.5 -19t12.5 -39.5v-593q0 -124 30 -175t113 -51h118z" />
    <glyph glyph-name="uniFE9E" unicode="&#x62c;" horiz-adv-x="1668" arabic-form="final" 
d="M1695 118l17 -57l-17 -61h-118q-94 0 -143 31v-31h-1020q-96 0 -152.5 -69.5t-56.5 -174.5q0 -115 81 -186t202 -71q26 0 41.5 -18t15.5 -47q-3 -20 -22.5 -36.5t-38.5 -16.5q-166 0 -281.5 107t-115.5 268q0 137 81.5 240.5t206.5 116.5q11 5 26 5h906v283
q0 258 -131.5 408t-378.5 150q-117 0 -209 -40t-178 -126q-24 -24 -53 -15.5t-36.5 34.5t10.5 51q64 89 194.5 153.5t284.5 64.5q288 0 456 -181t168 -482v-161q10 -75 42 -107t101 -32h118zM797 -231q0 39 31.5 56t63.5 1t32 -57v-70q0 -39 -32 -55t-63.5 0t-31.5 55v70z
" />
    <glyph glyph-name="uniFE9F" unicode="&#x62c;" horiz-adv-x="1324" arabic-form="initial" 
d="M610 1081q196 0 339.5 -85t216 -234t72.5 -344v-418h-1247l-13 61l13 57h1120v283q0 260 -132 409t-382 149q-110 0 -208 -43.5t-171 -122.5q-29 -27 -64.5 -15t-35.5 50q0 6 13 35q93 107 209 162.5t270 55.5zM619 -205q0 37 31.5 53t63 1t31.5 -54v-70q0 -41 -31.5 -58
t-63 0t-31.5 58v70z" />
    <glyph glyph-name="uniFEA0" unicode="&#x62c;" horiz-adv-x="1424" arabic-form="medial" 
d="M1238 118h300v-118h-1547l-13 61l13 57h1120v283q0 260 -132 409t-382 149q-110 0 -208 -43.5t-171 -122.5q-29 -27 -64.5 -15t-35.5 50q0 6 13 35q93 107 209 162.5t270 55.5q196 0 339.5 -85t216 -234t72.5 -344v-300zM614 -209q0 39 33 56t65.5 1t32.5 -57v-70
q0 -39 -32.5 -55t-65.5 0t-33 55v70z" />
    <glyph glyph-name="uniFEA2" unicode="&#x62d;" horiz-adv-x="1603" arabic-form="final" 
d="M1434 118h213v-118h-1233q-96 0 -152.5 -69.5t-56.5 -174.5q0 -115 81 -186t202 -71q26 0 41.5 -18t15.5 -47q-3 -20 -22.5 -36.5t-38.5 -16.5q-166 0 -281.5 107t-115.5 268q0 137 81.5 240.5t206.5 116.5q11 5 26 5h906v283q0 258 -131.5 408t-378.5 150
q-117 0 -209 -40t-178 -126q-24 -24 -53 -15.5t-36.5 34.5t10.5 51q64 89 194.5 153.5t284.5 64.5q288 0 456 -181t168 -482v-300z" />
    <glyph glyph-name="uniFEA3" unicode="&#x62d;" horiz-adv-x="1324" arabic-form="initial" 
d="M610 1081q196 0 339.5 -85t216 -234t72.5 -344v-418h-1247l-13 61l13 57h1120v283q0 260 -132 409t-382 149q-110 0 -208 -43.5t-171 -122.5q-29 -27 -64.5 -15t-35.5 50q0 6 13 35q93 107 209 162.5t270 55.5z" />
    <glyph glyph-name="uniFEA4" unicode="&#x62d;" horiz-adv-x="1346" arabic-form="medial" 
d="M1233 118h135v-118h-1381l-9 61l9 57h1120v283q0 260 -132 409t-382 149q-110 0 -208 -43.5t-171 -122.5q-29 -27 -65 -15t-36 50q0 6 13 35q191 218 480 218q148 0 267 -49t197.5 -137t120.5 -209.5t42 -267.5v-300z" />
    <glyph glyph-name="uniFEA6" unicode="&#x62e;" horiz-adv-x="1603" arabic-form="final" 
d="M876 1272q0 -41 -32 -58t-63.5 0t-31.5 58v70q0 37 31.5 53t63.5 1t32 -54v-70zM1434 118h213v-118h-1233q-96 0 -152.5 -69.5t-56.5 -174.5q0 -115 81 -186t202 -71q26 0 41.5 -18t15.5 -47q-3 -20 -22.5 -36.5t-38.5 -16.5q-166 0 -281.5 107t-115.5 268
q0 137 81.5 240.5t206.5 116.5q11 5 26 5h906v283q0 258 -131.5 408t-378.5 150q-117 0 -209 -40t-178 -126q-24 -24 -53 -15.5t-36.5 34.5t10.5 51q64 89 194.5 153.5t284.5 64.5q288 0 456 -181t168 -482v-300z" />
    <glyph glyph-name="uniFEA7" unicode="&#x62e;" horiz-adv-x="1324" arabic-form="initial" 
d="M667 1368q0 -41 -31.5 -58t-63.5 0t-32 58v70q0 37 32 53t63.5 1t31.5 -54v-70zM610 1081q196 0 339.5 -85t216 -234t72.5 -344v-418h-1247l-13 61l13 57h1120v283q0 260 -132 409t-382 149q-110 0 -208 -43.5t-171 -122.5q-29 -27 -64.5 -15t-35.5 50q0 6 13 35
q93 107 209 162.5t270 55.5z" />
    <glyph glyph-name="uniFEA8" unicode="&#x62e;" horiz-adv-x="1346" arabic-form="medial" 
d="M658 1364q0 -41 -31.5 -58t-63 0t-31.5 58v70q0 37 31.5 53t63 1t31.5 -54v-70zM1233 118h135v-118h-1381l-9 61l9 57h1120v283q0 260 -132 409t-382 149q-110 0 -208 -43.5t-171 -122.5q-29 -27 -65 -15t-36 50q0 6 13 35q191 218 480 218q148 0 267 -49t197.5 -137
t120.5 -209.5t42 -267.5v-300z" />
    <glyph glyph-name="uniFEAA" unicode="&#x62f;" horiz-adv-x="1146" arabic-form="final" 
d="M880 118h310l-5 -118h-1037q-37 0 -53 29.5t-1 59t54 29.5h606v296q0 231 -115 376.5t-330 168.5q-26 3 -41 20.5t-15 44.5q0 26 20 43t49 14q174 -11 302 -104t192 -238.5t64 -324.5v-296z" />
    <glyph glyph-name="uniFEAC" unicode="&#x630;" horiz-adv-x="1115" arabic-form="final" 
d="M431 1320q0 -41 -31.5 -58t-63 0t-31.5 58v70q0 39 31.5 56t63 1t31.5 -57v-70zM1233 118l-4 -118h-1081q-37 0 -53 29.5t-1 59t54 29.5h606v296q0 231 -115 376.5t-330 168.5q-26 3 -41 20.5t-15 44.5q0 26 20 43t49 14q174 -11 302 -104t192 -238.5t64 -324.5v-296h353
z" />
    <glyph glyph-name="uniFEAE" unicode="&#x631;" horiz-adv-x="666" arabic-form="final" 
d="M675 118l22 -57l-22 -61h-117q-98 0 -157 39v-48q0 -177 -86.5 -271.5t-236.5 -94.5q-43 0 -61 29.5t0 59t61 29.5q92 0 144.5 66.5t52.5 173.5v958q0 39 31.5 56t63 1t31.5 -57v-592q0 -123 37.5 -177t119.5 -54h117z" />
    <glyph glyph-name="uniFEB0" unicode="&#x632;" horiz-adv-x="666" arabic-form="final" 
d="M410 1290q0 -41 -32 -58t-63.5 0t-31.5 58v70q0 37 31.5 53t63.5 1t32 -54v-70zM675 118l22 -57l-22 -61h-117q-98 0 -157 39v-48q0 -177 -86.5 -271.5t-236.5 -94.5q-43 0 -61 29.5t0 59t61 29.5q92 0 144.5 66.5t52.5 173.5v958q0 39 31.5 56t63 1t31.5 -57v-592
q0 -123 37.5 -177t119.5 -54h117z" />
    <glyph glyph-name="uniFEB2" unicode="&#x633;" horiz-adv-x="2662" arabic-form="final" 
d="M2689 118l21 -57l-21 -61h-118q-97 0 -152.5 35.5t-82.5 108.5q-64 -80 -175.5 -113.5t-282.5 -30.5v144q-73 -77 -192.5 -110.5t-295.5 -33.5h-113q-54 -124 -151.5 -211.5t-208 -126.5t-224.5 -37q-104 1 -198.5 28.5t-174.5 83.5t-135.5 135t-82 190.5t-15.5 242.5
l79 623q4 39 36.5 55t61 -1t24.5 -58l-79 -619q-21 -167 36 -292.5t172 -190.5t271 -70q259 7 389 159t130 407v510q0 26 19.5 41t43.5 15t43.5 -15t19.5 -41v-510v-35v-165q115 0 196.5 8.5t144 30t100.5 53t62 84t33 116.5t9 156v449q0 35 29.5 49.5t59 0t29.5 -49.5v-449
v-26v-422q173 -3 254 113t81 383v458q0 33 29.5 46.5t59 0t29.5 -46.5v-458q0 -145 -22 -270q0 -124 30.5 -175t113.5 -51h118z" />
    <glyph glyph-name="uniFEB3" unicode="&#x633;" horiz-adv-x="1546" arabic-form="initial" 
d="M1338 1028q0 33 30.5 46.5t61 0t30.5 -46.5v-414q0 -145 -20 -248.5t-61.5 -175.5t-111 -114t-161.5 -59.5t-221 -16.5v148q-73 -80 -191 -114t-297 -34h-183v39q-66 -39 -162 -39h-96l-26 61l26 57h96q78 0 118.5 45t43.5 146v519q0 26 20.5 41t44.5 15t44.5 -15
t20.5 -41v-706q108 0 183.5 7t135.5 25.5t97 45.5t63.5 73t40 102.5t21.5 138.5v458q0 35 30.5 49.5t61 0t30.5 -49.5v-850q174 0 252.5 112.5t78.5 379.5v414z" />
    <glyph glyph-name="uniFEB4" unicode="&#x633;" horiz-adv-x="1620" arabic-form="medial" 
d="M1630 118l21 -57l-21 -61h-31q-206 0 -257 166q-64 -92 -177 -130.5t-294 -35.5v153q-135 -153 -492 -153h-179v39q-66 -39 -161 -39h-65l-22 61l22 57h65q81 0 121 52.5t40 173.5v484q0 26 20 41t43.5 15t43.5 -15t20 -41v-706q113 0 191.5 7.5t139.5 28.5t98 51.5
t62 83.5t36 116t17 157v406q0 35 29.5 49.5t59 0t29.5 -49.5v-850q174 0 255 113t81 379v414q0 33 29.5 46.5t58.5 0t29 -46.5v-684q0 -123 37 -174.5t120 -51.5h31z" />
    <glyph glyph-name="uniFEB6" unicode="&#x634;" horiz-adv-x="2662" arabic-form="final" 
d="M2000 1595q0 -41 -31.5 -58t-63 0t-31.5 58v70q0 39 31.5 56t63 1t31.5 -57v-70zM1900 1312q0 -41 -32 -58t-63.5 0t-31.5 58v69q0 39 31.5 56t63.5 1t32 -57v-69zM1970 1381q0 39 31.5 56t63 1t31.5 -57v-69q0 -41 -31.5 -58t-63 0t-31.5 58v69zM2689 118l21 -57
l-21 -61h-118q-97 0 -152.5 35.5t-82.5 108.5q-64 -80 -175.5 -113.5t-282.5 -30.5v144q-73 -77 -192.5 -110.5t-295.5 -33.5h-113q-54 -124 -151.5 -211.5t-208 -126.5t-224.5 -37q-104 1 -198.5 28.5t-174.5 83.5t-135.5 135t-82 190.5t-15.5 242.5l79 623q4 39 36.5 55
t61 -1t24.5 -58l-79 -619q-21 -167 36 -292.5t172 -190.5t271 -70q259 7 389 159t130 407v510q0 26 19.5 41t43.5 15t43.5 -15t19.5 -41v-510v-35v-165q115 0 196.5 8.5t144 30t100.5 53t62 84t33 116.5t9 156v449q0 35 29.5 49.5t59 0t29.5 -49.5v-449v-26v-422
q173 -3 254 113t81 383v458q0 33 29.5 46.5t59 0t29.5 -46.5v-458q0 -145 -22 -270q0 -124 30.5 -175t113.5 -51h118z" />
    <glyph glyph-name="uniFEB7" unicode="&#x634;" horiz-adv-x="1546" arabic-form="initial" 
d="M998 1612q0 -41 -32 -58t-63.5 0t-31.5 58v70q0 39 31.5 56t63.5 1t32 -57v-70zM898 1329q0 -41 -32 -58t-63.5 0t-31.5 58v70q0 39 31.5 56t63.5 1t32 -57v-70zM967 1399q0 39 31.5 56t63.5 1t32 -57v-70q0 -41 -32 -58t-63.5 0t-31.5 58v70zM1338 1028q0 33 30.5 46.5
t61 0t30.5 -46.5v-414q0 -145 -20 -248.5t-61.5 -175.5t-111 -114t-161.5 -59.5t-221 -16.5v148q-73 -80 -191 -114t-297 -34h-183v39q-66 -39 -162 -39h-96l-26 61l26 57h96q78 0 118.5 45t43.5 146v519q0 26 20.5 41t44.5 15t44.5 -15t20.5 -41v-706q108 0 183.5 7
t135.5 25.5t97 45.5t63.5 73t40 102.5t21.5 138.5v458q0 35 30.5 49.5t61 0t30.5 -49.5v-850q174 0 252.5 112.5t78.5 379.5v414z" />
    <glyph glyph-name="uniFEB8" unicode="&#x634;" horiz-adv-x="1620" arabic-form="medial" 
d="M998 1612q0 -41 -32 -58t-63.5 0t-31.5 58v70q0 39 31.5 56t63.5 1t32 -57v-70zM898 1329q0 -41 -32 -58t-63.5 0t-31.5 58v70q0 39 31.5 56t63.5 1t32 -57v-70zM967 1399q0 39 31.5 56t63.5 1t32 -57v-70q0 -41 -32 -58t-63.5 0t-31.5 58v70zM1630 118l21 -57l-21 -61
h-31q-206 0 -257 166q-64 -92 -177 -130.5t-294 -35.5v153q-135 -153 -492 -153h-179v39q-66 -39 -161 -39h-65l-22 61l22 57h65q81 0 121 52.5t40 173.5v484q0 26 20 41t43.5 15t43.5 -15t20 -41v-706q113 0 191.5 7.5t139.5 28.5t98 51.5t62 83.5t36 116t17 157v406
q0 35 29.5 49.5t59 0t29.5 -49.5v-850q174 0 255 113t81 379v414q0 33 29.5 46.5t58.5 0t29 -46.5v-684q0 -123 37 -174.5t120 -51.5h31z" />
    <glyph glyph-name="uniFEBA" unicode="&#x635;" horiz-adv-x="2766" arabic-form="final" 
d="M2789 118l22 -57l-22 -61h-118q-159 0 -218 105q-85 -105 -244 -105h-924q-55 -122 -150.5 -209.5t-205 -127.5t-223.5 -38q-104 1 -198.5 28.5t-174.5 83.5t-135.5 135t-82 190.5t-15.5 242.5l79 623q4 39 36.5 55t61 -1t24.5 -58l-79 -619q-16 -126 14.5 -230
t97.5 -173t163.5 -108t212.5 -42q258 7 386 158.5t128 407.5v623q0 21 12.5 36t30.5 18.5t36 0t30.5 -19t12.5 -39.5v-118q88 126 238 194t311 68q148 0 269 -51.5t199.5 -142t121 -212.5t42.5 -265v-66q0 -124 30.5 -175t113.5 -51h118zM2401 331v79q0 116 -36.5 212.5
t-97.5 160.5t-142.5 105t-169.5 53.5t-179.5 -1t-172.5 -52.5t-149 -107t-108 -158v-322q0 -91 -21 -183h880q97 0 146.5 59.5t49.5 153.5z" />
    <glyph glyph-name="uniFEBB" unicode="&#x635;" horiz-adv-x="1581" arabic-form="initial" 
d="M863 1081q148 0 269 -51.5t199.5 -142t121 -212.5t42.5 -265v-83q-7 -157 -92.5 -242t-225.5 -85h-1225l-30 57l30 61h240v823q0 21 12.5 36t30.5 18.5t36 0t30.5 -19t12.5 -39.5v-118q88 126 238 194t311 68zM1368 331v79q0 113 -34 209t-91.5 161.5t-134.5 109
t-162 59.5t-176 5t-173.5 -48t-157 -105t-125.5 -160v-523h858q94 0 145 60t51 153z" />
    <glyph glyph-name="uniFEBC" unicode="&#x635;" horiz-adv-x="1734" arabic-form="medial" 
d="M1756 118l22 -57l-22 -61h-118q-83 0 -135 26t-82 79q-85 -105 -244 -105h-1225l-30 57l30 61h240v823q0 21 12.5 36t30.5 18.5t36 0t30.5 -19t12.5 -39.5v-118q88 126 238 194t311 68q148 0 269 -51.5t199.5 -142t121 -212.5t42.5 -265v-66q0 -124 30 -175t113 -51h118z
M1368 331v79q0 113 -34 209t-91.5 161.5t-134.5 109t-162 59.5t-176 5t-173.5 -48t-157 -105t-125.5 -160v-523h858q94 0 145 60t51 153z" />
    <glyph glyph-name="uniFEBE" unicode="&#x636;" horiz-adv-x="2766" arabic-form="final" 
d="M1961 1316q0 -41 -31.5 -58t-63.5 0t-32 58v70q0 37 32 53t63.5 1t31.5 -54v-70zM2789 118l22 -57l-22 -61h-118q-159 0 -218 105q-85 -105 -244 -105h-924q-55 -122 -150.5 -209.5t-205 -127.5t-223.5 -38q-104 1 -198.5 28.5t-174.5 83.5t-135.5 135t-82 190.5
t-15.5 242.5l79 623q4 39 36.5 55t61 -1t24.5 -58l-79 -619q-16 -126 14.5 -230t97.5 -173t163.5 -108t212.5 -42q258 7 386 158.5t128 407.5v623q0 21 12.5 36t30.5 18.5t36 0t30.5 -19t12.5 -39.5v-118q88 126 238 194t311 68q148 0 269 -51.5t199.5 -142t121 -212.5
t42.5 -265v-66q0 -124 30.5 -175t113.5 -51h118zM2401 331v79q0 116 -36.5 212.5t-97.5 160.5t-142.5 105t-169.5 53.5t-179.5 -1t-172.5 -52.5t-149 -107t-108 -158v-322q0 -91 -21 -183h880q97 0 146.5 59.5t49.5 153.5z" />
    <glyph glyph-name="uniFEBF" unicode="&#x636;" horiz-adv-x="1581" arabic-form="initial" 
d="M928 1316q0 -41 -31.5 -58t-63 0t-31.5 58v70q0 37 31.5 53t63 1t31.5 -54v-70zM863 1081q148 0 269 -51.5t199.5 -142t121 -212.5t42.5 -265v-83q-7 -157 -92.5 -242t-225.5 -85h-1225l-30 57l30 61h240v823q0 21 12.5 36t30.5 18.5t36 0t30.5 -19t12.5 -39.5v-118
q88 126 238 194t311 68zM1368 331v79q0 113 -34 209t-91.5 161.5t-134.5 109t-162 59.5t-176 5t-173.5 -48t-157 -105t-125.5 -160v-523h858q94 0 145 60t51 153z" />
    <glyph glyph-name="uniFEC0" unicode="&#x636;" horiz-adv-x="1734" arabic-form="medial" 
d="M928 1316q0 -41 -31.5 -58t-63 0t-31.5 58v70q0 37 31.5 53t63 1t31.5 -54v-70zM1756 118l22 -57l-22 -61h-118q-83 0 -135 26t-82 79q-85 -105 -244 -105h-1225l-30 57l30 61h240v823q0 21 12.5 36t30.5 18.5t36 0t30.5 -19t12.5 -39.5v-118q88 126 238 194t311 68
q148 0 269 -51.5t199.5 -142t121 -212.5t42.5 -265v-66q0 -124 30 -175t113 -51h118zM1368 331v79q0 113 -34 209t-91.5 161.5t-134.5 109t-162 59.5t-176 5t-173.5 -48t-157 -105t-125.5 -160v-523h858q94 0 145 60t51 153z" />
    <glyph glyph-name="uniFEC2" unicode="&#x637;" horiz-adv-x="1934" arabic-form="final" 
d="M1961 118l17 -57l-17 -61h-118q-159 0 -218 105q-85 -105 -244 -105h-1259l-30 118h296v1350q0 41 31.5 58t63 0t31.5 -58v-749q83 182 225 272t329 90q195 0 339 -89.5t216 -240t72 -341.5v-66q0 -125 31 -175.5t117 -50.5h118zM1569 331v79q0 116 -34 213.5t-91.5 164
t-133.5 110.5t-159.5 58.5t-171 0.5t-166 -55t-146 -116t-109.5 -176q-7 -17 -13 -33t-10 -37.5t-7 -37.5t-5 -46.5t-3.5 -48t-2.5 -59.5t-1 -64.5t-1 -78.5t-1 -87h859q97 0 146.5 59.5t49.5 153.5z" />
    <glyph glyph-name="uniFEC3" unicode="&#x637;" horiz-adv-x="1647" arabic-form="initial" 
d="M919 1081q147 0 266.5 -51.5t198 -142t121 -212.5t42.5 -265v-83q0 -156 -87.5 -241.5t-226.5 -85.5h-1259l-31 118h297v1350q0 41 31.5 58t63 0t31.5 -58v-749q83 182 224.5 272t328.5 90zM1421 331v79q0 116 -34 213.5t-91.5 164t-133.5 110.5t-159.5 58.5t-171 0.5
t-166 -55t-146 -116t-109.5 -176q-7 -17 -13 -33t-10 -37.5t-7 -37.5t-5 -46.5t-3.5 -48t-2.5 -59.5t-1 -64.5t-1 -78.5t-1 -87h858q97 0 147 59.5t50 153.5z" />
    <glyph glyph-name="uniFEC4" unicode="&#x637;" horiz-adv-x="1799" arabic-form="medial" 
d="M1826 118l17 -57l-17 -61h-118q-160 0 -218 105q-86 -105 -244 -105h-1259l-31 118h297v1350q0 41 31.5 58t63 0t31.5 -58v-749q83 182 224.5 272t328.5 90q147 0 266.5 -51.5t198 -142t121 -212.5t42.5 -265v-66q0 -125 31 -175.5t117 -50.5h118zM1434 331v79
q0 116 -34 213.5t-91 164t-133 110.5t-159 58.5t-170.5 0.5t-166 -55t-146.5 -116t-111 -176q-7 -17 -13 -33t-10 -37.5t-7 -37.5t-5 -46.5t-3.5 -48t-2.5 -59.5t-1 -64.5t-1 -78.5t-1 -87h863q94 0 143 59.5t49 153.5z" />
    <glyph glyph-name="uniFEC6" unicode="&#x638;" horiz-adv-x="1934" arabic-form="final" 
d="M1961 118l17 -57l-17 -61h-118q-159 0 -218 105q-85 -105 -244 -105h-1259l-30 118h296v1350q0 41 31.5 58t63 0t31.5 -58v-749q83 182 225 272t329 90q195 0 339 -89.5t216 -240t72 -341.5v-66q0 -125 31 -175.5t117 -50.5h118zM1129 1364q0 -41 -31.5 -58t-63.5 0
t-32 58v70q0 37 32 53t63.5 1t31.5 -54v-70zM1569 331v79q0 116 -34 213.5t-91.5 164t-133.5 110.5t-159.5 58.5t-171 0.5t-166 -55t-146 -116t-109.5 -176q-7 -17 -13 -33t-10 -37.5t-7 -37.5t-5 -46.5t-3.5 -48t-2.5 -59.5t-1 -64.5t-1 -78.5t-1 -87h859q97 0 146.5 59.5
t49.5 153.5z" />
    <glyph glyph-name="uniFEC7" unicode="&#x638;" horiz-adv-x="1647" arabic-form="initial" 
d="M919 1081q147 0 266.5 -51.5t198 -142t121 -212.5t42.5 -265v-83q0 -156 -87.5 -241.5t-226.5 -85.5h-1259l-31 118h297v1350q0 41 31.5 58t63 0t31.5 -58v-749q83 182 224.5 272t328.5 90zM976 1333q0 -41 -31.5 -58t-63 0t-31.5 58v70q0 37 31.5 53t63 1t31.5 -54v-70z
M1421 331v79q0 116 -34 213.5t-91.5 164t-133.5 110.5t-159.5 58.5t-171 0.5t-166 -55t-146 -116t-109.5 -176q-7 -17 -13 -33t-10 -37.5t-7 -37.5t-5 -46.5t-3.5 -48t-2.5 -59.5t-1 -64.5t-1 -78.5t-1 -87h858q97 0 147 59.5t50 153.5z" />
    <glyph glyph-name="uniFEC8" unicode="&#x638;" horiz-adv-x="1799" arabic-form="medial" 
d="M1826 118l17 -57l-17 -61h-118q-160 0 -218 105q-86 -105 -244 -105h-1259l-31 118h297v1350q0 41 31.5 58t63 0t31.5 -58v-749q83 182 224.5 272t328.5 90q147 0 266.5 -51.5t198 -142t121 -212.5t42.5 -265v-66q0 -125 31 -175.5t117 -50.5h118zM993 1364
q0 -41 -31.5 -58t-63 0t-31.5 58v70q0 37 31.5 53t63 1t31.5 -54v-70zM1434 331v79q0 116 -34 213.5t-91 164t-133 110.5t-159 58.5t-170.5 0.5t-166 -55t-146.5 -116t-111 -176q-7 -17 -13 -33t-10 -37.5t-7 -37.5t-5 -46.5t-3.5 -48t-2.5 -59.5t-1 -64.5t-1 -78.5t-1 -87
h863q94 0 143 59.5t49 153.5z" />
    <glyph glyph-name="uniFECA" unicode="&#x639;" horiz-adv-x="1655" arabic-form="final" 
d="M1721 118l39 -57l-39 -61h-74q-381 0 -723 231q-69 -30 -153.5 -58.5t-149 -48t-133.5 -42.5t-118 -48t-89 -59t-60.5 -81t-20.5 -108q0 -131 70.5 -209t204.5 -78h30q33 0 46.5 -27.5t0 -54.5t-46.5 -27h-30q-181 0 -284.5 112t-103.5 284q0 81 20.5 143t61.5 105
t89.5 73.5t119.5 56t135 44.5t151.5 46.5t154.5 54.5q-324 256 -566 676q-17 35 -5 65q14 26 53 26h823q116 0 198.5 -35.5t120 -94.5t30 -140.5t-65.5 -169.5q-126 -197 -348 -335q279 -183 584 -183h78zM418 963q65 -88 100.5 -134t112 -139t157 -171t166.5 -144
q209 111 340 300q79 115 32.5 201.5t-189.5 86.5h-719z" />
    <glyph glyph-name="uniFECB" unicode="&#x639;" horiz-adv-x="1276" arabic-form="initial" 
d="M1102 118q37 0 52 -29.5t0 -59t-52 -29.5h-1124l-30 57l30 61h344q-30 70 -30 292q0 199 74.5 350t218.5 236t339 85h96q43 0 61 -30.5t0 -61t-61 -30.5h-96q-164 0 -280.5 -72.5t-172 -195t-53.5 -281.5v-16q0 -80 0.5 -112.5t7 -73.5t15.5 -51t33.5 -23.5t52 -14.5
t79.5 -1h496z" />
    <glyph glyph-name="uniFECC" unicode="&#x639;" horiz-adv-x="1403" arabic-form="medial" 
d="M1425 118l35 -57l-35 -61h-87q-305 0 -584 183q-296 -183 -623 -183h-144l-39 61l35 57h143q51 0 89.5 2.5t112.5 14t156.5 42.5t164.5 80q-48 38 -94 80t-88.5 89.5t-77 87t-73 92.5t-61.5 84.5t-57 86t-46 73t-42.5 69.5t-31.5 53q-18 35 -4 69q21 35 61 35h784
q107 0 187 -40t118 -103t32 -147t-62 -167q-140 -207 -318 -349q230 -152 462 -152h87zM231 963q42 -66 90 -132.5t118.5 -154.5t158 -175.5t178.5 -156.5q168 131 309 340q35 51 39.5 102t-18.5 89.5t-72 63t-115 24.5h-688z" />
    <glyph glyph-name="uniFECE" unicode="&#x63a;" horiz-adv-x="1655" arabic-form="final" 
d="M915 1373q0 -41 -31.5 -58t-63 0t-31.5 58v69q0 37 31.5 53t63 1t31.5 -54v-69zM1721 118l39 -57l-39 -61h-74q-381 0 -723 231q-69 -30 -153.5 -58.5t-149 -48t-133.5 -42.5t-118 -48t-89 -59t-60.5 -81t-20.5 -108q0 -131 70.5 -209t204.5 -78h30q33 0 46.5 -27.5
t0 -54.5t-46.5 -27h-30q-181 0 -284.5 112t-103.5 284q0 81 20.5 143t61.5 105t89.5 73.5t119.5 56t135 44.5t151.5 46.5t154.5 54.5q-324 256 -566 676q-17 35 -5 65q14 26 53 26h823q116 0 198.5 -35.5t120 -94.5t30 -140.5t-65.5 -169.5q-126 -197 -348 -335
q279 -183 584 -183h78zM418 963q65 -88 100.5 -134t112 -139t157 -171t166.5 -144q209 111 340 300q79 115 32.5 201.5t-189.5 86.5h-719z" />
    <glyph glyph-name="uniFECF" unicode="&#x63a;" horiz-adv-x="1276" arabic-form="initial" 
d="M841 1373q0 -41 -31.5 -58t-63 0t-31.5 58v69q0 37 31.5 53t63 1t31.5 -54v-69zM1102 118q37 0 52 -29.5t0 -59t-52 -29.5h-1124l-30 57l30 61h344q-30 70 -30 292q0 199 74.5 350t218.5 236t339 85h96q43 0 61 -30.5t0 -61t-61 -30.5h-96q-164 0 -280.5 -72.5t-172 -195
t-53.5 -281.5v-16q0 -80 0.5 -112.5t7 -73.5t15.5 -51t33.5 -23.5t52 -14.5t79.5 -1h496z" />
    <glyph glyph-name="uniFED0" unicode="&#x63a;" horiz-adv-x="1403" arabic-form="medial" 
d="M680 1299q0 -41 -32 -58t-63.5 0t-31.5 58v69q0 37 31.5 53t63.5 1t32 -54v-69zM1425 118l35 -57l-35 -61h-87q-305 0 -584 183q-296 -183 -623 -183h-144l-39 61l35 57h143q51 0 89.5 2.5t112.5 14t156.5 42.5t164.5 80q-48 38 -94 80t-88.5 89.5t-77 87t-73 92.5
t-61.5 84.5t-57 86t-46 73t-42.5 69.5t-31.5 53q-18 35 -4 69q21 35 61 35h784q107 0 187 -40t118 -103t32 -147t-62 -167q-140 -207 -318 -349q230 -152 462 -152h87zM231 963q42 -66 90 -132.5t118.5 -154.5t158 -175.5t178.5 -156.5q168 131 309 340q35 51 39.5 102
t-18.5 89.5t-72 63t-115 24.5h-688z" />
    <glyph glyph-name="uniFED2" unicode="&#x641;" horiz-adv-x="2056" arabic-form="final" 
d="M1499 1325q0 -41 -31.5 -58t-63 0t-31.5 58v69q0 37 31.5 53t63 1t31.5 -54v-69zM1869 118h240v-118h-1394q-281 0 -454.5 184.5t-173.5 482.5v56q0 26 17.5 43.5t43.5 17.5t43.5 -17.5t17.5 -43.5v-39q0 -258 137.5 -412t368.5 -154h501q-92 86 -142 211t-50 233
q0 224 114.5 371.5t295.5 147.5h4q103 0 186.5 -43.5t136 -116.5t80.5 -165.5t28 -193.5v-444zM1756 118l-9 444q0 177 -80 291t-225 114h-4q-142 0 -217 -108t-75 -297q0 -93 32.5 -177t85 -141.5t118 -91.5t130.5 -34h244z" />
    <glyph glyph-name="uniFED4" unicode="&#x641;" horiz-adv-x="1193" arabic-form="medial" 
d="M649 1316q0 -41 -31.5 -58t-63 0t-31.5 58v70q0 37 31.5 53t63 1t31.5 -54v-70zM1011 118h240l-5 -118h-1290v118h401q-92 86 -141.5 211t-49.5 233q0 224 114 371.5t295 147.5h5q103 0 186.5 -43.5t136 -116.5t80.5 -165.5t28 -193.5v-444zM898 118l-9 444
q0 177 -80 291t-225 114h-4q-142 0 -217 -108t-75 -297q0 -93 32.5 -177t85 -141.5t118 -91.5t130.5 -34h244z" />
    <glyph glyph-name="uniFED6" unicode="&#x642;" horiz-adv-x="1799" arabic-form="final" 
d="M976 1329q0 -41 -31.5 -58t-63 0t-31.5 58v70q0 37 31.5 53t63 1t31.5 -54v-70zM1172 1329q0 -41 -31.5 -58t-63 0t-31.5 58v70q0 37 31.5 53t63 1t31.5 -54v-70zM1468 118h375v-118h-375v-78q-3 -230 -186.5 -344t-518.5 -114h-5q-152 0 -285 61.5t-223 164.5
t-128.5 247.5t-8.5 302.5q17 85 28 104q16 26 51 26q44 0 50 -38t-11 -97q-28 -136 3.5 -259.5t106.5 -208.5t184.5 -135t232.5 -50q277 0 431.5 91.5t161.5 248.5v78h-235q-99 0 -182.5 38.5t-138.5 99t-94 136t-56.5 148t-17.5 136.5q0 228 112.5 375.5t293.5 147.5h4
q104 0 188 -43.5t136 -117t79.5 -166.5t27.5 -196v-440zM1116 113h235v5h4l-4 440q0 179 -82 294t-228 115h-4q-139 0 -215.5 -109t-76.5 -300q0 -92 33.5 -176t86.5 -142t119.5 -92.5t131.5 -34.5z" />
    <glyph glyph-name="uniFED7" unicode="&#x642;" horiz-adv-x="1115" arabic-form="initial" 
d="M549 1316q0 -41 -31.5 -58t-63 0t-31.5 58v70q0 37 31.5 53t63 1t31.5 -54v-70zM745 1316q0 -41 -31.5 -58t-63 0t-31.5 58v70q0 37 31.5 53t63 1t31.5 -54v-70zM580 1081q103 0 186.5 -43.5t136 -116.5t80.5 -165.5t28 -193.5v-562h-1055v118h401q-92 86 -141.5 211
t-49.5 233q0 224 114 371.5t295 147.5h5zM898 118l-9 444q0 177 -80 291t-225 114h-4q-142 0 -217 -108t-75 -297q0 -93 32.5 -177t85 -141.5t118 -91.5t130.5 -34h244z" />
    <glyph glyph-name="uniFED8" unicode="&#x642;" horiz-adv-x="1193" arabic-form="medial" 
d="M549 1316q0 -41 -31.5 -58t-63 0t-31.5 58v70q0 37 31.5 53t63 1t31.5 -54v-70zM745 1316q0 -41 -31.5 -58t-63 0t-31.5 58v70q0 37 31.5 53t63 1t31.5 -54v-70zM1011 118h240l-5 -118h-1290v118h401q-92 86 -141.5 211t-49.5 233q0 224 114 371.5t295 147.5h5
q103 0 186.5 -43.5t136 -116.5t80.5 -165.5t28 -193.5v-444zM898 118l-9 444q0 177 -80 291t-225 114h-4q-142 0 -217 -108t-75 -297q0 -93 32.5 -177t85 -141.5t118 -91.5t130.5 -34h244z" />
    <glyph glyph-name="uniFEDA" unicode="&#x643;" horiz-adv-x="2091" arabic-form="final" 
d="M2113 118l22 -57l-22 -61h-117q-110 0 -170 48q-40 -48 -100 -48h-1338q-131 0 -214.5 75.5t-99.5 212.5q-4 20 13.5 42.5t47.5 22.5q48 0 61 -57q23 -172 192 -178h1311q7 0 12.5 6t5.5 15v214q0 294 -125.5 452t-371.5 158h-462q-36 0 -63.5 28t-27.5 64q0 38 30 61
l401 322q12 17 39 17q40 0 56 -37t-16 -63l-345 -274h388q162 0 285 -54.5t198 -153.5t112 -229.5t37 -290.5v-9q0 -126 29 -176t115 -50h117z" />
    <glyph glyph-name="uniFEDB" unicode="&#x643;" horiz-adv-x="1403" arabic-form="initial" 
d="M-13 0l-22 57l22 61h1185q7 0 12.5 6t5.5 15v223q0 286 -125 443.5t-359 157.5h-475q-36 0 -64 28t-28 64q0 34 27 61l400 322q17 17 44 17q40 0 53.5 -36t-18.5 -59l-340 -279h370q168 0 293.5 -54.5t201.5 -154.5t113 -232t37 -296v-218q0 -52 -36.5 -89t-85.5 -37
h-1211z" />
    <glyph glyph-name="uniFEDC" unicode="&#x643;" horiz-adv-x="1551" arabic-form="medial" 
d="M1586 118l18 -57l-18 -61h-118q-114 0 -174 48q-34 -48 -96 -48h-1211l-22 57l22 61h1185q7 0 12.5 6t5.5 15v223q0 286 -125 443.5t-359 157.5h-475q-36 0 -64 28t-28 64q0 34 27 61l400 322q17 17 44 17q40 0 53.5 -36t-18.5 -59l-340 -279h370q168 0 293.5 -54.5
t201.5 -154.5t113 -232t37 -296q0 -125 31 -175.5t117 -50.5h118z" />
    <glyph glyph-name="uniFEDE" unicode="&#x644;" horiz-adv-x="1294" arabic-form="final" 
d="M1316 118l22 -57l-18 -61h-117q-111 0 -166 44q-41 -203 -162 -326t-309 -123h-8q-137 0 -245 72.5t-167 197.5t-59 279q0 37 30.5 52t61 0t30.5 -52q0 -184 97 -303.5t260 -119.5h5q172 0 264.5 134t92.5 359v1207q0 37 32 52t63.5 0t31.5 -52v-1077q0 -125 31 -175.5
t117 -50.5h113z" />
    <glyph glyph-name="uniFEDF" unicode="&#x644;" horiz-adv-x="483" arabic-form="initial" 
d="M305 1508q24 0 42.5 -17t18.5 -40v-1107q-7 -163 -92 -253.5t-230 -90.5h-66v118h66q100 0 148 60t48 166v1107q0 26 18 41.5t47 15.5z" />
    <glyph glyph-name="uniFEE0" unicode="&#x644;" horiz-adv-x="509" arabic-form="medial" 
d="M553 118l27 -57l-27 -61h-95q-141 0 -201 87q-60 -87 -200 -87h-101l-26 61l26 57h101q71 0 101.5 40.5t33.5 133.5v1155q0 26 20 43.5t49 17.5q24 -3 42.5 -23t18.5 -43v-1150q3 -93 34 -133.5t102 -40.5h95z" />
    <glyph glyph-name="uniFEE2" unicode="&#x645;" horiz-adv-x="1446" arabic-form="final" 
d="M87 -453v392q0 241 227 301q-83 132 -83 305q0 129 46 234t121 169t171 99t196 35t196 -35t171 -99t121 -169t46 -234q0 -118 -44 -236q5 -191 148 -191h96l26 -57l-26 -61h-96q-105 0 -162.5 42.5t-81.5 127.5q-92 -105 -229 -147.5t-279.5 -13t-249.5 125.5
q-96 -10 -146 -61.5t-50 -134.5v-392q0 -41 -29.5 -58t-59 0t-29.5 58zM767 118q180 0 295 123.5t115 303.5q0 173 -120 295.5t-290 122.5q-183 0 -298.5 -124t-115.5 -294q0 -175 120 -301t294 -126z" />
    <glyph glyph-name="uniFEE3" unicode="&#x645;" horiz-adv-x="1324" arabic-form="initial" 
d="M170 545q0 129 46 234t121 169t171 99t196 35t196 -35t171 -99t121 -169t46 -234q0 -102 -28 -190t-76.5 -150.5t-113.5 -108t-138.5 -68.5t-152.5 -27t-153.5 12t-144 54t-122.5 94q-24 -81 -81.5 -121t-162.5 -40h-113l-22 61l22 57h113q80 0 113 45t36 151
q-44 110 -44 231zM706 118q180 0 295 123.5t115 303.5q0 173 -120 295.5t-290 122.5q-120 0 -216 -59t-147 -154t-51 -205q0 -175 120 -301t294 -126z" />
    <glyph glyph-name="uniFEE4" unicode="&#x645;" horiz-adv-x="1446" arabic-form="medial" 
d="M1468 118l22 -57l-22 -61h-117q-106 0 -163 42t-81 132q-73 -85 -179.5 -130.5t-216 -46.5t-217.5 41t-185 123q-24 -81 -81.5 -121t-162.5 -40h-113l-22 61l22 57h113q80 0 113 45t36 151q-44 110 -44 231q0 129 46 234t121 169t171 99t196 35t196 -35t171 -99t121 -169
t46 -234q0 -90 -31 -201q0 -126 29 -176t115 -50h117zM706 118q180 0 295 123.5t115 303.5q0 173 -120 295.5t-290 122.5q-120 0 -216 -59t-147 -154t-51 -205q0 -175 120 -301t294 -126z" />
    <glyph glyph-name="uniFEE6" unicode="&#x646;" horiz-adv-x="1551" arabic-form="final" 
d="M850 1233q0 -41 -32 -58t-63.5 0t-31.5 58v70q0 37 31.5 53t63.5 1t32 -54v-70zM1573 118l22 -57l-22 -61h-118q-126 0 -187 61q-69 -211 -239 -325t-362 -111q-104 1 -199 28.5t-175.5 83.5t-136.5 135t-82 190.5t-13 242.5l57 471q3 22 17 37.5t32.5 18.5t36 -1.5
t28.5 -21.5t8 -42l-57 -462q-28 -250 111.5 -398t376.5 -155q133 3 232.5 45.5t160.5 118.5t91 176.5t30 225.5v623q0 21 12.5 36t30.5 18.5t36 0t30.5 -19t12.5 -39.5v-593q0 -125 31 -175.5t117 -50.5h118z" />
    <glyph glyph-name="uniFEE7" unicode="&#x646;" horiz-adv-x="723" arabic-form="initial" 
d="M453 1233v70q0 37 31.5 53t63.5 1t32 -54v-70q0 -41 -32 -58t-63.5 0t-31.5 58zM-44 118h332q86 0 137.5 59t58.5 154v610q0 21 12.5 36t30.5 18.5t36 0t30.5 -19t12.5 -39.5v-606q-13 -331 -318 -331h-332v118z" />
    <glyph glyph-name="uniFEE8" unicode="&#x646;" horiz-adv-x="845" arabic-form="medial" 
d="M597 1233q0 -41 -31.5 -58t-63 0t-31.5 58v70q0 37 31.5 53t63 1t31.5 -54v-70zM867 118l22 -57l-22 -61h-118q-159 0 -213 100q-81 -100 -248 -100h-332v118h332q86 0 137.5 59t58.5 154v610q0 21 12.5 36t30.5 18.5t36 0t30.5 -19t12.5 -39.5v-593q0 -124 30 -175
t113 -51h118z" />
    <glyph glyph-name="uniFEEA" unicode="&#x647;" horiz-adv-x="1315" arabic-form="final" 
d="M87 527v5q0 147 70 272.5t197 201t282 75.5q111 0 210.5 -42.5t171 -115t113 -173.5t41.5 -214v-418h148l35 -61l-35 -57h-771q-94 0 -180.5 44.5t-147.5 117.5t-97.5 169t-36.5 196zM209 532q0 -80 29.5 -158t75 -133t101.5 -89t108 -34h527v418q0 178 -121 302.5
t-302 124.5q-122 0 -219 -60.5t-148 -157.5t-51 -209v-4z" />
    <glyph glyph-name="uniFEEB" unicode="&#x647;" horiz-adv-x="1734" arabic-form="initial" 
d="M1011 1238q154 0 275.5 -50.5t200 -141t119.5 -213.5t41 -271v-562h-1673l-18 61l18 57h327q-196 153 -196 444q0 122 42.5 221.5t113.5 163.5t159.5 100.5t185.5 41.5q163 149 405 149zM976 118h545v444q0 258 -137 408t-373 150q-122 0 -218 -52q106 -27 189.5 -90.5
t136.5 -171.5t53 -244q0 -291 -196 -444zM227 562q0 -184 118.5 -314t290.5 -130q183 0 298.5 127.5t115.5 316.5q0 164 -122 284.5t-292 120.5q-118 0 -213 -58.5t-145.5 -151t-50.5 -195.5z" />
    <glyph glyph-name="uniFEEC" unicode="&#x647;" horiz-adv-x="1878" arabic-form="medial" 
d="M1909 118l21 -57l-17 -61h-118q-93 0 -148 31v-31h-1673l-18 61l18 57h327q-196 153 -196 444q0 122 42.5 221.5t113.5 163.5t159.5 100.5t185.5 41.5q163 149 405 149q154 0 275.5 -50.5t200 -141t119.5 -213.5t41 -271v-218q0 -125 31 -175.5t117 -50.5h114zM976 118
h545v444q0 258 -137 408t-373 150q-122 0 -218 -52q106 -27 189.5 -90.5t136.5 -171.5t53 -244q0 -291 -196 -444zM227 562q0 -184 118.5 -314t290.5 -130q183 0 298.5 127.5t115.5 316.5q0 164 -122 284.5t-292 120.5q-118 0 -213 -58.5t-145.5 -151t-50.5 -195.5z" />
    <glyph glyph-name="uniFEEE" unicode="&#x648;" horiz-adv-x="1193" arabic-form="final" 
d="M1272 61l-34 -61h-183v-9q0 -176 -86 -271t-233 -95q-34 0 -53.5 18.5t-19.5 40.5t19.5 40.5t53.5 18.5q90 0 141 66.5t51 173.5v17h-244q-601 0 -601 536q0 152 60 276t171 196.5t252 72.5q238 0 363.5 -138.5t125.5 -384.5v-440h183zM205 536q0 -203 119 -310.5
t360 -107.5h244v440q0 212 -87.5 304t-274.5 92q-163 0 -262 -119t-99 -299z" />
    <glyph glyph-name="uniFEF0" unicode="&#x649;" horiz-adv-x="1629" arabic-form="final" 
d="M1673 118v-118h-231q-15 -125 -71.5 -235t-147 -194t-221 -132.5t-283.5 -48.5q-214 0 -372.5 105t-219 292.5t11.5 447.5q10 37 43.5 52t60.5 0t23 -52q-59 -183 -44 -320t89 -229t179.5 -137.5t228.5 -45.5q86 -1 167.5 17.5t155.5 59t132 99t98 141t53 180.5h-22
q-227 0 -248 135q-6 39 20.5 59.5t58.5 9t38 -50.5q1 -6 4.5 -11.5t11 -9t14.5 -6t18 -4t18.5 -2.5t20 -1.5t17.5 -0.5h16h11h370z" />
    <glyph glyph-name="uniFEF2" unicode="&#x64a;" horiz-adv-x="1629" arabic-form="final" 
d="M1673 118v-118h-231q-15 -125 -71.5 -235t-147 -194t-221 -132.5t-283.5 -48.5q-214 0 -372.5 105t-219 292.5t11.5 447.5q10 37 43.5 52t60.5 0t23 -52q-59 -183 -44 -320t89 -229t179.5 -137.5t228.5 -45.5q86 -1 167.5 17.5t155.5 59t132 99t98 141t53 180.5h-22
q-227 0 -248 135q-6 39 20.5 59.5t58.5 9t38 -50.5q1 -6 4.5 -11.5t11 -9t14.5 -6t18 -4t18.5 -2.5t20 -1.5t17.5 -0.5h16h11h370zM553 -749q0 37 31.5 53t63.5 1t32 -54v-70q0 -41 -32 -58t-63.5 0t-31.5 58v70zM749 -749q0 37 31.5 53t63.5 1t32 -54v-70q0 -41 -32 -58
t-63.5 0t-31.5 58v70z" />
    <glyph glyph-name="uniFEF3" unicode="&#x64a;" horiz-adv-x="723" arabic-form="initial" 
d="M-44 118h332q86 0 137.5 59t58.5 154v610q0 21 12.5 36t30.5 18.5t36 0t30.5 -19t12.5 -39.5v-606q-13 -331 -318 -331h-332v118zM122 -266v70q0 37 31.5 53t63 1t31.5 -54v-70q0 -41 -31.5 -58t-63 0t-31.5 58zM318 -266v70q0 37 31.5 53t63 1t31.5 -54v-70
q0 -41 -31.5 -58t-63 0t-31.5 58z" />
    <glyph glyph-name="uniFEF4" unicode="&#x64a;" horiz-adv-x="845" arabic-form="medial" 
d="M867 118l22 -57l-22 -61h-118q-159 0 -213 100q-81 -100 -248 -100h-332v118h332q86 0 137.5 59t58.5 154v610q0 21 12.5 36t30.5 18.5t36 0t30.5 -19t12.5 -39.5v-593q0 -124 30 -175t113 -51h118zM153 -205q0 37 31.5 53t63 1t31.5 -54v-70q0 -41 -31.5 -58t-63 0
t-31.5 58v70zM349 -205q0 37 31.5 53t63 1t31.5 -54v-70q0 -41 -31.5 -58t-63 0t-31.5 58v70z" />
    <glyph glyph-name=".notdef" horiz-adv-x="1960" 
d="M1608 2702v-3922h-1242v3922h1242zM1307 2440h-649v-131h257v-143h-261v-131h653v131h-261v143h261v131zM1046 1935h-392v-410h653v135h-261v275zM915 1800v-140h-131v140h131zM1307 1421h-653v-131h261v-144h-261v-131h392v275h261v131zM1307 1185h-130v-261h-523v-131
h653v392zM1307 706h-392v-218h131v87h131v-183h-393v314h-130v-445h653v445zM1307 26h-653v-444h653v444zM1177 -105v-183h-393v183h393zM1307 -505h-653v-131h274l-274 -183v-131h653v131h-401l275 183h126v131z" />
    <glyph glyph-name=".null" 
 />
    <glyph glyph-name="nonmarkingreturn" horiz-adv-x="682" 
 />
    <glyph glyph-name="space" unicode=" " horiz-adv-x="479" 
 />
    <glyph glyph-name="exclam" unicode="!" horiz-adv-x="514" 
d="M314 375q-3 -26 -18.5 -41.5t-38.5 -15.5h-4q-18 0 -33 16t-15 41q-13 703 -13 1046q0 29 17 47t44 18h4q30 0 50 -18t20 -47q0 -153 -3.5 -414.5t-6.5 -446.5zM349 48q0 -39 -27 -65.5t-69 -26.5q-36 0 -61.5 26.5t-25.5 65.5q0 36 25.5 63.5t61.5 27.5q42 0 69 -27
t27 -64z" />
    <glyph glyph-name="quotedbl" unicode="&#x22;" horiz-adv-x="601" 
d="M183 1290q-17 0 -30.5 15t-13.5 37q0 1 -2 24t-4.5 57.5t-4.5 72t-4 72.5t-2 53q0 32 17 51t44 19q32 0 51 -20t19 -50q0 -29 -4.5 -98.5t-8.5 -124.5l-5 -56q0 -23 -14.5 -37.5t-37.5 -14.5zM414 1290q-20 0 -34 14.5t-14 37.5q0 1 -2 24t-4.5 57.5t-4.5 72t-4 72.5
t-2 53q0 33 17.5 51.5t47.5 18.5q29 0 47 -20t18 -50q0 -29 -4.5 -98.5t-8.5 -124.5l-4 -56q0 -23 -14 -37.5t-34 -14.5z" />
    <glyph glyph-name="numbersign" unicode="#" horiz-adv-x="1124" 
d="M231 31l65 461h-122q-37 0 -52 29.5t0 59t52 29.5h140l35 244h-118q-37 0 -52 28t0 56.5t52 28.5h135l61 427q4 35 33 49t53.5 -4.5t18.5 -61.5l-61 -410h252l61 427q4 35 34 49t55.5 -4.5t19.5 -61.5l-61 -410h118q37 0 52 -28.5t0 -56.5t-52 -28h-135l-35 -244h118
q39 0 55 -29.5t0 -59t-55 -29.5h-135l-66 -479q-6 -35 -36.5 -47.5t-55.5 6t-17 59.5l66 461h-253l-65 -479q-6 -35 -35.5 -47.5t-53.5 6t-16 59.5zM423 610h248l35 244h-248z" />
    <glyph glyph-name="dollar" unicode="$" horiz-adv-x="1115" 
d="M501 -187v156q-142 3 -236 46t-134 98q-33 36 -21.5 65.5t47.5 26.5q16 -3 42.5 -22.5t55.5 -41t94 -41t152 -22.5v610q-104 29 -172.5 60t-120.5 76t-75.5 106.5t-23.5 145.5q0 158 102 260.5t290 114.5v96q0 33 27.5 47.5t54.5 1t27 -48.5v-92q137 -7 247 -53.5
t110 -111.5q0 -34 -23.5 -48t-54.5 -4q-15 3 -38 19t-47 33t-75.5 33t-118.5 19v-553q90 -25 152.5 -49t116 -57t84.5 -74t48 -97t17 -129q0 -192 -112 -298t-306 -116v-156q0 -33 -27 -48.5t-54.5 -2t-27.5 50.5zM501 819v523q-132 -16 -199 -85t-67 -172
q0 -114 63.5 -170.5t202.5 -95.5zM610 78q292 36 292 301q0 43 -8 77t-26.5 60.5t-40.5 46t-58.5 37t-71.5 30t-87 28.5v-580z" />
    <glyph glyph-name="percent" unicode="%" horiz-adv-x="1372" 
d="M322 22q-22 -42 -58 -32q-27 8 -32 34q-4 20 12 37l811 1255q18 31 45 30t37 -24t-4 -54zM375 675q-116 0 -193 81.5t-77 223.5q0 145 77 227.5t193 82.5t193 -82.5t77 -227.5q0 -142 -77 -223.5t-193 -81.5zM375 758q79 0 124.5 59t45.5 163q0 107 -45.5 167t-124.5 60
t-122.5 -58.5t-43.5 -168.5q0 -107 43.5 -164.5t122.5 -57.5zM998 52q-117 0 -193.5 81t-76.5 229q0 144 76.5 222t193.5 78t193.5 -78t76.5 -222q0 -148 -76.5 -229t-193.5 -81zM998 131q79 0 124.5 61t45.5 165q0 107 -45.5 167t-124.5 60q-76 0 -121 -60t-45 -167
q0 -104 45.5 -165t120.5 -61z" />
    <glyph glyph-name="ampersand" unicode="&#x26;" horiz-adv-x="1355" 
d="M427 797q-60 73 -84 156t-9 157.5t58 136t120.5 98t175.5 36.5q68 0 137 -16.5t116.5 -47.5t47.5 -66q0 -23 -17 -40t-40 -17q-19 0 -42.5 12t-44.5 27t-63 27t-94 12q-139 0 -196.5 -74.5t-24.5 -191t143 -239.5l375 -423l17.5 35t19 39t17.5 37.5t18.5 41.5t15.5 40
t14.5 44.5t10 42t7.5 46t2 45.5q0 25 15.5 43t40.5 18q83 0 33 -188q-40 -154 -129 -316l-8 -15l157 -174q29 -35 16.5 -68.5t-46 -34.5t-70.5 33l-123 144q-173 -197 -392 -197q-170 0 -310 114q-125 103 -162 246q-45 170 61 308q80 103 237 169zM492 719
q-198 -91 -238 -244q-33 -123 46 -241q70 -107 190 -148q153 -54 296 32q70 43 129 117z" />
    <glyph glyph-name="quotesingle" unicode="'" horiz-adv-x="370" 
d="M135 1059q-13 214 -13 279q0 33 19.5 52t43.5 19.5t43.5 -18.5t19.5 -53l-13 -279q-4 -29 -27 -42.5t-46 -2t-27 44.5z" />
    <glyph glyph-name="parenleft" unicode="(" horiz-adv-x="588" 
d="M122 715q0 630 253 928q17 20 39.5 26t40.5 -3t30 -25t10.5 -40.5t-20.5 -49.5q-39 -55 -73.5 -129t-66.5 -176t-50.5 -239.5t-18.5 -291.5q0 -592 222 -854q29 -34 14 -74t-51.5 -44.5t-75.5 39.5q-40 54 -69 101t-66.5 131.5t-61 176.5t-40 228.5t-16.5 295.5z" />
    <glyph glyph-name="parenright" unicode=")" horiz-adv-x="583" 
d="M462 715q0 -159 -16 -295.5t-39.5 -229t-60 -176t-67 -131.5t-70.5 -101q-34 -46 -74.5 -39.5t-50 44.5t15.5 74q218 258 218 854q0 295 -60 505.5t-145 330.5q-33 41 -19 78.5t49.5 40.5t65.5 -27q253 -298 253 -928z" />
    <glyph glyph-name="asterisk" unicode="*" horiz-adv-x="888" 
d="M553 1020l-113 174l-113 -170q-26 -28 -53 -31.5t-41.5 12.5t-19 39.5t13.5 49.5l130 152l-187 66q-47 13 -51 52q-5 36 25 54q29 17 70 -2l174 -87l-5 222q0 43 31.5 62.5t63.5 2.5t32 -60l-13 -227l178 83q24 8 46 3.5t34 -20t15 -33t-11 -35.5t-44 -28l-196 -53
l135 -152q29 -35 12.5 -69.5t-51 -36.5t-62.5 32z" />
    <glyph glyph-name="plus" unicode="+" horiz-adv-x="1106" 
d="M976 789q26 0 41.5 -16.5t15.5 -40.5v-4q0 -27 -15.5 -44t-41.5 -17h-318v-318q0 -28 -16 -42.5t-41 -14.5h-4q-28 0 -46.5 14.5t-18.5 42.5v318h-314q-29 0 -45 17t-16 44v4q0 24 16.5 40.5t44.5 16.5h314v318q0 28 18.5 42t46.5 14h4q25 0 41 -14t16 -42v-318h318z" />
    <glyph glyph-name="comma" unicode="," horiz-adv-x="453" 
d="M331 214q17 -3 25 -17.5t1 -30.5l-170 -380q-5 -17 -26 -17l-30 4q-12 0 -21.5 10t-0.5 25l144 392q3 7 15.5 12t19.5 2h43z" />
    <glyph glyph-name="hyphen" unicode="-" horiz-adv-x="1137" 
d="M993 427q0 -61 -56 -61h-758q-28 0 -42.5 16.5t-14.5 44.5v4q0 25 14.5 43t42.5 18h758q27 0 41.5 -18t14.5 -43v-4z" />
    <glyph glyph-name="period" unicode="." horiz-adv-x="370" 
d="M283 96q0 -39 -30.5 -67.5t-69.5 -28.5t-67.5 28.5t-28.5 67.5t28.5 69.5t67.5 30.5t69.5 -30.5t30.5 -69.5z" />
    <glyph glyph-name="slash" unicode="/" horiz-adv-x="871" 
d="M322 61q-15 -47 -50 -58t-58.5 16.5t-8.5 72.5l401 1320q16 55 51.5 66t58 -20t7.5 -77z" />
    <glyph glyph-name="zero" unicode="0" horiz-adv-x="1381" 
d="M1251 702q0 -169 -43.5 -304t-120 -221t-177 -131.5t-217.5 -45.5q-119 0 -220.5 45.5t-178 131.5t-120 221t-43.5 304q0 166 43.5 299.5t120 219.5t178 132t220.5 46q117 0 218 -46t177 -132t119.5 -219.5t43.5 -299.5zM266 702q0 -286 115.5 -435t311.5 -149
q192 0 305 149t113 435q0 285 -112.5 432t-305.5 147q-196 0 -311.5 -148t-115.5 -431z" />
    <glyph glyph-name="one" unicode="1" horiz-adv-x="671" 
d="M401 61v1163l-170 -95q-23 -13 -43 -13t-32 12t-17 27.5t3 33.5t28 31l240 140q46 25 77.5 11.5t31.5 -64.5v-1246q0 -41 -29.5 -58t-59 0t-29.5 58z" />
    <glyph glyph-name="two" unicode="2" horiz-adv-x="1150" 
d="M222 1185q-16 20 -9 45t31 38q84 55 175 85.5t175 36t160.5 -15.5t133 -65.5t90 -119t33.5 -169.5q0 -35 -3 -64.5t-15 -64t-22 -60t-39 -67t-50.5 -70t-71.5 -83.5t-86.5 -93t-111.5 -113t-130.5 -129t-159.5 -154h641q35 0 50 -30.5t1 -61t-51 -30.5h-767
q-39 0 -58 21.5t-9 58t50 73.5q78 80 210 214q329 333 408 436t79 217q0 104 -58.5 166t-145 74t-184.5 -11t-179 -77q-52 -28 -87 13z" />
    <glyph glyph-name="three" unicode="3" horiz-adv-x="1141" 
d="M174 100q-39 28 -40.5 62t24.5 51.5t56 4.5q17 -3 45.5 -22.5t58 -40t87 -38t127.5 -17.5q182 0 280 103q78 83 66 190q-12 113 -118 185q-112 76 -294 76q-43 0 -61 29t0 58.5t61 29.5q208 0 316 110q79 80 69 181q-9 99 -99 157q-76 49 -190 49q-79 0 -138.5 -16.5
t-86 -36t-53.5 -36t-49 -16.5q-32 0 -45.5 21.5t-3.5 52t41 53.5q60 42 148.5 69t190.5 27q194 0 297.5 -91.5t103.5 -270.5q0 -113 -55 -190t-149 -115q244 -81 244 -322q0 -101 -38 -182.5t-101.5 -131.5t-148 -76t-176.5 -24t-188 31.5t-181 85.5z" />
    <glyph glyph-name="four" unicode="4" horiz-adv-x="1311" 
d="M902 -13q-27 0 -44 18t-17 47v297h-614q-52 0 -74 43.5t8 82.5l667 867q25 35 58.5 43t57 -10t23.5 -50v-872h135q48 0 48 -52t-48 -52h-135v-297q0 -29 -19 -47t-46 -18zM841 453v732l-558 -727z" />
    <glyph glyph-name="five" unicode="5" horiz-adv-x="1128" 
d="M497 -9q-164 0 -276 80q-74 53 -78 106q-3 28 18 45q28 17 43 11.5t43.5 -26.5t55.5 -43.5t79.5 -40.5t114.5 -18q175 0 278 99.5t96 270.5q0 154 -82.5 234t-213.5 80q-58 0 -106.5 -14t-80 -33.5t-56.5 -39.5t-48 -34t-44 -14q-29 0 -47.5 18t-18.5 47l-4 588
q0 66 65 66h650q41 0 58 -29.5t0 -59t-58 -29.5h-606l9 -458q54 47 130.5 76t156.5 29q187 0 298.5 -109t111.5 -318q7 -218 -129 -351t-359 -133z" />
    <glyph glyph-name="six" unicode="6" horiz-adv-x="1268" 
d="M662 0q-246 0 -389 189q-123 163 -134 409q-11 244 93 452q109 215 302 301q110 48 237 48q134 0 228.5 -34.5t63.5 -87.5q-18 -29 -47 -33.5t-59 6t-84.5 23t-105.5 12.5q-220 0 -350.5 -156t-137.5 -432q73 71 167.5 112.5t188 50.5t184 -13.5t160 -71.5t112 -131.5
t42.5 -185.5q0 -209 -131 -333.5t-340 -124.5zM662 113q156 0 246 89t90 251q0 89 -38 155t-99 99.5t-139.5 41.5t-157.5 -10t-155 -62.5t-130 -110.5q22 -231 122.5 -342t260.5 -111z" />
    <glyph glyph-name="seven" unicode="7" horiz-adv-x="1106" 
d="M440 52q-17 -31 -46.5 -41.5t-52 1t-33 38t9.5 68.5l549 1137h-714q-41 0 -58 31.5t0 63t58 31.5h771q50 0 72.5 -25t19 -63t-26.5 -86z" />
    <glyph glyph-name="eight" unicode="8" horiz-adv-x="1259" 
d="M614 0q-93 0 -174 25.5t-138 68.5t-96 100.5t-55 119.5t-9.5 126.5t36 122t87 105.5t136.5 77q-86 32 -137 93t-61.5 131.5t13 145t75 134.5t136.5 98.5t187 38.5t186 -38.5t134.5 -98.5t73.5 -134.5t12.5 -145t-60 -131.5t-132.5 -93q106 -38 171 -109.5t81.5 -153.5
t-7.5 -168.5t-82.5 -155.5t-157.5 -113.5t-219 -44.5zM614 793q133 0 206 64t73 176q0 110 -73.5 174.5t-205.5 64.5q-135 0 -209 -64.5t-74 -174.5q0 -112 73.5 -176t209.5 -64zM614 109q166 0 253 77t87 211q0 128 -89 207.5t-251 79.5q-165 0 -254.5 -79t-89.5 -208
q0 -134 87.5 -211t256.5 -77z" />
    <glyph glyph-name="nine" unicode="9" horiz-adv-x="1342" 
d="M688 1394q246 0 390 -189q123 -163 134 -409q11 -245 -94 -452q-109 -215 -303 -300q-108 -48 -235 -48q-150 0 -243 42q-77 36 -49 80q18 29 47 34t59 -5t84.5 -22t105.5 -12q222 0 358 155t143 429q-73 -71 -168.5 -112.5t-190.5 -50.5t-187.5 13.5t-163 72t-114 132
t-43.5 185.5q0 209 130.5 333t339.5 124zM688 1281q-156 0 -245.5 -89t-89.5 -251q0 -88 39 -153.5t101.5 -99t142.5 -42t160.5 9t157.5 62t131 110.5q-22 229 -128.5 341t-268.5 112z" />
    <glyph glyph-name="colon" unicode=":" horiz-adv-x="435" 
d="M314 719q0 -39 -28.5 -67.5t-67.5 -28.5t-67.5 28.5t-28.5 67.5q0 42 28.5 71t67.5 29t67.5 -29t28.5 -71zM314 96q0 -39 -28.5 -67.5t-67.5 -28.5t-67.5 28.5t-28.5 67.5t28.5 69.5t67.5 30.5t67.5 -30.5t28.5 -69.5z" />
    <glyph glyph-name="semicolon" unicode=";" horiz-adv-x="592" 
d="M462 754q0 -39 -30.5 -67.5t-69.5 -28.5t-67.5 28.5t-28.5 67.5q0 42 28.5 71t67.5 29q40 0 70 -29t30 -71zM370 240q16 0 25 -15.5t2 -28.5l-183 -410q-5 -17 -27 -17l-30 4q-12 0 -20 10t-2 25l161 419q0 6 11.5 11.5t19.5 5.5z" />
    <glyph glyph-name="less" unicode="&#x3c;" horiz-adv-x="1093" 
d="M972 1102q0 -31 -35 -52l-662 -353l657 -348q40 -20 40 -57q0 -33 -27 -48.5t-60 0.5l-719 388q-15 11 -22 18t-14.5 20t-7.5 27v5q0 14 7.5 27t14.5 20t22 18l719 388q33 18 60 2t27 -50v-5z" />
    <glyph glyph-name="equal" unicode="=" horiz-adv-x="1141" 
d="M1024 867q0 -27 -16.5 -46t-44.5 -19h-736q-28 0 -42.5 18.5t-14.5 46.5v4q0 25 14.5 41t42.5 16h736q28 0 44.5 -16.5t16.5 -40.5v-4zM1024 614q0 -27 -16 -44t-45 -17h-736q-28 0 -42.5 16.5t-14.5 44.5v5q0 25 14.5 43t42.5 18h736q28 0 44.5 -18t16.5 -43v-5z" />
    <glyph glyph-name="greater" unicode="&#x3e;" horiz-adv-x="1093" 
d="M928 767q15 -11 22 -18t14.5 -20t7.5 -27v-5q0 -14 -7.5 -27t-14.5 -20t-22 -18l-719 -388q-33 -16 -60 -0.5t-27 48.5q0 38 39 57l658 348l-662 353q-35 21 -35 52v5q0 34 27 50t60 -2z" />
    <glyph glyph-name="question" unicode="?" horiz-adv-x="958" 
d="M314 322q-7 84 12 155.5t55 123.5t81 98.5t92 91t86 90.5t63.5 107.5t24.5 131.5q0 108 -66.5 167t-190.5 59q-73 0 -128.5 -15.5t-80.5 -35t-50.5 -37t-45.5 -20.5q-70 -27 -70 39q0 50 58.5 93t145.5 66.5t175 23.5q183 0 285.5 -88t102.5 -256q0 -83 -24 -150.5
t-62.5 -114.5t-85 -88.5t-93 -84t-85 -89.5t-62.5 -115t-24 -152q0 -35 -28.5 -50t-56.5 -1t-28 51zM379 -44q-37 0 -64 27t-27 65q0 36 27.5 63.5t63.5 27.5t66 -27.5t30 -63.5q0 -38 -29.5 -65t-66.5 -27z" />
    <glyph glyph-name="at" unicode="@" horiz-adv-x="1629" 
d="M806 -205q111 0 196.5 18t124.5 39.5t71 42t44 22.5q30 9 47 -13q22 -27 -15 -61q-10 -9 -23 -17q-110 -75 -240.5 -106t-254 -19t-239.5 64t-203 133.5t-139.5 199t-52.5 251.5q0 133 42 251t114.5 203.5t166.5 148t199.5 93.5t213.5 31q137 0 256 -39t206.5 -110.5
t137.5 -180t50 -241.5q0 -113 -33.5 -204.5t-89 -147t-123.5 -85t-142 -29.5q-86 0 -128.5 39.5t-45.5 100.5q-202 -181 -336 -117q-93 45 -125 191q-32 149 14 303q48 163 158 223q161 89 385 -85q7 -5 13 -10q20 58 56 63q26 3 36 -23q6 -16 -1 -36q-97 -342 -109 -426
q-14 -94 22 -117q21 -14 70 -14q56 0 105.5 21.5t90 65t64 117.5t23.5 170q0 225 -152 352.5t-402 127.5q-121 0 -234 -42.5t-203 -121t-144.5 -201.5t-54.5 -271q0 -166 78 -293.5t210 -194t296 -66.5zM954 292l70 322q-196 143 -327 66q-89 -51 -120 -181q-29 -121 9 -223
q38 -100 121 -111q105 -13 247 127z" />
    <glyph glyph-name="A" unicode="A" horiz-adv-x="1394" 
d="M1142 65l-144 397h-606l-139 -392q-18 -53 -58.5 -66.5t-65.5 17.5t-7 84l479 1316q14 39 42.5 60t58 20.5t58 -21.5t42.5 -59l475 -1316q19 -50 -6.5 -82t-66.5 -21.5t-62 63.5zM440 584h519l-257 723z" />
    <glyph glyph-name="B" unicode="B" horiz-adv-x="1198" 
d="M183 0q-28 0 -49 19t-21 51v1368q0 34 19.5 52t50.5 18q132 0 223.5 -2t179.5 -9.5t144 -19t107 -31.5t79 -47.5t49.5 -67t29 -88.5t7.5 -114q0 -258 -218 -345q142 -40 221.5 -125.5t79.5 -240.5q0 -57 -6.5 -103t-22.5 -84.5t-37 -68t-56 -53.5t-73.5 -40.5t-95.5 -29
t-115.5 -20t-141 -12t-164 -6t-190.5 -1.5zM253 837h283q152 0 243.5 74.5t91.5 217.5q0 62 -9 102.5t-41.5 69.5t-68.5 44t-118 23.5t-159.5 10.5t-221.5 2v-544zM253 122q111 0 189 2t151.5 8t121 15t89.5 25.5t65.5 38t41 53t24 70t6.5 89.5q0 152 -100 222t-292 70h-296
v-593z" />
    <glyph glyph-name="C" unicode="C" horiz-adv-x="1359" 
d="M758 148q85 0 154 18t110 43.5t71.5 51t52.5 43.5t39 18q38 0 53.5 -25t2.5 -62.5t-51 -68.5q-111 -97 -238.5 -136.5t-245 -23t-226.5 81t-189.5 165t-129 240.5t-48.5 296q0 174 51.5 318t140 239.5t207.5 148t255 52.5q99 0 217.5 -33t193.5 -85.5t46 -99.5
q-15 -24 -39.5 -24.5t-62.5 16t-83.5 37t-116.5 37.5t-146 17q-112 0 -206.5 -41t-164 -118t-109 -196t-39.5 -268q0 -309 133 -475t368 -166z" />
    <glyph glyph-name="D" unicode="D" horiz-adv-x="1407" 
d="M187 0q-31 0 -52.5 19t-21.5 51v1346q0 32 20 49t54 17h336q186 0 336 -63.5t242.5 -168t142.5 -237.5t49.5 -272t-50.5 -272t-142.5 -237.5t-242.5 -168t-335 -63.5h-336zM257 122h266q151 0 274 53t198.5 140t116.5 198.5t41 227.5t-40.5 227.5t-116 198.5t-198.5 140
t-275 53h-266v-1238z" />
    <glyph glyph-name="E" unicode="E" horiz-adv-x="1080" 
d="M183 0q-33 0 -51.5 19t-18.5 55v1347q0 33 18.5 51t51.5 18h719q41 0 58 -31.5t0 -63t-58 -31.5h-649v-562h523q47 0 66.5 -34t0 -67.5t-66.5 -33.5h-523v-545h649q41 0 58 -30.5t0 -61t-58 -30.5h-719z" />
    <glyph glyph-name="F" unicode="F" horiz-adv-x="1076" 
d="M253 74q0 -47 -35 -66.5t-70 0t-35 66.5v1364q0 28 21 46.5t49 18.5h723q37 0 52 -31.5t0 -63t-52 -31.5h-653v-575h510q37 0 52 -30.5t0 -61t-52 -30.5h-510v-606z" />
    <glyph glyph-name="G" unicode="G" horiz-adv-x="1403" 
d="M1290 209q0 -89 -117 -148q-134 -68 -333 -59q-247 11 -433 140q-251 174 -288 508q-6 55 -6 113q0 178 53 320t147 234.5t220.5 141.5t276.5 49q131 0 233.5 -26t159.5 -70q35 -27 43 -58.5t-9 -52t-47 -20.5q-22 -1 -52 15t-62.5 36t-103 37t-162.5 17
q-251 0 -400 -158t-149 -465q0 -148 49.5 -267t134 -192.5t194 -112.5t233.5 -37t248 42q12 3 21 17t9 27v401h-265q-43 0 -61 29.5t0 58.5t61 29h339q28 0 47 -21.5t19 -48.5v-479z" />
    <glyph glyph-name="H" unicode="H" horiz-adv-x="1272" 
d="M253 74q0 -34 -22 -53.5t-48 -19.5t-48 19.5t-22 53.5v1342q0 34 22 53.5t48 19.5t48 -19.5t22 -53.5v-667h767v667q0 34 21.5 53.5t48 19.5t48 -19.5t21.5 -53.5v-1342q0 -34 -21.5 -53.5t-48 -19.5t-48 19.5t-21.5 53.5v553h-767v-553z" />
    <glyph glyph-name="I" unicode="I" horiz-adv-x="366" 
d="M253 1438v-1364q0 -34 -22 -53.5t-48 -19.5t-48 19.5t-22 53.5v1364q0 43 35 61t70 0t35 -61z" />
    <glyph glyph-name="J" unicode="J" horiz-adv-x="832" 
d="M806 375q0 -96 -39 -174t-103.5 -124t-143.5 -66.5t-165.5 -7.5t-162.5 58q-81 49 -76 106q3 37 36 50q27 11 53 -8q8 -5 34.5 -26t41.5 -28.5t53 -17.5t89 -11q123 0 181 66.5t58 199.5v1046q0 47 36 66.5t72 0t36 -66.5v-1063z" />
    <glyph glyph-name="K" unicode="K" horiz-adv-x="1172" 
d="M946 1473q25 29 60.5 17.5t46.5 -43.5t-12 -66l-414 -470l375 -798q19 -49 4 -81.5t-52.5 -28.5t-60.5 49l-366 741l-279 -318v-405q0 -47 -34 -66.5t-67.5 0t-33.5 66.5v1359q0 45 33.5 64.5t67.5 1t34 -65.5v-749z" />
    <glyph glyph-name="L" unicode="L" horiz-adv-x="880" 
d="M113 414v1011q0 39 22 61t48 22t48 -22t22 -61v-1007q0 -49 2 -82.5t12.5 -78.5t29 -72.5t54 -47t85.5 -19.5h270q39 0 55 -29.5t0 -59t-55 -29.5h-270q-59 0 -106.5 11t-81 30t-58 49.5t-39.5 63.5t-23.5 77.5t-11.5 86.5t-3 96z" />
    <glyph glyph-name="M" unicode="M" horiz-adv-x="1586" 
d="M1251 1421q21 54 75.5 75t100.5 -2.5t46 -81.5v-1347q0 -41 -36 -58t-72 0t-36 58v1186l-471 -1207q-11 -27 -39.5 -38t-57.5 0t-42 38l-471 1207v-1190q0 -39 -34 -55t-67.5 0t-33.5 55v1351q0 58 46.5 81.5t101 2.5t75.5 -75l466 -1194z" />
    <glyph glyph-name="N" unicode="N" horiz-adv-x="1307" 
d="M1059 1425q0 37 21 58t46.5 21t46.5 -21t21 -58v-1355q0 -40 -28 -59.5t-67 -7.5t-66 54l-785 1228v-1220q0 -31 -21 -48.5t-46.5 -17.5t-46.5 17.5t-21 48.5v1351q0 49 33.5 74t82 10t85.5 -71l745 -1159v1155z" />
    <glyph glyph-name="O" unicode="O" horiz-adv-x="1555" 
d="M780 -39q-182 0 -335.5 103t-242.5 280.5t-89 387.5q0 208 89 384.5t242.5 279.5t335.5 103q180 0 332.5 -103t241 -279.5t88.5 -384.5q0 -210 -88.5 -387.5t-241 -280.5t-332.5 -103zM784 74q139 0 259 88.5t190 240t70 329.5q0 175 -70 326t-190 239.5t-259 88.5
q-141 0 -262 -88.5t-191 -239t-70 -326.5q0 -178 70 -329.5t190.5 -240t262.5 -88.5z" />
    <glyph glyph-name="P" unicode="P" horiz-adv-x="1146" 
d="M113 65v1373q0 32 20 51t50 19q152 0 259 -4.5t202 -16t156 -33t109 -53t73.5 -78.5t38 -106.5t12.5 -140.5q0 -234 -135.5 -348t-392.5 -114h-252v-549q0 -41 -35 -58t-70 0t-35 58zM253 736h252q193 0 290.5 81.5t97.5 254.5q0 54 -6 94t-22.5 73t-38 55t-61 39.5
t-83.5 27t-112.5 15.5t-141 8t-175.5 2v-650z" />
    <glyph glyph-name="Q" unicode="Q" horiz-adv-x="1555" 
d="M1068 35l178 -170q7 -15 -30 -52l-13 -13q-12 -12 -24 -21t-19.5 -12.5t-9.5 -1.5l-222 213q-91 -17 -148 -17q-182 0 -335.5 103t-242.5 280.5t-89 387.5q0 208 89 384.5t242.5 279.5t335.5 103q180 0 332.5 -103t241 -279.5t88.5 -384.5q0 -226 -102.5 -413.5
t-271.5 -283.5zM261 732q0 -178 70 -329.5t190.5 -240t262.5 -88.5q139 0 259 88.5t190 240t70 329.5q0 175 -70 326t-190 239.5t-259 88.5q-141 0 -262 -88.5t-191 -239t-70 -326.5z" />
    <glyph glyph-name="R" unicode="R" horiz-adv-x="1220" 
d="M113 74v1364q0 28 22 46.5t52 18.5q176 0 295 -6t220 -23t159.5 -44.5t99.5 -74.5t56.5 -109.5t15.5 -151.5q0 -296 -257 -379l322 -610q18 -45 1 -76t-58 -26.5t-65 49.5l-340 632l-379 -4v-606q0 -45 -36 -64.5t-72 -1t-36 65.5zM257 797q106 0 179 1.5t141.5 7.5
t111.5 14.5t81 24.5t58.5 36.5t35.5 52t20 68t5 87.5q0 50 -6 87.5t-22.5 68t-38 51.5t-60.5 37t-82.5 24.5t-111.5 14t-138.5 7.5t-172.5 2v-584z" />
    <glyph glyph-name="S" unicode="S" horiz-adv-x="1185" 
d="M575 4q-132 0 -236.5 27t-164.5 74q-61 41 -61 91v9q0 27 17.5 46t43.5 19q19 0 40 -15t47.5 -37t62.5 -44t100 -37t147 -15q169 0 265 73t96 219q0 71 -24 120.5t-84 83.5t-102.5 49.5t-137.5 42.5q-21 6 -31 9q-105 29 -177 61.5t-126.5 79t-80 109.5t-25.5 147
q0 178 124.5 285t341.5 107q207 0 340 -79q61 -36 61 -91v-5q0 -29 -15 -45t-42 -16q-18 0 -38 12t-43 29.5t-54 35t-85.5 29.5t-123.5 12q-158 0 -238 -71.5t-80 -194.5q0 -54 16.5 -95t42 -68t71.5 -50t88 -36t109 -30q124 -33 202.5 -65.5t138.5 -81t86 -115t26 -160.5
q0 -208 -131 -313.5t-366 -105.5z" />
    <glyph glyph-name="T" unicode="T" horiz-adv-x="1302" 
d="M183 1381q-43 0 -61 30.5t0 61t61 30.5h946q39 0 55 -30.5t0 -61t-55 -30.5h-380v-1311q0 -33 -22.5 -52t-49 -19.5t-49 18.5t-22.5 53v1311h-423z" />
    <glyph glyph-name="U" unicode="U" horiz-adv-x="1324" 
d="M1211 527q0 -130 -47 -234t-124.5 -167.5t-176 -97t-201.5 -32t-201.5 37t-176 99.5t-124.5 166.5t-47 227.5v902q0 47 36 66.5t72 0t36 -66.5v-906q0 -392 418 -392q91 0 160.5 19.5t124 63t83.5 121.5t29 188v911q0 45 35 64.5t69.5 1t34.5 -65.5v-907z" />
    <glyph glyph-name="V" unicode="V" horiz-adv-x="1394" 
d="M601 70l-479 1333q-16 45 9.5 74t63.5 21.5t53 -51.5l449 -1247l440 1242q16 51 56.5 62t66.5 -20t8 -81l-479 -1333q-15 -42 -54.5 -58t-79 0t-54.5 58z" />
    <glyph glyph-name="W" unicode="W" horiz-adv-x="1982" 
d="M1773 1451q12 42 47 51.5t58 -18.5t9 -77l-388 -1337q-13 -42 -45 -58t-63.5 0t-44.5 58l-344 1168l-340 -1168q-13 -42 -45.5 -58t-65.5 0t-46 58l-387 1337q-12 49 12 75t57 17.5t44 -44.5l357 -1246l349 1242q12 41 42.5 53t53.5 -9q21 -15 26 -35l366 -1251z" />
    <glyph glyph-name="X" unicode="X" horiz-adv-x="1398" 
d="M261 26q-33 -45 -88 -43q-44 3 -54 31q-8 21 12 47l462 680l-467 688q-26 38 2 65t70 13q33 -12 55 -47l449 -650l440 650q39 61 92 57q39 -2 50 -34q10 -28 -12 -58l-466 -680l471 -684q24 -38 -8 -64q-30 -25 -72 -10q-29 10 -47 39l-448 649z" />
    <glyph glyph-name="Y" unicode="Y" horiz-adv-x="1429" 
d="M122 1425q-25 44 7 69q31 24 74 4q27 -11 45 -38l449 -676l440 676q34 56 88 53q40 -1 54 -32q11 -26 -11 -56l-497 -737v-614q0 -45 -36 -64.5t-72 -1t-36 65.5v610z" />
    <glyph glyph-name="Z" unicode="Z" horiz-adv-x="1302" 
d="M1098 113q39 0 56 -28t2 -56.5t-54 -28.5h-919q-30 0 -50.5 19.5t-19 58t34.5 83.5l863 1225h-784q-45 0 -63.5 30.5t1 61t66.5 30.5h880q19 0 35 -4t28.5 -15t15.5 -28t-7.5 -45.5t-36.5 -64.5l-867 -1238h819z" />
    <glyph glyph-name="bracketleft" unicode="[" horiz-adv-x="636" 
d="M187 -118q-27 0 -46 16.5t-19 44.5v1534q0 32 18.5 49t46.5 17h275q25 0 38.5 -14.5t13.5 -38.5v-4q0 -21 -13.5 -34.5t-38.5 -13.5h-214v-1451h214q52 0 52 -52v-5q0 -21 -13.5 -34.5t-38.5 -13.5h-275z" />
    <glyph glyph-name="backslash" unicode="\" horiz-adv-x="840" 
d="M597 -148l-471 1529q-15 46 8 77t58.5 20t51.5 -66l471 -1530q15 -46 -8 -72.5t-58.5 -15.5t-51.5 58z" />
    <glyph glyph-name="bracketright" unicode="]" horiz-adv-x="631" 
d="M444 -118h-274q-25 0 -38.5 13.5t-13.5 34.5v5q0 52 52 52h213v1451h-213q-25 0 -38.5 13.5t-13.5 34.5v4q0 24 13.5 38.5t38.5 14.5h274q28 0 47 -17.5t19 -48.5v-1534q0 -28 -19 -44.5t-47 -16.5z" />
    <glyph glyph-name="asciicircum" unicode="^" horiz-adv-x="775" 
d="M135 1551l174 236q30 40 76.5 41t80.5 -41l175 -236q8 -14 7 -30t-12.5 -28t-25.5 -18.5t-32 -1.5t-33 22l-157 196l-161 -196q-16 -19 -35 -25t-33 -0.5t-24.5 17t-10 29t10.5 35.5z" />
    <glyph glyph-name="underscore" unicode="_" horiz-adv-x="962" 
d="M841 -13q0 -52 -48 -52h-623q-48 0 -48 52v4q0 53 48 53h623q48 0 48 -53v-4z" />
    <glyph glyph-name="a" unicode="a" horiz-adv-x="1019" 
d="M453 0q-161 0 -250.5 88t-89.5 248q0 113 57.5 190t152 109t208.5 31t232 -34v135q0 82 -51.5 129t-139 55t-202.5 -10q-52 -9 -69 29q-16 33 9 63q19 23 52 26q69 9 132 9.5t124.5 -7.5t111.5 -30t88 -56t59 -87t21 -121v-475q0 -84 -27.5 -142.5t-62.5 -87t-103 -43.5
t-110.5 -17t-124.5 -2h-9h-8zM466 113q145 0 216.5 27.5t71.5 103.5v270q-105 27 -197.5 30t-165 -17t-114.5 -71t-42 -129q0 -107 62.5 -160.5t168.5 -53.5z" />
    <glyph glyph-name="b" unicode="b" horiz-adv-x="1189" 
d="M588 0q-109 0 -184 8t-133.5 27t-91.5 53.5t-49.5 84.5t-16.5 123v1120q0 87 66 87q36 0 52.5 -20.5t16.5 -66.5v-518q175 183 397 183q91 0 167 -30.5t136.5 -94t94 -173t33.5 -256.5q0 -527 -488 -527zM588 113q59 0 105.5 9t94 35.5t79 70t51 117.5t19.5 174
t-17.5 178.5t-47 128t-69.5 82.5t-82 46t-89 13q-196 0 -384 -213v-458q0 -51 8.5 -81.5t27.5 -52t61 -31.5t96 -14t147 -4z" />
    <glyph glyph-name="c" unicode="c" horiz-adv-x="1028" 
d="M562 1081q189 0 336 -122q6 -3 11.5 -13.5t5.5 -17.5v-43q0 -24 -12.5 -32t-35.5 1q-147 109 -305 109q-117 4 -197.5 -82.5t-99 -212t-0.5 -251.5t98.5 -215t198.5 -89q154 0 305 131q23 12 35.5 5t12.5 -27v-52q0 -6 -13 -35q-153 -135 -340 -135q-108 0 -195.5 46.5
t-141 122.5t-82.5 173t-29 198.5t29 198.5t82.5 173t141 122.5t195.5 46.5z" />
    <glyph glyph-name="d" unicode="d" horiz-adv-x="1189" 
d="M606 -17q-493 0 -493 527q0 147 35 257.5t97 174.5t138 95t166 31q212 0 392 -188v519q0 49 17.5 70t56.5 21q26 0 43.5 -22.5t17.5 -68.5v-1120q0 -73 -16 -123t-48.5 -84.5t-90 -53.5t-132 -27t-183.5 -8zM606 100q77 0 125.5 2t89 9.5t61.5 19t35.5 32.5t19 48t4.5 68
v462q-89 97 -179 153t-200 56q-61 0 -113.5 -22.5t-98 -72t-71.5 -140t-26 -214.5q0 -100 20 -173.5t51 -116.5t79 -68.5t95.5 -34t107.5 -8.5z" />
    <glyph glyph-name="e" unicode="e" horiz-adv-x="976" 
d="M540 1068q161 0 250.5 -88t89.5 -248q0 -113 -57.5 -190t-151.5 -109t-208 -31t-232 34v-135q0 -125 121 -164.5t363 -5.5q43 6 62 -23t3 -62t-57 -37q-108 -9 -202.5 -10t-172.5 17t-134 51.5t-87 92.5t-31 141v475q0 84 28 142.5t63 87t103 43.5t110.5 17t122.5 2h17z
M527 954q-145 0 -216 -27t-71 -103v-271q105 -27 197.5 -30t164.5 17t114 71.5t42 129.5q0 107 -62.5 160t-168.5 53z" />
    <glyph glyph-name="f" unicode="f" horiz-adv-x="810" 
d="M636 1142q39 0 55 -32t0 -63.5t-55 -31.5h-239v-950q0 -32 -18 -48.5t-48 -16.5h-4q-28 0 -47 17t-19 48v950h-82q-41 0 -58 31.5t0 63.5t58 32h82v96q0 138 72 210.5t199 72.5q46 0 74 -5q26 -3 41 -17.5t15 -34.5v-4q0 -57 -56 -57q-12 0 -32 2t-25 2q-81 0 -116.5 -39
t-35.5 -135v-91h239z" />
    <glyph glyph-name="g" unicode="g" horiz-adv-x="1154" 
d="M571 1081q95 0 184.5 -30.5t151 -77.5t98 -102t36.5 -104v-850q0 -177 -85.5 -271.5t-232.5 -94.5l-248 5q-37 2 -53 34.5t-2 64t51 31.5h235q94 0 145 58.5t51 163.5v118q-83 -26 -296 -26q-493 0 -493 527q0 146 38 256.5t103.5 173.5t145 93.5t171.5 30.5zM902 231
v475q0 59 -18.5 101t-64.5 73q-104 83 -253 83q-46 0 -88 -12.5t-84 -45t-72.5 -81.5t-49.5 -127.5t-19 -177.5q0 -100 19 -174t49.5 -117.5t76 -70t90 -35.5t100.5 -9q178 0 241 22.5t73 95.5z" />
    <glyph glyph-name="h" unicode="h" horiz-adv-x="1163" 
d="M174 0q-26 0 -43.5 17.5t-17.5 43.5v1355q0 87 66 87q36 0 52.5 -20.5t16.5 -66.5v-497q77 77 168 119.5t216 42.5q90 0 163.5 -30.5t131.5 -94t90.5 -173t32.5 -256.5v-466q0 -27 -15.5 -44t-41.5 -17h-21q-26 0 -43.5 17.5t-17.5 43.5v449q0 124 -24 214.5t-67 140
t-92.5 72t-108.5 22.5q-60 0 -112.5 -16.5t-99 -49.5t-81 -65.5t-78.5 -82.5v-684q0 -27 -15 -44t-41 -17h-18z" />
    <glyph glyph-name="i" unicode="i" horiz-adv-x="357" 
d="M113 1268v70q0 39 31.5 56t63.5 1t32 -57v-70q0 -41 -32 -58t-63.5 0t-31.5 58zM179 0q-28 0 -47 17t-19 48v933q0 45 16 64t50 19q65 0 65 -83v-933q0 -32 -17 -48.5t-44 -16.5h-4z" />
    <glyph glyph-name="j" unicode="j" horiz-adv-x="527" 
d="M357 1259v70q0 39 31.5 56t63.5 1t32 -57v-70q0 -39 -32 -55t-63.5 0t-31.5 55zM235 -388h-56q-39 0 -56.5 29.5t-3.5 59t51 29.5h48q59 0 95 62.5t36 163.5l4 1068q0 39 33.5 55t67.5 0t34 -55v-1059q0 -170 -70 -261.5t-183 -91.5z" />
    <glyph glyph-name="k" unicode="k" horiz-adv-x="1002" 
d="M863 1155q55 -44 -9 -114l-301 -331l271 -579q3 -7 9 -19.5t8 -17.5t5.5 -14.5t4 -13.5t0.5 -11t-3 -11.5t-8 -10t-12 -11.5q-13 -9 -26 -13.5t-28 -4.5t-28.5 11t-22.5 33l-270 549l-205 -222v-318q0 -26 -15 -41.5t-41 -15.5h-18q-27 0 -44 15.5t-17 41.5v1355
q0 46 18.5 68.5t47.5 22.5q36 0 52.5 -21.5t16.5 -69.5v-837l510 558q60 60 105 22z" />
    <glyph glyph-name="l" unicode="l" horiz-adv-x="361" 
d="M113 61v1355q0 87 66 87q36 0 52.5 -20.5t16.5 -66.5v-1355q0 -27 -15 -44t-41 -17h-18q-26 0 -43.5 17.5t-17.5 43.5z" />
    <glyph glyph-name="m" unicode="m" horiz-adv-x="1795" 
d="M1259 1081q91 0 165.5 -30.5t133.5 -94t91.5 -173t32.5 -256.5v-466q0 -39 -35 -55t-69.5 0t-34.5 55v449q0 124 -24.5 214.5t-66 140t-89.5 72t-104 22.5q-183 0 -305 -122q39 -124 39 -318v-458q0 -39 -34.5 -55t-69.5 0t-35 55v458q0 101 -11 177.5t-30 126t-48 80.5
t-62.5 43.5t-75.5 12.5q-119 0 -205 -55t-174 -159v-684q0 -39 -34 -55t-67.5 0t-33.5 55v932q0 46 18.5 67t47.5 21q37 0 53 -20t16 -68v-74q77 77 167 119.5t212 42.5q190 0 284 -144q179 144 348 144z" />
    <glyph glyph-name="n" unicode="n" horiz-adv-x="1163" 
d="M113 57v936q0 46 18.5 67t47.5 21q37 0 53 -20t16 -68v-78q157 166 379 166q92 0 166 -30.5t133 -95.5t91.5 -177t32.5 -264v-457q0 -28 -21.5 -43.5t-48 -15.5t-48 15.5t-21.5 43.5v457q0 122 -24.5 212t-66 139t-89.5 71.5t-104 22.5q-63 0 -117 -16.5t-101.5 -49.5
t-82 -65.5t-78.5 -82.5v-688q0 -28 -21 -43.5t-46.5 -15.5t-46.5 15.5t-21 43.5z" />
    <glyph glyph-name="o" unicode="o" horiz-adv-x="1233" 
d="M1133 545q0 -248 -141.5 -396.5t-377.5 -148.5q-230 0 -374 149.5t-144 395.5q0 243 143.5 389.5t374.5 146.5q236 0 377.5 -145.5t141.5 -390.5zM231 545q0 -202 103 -317t280 -115q180 0 282 115t102 317q0 199 -101.5 308.5t-282.5 109.5q-178 0 -280.5 -110
t-102.5 -308z" />
    <glyph glyph-name="p" unicode="p" horiz-adv-x="1154" 
d="M580 1076q61 0 115 -10.5t107 -33t95.5 -63t75 -96.5t50.5 -137.5t18 -182.5q0 -149 -34.5 -259t-98.5 -174t-145.5 -94t-182.5 -30q-126 0 -199 18t-133 78v-388q0 -49 -16.5 -70.5t-52.5 -21.5q-28 0 -47 23t-19 69v1080q0 62 8.5 105.5t30.5 77t55 54t87.5 33
t122 17.5t163.5 5zM580 963q-83 0 -132.5 -1.5t-90.5 -9.5t-59.5 -17.5t-31.5 -32.5t-15.5 -48t-2.5 -70v-536q68 -74 141.5 -102t190.5 -28q322 0 322 444q0 98 -19.5 172t-49.5 116.5t-74 69t-86 35t-93 8.5z" />
    <glyph glyph-name="q" unicode="q" horiz-adv-x="1154" 
d="M580 1076q95 0 161.5 -5t120.5 -17.5t86.5 -33t54 -54t30 -77t8.5 -105.5v-1085q0 -45 -17.5 -66t-43.5 -21q-39 0 -56.5 20.5t-17.5 66.5v388q-57 -57 -129.5 -74t-196.5 -17q-102 0 -184 30t-147 94t-100.5 174t-35.5 259q0 120 26.5 213t70 150.5t105 94.5t126 51
t139.5 14zM580 963q-52 0 -95 -8.5t-87.5 -35t-75 -69t-50 -116.5t-19.5 -172q0 -126 26.5 -216t74 -138t103 -69t123.5 -21q116 0 187 28t139 102v536q0 33 -1 53t-6.5 41t-14 32t-26 22t-39.5 16t-58 9t-78 5t-103 1z" />
    <glyph glyph-name="r" unicode="r" horiz-adv-x="788" 
d="M174 0q-26 0 -43.5 17.5t-17.5 43.5v963q0 39 33.5 56t67.5 1t34 -57v-148q79 82 183.5 137t222.5 55q34 0 47.5 -28.5t-3 -57t-57.5 -28.5q-201 0 -393 -209v-684q0 -27 -15 -44t-41 -17h-18z" />
    <glyph glyph-name="s" unicode="s" horiz-adv-x="1010" 
d="M492 4q-110 0 -200 21.5t-139 57.5q-15 15 -21 21.5t-12.5 18t-6.5 21.5v4q0 26 22.5 40t51.5 4q14 -3 38 -16.5t48 -25.5t80 -22t131 -10q141 0 216.5 42.5t75.5 144.5q0 39 -13.5 68.5t-32.5 47.5t-59 34.5t-73 25.5t-93 24q-7 2 -11.5 3t-9.5 2q-176 38 -256 101.5
t-80 185.5q0 124 97 201.5t269 77.5q168 0 288 -61q49 -33 38 -76q-7 -30 -34 -37q-15 -3 -30 4q-14 1 -35 10.5t-42.5 19.5t-69 18.5t-110.5 8.5q-253 0 -253 -166q0 -42 11 -69t46.5 -45.5t61.5 -26.5t96 -24q25 -6 38 -9q200 -49 289.5 -115.5t89.5 -193.5
q0 -152 -110 -231t-296 -79z" />
    <glyph glyph-name="t" unicode="t" horiz-adv-x="893" 
d="M715 118q37 0 51 -27.5t-2.5 -56t-53.5 -30.5l-74 -4q-149 -3 -235.5 92.5t-86.5 269.5v653h-135q-41 0 -58 31.5t0 63.5t58 32h135v122q0 31 21 48.5t46.5 17.5t46.5 -17.5t21 -48.5v-122h244q39 0 55 -32t0 -63.5t-55 -31.5h-244l4 -662q0 -105 52.5 -170t148.5 -65h61
z" />
    <glyph glyph-name="u" unicode="u" horiz-adv-x="1163" 
d="M1050 1024v-932q0 -46 -18 -71t-43 -25q-39 0 -56.5 24.5t-17.5 79.5l4 87q-65 -83 -162.5 -137t-216.5 -54q-91 0 -166 31t-135 96.5t-93 178t-33 264.5v458q0 37 35 52t70 0t35 -52v-458q0 -122 24 -212t66 -138.5t91 -71t106 -22.5q61 0 114.5 16.5t100.5 49.5
t81.5 65.5t78.5 82.5v688q0 28 21 43.5t46.5 15.5t46.5 -15.5t21 -43.5z" />
    <glyph glyph-name="v" unicode="v" horiz-adv-x="1154" 
d="M519 65l-393 894q-35 76 22 100q65 39 105 -48l335 -767l336 767q39 86 104 48q55 -28 22 -100l-392 -894q-20 -46 -71 -46t-68 46z" />
    <glyph glyph-name="w" unicode="w" horiz-adv-x="1939" 
d="M122 972q-19 44 4.5 74t63.5 23t63 -54l327 -793l322 789q12 37 43 52t61.5 1.5t43.5 -49.5l327 -793l322 789q15 40 54 45.5t62.5 -26t1.5 -80.5l-379 -919q-13 -30 -63 -31t-63 31l-332 814l-339 -814q-13 -30 -63.5 -31t-63.5 31z" />
    <glyph glyph-name="x" unicode="x" horiz-adv-x="1085" 
d="M131 78l313 462l-313 458q-35 45 0 66q32 19 79 1q22 -8 38 -24l292 -431h5l296 431q31 37 80 34q41 -3 47 -32q5 -19 -14 -45l-313 -458l313 -462q37 -47 1 -68q-31 -18 -76 1q-24 10 -38 28l-296 432h-5l-292 -432q-31 -39 -82 -37q-42 2 -49 30q-5 20 14 46z" />
    <glyph glyph-name="y" unicode="y" horiz-adv-x="1119" 
d="M122 954q-21 53 3 86t63 25t56 -54l296 -802l340 824q21 44 64 45q40 2 56 -34q14 -33 -7 -81l-514 -1251q-33 -63 -85 -59q-38 4 -53 39q-10 22 -1 47l131 292z" />
    <glyph glyph-name="z" unicode="z" horiz-adv-x="1098" 
d="M959 967l-667 -858h575q65 0 65 -57q0 -52 -65 -52h-662q-41 0 -66 16t-26 38.5t13 45.5l676 872h-554q-69 0 -69 52q0 26 18 41.5t51 15.5h663q51 0 68 -34t-20 -80z" />
    <glyph glyph-name="braceleft" unicode="{" horiz-adv-x="819" 
d="M170 558q-22 0 -35 15.5t-13 36.5v4q0 20 13 34t35 14h26q122 0 122 118v401q0 244 248 244h79q25 0 38.5 -13.5t13.5 -34.5v-4q0 -24 -13.5 -38.5t-38.5 -14.5h-70q-68 0 -99.5 -34.5t-31.5 -104.5v-401q0 -69 -28.5 -107t-84.5 -59q113 -36 113 -170v-427
q0 -148 131 -148h70q25 0 38.5 -13.5t13.5 -34.5v-4q0 -52 -52 -52h-79q-248 0 -248 252v432q0 109 -122 109h-26z" />
    <glyph glyph-name="bar" unicode="|" horiz-adv-x="357" 
d="M122 1377q0 25 15.5 41t36.5 16h5q24 0 40 -15.5t16 -41.5v-1560q0 -26 -16 -41.5t-40 -15.5h-5q-21 0 -36.5 16t-15.5 41v1560z" />
    <glyph glyph-name="braceright" unicode="}" horiz-adv-x="819" 
d="M619 566q-118 0 -118 -108v-432q0 -124 -64.5 -188.5t-188.5 -64.5h-78q-23 0 -35.5 14.5t-12.5 38.5v4q0 24 12.5 38t35.5 14h70q71 0 103 35.5t32 108.5v427q0 134 113 170q-113 42 -113 166v401q0 73 -32 106t-103 33h-70q-23 0 -35.5 14t-12.5 38v5q0 24 12.5 38
t35.5 14h78q253 0 253 -248v-401q0 -114 118 -114h26q52 0 52 -52v-4q0 -21 -13.5 -37t-38.5 -16h-26z" />
    <glyph glyph-name="asciitilde" unicode="~" horiz-adv-x="862" 
d="M227 1055q-33 -36 -72.5 -27.5t-50.5 42t9 67.5q50 43 93 63t85.5 17.5t73 -12.5t79.5 -33q44 -23 85 -23t71.5 17.5t53.5 49.5q35 51 88 43q41 -7 53 -41q10 -26 -6 -55q-45 -85 -134 -114.5t-180 -11.5q-33 5 -72 22.5t-62.5 28t-54 5t-59.5 -37.5z" />
    <glyph glyph-name="exclamdown" unicode="&#xa1;" horiz-adv-x="444" 
d="M131 1063q0 39 27 65.5t69 26.5q36 0 61.5 -26.5t25.5 -65.5q0 -36 -25.5 -63.5t-61.5 -27.5q-42 0 -69 27t-27 64zM166 780q3 26 18 41.5t38 15.5h5q20 0 34 -15.5t14 -41.5q13 -725 13 -1068q0 -32 -17 -50.5t-44 -18.5h-5q-29 0 -49 20t-20 49q0 153 3.5 420t6.5 458z
" />
    <glyph glyph-name="cent" unicode="&#xa2;" horiz-adv-x="1137" 
d="M980 -139q-117 -93 -287 -105v-157q0 -26 -17 -41t-37.5 -15t-37.5 15t-17 41v157q-216 16 -339 166.5t-123 395.5q0 242 125 390t337 168v78q0 23 17 36t37.5 13t37.5 -13t17 -36v-78q142 -5 266 -79q33 -24 39 -54.5t-11.5 -51t-45.5 -20.5q-18 0 -50 22t-84 47
t-114 31v-906q66 3 114 19.5t68.5 34.5t43 38t40.5 26q27 11 47 -17q25 -35 -1 -77q-9 -15 -25 -28zM248 318q0 -201 87 -317t249 -136v906q-153 -20 -244.5 -140t-91.5 -313z" />
    <glyph glyph-name="sterling" unicode="&#xa3;" horiz-adv-x="1193" 
d="M187 0q-28 0 -36 35t10 61q7 10 21 28q45 60 63.5 85t40 67.5t25 66t4 74t-7.5 99t-24 133.5h-100q-37 4 -52 31t0 52.5t52 25.5h83q-40 164 -38.5 292t43.5 216t139 134.5t248 46.5q99 0 187.5 -29.5t152.5 -79.5q24 -17 31.5 -46.5t-6.5 -52.5t-47 -23q-18 0 -37 11.5
t-40.5 28t-50 33.5t-78 28.5t-112.5 11.5q-70 0 -122.5 -12.5t-88 -35.5t-56.5 -61t-30 -81.5t-6.5 -106t11.5 -126t26 -148.5h362q23 0 36 -17t13 -37.5t-13 -37.5t-36 -17h-344q12 -87 17.5 -139.5t4.5 -116t-13.5 -106.5t-39 -88.5t-70.5 -85.5h698q35 0 50 -28t1 -56.5
t-51 -28.5h-820z" />
    <glyph glyph-name="yen" unicode="&#xa5;" horiz-adv-x="1228" 
d="M1041 1464q40 0 58 -32t-5 -68l-379 -649h278q16 0 24.5 -17t8.5 -37.5t-8.5 -37.5t-24.5 -17h-309v-127h309q21 0 29.5 -26t0 -52t-29.5 -26h-309v-340q0 -29 -19 -47.5t-46 -18.5h-5q-27 0 -46 18.5t-19 47.5v340h-314q-31 0 -43.5 26t0 52t43.5 26h314v127h-314
q-27 0 -38 27t0 54.5t38 27.5h279l-379 645q-25 39 -6.5 71.5t58.5 32.5q35 0 66 -48l370 -636l362 641q28 43 56 43z" />
    <glyph glyph-name="brokenbar" unicode="&#xa6;" horiz-adv-x="352" 
d="M235 745q0 -28 -15.5 -42.5t-40.5 -14.5h-5q-25 0 -40.5 14.5t-15.5 42.5v667q0 25 15.5 38.5t40.5 13.5h5q25 0 40.5 -13.5t15.5 -38.5v-667zM235 -170q0 -26 -16 -41.5t-40 -15.5h-5q-24 0 -40 15.5t-16 41.5v667q0 26 16 41t40 15h5q24 0 40 -15t16 -41v-667z" />
    <glyph glyph-name="section" unicode="&#xa7;" horiz-adv-x="1193" 
d="M566 -362q-103 0 -201.5 34t-159.5 75q-32 26 -31.5 53t26 42.5t53.5 0.5q234 -128 410 -97q116 21 159.5 100.5t-10.5 168.5q-71 117 -274 177l-28 8q-114 31 -200 82.5t-131.5 110.5t-57 124t13.5 122.5t91 105.5t166 74q-155 83 -175 212q-18 112 70 210
q97 106 263 134q175 29 365 -46q57 -22 59 -69q1 -36 -27 -52q-20 -9 -41 -1q-257 92 -425 43q-106 -31 -131 -106q-28 -79 49 -159q83 -87 255 -135q100 -27 182.5 -72.5t135 -99.5t83.5 -113.5t29 -117.5t-28.5 -109t-90 -91t-155.5 -60q71 -41 109 -99.5t41.5 -118.5
t-23 -120t-76.5 -106.5t-127 -75.5t-168 -29zM680 257q198 20 260 115q52 79 -13 172q-76 112 -271 179q-51 18 -107 31q-96 -8 -166 -37t-103.5 -68t-35 -87.5t29 -95t99.5 -90.5t167 -75z" />
    <glyph glyph-name="copyright" unicode="&#xa9;" horiz-adv-x="605" 
d="M301 993q-118 0 -194 74.5t-76 191.5t75.5 189.5t194.5 72.5q87 0 151.5 -39t93.5 -98t29 -127t-29 -127t-93.5 -98t-151.5 -39zM301 1046q69 0 119.5 31.5t74 79t23.5 103t-22.5 103t-73.5 79t-121 31.5q-68 0 -118 -31.5t-72.5 -79t-23 -103t22 -103t72.5 -79
t119 -31.5zM309 1142q-59 0 -90.5 32t-31.5 94q0 54 34 86t88 32q45 0 70 -13q15 -10 11 -22.5t-15 -12.5q-3 0 -21.5 11t-44.5 11q-36 0 -59 -26.5t-23 -65.5q0 -96 82 -96q25 0 43.5 13t26.5 13q3 0 8 -5.5t5 -11.5q0 -9 -13 -22q-25 -17 -70 -17z" />
    <glyph glyph-name="guillemotleft" unicode="&#xab;" horiz-adv-x="1041" 
d="M423 244q-18 0 -57 39l-296 292q-20 27 -21 59t21 59l305 309q38 41 80 21q31 -15 32 -47q1 -22 -16 -39l-284 -301l288 -296q23 -29 5.5 -62.5t-53.5 -33.5h-4zM854 244q-18 0 -57 39l-296 292q-24 27 -25.5 59t21.5 59l309 309q38 41 80 21q31 -15 32 -47
q1 -22 -16 -39l-288 -301l288 -296q25 -29 9 -62.5t-53 -33.5h-4z" />
    <glyph glyph-name="registered" unicode="&#xae;" horiz-adv-x="784" 
d="M392 993q-118 0 -194 74.5t-76 191.5t75.5 189.5t194.5 72.5q65 0 118 -22.5t86 -60t50.5 -85t17.5 -96.5t-17.5 -96.5t-50.5 -85t-86 -60t-118 -22.5zM392 1046q68 0 118 31.5t72.5 79t23 103t-22 103t-72.5 79t-119 31.5q-68 0 -118 -31.5t-72.5 -79t-23 -103t22 -103
t72.5 -79t119 -31.5zM336 1150q-22 0 -22 22v174q0 31 30 31h57q45 0 66 -17t21 -53q0 -46 -44 -61l44 -65q9 -13 3 -22t-20 -9q-21 0 -27 13l-47 75h-40v-66q0 -22 -21 -22zM357 1272h40q47 0 47 35q0 39 -47 39h-40v-74z" />
    <glyph glyph-name="degree" unicode="&#xb0;" horiz-adv-x="806" 
d="M131 1290q0 118 80 194t194 76q117 0 193.5 -74t76.5 -196t-78 -198.5t-192 -76.5t-194 76.5t-80 198.5zM240 1290q0 -77 47.5 -125.5t117.5 -48.5t115.5 48t45.5 126t-45.5 126t-115.5 48t-117.5 -48.5t-47.5 -125.5z" />
    <glyph glyph-name="plusminus" unicode="&#xb1;" horiz-adv-x="1093" 
d="M932 789q26 0 41.5 -16.5t15.5 -40.5v-4q0 -27 -15.5 -44t-41.5 -17h-318v-231q0 -28 -15.5 -42.5t-40.5 -14.5h-5q-28 0 -46.5 14.5t-18.5 42.5v231h-314q-29 0 -45 17t-16 44v4q0 24 16.5 40.5t44.5 16.5h314v231q0 28 18.5 42t46.5 14h5q25 0 40.5 -14t15.5 -42v-231
h318zM850 279q28 0 44.5 -16.5t16.5 -40.5v-4q0 -27 -16 -44t-45 -17h-628q-56 0 -56 61v4q0 25 14 41t42 16h628z" />
    <glyph glyph-name="acute" unicode="&#xb4;" horiz-adv-x="470" 
d="M52 1312q-30 -8 -43 24q-12 31 7 51q11 11 28 12l387 56q21 2 32 -18t3 -42.5t-35 -26.5z" />
    <glyph glyph-name="paragraph" unicode="&#xb6;" horiz-adv-x="1167" 
d="M697 -427q-27 0 -44 15.5t-17 41.5v841h-17q-114 0 -202 20t-157 63.5t-105.5 120t-36.5 183.5q0 88 25 156t69 112.5t109.5 72.5t141 40t169.5 12h335q29 0 49.5 -20.5t20.5 -49.5v-1551q0 -26 -17 -41.5t-44 -15.5h-4q-24 0 -40.5 15.5t-16.5 41.5v1503h-157v-1503
q0 -26 -15 -41.5t-41 -15.5h-5z" />
    <glyph glyph-name="periodcentered" unicode="&#xb7;" horiz-adv-x="422" 
d="M305 1272q0 -38 -29.5 -64.5t-66.5 -26.5q-38 0 -64.5 27t-26.5 64t26.5 66.5t64.5 29.5q37 0 66.5 -29t29.5 -67z" />
    <glyph glyph-name="guillemotright" unicode="&#xbb;" horiz-adv-x="1041" 
d="M183 244h-4q-34 0 -51.5 33.5t7.5 62.5l288 296l-288 301q-29 29 -8 63q20 32 56 29q27 -2 48 -27l309 -309q23 -27 21.5 -59t-25.5 -59l-296 -292q-39 -39 -57 -39zM614 244h-4q-34 0 -51.5 33.5t7.5 62.5l288 296l-288 301q-29 29 -8 63q20 32 56 29q27 -2 48 -27
l310 -309q23 -27 21 -59t-26 -59l-296 -292q-39 -39 -57 -39z" />
    <glyph glyph-name="questiondown" unicode="&#xbf;" horiz-adv-x="1028" 
d="M614 1124q36 0 62 -27.5t26 -63.5q0 -37 -26.5 -66.5t-61.5 -29.5q-39 0 -67 28.5t-28 67.5t28 65t67 26zM675 758q7 -85 -12 -157t-55 -123.5t-81 -98t-92 -90.5t-86 -90t-63.5 -107t-24.5 -131q0 -111 67.5 -171t194.5 -60q80 0 138.5 18.5t84 40t53 40t51.5 18.5
q23 0 35.5 -14t12.5 -38q0 -50 -61 -91t-147 -62t-171 -21q-183 0 -285.5 88t-102.5 256q0 36 7 70.5t15.5 60.5t28.5 58t33 51t43 51t44.5 46.5t51.5 50t51 48.5q104 101 132.5 165t28.5 192q0 23 17 38t37.5 16.5t37.5 -13t17 -41.5z" />
    <glyph glyph-name="multiply" unicode="&#xd7;" horiz-adv-x="984" 
d="M540 749l223 -226q39 -39 0 -79v-4q-50 -42 -88 -4l-222 226l-226 -226q-45 -38 -83 0l-5 4q-38 45 0 83l227 226l-227 223q-37 44 0 87h5q38 45 83 0l226 -222l222 222q36 43 88 0v-4q38 -38 0 -83z" />
    <glyph glyph-name="germandbls" unicode="&#xdf;" horiz-adv-x="1002" 
d="M436 4q-40 11 -44 52q-4 39 26 58q27 17 66 -1q121 -33 208.5 16t87.5 150q0 50 -37 114.5t-78.5 122.5t-73 121t-19.5 131.5t82 133.5q45 48 49.5 104.5t-23 101t-77.5 74t-106 29.5q-115 0 -192.5 -98t-77.5 -276v-759q0 -45 -32.5 -63t-65.5 0.5t-33 62.5v759
q0 501 401 501q75 0 141 -27t111 -70t72.5 -99t31 -113t-20 -113t-74.5 -97q-54 -42 -58.5 -93t27.5 -105.5t71.5 -108t73.5 -117.5t34 -116q0 -69 -27 -126t-73.5 -94t-106 -57.5t-128 -20t-135.5 22.5z" />
    <glyph glyph-name="adieresis" unicode="&#xe4;" horiz-adv-x="1019" 
d="M410 1246v70q0 37 31.5 53t63 1t31.5 -54v-70q0 -41 -31.5 -58t-63 0t-31.5 58zM606 1246v70q0 37 31.5 53t63 1t31.5 -54v-70q0 -41 -31.5 -58t-63 0t-31.5 58zM453 0q-161 0 -250.5 88t-89.5 248q0 113 57.5 190t152 109t208.5 31t232 -34v135q0 82 -51.5 129t-139 55
t-202.5 -10q-52 -9 -69 29q-16 33 9 63q19 23 52 26q69 9 132 9.5t124.5 -7.5t111.5 -30t88 -56t59 -87t21 -121v-475q0 -84 -27.5 -142.5t-62.5 -87t-103 -43.5t-110.5 -17t-124.5 -2h-9h-8zM466 113q145 0 216.5 27.5t71.5 103.5v270q-105 27 -197.5 30t-165 -17
t-114.5 -71t-42 -129q0 -107 62.5 -160.5t168.5 -53.5z" />
    <glyph glyph-name="egrave" unicode="&#xe8;" horiz-adv-x="976" 
d="M627 1194l-379 57q-27 4 -35 26.5t3 42.5t32 18l388 -57q34 -2 38 -35q4 -31 -18 -47q-13 -9 -29 -5zM540 1068q161 0 250.5 -88t89.5 -248q0 -113 -57.5 -190t-151.5 -109t-208 -31t-232 34v-135q0 -125 121 -164.5t363 -5.5q43 6 62 -23t3 -62t-57 -37
q-108 -9 -202.5 -10t-172.5 17t-134 51.5t-87 92.5t-31 141v475q0 84 28 142.5t63 87t103 43.5t110.5 17t122.5 2h17zM527 954q-145 0 -216 -27t-71 -103v-271q105 -27 197.5 -30t164.5 17t114 71.5t42 129.5q0 107 -62.5 160t-168.5 53z" />
    <glyph glyph-name="eacute" unicode="&#xe9;" horiz-adv-x="976" 
d="M270 1194q-30 -8 -43 24q-13 31 7 51q10 11 27 12l388 57q21 2 32 -18t3 -42.5t-35 -26.5zM540 1068q161 0 250.5 -88t89.5 -248q0 -113 -57.5 -190t-151.5 -109t-208 -31t-232 34v-135q0 -125 121 -164.5t363 -5.5q43 6 62 -23t3 -62t-57 -37q-108 -9 -202.5 -10
t-172.5 17t-134 51.5t-87 92.5t-31 141v475q0 84 28 142.5t63 87t103 43.5t110.5 17t122.5 2h17zM527 954q-145 0 -216 -27t-71 -103v-271q105 -27 197.5 -30t164.5 17t114 71.5t42 129.5q0 107 -62.5 160t-168.5 53z" />
    <glyph glyph-name="ecircumflex" unicode="&#xea;" horiz-adv-x="1063" 
d="M797 1316q29 -32 9 -56q-19 -23 -51 -11q-15 6 -27 19l-201 209l-205 -209q-30 -33 -63 -19q-27 11 -22 39q4 15 16 28l231 257q13 17 41.5 18t45.5 -18zM606 1068q158 0 246.5 -88t88.5 -248q0 -113 -57.5 -190t-151 -109t-206.5 -31t-230 34v-135q0 -125 120 -164.5
t364 -5.5q41 6 59.5 -23t3.5 -62t-54 -37q-136 -16 -251 -8.5t-199 36.5t-131 95.5t-47 168.5v475q-1 61 13 108t33.5 78t58 52t68 31.5t83 16t83.5 6t89 0.5h17zM593 954q-72 0 -121 -5t-89 -19t-59 -40t-19 -66v-271q105 -27 196.5 -30t163 17t113 71.5t41.5 129.5
q0 107 -60.5 160t-165.5 53z" />
    <glyph glyph-name="odieresis" unicode="&#xf6;" horiz-adv-x="1233" 
d="M449 1238v69q0 37 31.5 53t63 1t31.5 -54v-69q0 -41 -31.5 -58t-63 0t-31.5 58zM645 1238v69q0 37 31.5 53t63 1t31.5 -54v-69q0 -41 -31.5 -58t-63 0t-31.5 58zM1133 545q0 -248 -141.5 -396.5t-377.5 -148.5q-230 0 -374 149.5t-144 395.5q0 243 143.5 389.5
t374.5 146.5q236 0 377.5 -145.5t141.5 -390.5zM231 545q0 -202 103 -317t280 -115q180 0 282 115t102 317q0 199 -101.5 308.5t-282.5 109.5q-178 0 -280.5 -110t-102.5 -308z" />
    <glyph glyph-name="divide" unicode="&#xf7;" horiz-adv-x="1111" 
d="M427 1020q0 39 26.5 65t65.5 26q37 0 66 -26.5t29 -64.5t-29 -65t-66 -27q-39 0 -65.5 26.5t-26.5 65.5zM993 697q0 -61 -56 -61h-758q-28 0 -42.5 16.5t-14.5 44.5v5q0 25 14.5 43t42.5 18h758q27 0 41.5 -18t14.5 -43v-5zM427 366q0 42 26.5 69t65.5 27q37 0 66 -27.5
t29 -68.5q-3 -36 -31 -61.5t-64 -25.5q-39 0 -65.5 25.5t-26.5 61.5z" />
    <glyph glyph-name="udieresis" unicode="&#xfc;" horiz-adv-x="1163" 
d="M453 1246v70q0 37 31.5 53t63.5 1t32 -54v-70q0 -41 -32 -58t-63.5 0t-31.5 58zM649 1246v70q0 37 31.5 53t63.5 1t32 -54v-70q0 -41 -32 -58t-63.5 0t-31.5 58zM1050 1024v-932q0 -46 -18 -71t-43 -25q-39 0 -56.5 24.5t-17.5 79.5l4 87q-65 -83 -162.5 -137t-216.5 -54
q-91 0 -166 31t-135 96.5t-93 178t-33 264.5v458q0 37 35 52t70 0t35 -52v-458q0 -122 24 -212t66 -138.5t91 -71t106 -22.5q61 0 114.5 16.5t100.5 49.5t81.5 65.5t78.5 82.5v688q0 28 21 43.5t46.5 15.5t46.5 -15.5t21 -43.5z" />
    <glyph glyph-name="dotlessi" unicode="&#x131;" horiz-adv-x="326" 
d="M161 0q-28 0 -46.5 17t-18.5 48v933q0 45 15.5 64t49.5 19q66 0 66 -83v-933q0 -32 -17 -48.5t-44 -16.5h-5z" />
    <glyph glyph-name="florin" unicode="&#x192;" horiz-adv-x="906" 
d="M-22 -475q-27 4 -36.5 29t3.5 48t42 23q90 0 136 19.5t72.5 75.5t39.5 171l83 706h-87q-23 0 -36 17t-13 37.5t13 37.5t36 17h105q11 100 18.5 156t19 123.5t22.5 101.5t29 73.5t39 56.5t52 33.5t68 21.5t87 5q53 0 68 -40q13 -34 -11 -56q-14 -13 -35 -13
q-124 0 -157 -72t-66 -359q-3 -20 -4 -31h183q22 0 34 -17t12 -37.5t-12 -37.5t-34 -17h-196l-87 -706q-17 -219 -102.5 -302t-285.5 -64z" />
    <glyph glyph-name="circumflex" unicode="&#x2c6;" horiz-adv-x="827" 
d="M702 1316q27 -32 5 -57q-21 -23 -51 -9q-13 5 -24 18l-205 209l-200 -209q-30 -32 -63 -19q-27 10 -23 38q3 15 16 29l226 257q13 17 42 18t46 -18z" />
    <glyph glyph-name="uni060C" unicode="&#x60c;" horiz-adv-x="457" 
d="M126 -279q-17 3 -25 17.5t-1 30.5l170 379q6 18 26 18l31 -5q12 0 21.5 -10t0.5 -25l-144 -392q-3 -7 -15.5 -11.5t-19.5 -1.5h-44z" />
    <glyph glyph-name="uni0615" unicode="&#x615;" 
d="M253 1137q71 0 103 -36t32 -112q0 -44 -19 -78.5t-60 -34.5h-248q-10 0 -18 6.5t-8 15.5v26q0 9 8 15.5t18 6.5h26v239q0 18 15 26t30.5 0t15.5 -26v-78q30 30 105 30zM288 946q17 0 23.5 8t6.5 31q0 45 -14 61.5t-51 16.5q-94 0 -100 -117h135z" />
    <glyph glyph-name="uni061F" unicode="&#x61f;" horiz-adv-x="1028" 
d="M675 322q0 -37 -27.5 -50.5t-54.5 2t-27 48.5q0 127 -29.5 194.5t-131.5 163.5q-14 13 -51 48.5t-51.5 50t-44.5 46.5t-43 51t-33 51t-28.5 58t-15.5 60.5t-7 70.5q0 168 102.5 256t285.5 88q84 0 171 -22.5t147.5 -63.5t60.5 -89q0 -56 -48 -56q-24 0 -51.5 18.5t-53 40
t-84 40t-138.5 18.5q-127 0 -194.5 -59t-67.5 -167q0 -70 24.5 -131.5t63.5 -107.5t86 -90.5t92 -91t81 -98.5t55 -123.5t12 -155.5zM614 -44q-39 0 -67 26.5t-28 65.5q0 36 28 63.5t67 27.5q36 0 62 -27.5t26 -63.5q0 -39 -26 -65.5t-62 -26.5z" />
    <glyph glyph-name="uni0621" unicode="&#x621;" horiz-adv-x="723" 
d="M113 0q-41 0 -58 29.5t-1 59t55 29.5h100q-47 81 -54 160t20 138.5t78 102t113 57t133.5 -3t132.5 -71.5q25 -23 19.5 -53.5t-30 -40t-55.5 10.5q-61 48 -131.5 50t-118.5 -37.5t-50 -103.5q-3 -101 34 -155t101 -54h192q35 0 49.5 -29.5t0 -59t-49.5 -29.5h-480z" />
    <glyph glyph-name="uni0622" unicode="&#x622;" horiz-adv-x="422" 
d="M74 1691q-18 -21 -41 -15t-29.5 26.5t5.5 40.5q53 45 95 45t96 -28q39 -19 74 -12t48 34q26 35 61 26q27 -8 26 -34q0 -9 -4 -18q-57 -91 -187 -74q-18 3 -41 12.5t-36.5 15.5t-31.5 2.5t-35 -21.5zM148 65v1386q0 37 32.5 52t65.5 0t33 -52v-1386q0 -41 -32.5 -58
t-65.5 0t-33 58z" />
    <glyph glyph-name="uni0623" unicode="&#x623;" horiz-adv-x="427" 
d="M48 1665q-29 0 -41 20.5t-1 41t38 20.5h69q-33 58 -38 114.5t14 99t55.5 72.5t81 41t95 -1.5t93.5 -50.5q17 -17 13 -38t-21 -27.5t-40 8.5q-42 34 -92 34.5t-84.5 -28.5t-36.5 -76q0 -71 25.5 -109.5t69.5 -38.5h135q25 0 35 -20.5t0 -41t-35 -20.5h-335zM157 65v1386
q0 37 32.5 52t65.5 0t33 -52v-1386q0 -41 -32.5 -58t-65.5 0t-33 58z" />
    <glyph glyph-name="uni0624" unicode="&#x624;" horiz-adv-x="1141" 
d="M392 1216q-22 0 -34 13t-12 28.5t12 28.5t34 13h70q-33 58 -38.5 114t13 98t54.5 72t79.5 40.5t94 -1.5t93.5 -49q19 -17 16 -39.5t-20 -29t-39 7.5q-44 34 -94 35t-84 -27t-36 -73q-3 -73 23 -110.5t73 -37.5h135q18 0 28.5 -13t10.5 -28.5t-10.5 -28.5t-28.5 -13h-340z
M566 1081q238 0 363.5 -138.5t125.5 -384.5v-567q0 -176 -86 -271t-233 -95q-34 0 -53.5 18.5t-19.5 40.5t19.5 40.5t53.5 18.5q90 0 141 66.5t51 173.5v17h-244q-601 0 -601 536q0 152 60 276t171 196.5t252 72.5zM928 558q0 212 -87.5 304t-274.5 92q-163 0 -262 -119
t-99 -299q0 -203 119 -310.5t360 -107.5h244v440z" />
    <glyph glyph-name="uni0625" unicode="&#x625;" horiz-adv-x="422" 
d="M148 65v1386q0 37 32.5 52t65.5 0t33 -52v-1386q0 -41 -32.5 -58t-65.5 0t-33 58zM52 -475q-29 0 -41 19.5t0 39t41 19.5h70q-33 58 -38.5 114.5t13 99t54.5 72.5t79.5 41t94 -1.5t93.5 -50.5q19 -15 16 -36.5t-20 -28t-39 7.5q-44 34 -94 35t-84 -28t-36 -76
q-3 -70 24.5 -109.5t71.5 -39.5h135q25 0 35 -19.5t0 -39t-35 -19.5h-340z" />
    <glyph glyph-name="uni0626" unicode="&#x626;" horiz-adv-x="1747" 
d="M109 802q-22 0 -34 13t-12 28.5t12 28.5t34 13h70q-33 58 -38.5 114t13 98t54.5 72t79.5 40.5t94 -1.5t93.5 -49q19 -17 16 -39.5t-20.5 -29t-39.5 7.5q-44 34 -94 35t-83.5 -27t-35.5 -73q-3 -73 23 -110.5t73 -37.5h135q18 0 28.5 -13t10.5 -28.5t-10.5 -28.5
t-28.5 -13h-340zM819 -301q-152 0 -285.5 62t-224 165.5t-130 249.5t-9.5 303q17 85 27 103q16 28 51 28q23 0 36 -10t15 -30.5t-1 -41.5t-10 -53q-28 -137 3.5 -260t106.5 -208.5t185.5 -135.5t235.5 -50q279 0 433.5 94t154.5 251q0 59 -20 103t-53.5 70.5t-76.5 46
t-91.5 34.5t-96.5 30.5t-91 38.5t-76.5 55t-53.5 84t-20 121q0 147 122 241.5t327 94.5q132 0 236.5 -39t146.5 -92q-6 -25 -29 -49.5t-54 -41.5q-69 54 -134 79t-166 25q-142 0 -239 -62t-97 -156q0 -51 20 -89.5t54 -61.5t77.5 -41t92 -33t97 -32t92 -43t77.5 -61.5
t54 -92t20 -129.5q0 -234 -183 -350.5t-518 -116.5h-5z" />
    <glyph glyph-name="uni0627" unicode="&#x627;" horiz-adv-x="422" 
d="M148 65v1386q0 37 32.5 52t65.5 0t33 -52v-1386q0 -41 -32.5 -58t-65.5 0t-33 58z" />
    <glyph glyph-name="uni0628" unicode="&#x628;" horiz-adv-x="1520" 
d="M405 0q-151 0 -231 86t-87 245v479q0 37 30.5 52t61 0t30.5 -52v-479q7 -95 58.5 -154t137.5 -59h715q83 0 134 59.5t58 153.5v610q0 21 12.5 36t30.5 18.5t36 0t30.5 -19t12.5 -39.5v-606q-3 -166 -84.5 -248.5t-229.5 -82.5h-715zM702 -218v70q0 37 31.5 53t63 1
t31.5 -54v-70q0 -41 -31.5 -58t-63 0t-31.5 58z" />
    <glyph glyph-name="uni0629" unicode="&#x629;" horiz-adv-x="1141" 
d="M410 1268v70q0 37 31.5 53t63 1t31.5 -54v-70q0 -41 -31.5 -58t-63 0t-31.5 58zM606 1268v70q0 37 31.5 53t63 1t31.5 -54v-70q0 -41 -31.5 -58t-63 0t-31.5 58zM571 0q-210 0 -347 138.5t-137 353.5q0 146 61 269t174 197.5t253 74.5q136 0 247 -74t172 -196.5
t61 -265.5v-5q0 -216 -136 -354t-348 -138zM575 118q162 0 264 103.5t102 275.5v4q0 114 -45.5 209t-131 152t-193.5 57q-114 0 -199.5 -58.5t-128.5 -152.5t-43 -207v-4q0 -172 107 -275.5t268 -103.5z" />
    <glyph glyph-name="uni062A" unicode="&#x62a;" horiz-adv-x="1520" 
d="M571 1168v70q0 37 31.5 53t63 1t31.5 -54v-70q0 -41 -31.5 -58t-63 0t-31.5 58zM767 1168v70q0 37 31.5 53t63 1t31.5 -54v-70q0 -41 -31.5 -58t-63 0t-31.5 58zM405 0q-151 0 -231 86t-87 245v479q0 37 30.5 52t61 0t30.5 -52v-479q7 -95 58.5 -154t137.5 -59h715
q83 0 134 59.5t58 153.5v610q0 21 12.5 36t30.5 18.5t36 0t30.5 -19t12.5 -39.5v-606q-3 -166 -84.5 -248.5t-229.5 -82.5h-715z" />
    <glyph glyph-name="uni062B" unicode="&#x62b;" horiz-adv-x="1520" 
d="M671 1447v69q0 39 31.5 56t63 1t31.5 -57v-69q0 -41 -31.5 -58t-63 0t-31.5 58zM571 1163v70q0 39 31.5 56t63 1t31.5 -57v-70q0 -41 -31.5 -58t-63 0t-31.5 58zM767 1163v70q0 39 31.5 56t63 1t31.5 -57v-70q0 -41 -31.5 -58t-63 0t-31.5 58zM405 0q-151 0 -231 86
t-87 245v479q0 37 30.5 52t61 0t30.5 -52v-479q7 -95 58.5 -154t137.5 -59h715q83 0 134 59.5t58 153.5v610q0 21 12.5 36t30.5 18.5t36 0t30.5 -19t12.5 -39.5v-606q-3 -166 -84.5 -248.5t-229.5 -82.5h-715z" />
    <glyph glyph-name="uni062C" unicode="&#x62c;" horiz-adv-x="1520" 
d="M810 1081q288 0 456 -181t168 -482v-418h-1020q-96 0 -152.5 -69.5t-56.5 -174.5q0 -115 81 -186t202 -71q26 0 41.5 -18t15.5 -47q-3 -20 -22.5 -36.5t-38.5 -16.5q-166 0 -281.5 107t-115.5 268q0 137 81.5 240.5t206.5 116.5q11 5 26 5h906v283q0 258 -131.5 408
t-378.5 150q-117 0 -209 -40t-178 -126q-24 -24 -53 -15.5t-36.5 34.5t10.5 51q64 89 194.5 153.5t284.5 64.5zM797 -227q0 37 31.5 53t63.5 1t32 -54v-69q0 -41 -32 -58t-63.5 0t-31.5 58v69z" />
    <glyph glyph-name="uni062D" unicode="&#x62d;" horiz-adv-x="1520" 
d="M810 1081q288 0 456 -181t168 -482v-418h-1020q-96 0 -152.5 -69.5t-56.5 -174.5q0 -115 81 -186t202 -71q26 0 41.5 -18t15.5 -47q-3 -20 -22.5 -36.5t-38.5 -16.5q-166 0 -281.5 107t-115.5 268q0 137 81.5 240.5t206.5 116.5q11 5 26 5h906v283q0 258 -131.5 408
t-378.5 150q-117 0 -209 -40t-178 -126q-24 -24 -53 -15.5t-36.5 34.5t10.5 51q64 89 194.5 153.5t284.5 64.5z" />
    <glyph glyph-name="uni062E" unicode="&#x62e;" horiz-adv-x="1520" 
d="M867 1329q0 -41 -31.5 -58t-63 0t-31.5 58v70q0 37 31.5 53t63 1t31.5 -54v-70zM810 1081q288 0 456 -181t168 -482v-418h-1020q-96 0 -152.5 -69.5t-56.5 -174.5q0 -115 81 -186t202 -71q26 0 41.5 -18t15.5 -47q-3 -20 -22.5 -36.5t-38.5 -16.5q-166 0 -281.5 107
t-115.5 268q0 137 81.5 240.5t206.5 116.5q11 5 26 5h906v283q0 258 -131.5 408t-378.5 150q-117 0 -209 -40t-178 -126q-24 -24 -53 -15.5t-36.5 34.5t10.5 51q64 89 194.5 153.5t284.5 64.5z" />
    <glyph glyph-name="uni062F" unicode="&#x62f;" horiz-adv-x="967" 
d="M322 1081q174 -11 302 -104t192 -238.5t64 -324.5v-414h-732q-37 0 -53 29.5t-1 59t54 29.5h606v296q0 231 -115 376.5t-330 168.5q-26 3 -41 20.5t-15 44.5q0 26 20 43t49 14z" />
    <glyph glyph-name="uni0630" unicode="&#x630;" horiz-adv-x="967" 
d="M427 1320q0 -41 -31.5 -58t-63 0t-31.5 58v70q0 37 31.5 53t63 1t31.5 -54v-70zM322 1081q174 -11 302 -104t192 -238.5t64 -324.5v-414h-732q-37 0 -53 29.5t-1 59t54 29.5h606v296q0 231 -115 376.5t-330 168.5q-26 3 -41 20.5t-15 44.5q0 26 20 43t49 14z" />
    <glyph glyph-name="uni0631" unicode="&#x631;" horiz-adv-x="562" 
d="M153 -375q-43 0 -61 29.5t0 59t61 29.5q92 0 144 66.5t52 173.5v941q0 39 31.5 56t63 1t31.5 -57v-933q0 -177 -86 -271.5t-236 -94.5z" />
    <glyph glyph-name="uni0632" unicode="&#x632;" horiz-adv-x="562" 
d="M353 1290v70q0 37 31.5 53t63 1t31.5 -54v-70q0 -41 -31.5 -58t-63 0t-31.5 58zM153 -375q-43 0 -61 29.5t0 59t61 29.5q92 0 144 66.5t52 173.5v941q0 39 31.5 56t63 1t31.5 -57v-933q0 -177 -86 -271.5t-236 -94.5z" />
    <glyph glyph-name="uni0633" unicode="&#x633;" horiz-adv-x="2536" 
d="M2331 1072q0 33 29.5 46.5t59 0t29.5 -46.5v-458q0 -241 -57 -374.5t-178 -187.5t-336 -52v144q-73 -77 -192.5 -110.5t-295.5 -33.5h-113q-54 -124 -151.5 -211.5t-208 -126.5t-224.5 -37q-104 1 -198.5 28.5t-174.5 83.5t-135.5 135t-82 190.5t-15.5 242.5l79 623
q4 39 36.5 55t61 -1t24.5 -58l-79 -619q-21 -167 36 -292.5t172 -190.5t271 -70q259 7 389 159t130 407v510q0 26 19.5 41t43.5 15t43.5 -15t19.5 -41v-510v-35v-165q115 0 196.5 8.5t144 30t100.5 53t62 84t33 116.5t9 156v449q0 35 29.5 49.5t59 0t29.5 -49.5v-449v-26
v-422q173 -3 254 113t81 383v458z" />
    <glyph glyph-name="uni0634" unicode="&#x634;" horiz-adv-x="2536" 
d="M1991 1638q0 -41 -31.5 -58t-63 0t-31.5 58v70q0 39 31.5 56t63 1t31.5 -57v-70zM1891 1355q0 -41 -31.5 -58t-63 0t-31.5 58v70q0 39 31.5 56t63 1t31.5 -57v-70zM1961 1425q0 39 31.5 56t63 1t31.5 -57v-70q0 -41 -31.5 -58t-63 0t-31.5 58v70zM2331 1072
q0 33 29.5 46.5t59 0t29.5 -46.5v-458q0 -241 -57 -374.5t-178 -187.5t-336 -52v144q-73 -77 -192.5 -110.5t-295.5 -33.5h-113q-54 -124 -151.5 -211.5t-208 -126.5t-224.5 -37q-104 1 -198.5 28.5t-174.5 83.5t-135.5 135t-82 190.5t-15.5 242.5l79 623q4 39 36.5 55
t61 -1t24.5 -58l-79 -619q-21 -167 36 -292.5t172 -190.5t271 -70q259 7 389 159t130 407v510q0 26 19.5 41t43.5 15t43.5 -15t19.5 -41v-510v-35v-165q115 0 196.5 8.5t144 30t100.5 53t62 84t33 116.5t9 156v449q0 35 29.5 49.5t59 0t29.5 -49.5v-449v-26v-422
q173 -3 254 113t81 383v458z" />
    <glyph glyph-name="uni0635" unicode="&#x635;" horiz-adv-x="2605" 
d="M1895 1081q148 0 269 -51.5t199.5 -142t121 -212.5t42.5 -265v-83q-7 -157 -92.5 -242t-225.5 -85h-924q-55 -122 -150.5 -209.5t-205 -127.5t-223.5 -38q-104 1 -198.5 28.5t-174.5 83.5t-135.5 135t-82 190.5t-15.5 242.5l79 623q4 39 36.5 55t61 -1t24.5 -58l-79 -619
q-16 -126 14.5 -230t97.5 -173t163.5 -108t212.5 -42q258 7 386 158.5t128 407.5v623q0 21 12.5 36t30.5 18.5t36 0t30.5 -19t12.5 -39.5v-118q88 126 238 194t311 68zM2401 331v79q0 116 -36.5 212.5t-97.5 160.5t-142.5 105t-169.5 53.5t-179.5 -1t-172.5 -52.5t-149 -107
t-108 -158v-322q0 -91 -21 -183h880q97 0 146.5 59.5t49.5 153.5z" />
    <glyph glyph-name="uni0636" unicode="&#x636;" horiz-adv-x="2605" 
d="M1983 1529q0 -41 -31.5 -58t-63.5 0t-32 58v70q0 37 32 53t63.5 1t31.5 -54v-70zM1895 1081q148 0 269 -51.5t199.5 -142t121 -212.5t42.5 -265v-83q-7 -157 -92.5 -242t-225.5 -85h-924q-55 -122 -150.5 -209.5t-205 -127.5t-223.5 -38q-104 1 -198.5 28.5t-174.5 83.5
t-135.5 135t-82 190.5t-15.5 242.5l79 623q4 39 36.5 55t61 -1t24.5 -58l-79 -619q-16 -126 14.5 -230t97.5 -173t163.5 -108t212.5 -42q258 7 386 158.5t128 407.5v623q0 21 12.5 36t30.5 18.5t36 0t30.5 -19t12.5 -39.5v-118q88 126 238 194t311 68zM2401 331v79
q0 116 -36.5 212.5t-97.5 160.5t-142.5 105t-169.5 53.5t-179.5 -1t-172.5 -52.5t-149 -107t-108 -158v-322q0 -91 -21 -183h880q97 0 146.5 59.5t49.5 153.5z" />
    <glyph glyph-name="uni0637" unicode="&#x637;" horiz-adv-x="1782" 
d="M1068 1081q195 0 339 -89.5t216 -240t72 -341.5v-83q0 -156 -87.5 -241.5t-226.5 -85.5h-1259l-30 118h296v1350q0 41 31.5 58t63 0t31.5 -58v-749q83 182 225 272t329 90zM1569 331v79q0 116 -34 213.5t-91.5 164t-133.5 110.5t-159.5 58.5t-171 0.5t-166 -55t-146 -116
t-109.5 -176q-7 -17 -13 -33t-10 -37.5t-7 -37.5t-5 -46.5t-3.5 -48t-2.5 -59.5t-1 -64.5t-1 -78.5t-1 -87h859q97 0 146.5 59.5t49.5 153.5z" />
    <glyph glyph-name="uni0638" unicode="&#x638;" horiz-adv-x="1782" 
d="M1068 1081q195 0 339 -89.5t216 -240t72 -341.5v-83q0 -156 -87.5 -241.5t-226.5 -85.5h-1259l-30 118h296v1350q0 41 31.5 58t63 0t31.5 -58v-749q83 182 225 272t329 90zM1124 1368q0 -41 -31.5 -58t-63 0t-31.5 58v70q0 37 31.5 53t63 1t31.5 -54v-70zM1569 331v79
q0 116 -34 213.5t-91.5 164t-133.5 110.5t-159.5 58.5t-171 0.5t-166 -55t-146 -116t-109.5 -176q-7 -17 -13 -33t-10 -37.5t-7 -37.5t-5 -46.5t-3.5 -48t-2.5 -59.5t-1 -64.5t-1 -78.5t-1 -87h859q97 0 146.5 59.5t49.5 153.5z" />
    <glyph glyph-name="uni0639" unicode="&#x639;" horiz-adv-x="1634" 
d="M1490 118q35 0 49.5 -29.5t0 -59t-49.5 -29.5h-1076q-96 0 -152.5 -69.5t-56.5 -174.5q0 -115 81 -186t202 -71q26 0 41.5 -18t15.5 -47q-3 -20 -22.5 -36.5t-38.5 -16.5q-166 0 -281.5 107t-115.5 268q0 137 81.5 240.5t206.5 116.5q11 5 26 5h309q-21 45 -28 112.5
t-7 179.5q0 305 170 488t467 183h95q41 0 58 -30.5t0 -61t-58 -30.5h-95q-166 0 -283 -71.5t-173 -194t-54 -283.5q3 -219 26.5 -255.5t160.5 -36.5h4h497z" />
    <glyph glyph-name="uni063A" unicode="&#x63a;" horiz-adv-x="1634" 
d="M1242 1386q0 -41 -31.5 -58t-63 0t-31.5 58v69q0 37 31.5 53t63 1t31.5 -54v-69zM1490 118q35 0 49.5 -29.5t0 -59t-49.5 -29.5h-1076q-96 0 -152.5 -69.5t-56.5 -174.5q0 -115 81 -186t202 -71q26 0 41.5 -18t15.5 -47q-3 -20 -22.5 -36.5t-38.5 -16.5
q-166 0 -281.5 107t-115.5 268q0 137 81.5 240.5t206.5 116.5q11 5 26 5h309q-21 45 -28 112.5t-7 179.5q0 305 170 488t467 183h95q41 0 58 -30.5t0 -61t-58 -30.5h-95q-166 0 -283 -71.5t-173 -194t-54 -283.5q3 -219 26.5 -255.5t160.5 -36.5h4h497z" />
    <glyph glyph-name="uni0640" unicode="&#x640;" horiz-adv-x="488" 
d="M-52 0v118h592v-118h-592z" />
    <glyph glyph-name="uni0641" unicode="&#x641;" horiz-adv-x="1965" 
d="M1503 1320q0 -41 -31.5 -58t-63 0t-31.5 58v70q0 37 31.5 53t63 1t31.5 -54v-70zM1438 1081q103 0 186.5 -43.5t136 -116.5t80.5 -165.5t28 -193.5v-562h-1154q-281 0 -454.5 184.5t-173.5 482.5v56q0 26 17.5 43.5t43.5 17.5t43.5 -17.5t17.5 -43.5v-39
q0 -258 137.5 -412t368.5 -154h501q-92 86 -142 211t-50 233q0 224 114.5 371.5t295.5 147.5h4zM1756 118l-9 444q0 177 -80 291t-225 114h-4q-142 0 -217 -108t-75 -297q0 -93 32.5 -177t85 -141.5t118 -91.5t130.5 -34h244z" />
    <glyph glyph-name="uni0642" unicode="&#x642;" horiz-adv-x="1564" 
d="M989 1342q0 -41 -31.5 -58t-63 0t-31.5 58v70q0 37 31.5 53t63 1t31.5 -54v-70zM1185 1342q0 -41 -31.5 -58t-63 0t-31.5 58v70q0 37 31.5 53t63 1t31.5 -54v-70zM1037 1081q104 0 188 -43.5t136 -117t79.5 -166.5t27.5 -196v-636q-3 -230 -186.5 -344t-518.5 -114h-5
q-152 0 -285 61.5t-223 164.5t-128.5 247.5t-8.5 302.5q17 85 28 104q16 26 51 26q44 0 50 -38t-11 -97q-28 -136 3.5 -259.5t106.5 -208.5t184.5 -135t232.5 -50q277 0 431.5 91.5t161.5 248.5v78h-235q-99 0 -182.5 38.5t-138.5 99t-94 136t-56.5 148t-17.5 136.5
q0 228 112.5 375.5t293.5 147.5h4zM745 558q0 -92 33.5 -176t86.5 -142t119.5 -92.5t131.5 -34.5h239l-4 445q0 179 -82 294t-228 115h-4q-139 0 -215.5 -109t-76.5 -300z" />
    <glyph glyph-name="uni0643" unicode="&#x643;" horiz-adv-x="1921" 
d="M388 0q-131 0 -214.5 75.5t-99.5 212.5q-4 20 13.5 42.5t47.5 22.5q48 0 61 -57q23 -172 192 -178h1311q7 0 12.5 6t5.5 15v214q0 294 -125.5 452t-371.5 158h-462q-36 0 -63.5 28t-27.5 64q0 38 30 61l401 322q12 17 39 17q40 0 56 -37t-16 -63l-345 -274h388
q162 0 285 -54.5t198 -153.5t112 -229.5t37 -290.5v-227q0 -52 -37 -89t-89 -37h-1338z" />
    <glyph glyph-name="uni0644" unicode="&#x644;" horiz-adv-x="1141" 
d="M209 144q0 -184 97 -303.5t260 -119.5h5q172 0 264.5 134t92.5 359v1207q0 37 32 52t63.5 0t31.5 -52v-1186q0 -178 -54 -321t-166.5 -231t-268.5 -88h-8q-137 0 -245 72.5t-167 197.5t-59 279q0 37 30.5 52t61 0t30.5 -52z" />
    <glyph glyph-name="uni0645" unicode="&#x645;" horiz-adv-x="1390" 
d="M70 -322v261q0 117 59.5 194.5t171.5 106.5q-87 130 -87 305q0 129 46 234t121.5 169t171.5 99t196.5 35t196.5 -35t171.5 -99t121.5 -169t46 -234q0 -131 -45.5 -237.5t-120 -171.5t-170.5 -101.5t-194.5 -36.5t-195.5 34t-171 99q-196 -19 -196 -192v-261
q0 -41 -30.5 -58t-61 0t-30.5 58zM749 113q179 0 294.5 126t115.5 306q0 173 -120 295.5t-290 122.5q-120 0 -215 -59.5t-144.5 -154t-49.5 -204.5q0 -176 118 -304t291 -128z" />
    <glyph glyph-name="uni0646" unicode="&#x646;" horiz-adv-x="1390" 
d="M732 1233q0 -41 -31.5 -58t-63 0t-31.5 58v70q0 37 31.5 53t63 1t31.5 -54v-70zM1185 941q0 21 12.5 36t30.5 18.5t36 0t30.5 -19t12.5 -39.5v-636q-3 -133 -42 -246t-102 -191.5t-145.5 -133.5t-171.5 -80.5t-179 -24.5q-104 1 -199 28.5t-175.5 83.5t-136.5 135
t-82 190.5t-13 242.5l57 471q3 22 17 37.5t32.5 18.5t36 -1.5t28.5 -21.5t8 -42l-57 -462q-28 -250 111.5 -398t376.5 -155q133 3 232.5 45.5t160.5 118.5t91 176.5t30 225.5v623z" />
    <glyph glyph-name="uni0647" unicode="&#x647;" horiz-adv-x="1141" 
d="M571 0q-210 0 -347 138.5t-137 353.5q0 146 61 269t174 197.5t253 74.5q136 0 247 -74t172 -196.5t61 -265.5v-5q0 -216 -136 -354t-348 -138zM575 118q162 0 264 103.5t102 275.5v4q0 114 -45.5 209t-131 152t-193.5 57q-114 0 -199.5 -58.5t-128.5 -152.5t-43 -207v-4
q0 -172 107 -275.5t268 -103.5z" />
    <glyph glyph-name="uni0648" unicode="&#x648;" horiz-adv-x="1141" 
d="M566 1081q238 0 363.5 -138.5t125.5 -384.5v-567q0 -176 -86 -271t-233 -95q-34 0 -53.5 18.5t-19.5 40.5t19.5 40.5t53.5 18.5q90 0 141 66.5t51 173.5v17h-244q-601 0 -601 536q0 152 60 276t171 196.5t252 72.5zM928 558q0 212 -87.5 304t-274.5 92q-163 0 -262 -119
t-99 -299q0 -203 119 -310.5t360 -107.5h244v440z" />
    <glyph glyph-name="uni0649" unicode="&#x649;" horiz-adv-x="1747" 
d="M819 -301q-152 0 -285.5 62t-224 165.5t-130 249.5t-9.5 303q17 85 27 103q16 28 51 28q23 0 36 -10t15 -30.5t-1 -41.5t-10 -53q-28 -137 3.5 -260t106.5 -208.5t185.5 -135.5t235.5 -50q279 0 433.5 94t154.5 251q0 59 -20 103t-53.5 70.5t-76.5 46t-91.5 34.5
t-96.5 30.5t-91 38.5t-76.5 55t-53.5 84t-20 121q0 147 122 241.5t327 94.5q132 0 236.5 -39t146.5 -92q-6 -25 -29 -49.5t-54 -41.5q-69 54 -134 79t-166 25q-142 0 -239 -62t-97 -156q0 -51 20 -89.5t54 -61.5t77.5 -41t92 -33t97 -32t92 -43t77.5 -61.5t54 -92t20 -129.5
q0 -234 -183 -350.5t-518 -116.5h-5z" />
    <glyph glyph-name="uni064A" unicode="&#x64a;" horiz-adv-x="1747" 
d="M819 -301q-152 0 -285.5 62t-224 165.5t-130 249.5t-9.5 303q17 85 27 103q16 28 51 28q23 0 36 -10t15 -30.5t-1 -41.5t-10 -53q-28 -137 3.5 -260t106.5 -208.5t185.5 -135.5t235.5 -50q279 0 433.5 94t154.5 251q0 59 -20 103t-53.5 70.5t-76.5 46t-91.5 34.5
t-96.5 30.5t-91 38.5t-76.5 55t-53.5 84t-20 121q0 147 122 241.5t327 94.5q132 0 236.5 -39t146.5 -92q-6 -25 -29 -49.5t-54 -41.5q-69 54 -134 79t-166 25q-142 0 -239 -62t-97 -156q0 -51 20 -89.5t54 -61.5t77.5 -41t92 -33t97 -32t92 -43t77.5 -61.5t54 -92t20 -129.5
q0 -234 -183 -350.5t-518 -116.5h-5zM658 -510v70q0 37 31.5 53t63 1t31.5 -54v-70q0 -41 -31.5 -58t-63 0t-31.5 58zM854 -510v70q0 37 31.5 53t63 1t31.5 -54v-70q0 -41 -31.5 -58t-63 0t-31.5 58z" />
    <glyph glyph-name="uni064B" unicode="&#x64b;" 
d="M52 1821q-30 -7 -43 22.5t8 49.5q10 10 27 11l387 57q21 2 32 -18t3 -41.5t-35 -23.5zM52 1643q-30 -8 -43 24q-12 31 7 51q11 11 28 12l387 57q21 2 32 -18t3 -43t-35 -27z" />
    <glyph glyph-name="uni064C" unicode="&#x64c;" 
d="M331 1512q-30 6 -49.5 38t-17 71.5t31.5 64.5q48 44 109 22.5t74 -74t-39 -105.5q-51 -41 -89.5 -59t-64 -14t-42 13.5t-34.5 25.5t-31 21q-9 5 -43.5 -2.5t-39.5 7.5q-10 21 21 38q39 21 73 3q11 -5 19 -15q50 -40 70 -45q26 -8 52 10zM331 1569q10 -17 30.5 -17
t43.5 17q20 13 22 33.5t-17 40.5q-37 31 -79 4q-33 -28 0 -78z" />
    <glyph glyph-name="uni064D" unicode="&#x64d;" 
d="M48 -466q-34 -10 -47 12q-11 21 10 37q13 9 33 12l370 52q21 -2 29.5 -16.5t0 -28.5t-29.5 -16zM48 -597q-34 -10 -47 12q-11 21 10 37q13 9 33 12l370 52q21 -2 29.5 -16t0 -28.5t-29.5 -16.5z" />
    <glyph glyph-name="uni064E" unicode="&#x64e;" 
d="M52 1665q-30 -8 -43 22q-12 29 7 49q11 10 28 11l387 57q21 2 32 -18t3 -41.5t-35 -23.5z" />
    <glyph glyph-name="uni064F" unicode="&#x64f;" 
d="M65 1495q-19 -8 -33.5 2.5t-12 28t24.5 25.5q73 37 130 100q-84 -26 -134 42q-42 57 -31 134q12 83 80 113q37 16 85 12q114 -10 135 -99q19 -84 -51 -190q-72 -108 -193 -168zM148 1708q50 -10 78.5 33t13.5 92.5t-70 53.5q-36 3 -62.5 -12.5t-35 -39.5t-5.5 -50
t24.5 -48t56.5 -29z" />
    <glyph glyph-name="uni0650" unicode="&#x650;" 
d="M48 -466q-34 -10 -47 12q-11 21 10 37q13 9 33 12l370 52q21 -2 29.5 -16.5t0 -28.5t-29.5 -16z" />
    <glyph glyph-name="uni0651" unicode="&#x651;" 
d="M135 1002q-70 0 -102.5 49.5t-32.5 125.5q0 74 35 83q24 7 40 -20q8 -13 8 -29q0 -74 12 -108.5t40 -34.5q43 0 56.5 42.5t13.5 140.5q0 45 29 55q23 8 36 -15q4 -9 5 -19q0 -174 69 -174q70 0 70 192q0 19 17.5 26t35 -1.5t17.5 -29.5q0 -122 -35.5 -187t-104.5 -65
q-66 0 -91 52q-49 -83 -118 -83z" />
    <glyph glyph-name="uni0652" unicode="&#x652;" 
d="M9 1991q0 69 46 117.5t115 48.5q66 0 113.5 -48.5t47.5 -117.5q0 -65 -48 -113t-113 -48q-68 0 -114.5 47.5t-46.5 113.5zM70 1991q0 -39 29 -67.5t71 -28.5q40 0 68 27t28 69q0 43 -27 72t-69 29q-41 0 -70.5 -28.5t-29.5 -72.5z" />
    <glyph glyph-name="uni0653" unicode="&#x653;" 
d="M74 1595q-18 -21 -41 -15t-29.5 26.5t5.5 40.5q37 31 71.5 40t59.5 2.5t60 -24.5q39 -19 74 -12.5t48 33.5q26 35 61 26q27 -8 26 -34q0 -9 -4 -18q-57 -91 -187 -74q-18 3 -41 12.5t-36.5 15.5t-31.5 2.5t-35 -21.5z" />
    <glyph glyph-name="uni0654" unicode="&#x654;" 
d="M70 1508q-29 0 -41 20.5t0 41t41 20.5h69q-33 58 -38 114t13.5 98t54 72.5t79.5 41t94.5 -1.5t93.5 -49q19 -17 16 -39.5t-20.5 -29t-39.5 7.5q-44 34 -94 35t-83.5 -27t-35.5 -73q-3 -73 23 -111t73 -38h135q25 0 35 -20.5t0 -41t-35 -20.5h-340z" />
    <glyph glyph-name="uni0655" unicode="&#x655;" 
d="M105 1508q-29 0 -41 20.5t0 41t41 20.5h69q-33 58 -38 114t13.5 98t54 72.5t79.5 41t94.5 -1.5t93.5 -49q19 -17 16 -39.5t-20.5 -29t-39.5 7.5q-44 34 -94 35t-83.5 -27t-35.5 -73q-3 -72 23.5 -110.5t71.5 -38.5h135q25 0 35 -20.5t0 -41t-35 -20.5h-339z" />
    <glyph glyph-name="uni0656" unicode="&#x656;" 
d="M65 1181q1 40 0 76t-5.5 75.5t-7 62.5t-11.5 66.5t-12 57.5t-15 66t-14 62l57 18q84 -222 78 -458z" />
    <glyph glyph-name="uni0657" unicode="&#x657;" 
d="M148 1473q-69 0 -108.5 45.5t-39.5 111.5q0 83 51.5 159.5t148.5 158.5q24 19 50 0q22 -18 12 -39q-4 -8 -14 -14q-51 -35 -82.5 -62.5t-52.5 -63.5q57 30 126.5 -17.5t69.5 -126.5q0 -62 -48 -107t-113 -45zM148 1534q40 0 68 26t28 65q0 43 -28.5 68t-63 25.5t-63 -24
t-28.5 -69.5q0 -36 25.5 -63.5t61.5 -27.5z" />
    <glyph glyph-name="uni0658" unicode="&#x658;" 
d="M366 1721q10 -3 15 -11.5t2 -18.5q-18 -102 -74.5 -166t-147.5 -52q-71 7 -116 70.5t-45 155.5q10 22 22 22h22q8 0 16 -8.5t5 -17.5q0 -68 29 -111t76 -50q64 -6 100.5 42.5t51.5 127.5q0 7 22 17h22z" />
    <glyph glyph-name="uni0660" unicode="&#x660;" horiz-adv-x="540" 
d="M270 375q-45 0 -74.5 31.5t-29.5 77.5q0 43 29.5 73.5t74.5 30.5t75 -30.5t30 -73.5q0 -46 -30 -77.5t-75 -31.5z" />
    <glyph glyph-name="uni0661" unicode="&#x661;" horiz-adv-x="392" 
d="M187 1325q27 0 48.5 -19t21.5 -47v-1224q0 -29 -20 -47.5t-50 -18.5q-29 0 -47 18.5t-18 47.5v1224q0 29 19 47.5t46 18.5z" />
    <glyph glyph-name="uni0662" unicode="&#x662;" horiz-adv-x="1050" 
d="M723 1216q0 26 22 41t48 15t48 -15t22 -41q0 -128 -14 -219.5t-40 -150.5t-69 -93t-94 -47t-123 -13q-162 0 -227 39v-688q0 -34 -21.5 -53.5t-48 -19.5t-48 19.5t-21.5 53.5v1137v48q0 28 21.5 43.5t48 15.5t48 -15.5t21.5 -43.5v-48v-192q7 -96 54 -135t173 -39
q32 0 57.5 5t45 13.5t34.5 25t25.5 32.5t17.5 45t11 53.5t6 65.5t2.5 74.5t0.5 86.5z" />
    <glyph glyph-name="uni0663" unicode="&#x663;" horiz-adv-x="1294" 
d="M174 48v1176q0 45 35 64t70 2t35 -61l4 -310q0 -59 28.5 -97.5t69 -45.5t80.5 4t68.5 49t28.5 90v305q0 45 32.5 64.5t65 1t32.5 -65.5l9 -305q0 -47 14 -82.5t37 -53t51 -24.5t56.5 2.5t52.5 28t40 53t19 76.5v314q0 41 33 58t65.5 -1t32.5 -61v-310q0 -69 -26 -128
t-68 -96.5t-95 -58t-105.5 -19t-102 27.5t-82.5 74q-39 -46 -105.5 -65.5t-129.5 -12.5t-105 34v-627q0 -50 -35 -70t-70 0t-35 70z" />
    <glyph glyph-name="uni0664" unicode="&#x664;" horiz-adv-x="910" 
d="M675 562h-49q-193 0 -242 -11q-57 -13 -73 -57q-13 -36 -11 -163q0 -4 1 -10v-29q-1 -42 8.5 -74.5t24 -53t41 -34.5t48.5 -20.5t59 -9.5t60.5 -2.5t64.5 1.5t60 1q34 0 53.5 -20.5t19.5 -45t-19.5 -45t-53.5 -20.5h-192q-157 0 -231.5 75t-77.5 248q0 145 18.5 224
t68.5 116q-87 79 -87 257q-1 72 2 123t14.5 94.5t27 71.5t46 50.5t65 34t92 19.5t117.5 10t150 2q31 0 48.5 -21t17.5 -46.5t-17.5 -46.5t-48.5 -21h-50q-77 0 -110 0.5t-79.5 -5t-60.5 -6.5t-37.5 -19t-26 -26t-9.5 -43.5t-6.5 -56.5t0.5 -79v-35q0 -58 17.5 -97.5
t50.5 -59.5t69 -28.5t85 -10.5q44 4 148 4h4q21 0 40 -13q22 -12 27 -38t-6 -45q-16 -39 -61 -39z" />
    <glyph glyph-name="uni0665" unicode="&#x665;" horiz-adv-x="1246" 
d="M179 545q0 154 54.5 284.5t154 208.5t222.5 78q121 0 219.5 -79t153 -209.5t54.5 -282.5q0 -138 -37 -250t-97 -180.5t-137.5 -106t-157.5 -38t-157.5 37t-137.5 106t-97 180.5t-37 251zM314 545q0 -172 87 -291t209 -119q124 0 208 118t84 292q0 167 -84 286t-212 119
q-87 0 -154.5 -57t-102.5 -148.5t-35 -199.5z" />
    <glyph glyph-name="uni0666" unicode="&#x666;" horiz-adv-x="962" 
d="M148 1242v9q0 33 16.5 44.5t49.5 11.5h78q149 0 243 -18.5t146.5 -59t73.5 -103.5t24.5 -152t-0.5 -206q-3 -117 -3 -184v-540q0 -29 -20 -47.5t-50 -18.5q-26 0 -45.5 20t-19.5 46v540q1 65 3 175q9 106 2 181t-18 123t-55 75t-110.5 37t-183.5 10h-65q-33 0 -49.5 12
t-16.5 45z" />
    <glyph glyph-name="uni0667" unicode="&#x667;" horiz-adv-x="1124" 
d="M867 1294q28 -3 43.5 -29.5t8.5 -53.5l-309 -1189q-20 -59 -65 -53q-52 -6 -66 53l-309 1189q-7 27 8.5 53.5t43.5 29.5q59 7 79 -52l244 -950l244 950q6 28 28 41.5t50 10.5z" />
    <glyph glyph-name="uni0668" unicode="&#x668;" horiz-adv-x="1124" 
d="M919 52q7 -27 -8.5 -53.5t-43.5 -29.5q-27 -3 -49 11t-29 42l-244 950l-244 -950q-10 -29 -31 -42.5t-48 -10.5q-28 3 -43.5 29.5t-8.5 53.5l309 1190q13 58 66 52q46 6 65 -52z" />
    <glyph glyph-name="uni0669" unicode="&#x669;" horiz-adv-x="1141" 
d="M946 906v-4l-5 -867q0 -29 -20 -47.5t-50 -18.5q-27 0 -46 18.5t-19 47.5l4 571q-105 -92 -248 -92q-162 0 -272.5 115t-110.5 277q0 160 109.5 274t273.5 114t274 -114.5t110 -273.5zM562 649q98 0 166.5 76t68.5 181q0 99 -67.5 169.5t-167.5 70.5q-107 0 -171 -70.5
t-64 -169.5q0 -105 68.5 -181t166.5 -76z" />
    <glyph glyph-name="uni066A" unicode="&#x66a;" horiz-adv-x="2614" 
 />
    <glyph glyph-name="uni066B" unicode="&#x66b;" horiz-adv-x="217" 
d="M105 -57q-44 0 -68 27t-24 65q0 35 27.5 59t64.5 24q65 0 92.5 -48t-5.5 -101l-79 -130q1 8 4.5 24t5.5 28t2.5 25t-4.5 20t-16 7z" />
    <glyph glyph-name="uni066C" unicode="&#x66c;" horiz-adv-x="448" 
d="M135 -92q-9 -13 -3 54q13 141 39 270q5 24 8 29q13 23 22.5 44.5t13.5 32t7.5 19t7.5 11t10 2.5l100 9q33 3 48.5 -21t-0.5 -57z" />
    <glyph glyph-name="uni066E" unicode="&#x66e;" horiz-adv-x="1520" 
d="M405 0q-151 0 -231 86t-87 245v479q0 37 30.5 52t61 0t30.5 -52v-479q7 -95 58.5 -154t137.5 -59h715q83 0 134 59.5t58 153.5v610q0 21 12.5 36t30.5 18.5t36 0t30.5 -19t12.5 -39.5v-606q-3 -166 -84.5 -248.5t-229.5 -82.5h-715z" />
    <glyph glyph-name="uni066F" unicode="&#x66f;" horiz-adv-x="1564" 
d="M1037 1081q104 0 188 -43.5t136 -117t79.5 -166.5t27.5 -196v-636q-3 -230 -186.5 -344t-518.5 -114h-5q-152 0 -285 61.5t-223 164.5t-128.5 247.5t-8.5 302.5q17 85 28 104q16 26 51 26q44 0 50 -38t-11 -97q-28 -136 3.5 -259.5t106.5 -208.5t184.5 -135t232.5 -50
q277 0 431.5 91.5t161.5 248.5v78h-235q-99 0 -182.5 38.5t-138.5 99t-94 136t-56.5 148t-17.5 136.5q0 228 112.5 375.5t293.5 147.5h4zM745 558q0 -92 33.5 -176t86.5 -142t119.5 -92.5t131.5 -34.5h239l-4 445q0 179 -82 294t-228 115h-4q-139 0 -215.5 -109t-76.5 -300z
" />
    <glyph glyph-name="uni0670" unicode="&#x670;" 
d="M52 1421q2 57 -7 121.5t-18 100.5t-27 104l57 22q52 -168 52 -335z" />
    <glyph glyph-name="uni0671" unicode="&#x671;" horiz-adv-x="422" 
d="M17 1651q-15 -21 -34 -8q-15 15 0 52l34 52q7 13 22 16.5t31 -3.5l69 -34q5 8 25 38t29 41.5t29.5 32t37 25.5t41.5 5.5t52 -12.5q85 -50 76 -119q-8 -57 -70 -90q-83 -44 -184 -6q-3 1 -5 2q-109 49 -116 51q-11 2 -17 -9q-1 -1 -2 -3zM205 1699q55 -16 96 -5t64 32
l23 21q-5 12 -36.5 36.5t-59.5 24.5q-20 -2 -41.5 -29t-33.5 -53zM148 65v1386q0 37 32.5 52t65.5 0t33 -52v-1386q0 -41 -32.5 -58t-65.5 0t-33 58z" />
    <glyph glyph-name="uni0679" unicode="&#x679;" horiz-adv-x="1520" 
d="M580 1015q-10 0 -18.5 6.5t-8.5 15.5v26q0 9 8.5 15.5t18.5 6.5h26v240q0 18 15 26t30.5 0t15.5 -26v-79q31 31 104 31q71 0 103 -36t32 -112q0 -44 -18.5 -79t-59.5 -35h-248zM771 1203q-94 0 -100 -118h135q17 0 24 8t7 31q0 45 -14.5 62t-51.5 17zM1312 941
q0 21 12.5 36t30.5 18.5t36 0t30.5 -19t12.5 -39.5v-606q-3 -166 -84.5 -248.5t-229.5 -82.5h-715q-151 0 -231 86t-87 245v479q0 37 30.5 52t61 0t30.5 -52v-479q7 -95 58.5 -154t137.5 -59h715q83 0 134 59.5t58 153.5v610z" />
    <glyph glyph-name="uni067E" unicode="&#x67e;" horiz-adv-x="1520" 
d="M405 0q-151 0 -231 86t-87 245v479q0 37 30.5 52t61 0t30.5 -52v-479q7 -95 58.5 -154t137.5 -59h715q83 0 134 59.5t58 153.5v610q0 21 12.5 36t30.5 18.5t36 0t30.5 -19t12.5 -39.5v-606q-3 -166 -84.5 -248.5t-229.5 -82.5h-715zM601 -153q0 41 31.5 58t63.5 0t32 -58
v-69q0 -39 -32 -54t-63.5 1t-31.5 53v69zM797 -153q0 41 31.5 58t63.5 0t32 -58v-69q0 -39 -32 -54t-63.5 1t-31.5 53v69zM702 -436q0 41 31.5 58t63 0t31.5 -58v-69q0 -41 -31.5 -57t-63 1t-31.5 56v69z" />
    <glyph glyph-name="uni0686" unicode="&#x686;" horiz-adv-x="1520" 
d="M810 1081q288 0 456 -181t168 -482v-418h-1020q-96 0 -152.5 -69.5t-56.5 -174.5q0 -115 81 -186t202 -71q26 0 41.5 -18t15.5 -47q-3 -20 -22.5 -36.5t-38.5 -16.5q-166 0 -281.5 107t-115.5 268q0 137 81.5 240.5t206.5 116.5q11 5 26 5h906v283q0 258 -131.5 408
t-378.5 150q-117 0 -209 -40t-178 -126q-24 -24 -53 -15.5t-36.5 34.5t10.5 51q64 89 194.5 153.5t284.5 64.5zM915 -283q0 -39 -31.5 -54t-63 1t-31.5 53v69q0 41 31.5 58t63 0t31.5 -58v-69zM985 -214q0 41 31.5 58t63 0t31.5 -58v-69q0 -39 -31.5 -54t-63 1t-31.5 53v69z
M889 -497q0 41 31.5 58t63 0t31.5 -58v-69q0 -41 -31.5 -57t-63 1t-31.5 56v69z" />
    <glyph glyph-name="uni0688" unicode="&#x688;" horiz-adv-x="967" 
d="M214 1172q-10 0 -18.5 6.5t-8.5 15.5v26q0 9 8.5 15.5t18.5 6.5h26v240q0 18 15 26t30.5 0t15.5 -26v-79q31 31 104 31q71 0 103 -36.5t32 -112.5q0 -44 -18.5 -78.5t-59.5 -34.5h-248zM405 1360q-94 0 -100 -118h135q17 0 24 8t7 31q0 45 -14.5 62t-51.5 17zM322 1081
q174 -11 302 -104t192 -238.5t64 -324.5v-414h-732q-37 0 -53 29.5t-1 59t54 29.5h606v296q0 231 -115 376.5t-330 168.5q-26 3 -41 20.5t-15 44.5q0 26 20 43t49 14z" />
    <glyph glyph-name="uni0691" unicode="&#x691;" horiz-adv-x="562" 
d="M458 1403q71 0 103 -36t32 -112q0 -44 -19 -78.5t-60 -34.5h-248q-10 0 -18 6t-8 15v27q0 9 8 15t18 6h26v240q0 18 15 26t30.5 0t15.5 -26v-78q30 30 105 30zM492 1211q17 0 24 8.5t7 31.5q0 45 -14 61.5t-51 16.5q-95 0 -101 -118h135zM349 924q0 39 31.5 56t63 1
t31.5 -57v-933q0 -177 -86 -271.5t-236 -94.5q-43 0 -61 29.5t0 59t61 29.5q92 0 144 66.5t52 173.5v941z" />
    <glyph glyph-name="uni0698" unicode="&#x698;" horiz-adv-x="562" 
d="M357 1573v70q0 39 31.5 56t63.5 1t32 -57v-70q0 -41 -32 -58t-63.5 0t-31.5 58zM257 1290v70q0 39 31.5 56t63 1t31.5 -57v-70q0 -41 -31.5 -58t-63 0t-31.5 58zM453 1290v70q0 39 31.5 56t63.5 1t32 -57v-70q0 -41 -32 -58t-63.5 0t-31.5 58zM153 -375q-43 0 -61 29.5
t0 59t61 29.5q92 0 144 66.5t52 173.5v941q0 39 31.5 56t63 1t31.5 -57v-933q0 -177 -86 -271.5t-236 -94.5z" />
    <glyph glyph-name="uni06A1" unicode="&#x6a1;" horiz-adv-x="1965" 
d="M1438 1081q103 0 186.5 -43.5t136 -116.5t80.5 -165.5t28 -193.5v-562h-1154q-281 0 -454.5 184.5t-173.5 482.5v56q0 26 17.5 43.5t43.5 17.5t43.5 -17.5t17.5 -43.5v-39q0 -258 137.5 -412t368.5 -154h501q-92 86 -142 211t-50 233q0 224 114.5 371.5t295.5 147.5h4z
M1756 118l-9 444q0 177 -80 291t-225 114h-4q-142 0 -217 -108t-75 -297q0 -93 32.5 -177t85 -141.5t118 -91.5t130.5 -34h244z" />
    <glyph glyph-name="uni06A4" unicode="&#x6a4;" horiz-adv-x="1965" 
d="M1508 1604q0 -41 -32 -58t-63.5 0t-31.5 58v69q0 39 31.5 56t63.5 1t32 -57v-69zM1407 1320q0 -41 -31.5 -58t-63 0t-31.5 58v70q0 39 31.5 56t63 1t31.5 -57v-70zM1477 1390q0 39 31.5 56t63.5 1t32 -57v-70q0 -41 -32 -58t-63.5 0t-31.5 58v70zM1438 1081
q103 0 186.5 -43.5t136 -116.5t80.5 -165.5t28 -193.5v-562h-1154q-281 0 -454.5 184.5t-173.5 482.5v56q0 26 17.5 43.5t43.5 17.5t43.5 -17.5t17.5 -43.5v-39q0 -258 137.5 -412t368.5 -154h501q-92 86 -142 211t-50 233q0 224 114.5 371.5t295.5 147.5h4zM1756 118
l-9 444q0 177 -80 291t-225 114h-4q-142 0 -217 -108t-75 -297q0 -93 32.5 -177t85 -141.5t118 -91.5t130.5 -34h244z" />
    <glyph glyph-name="uni06A9" unicode="&#x6a9;" horiz-adv-x="1921" 
d="M1194 1081q162 0 285 -54.5t198 -153.5t112 -229.5t37 -290.5v-227q0 -52 -37 -89t-90 -37h-1072q-117 4 -216.5 42t-166.5 101.5t-107.5 148t-38.5 180.5t41 199q32 80 82 88q36 6 53 -25q16 -31 -4 -67q-51 -82 -59.5 -165t22.5 -151t89 -121t143.5 -82.5t183.5 -29.5
h1024q22 0 22 21v214q0 294 -127.5 452t-373.5 158h-462q-36 0 -61.5 28t-25.5 64q0 41 26 61l401 322q12 17 39 17q39 0 56 -37t-12 -63l-345 -274h384z" />
    <glyph glyph-name="uni06AF" unicode="&#x6af;" horiz-adv-x="1921" 
d="M623 1172q-25 -21 -49.5 -10.5t-27 35.5t19.5 49l454 362q21 12 43.5 -1.5t25 -36t-20.5 -41.5zM1194 1081q162 0 285 -54.5t198 -153.5t112 -229.5t37 -290.5v-227q0 -52 -37 -89t-90 -37h-1072q-117 4 -216.5 42t-166.5 101.5t-107.5 148t-38.5 180.5t41 199
q32 80 82 88q36 6 53 -25q16 -31 -4 -67q-51 -82 -59.5 -165t22.5 -151t89 -121t143.5 -82.5t183.5 -29.5h1024q22 0 22 21v214q0 294 -127.5 452t-373.5 158h-462q-36 0 -61.5 28t-25.5 64q0 41 26 61l401 322q12 17 39 17q39 0 56 -37t-12 -63l-345 -274h384z" />
    <glyph glyph-name="uni06BA" unicode="&#x6ba;" horiz-adv-x="1390" 
d="M1185 941q0 21 12.5 36t30.5 18.5t36 0t30.5 -19t12.5 -39.5v-636q-3 -133 -42 -246t-102 -191.5t-145.5 -133.5t-171.5 -80.5t-179 -24.5q-104 1 -199 28.5t-175.5 83.5t-136.5 135t-82 190.5t-13 242.5l57 471q3 22 17 37.5t32.5 18.5t36 -1.5t28.5 -21.5t8 -42
l-57 -462q-28 -250 111.5 -398t376.5 -155q133 3 232.5 45.5t160.5 118.5t91 176.5t30 225.5v623z" />
    <glyph glyph-name="uni06BE" unicode="&#x6be;" horiz-adv-x="1734" 
d="M1011 1238q154 0 275.5 -50.5t200 -141t119.5 -213.5t41 -271v-562h-1673l-18 61l18 57h327q-196 153 -196 444q0 122 42.5 221.5t113.5 163.5t159.5 100.5t185.5 41.5q163 149 405 149zM976 118h545v444q0 258 -137 408t-373 150q-122 0 -218 -52q106 -27 189.5 -90.5
t136.5 -171.5t53 -244q0 -291 -196 -444zM227 562q0 -184 118.5 -314t290.5 -130q183 0 298.5 127.5t115.5 316.5q0 164 -122 284.5t-292 120.5q-118 0 -213 -58.5t-145.5 -151t-50.5 -195.5z" />
    <glyph glyph-name="uni06C1" unicode="&#x6c1;" horiz-adv-x="1141" 
d="M571 0q-210 0 -347 138.5t-137 353.5q0 146 61 269t174 197.5t253 74.5q136 0 247 -74t172 -196.5t61 -265.5v-5q0 -216 -136 -354t-348 -138zM575 118q162 0 264 103.5t102 275.5v4q0 114 -45.5 209t-131 152t-193.5 57q-114 0 -199.5 -58.5t-128.5 -152.5t-43 -207v-4
q0 -172 107 -275.5t268 -103.5z" />
    <glyph glyph-name="uni06C2" unicode="&#x6c2;" horiz-adv-x="1141" 
d="M401 1190q-29 0 -41 20.5t0 41t41 20.5h70q-33 58 -38.5 114t13 98t54.5 72.5t79.5 41t94 -1.5t93.5 -49q19 -17 16 -39.5t-20.5 -29t-39.5 7.5q-44 34 -94 35t-83.5 -27t-35.5 -73q-3 -73 23 -111t73 -38h135q25 0 35 -20.5t0 -41t-35 -20.5h-340zM571 0
q-210 0 -347 138.5t-137 353.5q0 146 61 269t174 197.5t253 74.5q136 0 247 -74t172 -196.5t61 -265.5v-5q0 -216 -136 -354t-348 -138zM575 118q162 0 264 103.5t102 275.5v4q0 114 -45.5 209t-131 152t-193.5 57q-114 0 -199.5 -58.5t-128.5 -152.5t-43 -207v-4
q0 -172 107 -275.5t268 -103.5z" />
    <glyph glyph-name="uni06C3" unicode="&#x6c3;" horiz-adv-x="1141" 
d="M410 1268v70q0 37 31.5 53t63 1t31.5 -54v-70q0 -41 -31.5 -58t-63 0t-31.5 58zM606 1268v70q0 37 31.5 53t63 1t31.5 -54v-70q0 -41 -31.5 -58t-63 0t-31.5 58zM571 0q-210 0 -347 138.5t-137 353.5q0 146 61 269t174 197.5t253 74.5q136 0 247 -74t172 -196.5
t61 -265.5v-5q0 -216 -136 -354t-348 -138zM575 118q162 0 264 103.5t102 275.5v4q0 114 -45.5 209t-131 152t-193.5 57q-114 0 -199.5 -58.5t-128.5 -152.5t-43 -207v-4q0 -172 107 -275.5t268 -103.5z" />
    <glyph glyph-name="uni06CC" unicode="&#x6cc;" horiz-adv-x="1747" 
d="M819 -301q-152 0 -285.5 62t-224 165.5t-130 249.5t-9.5 303q17 85 27 103q16 28 51 28q23 0 36 -10t15 -30.5t-1 -41.5t-10 -53q-28 -137 3.5 -260t106.5 -208.5t185.5 -135.5t235.5 -50q279 0 433.5 94t154.5 251q0 59 -20 103t-53.5 70.5t-76.5 46t-91.5 34.5
t-96.5 30.5t-91 38.5t-76.5 55t-53.5 84t-20 121q0 147 122 241.5t327 94.5q132 0 236.5 -39t146.5 -92q-6 -25 -29 -49.5t-54 -41.5q-69 54 -134 79t-166 25q-142 0 -239 -62t-97 -156q0 -51 20 -89.5t54 -61.5t77.5 -41t92 -33t97 -32t92 -43t77.5 -61.5t54 -92t20 -129.5
q0 -234 -183 -350.5t-518 -116.5h-5z" />
    <glyph glyph-name="uni06D2" unicode="&#x6d2;" horiz-adv-x="1651" 
d="M1421 614q0 37 31.5 53t63 0t31.5 -57v-279q-7 -167 -89 -249t-229 -82h-954q0 -174 112 -259t297 -85h475q17 0 30.5 -14.5t13.5 -33.5v-18q0 -22 -13.5 -37t-30.5 -15h-475q-99 0 -178 15.5t-150 55.5t-118.5 103.5t-75 165t-27.5 235.5l763 5h331q84 0 136.5 60
t55.5 153v283z" />
    <glyph glyph-name="uni06D3" unicode="&#x6d3;" horiz-adv-x="1651" 
d="M466 397q18 0 28.5 -13t10.5 -28.5t-10.5 -28.5t-28.5 -13h-340q-22 0 -34 13t-12 28.5t12 28.5t34 13h70q-33 58 -38.5 114t13 98t54.5 72t79.5 40.5t94 -1.5t93.5 -49q19 -17 16 -39.5t-20 -29t-39 7.5q-44 34 -94 35t-84 -27t-36 -73q-3 -73 23 -110.5t73 -37.5h135z
M1421 614q0 37 31.5 53t63 0t31.5 -57v-279q-7 -167 -89 -249t-229 -82h-954q0 -174 112 -259t297 -85h475q17 0 30.5 -14.5t13.5 -33.5v-18q0 -22 -13.5 -37t-30.5 -15h-475q-99 0 -178 15.5t-150 55.5t-118.5 103.5t-75 165t-27.5 235.5l763 5h331q84 0 136.5 60t55.5 153
v283z" />
    <glyph glyph-name="uni06D4" unicode="&#x6d4;" horiz-adv-x="370" 
d="M283 96q0 -39 -30.5 -67.5t-69.5 -28.5t-67.5 28.5t-28.5 67.5t28.5 69.5t67.5 30.5t69.5 -30.5t30.5 -69.5z" />
    <glyph glyph-name="uni06F0" unicode="&#x6f0;" horiz-adv-x="527" 
d="M270 375q-45 0 -74.5 31.5t-29.5 77.5q0 43 29.5 73.5t74.5 30.5t75 -30.5t30 -73.5q0 -46 -30 -77.5t-75 -31.5z" />
    <glyph glyph-name="uni06F1" unicode="&#x6f1;" horiz-adv-x="383" 
d="M187 1325q27 0 48.5 -19t21.5 -47v-1224q0 -29 -20 -47.5t-50 -18.5q-29 0 -47 18.5t-18 47.5v1224q0 29 19 47.5t46 18.5z" />
    <glyph glyph-name="uni06F2" unicode="&#x6f2;" horiz-adv-x="1058" 
d="M723 1216q0 26 22 41t48 15t48 -15t22 -41q0 -128 -14 -219.5t-40 -150.5t-69 -93t-94 -47t-123 -13q-162 0 -227 39v-688q0 -34 -21.5 -53.5t-48 -19.5t-48 19.5t-21.5 53.5v1137v48q0 28 21.5 43.5t48 15.5t48 -15.5t21.5 -43.5v-48v-192q7 -96 54 -135t173 -39
q32 0 57.5 5t45 13.5t34.5 25t25.5 32.5t17.5 45t11 53.5t6 65.5t2.5 74.5t0.5 86.5z" />
    <glyph glyph-name="uni06F3" unicode="&#x6f3;" horiz-adv-x="1289" 
d="M174 48v1176q0 45 35 64t70 2t35 -61l4 -310q0 -59 28.5 -97.5t69 -45.5t80.5 4t68.5 49t28.5 90v305q0 45 32.5 64.5t65 1t32.5 -65.5l9 -305q0 -47 14 -82.5t37 -53t51 -24.5t56.5 2.5t52.5 28t40 53t19 76.5v314q0 41 33 58t65.5 -1t32.5 -61v-310q0 -69 -26 -128
t-68 -96.5t-95 -58t-105.5 -19t-102 27.5t-82.5 74q-39 -46 -105.5 -65.5t-129.5 -12.5t-105 34v-627q0 -50 -35 -70t-70 0t-35 70z" />
    <glyph glyph-name="uni06F4" unicode="&#x6f4;" horiz-adv-x="1128" 
d="M906 1216q0 26 21 41t46.5 15t46.5 -15t21 -41q0 -129 -13.5 -220t-39 -150t-68 -93t-94 -47t-124.5 -13q-190 0 -301.5 16.5t-178.5 57.5v-723q0 -34 -21 -53.5t-46.5 -19.5t-46.5 19.5t-21 53.5v1146v48q0 39 33.5 55t67.5 0t34 -55v-48v-92q2 -60 10 -98t30 -72.5
t64.5 -56t109.5 -34.5q-25 38 -31 91q-16 162 71 240t278 78q40 0 58 -34t1 -67.5t-64 -33.5q-98 2 -148 -15t-65.5 -53t-8.5 -102q13 -96 74 -126h101q36 0 64 5.5t49 19t36 29.5t25 44t16 55t9 70t4 81.5t1 96.5z" />
    <glyph glyph-name="uni06F5" unicode="&#x6f5;" horiz-adv-x="1250" 
d="M436 1290q93 -65 168 -125.5t160.5 -151.5t142.5 -184t95.5 -216.5t38.5 -255.5q0 -173 -66.5 -273.5t-181.5 -100.5q-44 0 -78 13.5t-52.5 34.5t-29.5 40.5t-18 38t-9 21.5l-4 -15q-5 -16 -9.5 -26t-13.5 -28t-23 -29.5t-33 -24t-47 -19t-62 -6.5q-148 0 -210 151
q-60 148 -19 371q43 233 171 406q66 89 145 144q-104 78 -152 117q-37 31 -28 73.5t44 55.5t71 -11zM719 196q57 -118 109 -90q48 26 67 149q7 49 7 102q0 329 -301 606q-179 -116 -250 -368q-51 -182 -27 -348q17 -120 62 -142q47 -23 98 87q52 111 120.5 111.5
t114.5 -107.5z" />
    <glyph glyph-name="uni06F6" unicode="&#x6f6;" horiz-adv-x="897" 
d="M706 649q22 -12 27.5 -38t-5.5 -45q-16 -39 -57 -39q-189 0 -281.5 -47t-103 -145t40.5 -248q19 -52 -5.5 -86.5t-64.5 -23t-61 70.5q-54 195 -33.5 325.5t120.5 201.5q-116 71 -122 275q-2 98 4 165.5t26.5 124t56.5 87t94.5 46.5t139.5 12t193 -26q45 -9 59 -55
q12 -43 -12 -69q-19 -16 -47 -11q-97 21 -161.5 30t-108.5 -2t-66 -22t-33 -56.5t-12.5 -78t-1.5 -111.5v-11.5v-11v-11.5q0 -71 28 -115t72.5 -57.5t99.5 -18t109 2.5h53h13h4q22 0 35 -13z" />
    <glyph glyph-name="uni06F7" unicode="&#x6f7;" horiz-adv-x="1124" 
d="M867 1294q28 -3 43.5 -29.5t8.5 -53.5l-309 -1189q-20 -59 -65 -53q-52 -6 -66 53l-309 1189q-7 27 8.5 53.5t43.5 29.5q59 7 79 -52l244 -950l244 950q6 28 28 41.5t50 10.5z" />
    <glyph glyph-name="uni06F8" unicode="&#x6f8;" horiz-adv-x="1124" 
d="M919 52q7 -27 -8.5 -53.5t-43.5 -29.5q-27 -3 -49 11t-29 42l-244 950l-244 -950q-10 -29 -31 -42.5t-48 -10.5q-28 3 -43.5 29.5t-8.5 53.5l309 1190q13 58 66 52q46 6 65 -52z" />
    <glyph glyph-name="uni06F9" unicode="&#x6f9;" horiz-adv-x="1141" 
d="M946 906v-4l-5 -867q0 -29 -20 -47.5t-50 -18.5q-27 0 -46 18.5t-19 47.5l4 571q-105 -92 -248 -92q-162 0 -272.5 115t-110.5 277q0 160 109.5 274t273.5 114t274 -114.5t110 -273.5zM562 649q98 0 166.5 76t68.5 181q0 99 -67.5 169.5t-167.5 70.5q-107 0 -171 -70.5
t-64 -169.5q0 -105 68.5 -181t166.5 -76z" />
    <glyph glyph-name="endash" unicode="&#x2013;" horiz-adv-x="1307" 
d="M192 540q-28 0 -44.5 16.5t-16.5 40.5v4q0 27 16 42t45 15h932q24 0 38.5 -15.5t14.5 -41.5v-4q0 -24 -15 -40.5t-38 -16.5h-932z" />
    <glyph glyph-name="emdash" unicode="&#x2014;" horiz-adv-x="2217" 
d="M192 540q-28 0 -44.5 16.5t-16.5 40.5v4q0 27 16 42t45 15h1843q26 0 41.5 -15.5t15.5 -41.5v-4q0 -24 -15.5 -40.5t-41.5 -16.5h-1843z" />
    <glyph glyph-name="quoteleft" unicode="&#x2018;" horiz-adv-x="400" 
d="M322 1525l-95 -479h-153l161 479h87z" />
    <glyph glyph-name="quoteright" unicode="&#x2019;" horiz-adv-x="226" 
d="M227 1516l-105 -479h-122l87 479h140z" />
    <glyph glyph-name="quotesinglbase" unicode="&#x201a;" horiz-adv-x="374" 
d="M83 -231l135 484h96l-87 -484h-144z" />
    <glyph glyph-name="quotedblleft" unicode="&#x201c;" horiz-adv-x="745" 
d="M349 1521l-105 -480h-122l87 480h140zM627 1521l-104 -484h-126l87 484h143z" />
    <glyph glyph-name="quotedblright" unicode="&#x201d;" horiz-adv-x="745" 
d="M627 1521l-104 -480h-126l87 480h143zM349 1503l-105 -479h-122l87 479h140z" />
    <glyph glyph-name="quotedblbase" unicode="&#x201e;" horiz-adv-x="623" 
d="M349 357l-105 -479h-122l87 479h140zM627 357l-104 -479h-126l87 479h143z" />
    <glyph glyph-name="dagger" unicode="&#x2020;" horiz-adv-x="1028" 
d="M837 932q74 0 74 -61v-4q0 -27 -19.5 -44t-54.5 -17q-48 0 -113.5 5.5t-112 11t-49.5 5.5l9 -1015q0 -26 -16.5 -41.5t-40.5 -15.5t-40 15.5t-16 41.5l8 1015q-3 0 -49.5 -5.5t-111.5 -11t-113 -5.5q-35 0 -54.5 17t-19.5 44v4q0 61 74 61q48 0 113 -4t111.5 -8.5
t49.5 -4.5q0 3 -4 65t-8.5 149t-4.5 152q0 33 17.5 51.5t47.5 18.5t48 -18.5t18 -51.5q0 -65 -4.5 -152t-9 -149t-4.5 -65q3 0 49.5 4.5t112 8.5t113.5 4zM571 -187z" />
    <glyph glyph-name="daggerdbl" unicode="&#x2021;" horiz-adv-x="1028" 
d="M514 -244q-30 0 -47.5 19.5t-17.5 54.5q0 61 4.5 145t8.5 144t4 64q-3 0 -49.5 -5.5t-111.5 -11t-113 -5.5q-35 0 -54.5 17t-19.5 44v5q0 27 19.5 44t54.5 17q48 0 113 -5.5t111.5 -11t49.5 -5.5q0 3 -5.5 53.5t-11 119t-5.5 114.5q0 48 5.5 117.5t11 120.5t5.5 54
q-8 -3 -51 -8.5t-108.5 -11.5t-114.5 -6q-35 0 -54.5 18t-19.5 48t19.5 47.5t54.5 17.5q48 0 113 -5.5t111.5 -11t49.5 -5.5q0 4 -4 64t-8.5 144t-4.5 145q0 33 17.5 51.5t47.5 18.5t48 -18.5t18 -51.5q0 -61 -4.5 -145t-9 -144t-4.5 -64q3 0 49.5 5.5t112 11t113.5 5.5
q35 0 54.5 -17.5t19.5 -47.5t-19.5 -48t-54.5 -18q-48 0 -113.5 5.5t-112 11t-49.5 5.5q0 -3 5.5 -53t11 -118.5t5.5 -116.5q0 -46 -5.5 -114.5t-11 -119t-5.5 -53.5q3 0 49.5 5.5t112 11t113.5 5.5q35 0 54.5 -17t19.5 -44v-5q0 -27 -19.5 -44t-54.5 -17q-48 0 -113.5 5.5
t-112 11t-49.5 5.5q0 -4 4.5 -64t9 -144t4.5 -145q0 -35 -18 -54.5t-48 -19.5z" />
    <glyph glyph-name="bullet" unicode="&#x2022;" horiz-adv-x="592" 
d="M475 549q0 -81 -50 -130t-129 -49t-128.5 49t-49.5 130t49.5 130t128.5 49t129 -49t50 -130z" />
    <glyph glyph-name="ellipsis" unicode="&#x2026;" horiz-adv-x="1093" 
d="M301 78q0 -39 -26.5 -65t-65.5 -26t-63 26t-24 65q0 37 24.5 64.5t62.5 27.5t65 -27.5t27 -64.5zM636 78q0 -39 -26 -65t-65 -26q-37 0 -64.5 26.5t-27.5 64.5q0 36 28 64t64 28q38 0 64.5 -27.5t26.5 -64.5zM972 78q0 -39 -26.5 -65t-65.5 -26t-63 26t-24 65
q0 37 24.5 64.5t62.5 27.5t65 -27.5t27 -64.5z" />
    <glyph glyph-name="perthousand" unicode="&#x2030;" horiz-adv-x="2387" 
d="M383 -135q-27 -47 -68 -36q-30 7 -38 37q-8 26 11 51l971 1499q17 26 40 33t38.5 -5.5t22.5 -33.5t-9 -50zM444 645q-140 0 -231 98t-91 272q0 175 91.5 275t230.5 100q142 0 234.5 -100t92.5 -275q0 -174 -92 -272t-235 -98zM444 745q96 0 153 71t57 199q0 129 -57 202
t-153 73q-92 0 -146 -73t-54 -202t53.5 -199.5t146.5 -70.5zM1922 -87q-141 0 -232 98t-91 277q0 174 91.5 270t231.5 96q143 0 234.5 -96t91.5 -270q0 -179 -91.5 -277t-234.5 -98zM1190 -105q-143 0 -235 99t-92 276q0 174 92 272.5t235 98.5q140 0 233 -98.5t93 -272.5
q0 -176 -93 -275.5t-233 -99.5zM1922 9q96 0 152.5 72.5t56.5 201.5t-56.5 202t-152.5 73q-92 0 -146.5 -73t-54.5 -202t54 -201.5t147 -72.5zM1190 -4q95 0 149.5 71.5t54.5 198.5q0 130 -54.5 202t-149.5 72t-148 -72t-53 -202q0 -127 53 -198.5t148 -71.5z" />
    <glyph glyph-name="guilsinglleft" unicode="&#x2039;" horiz-adv-x="684" 
d="M501 166q-18 0 -57 39l-296 292q-20 28 -21 58.5t21 58.5l305 310q38 41 80 21q31 -16 32 -49q1 -21 -16 -38l-283 -300l287 -297q26 -26 7.5 -60.5t-55.5 -34.5h-4z" />
    <glyph glyph-name="guilsinglright" unicode="&#x203a;" horiz-adv-x="684" 
d="M183 166h-4q-37 0 -55.5 34.5t7.5 60.5l287 297l-283 300q-29 29 -9 64q19 32 56 28q26 -2 49 -26l305 -310q22 -28 21 -58.5t-21 -58.5l-296 -292q-39 -39 -57 -39z" />
    <glyph glyph-name="fraction" unicode="&#x2044;" horiz-adv-x="1285" 
d="M205 -131q-24 -43 -60.5 -42.5t-48.5 31.5t9 68l976 1490q24 43 60.5 43t48.5 -31t-9 -68z" />
    <glyph glyph-name="Euro" unicode="&#x20ac;" horiz-adv-x="1407" 
d="M1272 122q-147 -94 -288.5 -131t-260.5 -15.5t-214.5 91.5t-157.5 193t-81 285h-100q-33 0 -45.5 26t1 52t44.5 26h91q-3 17 -3 73t3 75h-91q-33 0 -45.5 26.5t1 52.5t44.5 26h105q18 119 71.5 222.5t128 176.5t168 119t190.5 57t197.5 -17t185.5 -96q23 -24 21.5 -49
t-23 -40.5t-42.5 -2.5q-132 74 -260.5 84.5t-230.5 -37t-174.5 -155.5t-96.5 -262h488q37 0 52 -26t0 -52.5t-52 -26.5h-501v-148h461q33 0 47.5 -26t1 -52t-48.5 -26h-453q19 -138 70 -239t127.5 -156.5t172 -69t210 21.5t235.5 116q27 17 55 1.5t29 -43.5t-32 -54z" />
    <glyph glyph-name="trademark" unicode="&#x2122;" horiz-adv-x="1433" 
d="M693 1355v484q0 39 23.5 62.5t53.5 26t60 -17t41 -58.5l122 -353l131 349q12 42 42.5 63t60.5 18.5t53 -27t23 -63.5v-479q0 -33 -29.5 -47.5t-59 -1t-29.5 48.5v379q-31 -101 -55 -169.5t-48 -119.5t-44 -74t-42 -23.5t-42.5 23t-46 74.5t-51.5 121t-59 172v-388
q0 -33 -26 -47.5t-52 -1t-26 48.5zM309 1360v444h-135q-21 0 -29.5 25t0 50t29.5 25h392q18 0 26 -25t0 -50t-26 -25h-139v-444q0 -43 -29.5 -61t-59 0t-29.5 61z" />
    <glyph glyph-name="minus" unicode="&#x2212;" horiz-adv-x="984" 
d="M863 728q0 -28 -14.5 -44.5t-42.5 -16.5h-627q-28 0 -42.5 16.5t-14.5 44.5v4q0 25 14.5 41t42.5 16h627q28 0 42.5 -16t14.5 -41v-4z" />
    <glyph glyph-name="lessequal" unicode="&#x2264;" horiz-adv-x="1111" 
d="M980 937q0 -38 -34 -52l-654 -188l649 -183q39 -14 39 -56q0 -32 -26 -47.5t-56 -5.5l-724 227q-43 25 -43 65v5q0 40 43 65l719 226q34 10 60.5 -5t26.5 -47v-4zM924 305q25 0 40.5 -16.5t15.5 -40.5v-4q0 -27 -15 -44t-41 -17h-724q-29 0 -45 17t-16 44v4
q0 24 16.5 40.5t44.5 16.5h724z" />
    <glyph glyph-name="greaterequal" unicode="&#x2265;" horiz-adv-x="1089" 
d="M924 767q43 -21 43 -65v-5q0 -43 -43 -65l-719 -227q-34 -10 -60.5 5.5t-26.5 47.5q0 40 39 56l649 188l-649 183q-17 7 -28 21.5t-11 30.5v4q0 32 26.5 47t60.5 5zM902 305q28 0 42.5 -16t14.5 -41v-4q0 -28 -14.5 -44.5t-42.5 -16.5h-723q-28 0 -42.5 16.5t-14.5 44.5
v4q0 25 14.5 41t42.5 16h723z" />
    <glyph glyph-name="uniFBB2" unicode="&#xfbb2;" 
d="M0 1107v70q0 37 31.5 53t63 1t31.5 -54v-70q0 -41 -31.5 -58t-63 0t-31.5 58z" />
    <glyph glyph-name="uniFBB3" unicode="&#xfbb3;" 
d="M0 1107v70q0 37 31.5 53t63 1t31.5 -54v-70q0 -41 -31.5 -58t-63 0t-31.5 58z" />
    <glyph glyph-name="uniFBB4" unicode="&#xfbb4;" 
d="M0 1107v70q0 37 31.5 53t63 1t31.5 -54v-70q0 -41 -31.5 -58t-63 0t-31.5 58zM196 1107v70q0 37 31.5 53t63 1t31.5 -54v-70q0 -41 -31.5 -58t-63 0t-31.5 58z" />
    <glyph glyph-name="uniFBB5" unicode="&#xfbb5;" 
d="M0 1107v70q0 37 31.5 53t63 1t31.5 -54v-70q0 -41 -31.5 -58t-63 0t-31.5 58zM196 1107v70q0 37 31.5 53t63 1t31.5 -54v-70q0 -41 -31.5 -58t-63 0t-31.5 58z" />
    <glyph glyph-name="uniFBB6" unicode="&#xfbb6;" 
d="M100 906v70q0 39 32 56t63.5 1t31.5 -57v-70q0 -41 -31.5 -58t-63.5 0t-32 58zM0 623v70q0 39 31.5 56t63 1t31.5 -57v-70q0 -41 -31.5 -58t-63 0t-31.5 58zM196 623v70q0 39 31.5 56t63 1t31.5 -57v-70q0 -41 -31.5 -58t-63 0t-31.5 58z" />
    <glyph glyph-name="uniFBB7" unicode="&#xfbb7;" 
d="M100 906v70q0 39 32 56t63.5 1t31.5 -57v-70q0 -41 -31.5 -58t-63.5 0t-32 58zM0 623v70q0 39 31.5 56t63 1t31.5 -57v-70q0 -41 -31.5 -58t-63 0t-31.5 58zM196 623v70q0 39 31.5 56t63 1t31.5 -57v-70q0 -41 -31.5 -58t-63 0t-31.5 58z" />
    <glyph glyph-name="uniFBB8" unicode="&#xfbb8;" 
d="M0 1124q0 41 31.5 58t63 0t31.5 -58v-69q0 -39 -31.5 -54t-63 1t-31.5 53v69zM196 1124q0 41 31.5 58t63 0t31.5 -58v-69q0 -39 -31.5 -54t-63 1t-31.5 53v69zM100 841q0 41 32 58t63.5 0t31.5 -58v-70q0 -41 -31.5 -57t-63.5 1t-32 56v70z" />
    <glyph glyph-name="uniFBB9" unicode="&#xfbb9;" 
d="M0 1124q0 41 31.5 58t63 0t31.5 -58v-69q0 -39 -31.5 -54t-63 1t-31.5 53v69zM196 1124q0 41 31.5 58t63 0t31.5 -58v-69q0 -39 -31.5 -54t-63 1t-31.5 53v69zM100 841q0 41 32 58t63.5 0t31.5 -58v-70q0 -41 -31.5 -57t-63.5 1t-32 56v70z" />
    <glyph glyph-name="uniFBBD" unicode="&#xfbbd;" 
d="M0 1098v70q0 37 31.5 53t63 1t31.5 -54v-70q0 -41 -31.5 -58t-63 0t-31.5 58zM0 810v70q0 39 31.5 56t63 1t31.5 -57v-70q0 -39 -31.5 -55t-63 0t-31.5 55z" />
    <glyph glyph-name="uniFBBE" unicode="&#xfbbe;" 
d="M0 1098v70q0 37 31.5 53t63 1t31.5 -54v-70q0 -41 -31.5 -58t-63 0t-31.5 58zM0 810v70q0 39 31.5 56t63 1t31.5 -57v-70q0 -39 -31.5 -55t-63 0t-31.5 55z" />
    <glyph glyph-name="uniFCFB.001" horiz-adv-x="2784" 
d="M2540 1020q0 35 28.5 49.5t57 0t28.5 -49.5v-414q0 -180 -29.5 -296t-99.5 -186.5t-174 -98t-264 -25.5v65q-87 -59 -322 -65h-18h-4h-4q-41 0 -69.5 4.5t-49.5 16.5t-33 29t-19 47t-9.5 64t-2.5 87v18v96v405l-314 -4h-349q-79 0 -109 -58q-27 -53 7 -111
q45 -75 157 -87l37 -2q128 -1 226.5 -41.5t148 -104.5t71 -141.5t-4 -154.5t-77 -140t-148 -102.5t-216.5 -38.5l-427 4q-109 0 -208 56.5t-159 150.5t-60 199v370q0 41 29.5 58t58.5 0t29 -58v-370q0 -114 95.5 -201t214.5 -87l427 -4q115 -1 198.5 49t107 122.5t8 145.5
t-101 124t-217.5 51q-171 2 -267 109q-73 83 -66 186q8 101 93 154q62 39 153 39h349l423 -4v-519v-8q0 -173 10.5 -204.5t71.5 -31.5h18q69 0 117 7t84 17t57.5 37t35 51t19.5 77t7.5 96t1.5 125v440q0 37 28.5 52t57 0t28.5 -52v-850q177 3 258 116.5t81 376.5v414z" />
    <glyph glyph-name="uniFD17.001" horiz-adv-x="2941" 
d="M2967 118l27 -57l-27 -61h-100q-104 0 -165.5 40.5t-87.5 125.5q-64 -92 -178.5 -130.5t-295.5 -35.5v65q-87 -59 -323 -65h-17h-5q-64 0 -99.5 10t-56 41.5t-26 74t-5.5 122.5v18v96v405l-309 -4h-353q-77 0 -107 -58q-28 -54 7 -112q44 -76 158 -86q16 -2 33 -2
q128 0 227 -40t148.5 -104t71.5 -141.5t-3 -155t-76 -141t-147.5 -103t-216.5 -38.5l-427 4q-109 0 -209 56.5t-161 150.5t-61 199v370q0 41 29.5 58t59 0t29.5 -58v-370q0 -114 95.5 -201t217.5 -87l427 -4q113 -1 196.5 49t107 122.5t8 145.5t-100 124t-215.5 51
q-173 2 -269 109q-75 83 -68 186q8 101 92 154q63 39 154 39h353l422 -4v-519q0 -178 10.5 -211t68.5 -33h17q80 0 133 6t90 29t56.5 46t29.5 79t12 104.5t2 145.5v440q0 37 29 52t58.5 0t29.5 -52v-850q174 3 255 117t81 376v414q0 26 18.5 41t40 15t40 -15t18.5 -41v-676
q0 -124 36 -175t121 -51h100z" />
    <glyph glyph-name="uniFD18.001" horiz-adv-x="2954" 
d="M2967 118l27 -57l-27 -61h-100q-104 0 -165.5 40.5t-87.5 125.5q-64 -92 -178.5 -130.5t-295.5 -35.5v65q-87 -59 -323 -65h-17h-5q-64 0 -99.5 10t-56 41.5t-26 74t-5.5 122.5v18v96v405l-309 -4h-353q-77 0 -107 -58q-28 -54 7 -112q44 -76 158 -86q16 -2 33 -2
q128 0 227 -40t148.5 -104t71.5 -141.5t-3 -155t-76 -141t-147.5 -103t-216.5 -38.5l-427 4q-109 0 -209 56.5t-161 150.5t-61 199v370q0 41 29.5 58t59 0t29.5 -58v-370q0 -114 95.5 -201t217.5 -87l427 -4q113 -1 196.5 49t107 122.5t8 145.5t-100 124t-215.5 51
q-173 2 -269 109q-75 83 -68 186q8 101 92 154q63 39 154 39h353l422 -4v-519q0 -178 10.5 -211t68.5 -33h17q80 0 133 6t90 29t56.5 46t29.5 79t12 104.5t2 145.5v440q0 37 29 52t58.5 0t29.5 -52v-850q174 3 255 117t81 376v414q0 26 18.5 41t40 15t40 -15t18.5 -41v-676
q0 -124 36 -175t121 -51h100zM693 -436q0 39 31.5 56t63 1t31.5 -57v-69q0 -41 -31.5 -58t-63 0t-31.5 58v69zM889 -436q0 39 31.5 56t63 1t31.5 -57v-69q0 -41 -31.5 -58t-63 0t-31.5 58v69z" />
    <glyph glyph-name="uni06330626.001" horiz-adv-x="2832" 
d="M449 776q18 0 28.5 -13t10.5 -28.5t-10.5 -28.5t-28.5 -13h-340q-29 0 -41 20.5t-1 41.5t38 21h69q-33 58 -38 114.5t14 98.5t55.5 72.5t81 41t95 -2t93.5 -50.5q19 -15 16 -36.5t-20.5 -28t-39.5 7.5q-44 34 -95 35t-84.5 -27t-33.5 -73q-3 -73 23 -112.5t73 -39.5h135z
M2584 1020q0 35 29.5 49.5t59 0t29.5 -49.5v-414q0 -179 -30 -295.5t-101 -187t-175.5 -98t-264.5 -25.5v65q-87 -59 -323 -65h-17h-4h-5q-41 0 -69.5 4.5t-49.5 16.5t-33 29t-19 47t-9.5 64t-2.5 87v18v96v405l-314 -4h-348q-80 0 -110 -59q-27 -54 9 -112q46 -75 161 -86
q15 -1 31 -1q128 -1 226.5 -41.5t148 -104.5t71 -141.5t-4 -154.5t-77 -140t-148 -102.5t-216.5 -38.5l-427 4q-109 0 -208 56.5t-159 150.5t-60 199v370q0 41 29.5 58t59 0t29.5 -58v-370q0 -114 95 -201t214 -87l427 -4q115 -1 198.5 49t107.5 122.5t8.5 145.5t-101 124
t-217.5 51q-171 2 -267 109q-73 83 -66 186q8 101 93 154q62 39 153 39h348l427 -4v-601q0 -82 6 -113.5t20 -40t53 -8.5h17q80 0 133 6.5t90 29.5t56.5 46.5t29.5 79.5t12 104.5t2 143.5v440q0 37 29.5 52t58.5 0t29 -52v-850q174 3 255 117t81 376v414z" />
    <glyph glyph-name="uni06330626.fina.001" horiz-adv-x="2976" 
d="M514 776q27 0 38 -21t0 -41.5t-38 -20.5h-340q-22 0 -34 13t-12 28.5t12 28.5t34 13h70q-33 58 -38 114.5t13.5 98.5t54.5 72.5t80.5 41t95.5 -2t95 -50.5q17 -15 13 -36.5t-21 -28.5t-40 8q-44 34 -94 35t-84 -27t-36 -73q-3 -72 24 -112t72 -40h135zM3041 118l22 -57
l-22 -61h-104q-104 0 -165.5 39.5t-87.5 121.5q-64 -89 -179 -126.5t-296 -34.5v65q-87 -59 -318 -65h-17h-5h-4q-42 0 -71 4.5t-50 17t-33 28.5t-19.5 47t-10 64t-3.5 87v61v53v405l-310 -4h-348q-80 0 -110 -59q-27 -54 9 -112q46 -75 161 -86q15 -1 31 -1
q128 -1 226.5 -41.5t148 -104.5t71 -141.5t-4 -154.5t-77 -140t-148 -102.5t-216.5 -38.5l-427 4q-109 0 -208 56.5t-159 150.5t-60 199v370q0 41 28.5 58t56.5 0t28 -58v-370q0 -113 97.5 -200.5t216.5 -87.5l427 -4q113 -1 196.5 49t107.5 122.5t9 145.5t-100 124t-217 51
q-170 2 -266 108q-75 82 -69 184t91 156q63 40 157 40h348l423 -4v-519q0 -179 10.5 -211.5t72.5 -32.5h17q47 0 84 2.5t67.5 10t53.5 15t40.5 24.5t29.5 31.5t20 43.5t12.5 52t7 65t3 75.5t0.5 90.5v440q0 37 29.5 52t59 0t29.5 -52v-850q174 3 254.5 116.5t80.5 376.5v414
q0 35 29.5 49.5t59 0t29.5 -49.5v-676q0 -124 36 -175t121 -51h104z" />
    <glyph glyph-name="uniFCFD.001" horiz-adv-x="2688" 
d="M2122 1516q0 -41 -31.5 -58t-63 0t-31.5 58v70q0 37 31.5 53t63 1t31.5 -54v-70zM1948 1294q0 -41 -32 -58t-63.5 0t-31.5 58v70q0 39 31.5 56t63.5 1t32 -57v-70zM2296 1294q0 -41 -31.5 -58t-63 0t-31.5 58v70q0 39 31.5 56t63 1t31.5 -57v-70zM2484 1020q0 26 18.5 41
t40 15t40 -15t18.5 -41v-414q0 -180 -29.5 -296t-99.5 -186.5t-174.5 -98t-266.5 -25.5v65q-87 -59 -319 -65h-17h-4h-5q-42 0 -71 4.5t-50 17t-33 28.5t-19.5 47t-10 64t-3.5 87v61v53v405l-309 -4h-349q-80 0 -110 -59q-27 -54 9 -112q46 -75 161 -86q15 -1 31 -1
q128 -1 226.5 -41.5t148 -104.5t71 -141.5t-4 -154.5t-77 -140t-148 -102.5t-216.5 -38.5l-427 4q-109 0 -208 56.5t-159 150.5t-60 199v370q0 41 28.5 58t57 0t28.5 -58v-370q0 -113 97 -200.5t216 -87.5l427 -4q115 -1 198.5 49t107.5 122.5t8.5 145.5t-101 124t-217.5 51
q-170 2 -266 108q-75 82 -69 184t91 156q63 40 157 40h349l422 -4v-519q0 -179 10.5 -211.5t72.5 -32.5h17q47 0 84 2.5t68 10t53.5 15t40.5 24.5t29.5 31.5t20 43.5t13 52t7 65t3 76t0.5 90v440q0 37 29.5 52t58.5 0t29 -52v-850q174 3 255 117t81 376v414z" />
    <glyph glyph-name="uniFCFD.002" horiz-adv-x="2688" 
d="M2131 1516q0 -41 -31.5 -58t-63.5 0t-32 58v70q0 37 32 53t63.5 1t31.5 -54v-70zM1956 1294q0 -41 -31.5 -58t-63 0t-31.5 58v70q0 39 31.5 56t63 1t31.5 -57v-70zM2305 1294q0 -41 -31.5 -58t-63 0t-31.5 58v70q0 39 31.5 56t63 1t31.5 -57v-70zM2484 1020q0 26 18.5 41
t40 15t40 -15t18.5 -41v-414q0 -180 -29.5 -296t-99.5 -186.5t-174.5 -98t-266.5 -25.5v65q-87 -59 -319 -65h-17h-4h-5q-42 0 -71 4.5t-50 17t-33 28.5t-19.5 47t-10 64t-3.5 87v61v53v405l-309 -4h-349q-80 0 -110 -59q-27 -54 9 -112q46 -75 161 -86q15 -1 31 -1
q128 -1 226.5 -41.5t148 -104.5t71 -141.5t-4 -154.5t-77 -140t-148 -102.5t-216.5 -38.5l-427 4q-109 0 -208 56.5t-159 150.5t-60 199v370q0 41 28.5 58t57 0t28.5 -58v-370q0 -113 97 -200.5t216 -87.5l427 -4q115 -1 198.5 49t107.5 122.5t8.5 145.5t-101 124t-217.5 51
q-170 2 -266 108q-75 82 -69 184t91 156q63 40 157 40h349l422 -4v-519q0 -179 10.5 -211.5t72.5 -32.5h17q47 0 84 2.5t68 10t53.5 15t40.5 24.5t29.5 31.5t20 43.5t13 52t7 65t3 76t0.5 90v440q0 37 29.5 52t58.5 0t29 -52v-850q174 3 255 117t81 376v414z" />
    <glyph glyph-name="uniFD19.001" horiz-adv-x="2823" 
d="M2122 1516q0 -41 -31.5 -58t-63 0t-31.5 58v70q0 37 31.5 53t63 1t31.5 -54v-70zM1948 1294q0 -41 -32 -58t-63.5 0t-31.5 58v70q0 39 31.5 56t63.5 1t32 -57v-70zM2296 1294q0 -41 -31.5 -58t-63 0t-31.5 58v70q0 39 31.5 56t63 1t31.5 -57v-70zM2863 118l22 -57
l-22 -61h-105q-104 0 -165 39.5t-87 121.5q-64 -89 -179 -126.5t-296 -34.5v65q-87 -59 -319 -65h-17h-4h-5q-42 0 -71 4.5t-50 17t-33 28.5t-19.5 47t-10 64t-3.5 87v61v53v405l-309 -4h-349q-80 0 -110 -59q-27 -54 9 -112q46 -75 161 -86q15 -1 31 -1q128 -1 226.5 -41.5
t148 -104.5t71 -141.5t-4 -154.5t-77 -140t-148 -102.5t-216.5 -38.5l-427 4q-109 0 -208 56.5t-159 150.5t-60 199v370q0 41 28.5 58t57 0t28.5 -58v-370q0 -113 97 -200.5t216 -87.5l427 -4q115 -1 198.5 49t107.5 122.5t8.5 145.5t-101 124t-217.5 51q-170 2 -266 108
q-75 82 -69 184t91 156q63 40 157 40h349l422 -4v-519q0 -179 10.5 -211.5t72.5 -32.5h17q47 0 84 2.5t68 10t53.5 15t40.5 24.5t29.5 31.5t20 43.5t13 52t7 65t3 76t0.5 90v440q0 37 29.5 52t58.5 0t29 -52v-850q174 3 255 117t81 376v414q0 26 18.5 41t40 15t40 -15
t18.5 -41v-676q0 -123 37 -174.5t120 -51.5h105z" />
    <glyph glyph-name="uniFCFE.001" horiz-adv-x="2801" 
d="M2157 1516q0 -41 -32.5 -58t-65.5 0t-33 58v70q0 37 33 53t65.5 1t32.5 -54v-70zM1983 1294q0 -41 -32.5 -58t-65.5 0t-33 58v70q0 39 33 56t65.5 1t32.5 -57v-70zM2331 1294q0 -41 -32.5 -58t-65 0t-32.5 58v70q0 39 32.5 56t65 1t32.5 -57v-70zM2519 1020q0 26 18.5 41
t40 15t40 -15t18.5 -41v-414q0 -180 -29.5 -296t-100 -186.5t-175 -98t-266.5 -25.5v65q-87 -59 -322 -65h-13h-4h-5q-42 0 -71 4.5t-50 17t-33 28.5t-19.5 47t-10 64t-3.5 87v61v53v405l-310 -4h-353q-77 0 -106 -58q-28 -54 6 -112q45 -76 159 -86q16 -2 33 -2
q129 0 228.5 -40t149 -104t71.5 -141.5t-3.5 -155t-77 -141t-148 -103t-216.5 -38.5l-427 4q-109 0 -208 56.5t-159 150.5t-60 199v370q0 41 28.5 58t57 0t28.5 -58v-370q0 -114 95.5 -201t217.5 -87l427 -4q113 -1 196.5 49t107 122.5t8 145.5t-100 124t-215.5 51
q-173 2 -269 109q-75 83 -68 186q7 101 91 154q62 39 154 39h353l423 -4v-519q0 -179 10.5 -211.5t72.5 -32.5h13q80 0 133 6t90 29t56 46t29 79t12 104.5t2 145.5v440q0 37 29.5 52t59 0t29.5 -52v-850q174 3 255 117t81 376v414zM658 -410q0 39 31.5 56t63 1t31.5 -57v-69
q0 -41 -31.5 -58t-63 0t-31.5 58v69zM967 -410q0 39 31.5 56t63.5 1t32 -57v-69q0 -41 -32 -58t-63.5 0t-31.5 58v69z" />
    <glyph glyph-name="uniFD1A.001" horiz-adv-x="2897" 
d="M2222 1516q0 -41 -31.5 -58t-63 0t-31.5 58v70q0 37 31.5 53t63 1t31.5 -54v-70zM2048 1294q0 -41 -31.5 -58t-63 0t-31.5 58v70q0 39 31.5 56t63 1t31.5 -57v-70zM2397 1294q0 -41 -31.5 -58t-63.5 0t-32 58v70q0 39 32 56t63.5 1t31.5 -57v-70zM2928 118l22 -57
l-22 -61h-104q-201 0 -253 161q-64 -89 -178.5 -126.5t-292.5 -34.5v65q-87 -59 -322 -65h-18h-4h-4q-41 0 -69.5 4.5t-49.5 16.5t-33 29t-19 47t-9.5 64t-2.5 87v18v96v405l-314 -4h-349q-79 0 -109 -58q-27 -53 7 -111q45 -75 157 -87l37 -2q128 -1 226.5 -41.5
t148 -104.5t71 -141.5t-4 -154.5t-77 -140t-148 -102.5t-216.5 -38.5l-427 4q-109 0 -208 56.5t-159 150.5t-60 199v370q0 41 29 58t58.5 0t29.5 -58v-370q0 -114 95.5 -201t214.5 -87l427 -4q115 -1 198.5 49t107 122.5t8 145.5t-101 124t-217.5 51q-171 2 -267 109
q-73 83 -66 186q8 101 93 154q62 39 153 39h349l427 -4v-601q0 -82 6 -113.5t19.5 -40t52.5 -8.5h18q69 0 117 7t84 17t57.5 37t35 51t19.5 77t7.5 96t1.5 125v440q0 37 29.5 52t59 0t29.5 -52v-850q174 3 254.5 116.5t80.5 376.5v414q0 35 29.5 49.5t59 0t29.5 -49.5v-676
q0 -122 36.5 -174t116.5 -52h104zM610 -410q0 39 31.5 56t63 1t31.5 -57v-69q0 -41 -31.5 -58t-63 0t-31.5 58v69zM959 -410q0 39 31.5 56t63 1t31.5 -57v-69q0 -41 -31.5 -58t-63 0t-31.5 58v69z" />
    <glyph glyph-name="uni06340626.001" horiz-adv-x="2849" 
d="M2148 1516q0 -41 -31.5 -58t-63 0t-31.5 58v70q0 37 31.5 53t63 1t31.5 -54v-70zM1974 1294q0 -41 -31.5 -58t-63 0t-31.5 58v70q0 39 31.5 56t63 1t31.5 -57v-70zM2323 1294q0 -41 -31.5 -58t-63.5 0t-32 58v70q0 39 32 56t63.5 1t31.5 -57v-70zM153 784q-27 0 -38 18.5
t0 37t38 18.5h17q-38 89 -6.5 154.5t111.5 72.5q68 5 113 -48q20 -26 -4 -46.5t-53 -1.5q-29 22 -64.5 3.5t-35.5 -68.5q0 -26 16 -46t36 -20h87q25 0 36 -18.5t1 -37t-37 -18.5h-217zM2514 1020q0 35 29.5 49.5t59 0t29.5 -49.5v-414q0 -179 -30 -295.5t-101 -187
t-175.5 -98t-264.5 -25.5v65q-87 -59 -322 -65h-18h-4h-5q-41 0 -69.5 4.5t-49.5 16.5t-33 29t-19 47t-9.5 64t-2.5 87v18v96v405l-313 -4h-349q-79 0 -109 -58q-27 -53 7 -111q45 -75 157 -87l37 -2q128 -1 226.5 -41.5t148 -104.5t71 -141.5t-4 -154.5t-77 -140
t-148 -102.5t-216.5 -38.5l-427 4q-109 0 -208 56.5t-159 150.5t-60 199v370q0 41 29.5 58t58.5 0t29 -58v-370q0 -114 95.5 -201t214.5 -87l427 -4q115 -1 198.5 49t107 122.5t8 145.5t-101 124t-217.5 51q-171 2 -267 109q-73 83 -66 186q8 101 93 154q62 39 153 39h349
l427 -4v-601q0 -82 6 -113.5t19.5 -40t52.5 -8.5h18q69 0 117 7t84 17t57.5 37t35 51t19.5 77t7.5 96t1.5 125v440q0 37 29.5 52t59 0t29.5 -52v-850q174 3 254.5 116.5t80.5 376.5v414z" />
    <glyph glyph-name="uni06340626.fina.001" horiz-adv-x="2875" 
d="M2135 1516q0 -41 -31.5 -58t-63 0t-31.5 58v70q0 37 31.5 53t63 1t31.5 -54v-70zM1961 1294q0 -41 -31.5 -58t-63.5 0t-32 58v70q0 39 32 56t63.5 1t31.5 -57v-70zM2309 1294q0 -41 -31.5 -58t-63 0t-31.5 58v70q0 39 31.5 56t63 1t31.5 -57v-70zM153 776q-27 0 -38 18.5
t0 37t38 18.5h17q-38 89 -6.5 154t111.5 72q68 5 113 -48q20 -26 -4 -46.5t-53 -1.5q-29 22 -64.5 3.5t-35.5 -68.5q0 -26 16 -45.5t36 -19.5h87q25 0 36 -18.5t1 -37t-37 -18.5h-217zM2876 118l22 -57l-22 -61h-105q-104 0 -165 39.5t-87 121.5q-64 -89 -178.5 -126.5
t-292.5 -34.5v65q-87 -59 -322 -65h-18h-4h-5q-41 0 -69.5 4.5t-49.5 16.5t-33 29t-19 47t-9.5 64t-2.5 87v18v96v405l-313 -4h-349q-79 0 -109 -58q-27 -53 7 -111q45 -75 157 -87l37 -2q128 -1 226.5 -41.5t148 -104.5t71 -141.5t-4 -154.5t-77 -140t-148 -102.5
t-216.5 -38.5l-427 4q-109 0 -208 56.5t-159 150.5t-60 199v370q0 41 29 58t58.5 0t29.5 -58v-370q0 -114 95.5 -201t214.5 -87l427 -4q115 -1 198.5 49t107 122.5t8 145.5t-101 124t-217.5 51q-171 2 -267 109q-73 83 -66 186q8 101 93 154q62 39 153 39h349l422 -4v-519
q0 -179 10.5 -211.5t72.5 -32.5h18q69 0 117 7t84 17t57.5 37t35 51t19.5 77t7.5 96t1.5 125v440q0 37 28 52t56.5 0t28.5 -52v-850q177 3 258.5 116.5t81.5 376.5v414q0 26 17.5 41t39 15t39 -15t17.5 -41v-676q0 -123 37 -174.5t120 -51.5h105z" />
    <glyph glyph-name="uni06F4.urdu" horiz-adv-x="1141" 
d="M993 1373q26 0 44 -17t18 -40v-17q0 -20 -12.5 -36.5t-31.5 -16.5q-152 -3 -237 -60.5t-103 -148.5q-3 -19 -16.5 -29t-31.5 -10h-17q-24 0 -41 12.5t-20 35.5q-14 84 -52.5 133.5t-104.5 49.5q-27 0 -48.5 -3t-38.5 -11t-30.5 -15.5t-23 -23.5t-16 -27t-11 -33.5t-7 -37
t-3.5 -43.5t-1 -45v-51v-11v-871q0 -26 -14.5 -41.5t-37.5 -15.5h-13q-26 0 -41.5 15.5t-15.5 41.5v871q0 142 11 199q33 169 190 205q45 10 100 10q129 0 235 -135q153 166 370 166z" />
    <glyph glyph-name="uni06F7.urdu" horiz-adv-x="1106" 
d="M667 1351q21 44 62.5 48t60.5 -28t-1 -86l-549 -1137h706q41 0 58 -31.5t0 -63t-58 -31.5h-763q-52 0 -75.5 25t-20.5 63t26 86z" />
    <glyph glyph-name="exclamdown.cap" horiz-adv-x="427" 
d="M122 1377q0 36 26.5 61.5t65.5 25.5t65 -25.5t26 -61.5q0 -39 -26 -67.5t-65 -28.5t-65.5 28.5t-26.5 67.5zM157 1094q6 56 52 56h5q52 0 52 -56q13 -725 13 -1068q0 -29 -18 -47t-47 -18h-5q-27 0 -46 18t-19 47q0 153 3 420t7 458z" />
    <glyph glyph-name="questiondown.cap" horiz-adv-x="1015" 
d="M619 1272q-38 0 -67 29.5t-29 66.5q0 39 28.5 65.5t67.5 26.5q36 0 61.5 -26.5t25.5 -65.5q0 -37 -26 -66.5t-61 -29.5zM122 301q0 84 24 152.5t62.5 115.5t85 89.5t93 84.5t85 88.5t62.5 113.5t24 149q0 33 28 47.5t56.5 1t28.5 -48.5q0 -85 -23 -157t-60 -123.5
t-81.5 -98.5t-89 -91t-81.5 -90t-60 -106.5t-23 -131.5q0 -108 66.5 -167t190.5 -59q75 0 132 16.5t83.5 36.5t51.5 38.5t42 21.5q56 16 74 -19t-20 -82q-16 -21 -41 -38q-65 -48 -145 -72t-157.5 -23.5t-152 25t-130.5 67.5t-90.5 111t-34.5 149z" />
    <glyph glyph-name="bullet.cap" horiz-adv-x="679" 
d="M122 1377q0 39 26.5 65t65.5 26q38 0 64.5 -27t26.5 -64t-26.5 -66.5t-64.5 -29.5q-39 0 -65.5 28.5t-26.5 67.5z" />
    <glyph glyph-name="hyphen.cap" horiz-adv-x="679" 
d="M179 1351q-28 0 -42.5 16.5t-14.5 44.5v4q0 57 57 57h318q61 0 61 -57v-4q0 -61 -61 -61h-318z" />
    <glyph glyph-name="endash.cap" horiz-adv-x="980" 
d="M174 1355q-25 0 -38.5 16t-13.5 41v4q0 25 13.5 41t38.5 16h628q28 0 42 -16t14 -41v-4q0 -25 -14 -41t-42 -16h-628z" />
    <glyph glyph-name="emdash.cap" horiz-adv-x="1529" 
d="M174 1355q-25 0 -38.5 16t-13.5 41v4q0 25 13.5 41t38.5 16h1177q25 0 40.5 -16.5t15.5 -40.5v-4q0 -24 -15.5 -40.5t-40.5 -16.5h-1177z" />
    <glyph glyph-name="quotedblleft.cap" horiz-adv-x="736" 
d="M122 1076l161 480h66l-88 -480h-139zM353 1076l166 480h65l-87 -480h-144z" />
    <glyph glyph-name="quotedblright.cap" horiz-adv-x="714" 
d="M349 1516l-162 -479h-65l87 479h140zM584 1516l-161 -479h-70l87 479h144z" />
    <glyph glyph-name="guillemotleft.cap" horiz-adv-x="1263" 
d="M719 231l-601 436q-28 21 -29.5 46t29.5 50l570 422q29 23 56 14.5t28.5 -32.5t-23.5 -47l-522 -401l549 -418q23 -17 22 -42.5t-22.5 -34.5t-56.5 7zM1098 231l-601 436q-28 21 -29.5 46t29.5 50l571 422q29 23 56 14.5t28.5 -32.5t-23.5 -47l-523 -401l549 -418
q23 -17 22 -42.5t-22.5 -34.5t-56.5 7z" />
    <glyph glyph-name="guillemotright.cap" horiz-adv-x="1263" 
d="M166 231q-30 -18 -54 -7t-24 34.5t21 42.5l549 418l-523 401q-27 21 -23 47t28.5 32t55.5 -14l571 -422q31 -25 29.5 -50t-29.5 -46zM545 231q-33 -18 -56.5 -7t-22.5 34.5t22 42.5l549 418l-523 401q-27 21 -23 47t28.5 32t55.5 -14l571 -422q31 -25 29.5 -50t-29.5 -46
z" />
    <glyph glyph-name="dollar.001" horiz-adv-x="1111" 
d="M492 -187v156q-140 3 -235.5 46.5t-130.5 97.5q-34 36 -22.5 65.5t49.5 26.5q16 -3 42.5 -22.5t55 -41t92.5 -41t149 -22.5v610q-103 30 -171 60.5t-120.5 75.5t-76.5 106.5t-24 145.5q0 158 102 260.5t290 114.5v96q0 33 28.5 47.5t57 1t28.5 -48.5v-92
q137 -7 247 -53.5t110 -111.5q0 -34 -23.5 -48t-54.5 -4q-15 3 -38 19t-47 33t-75.5 33t-118.5 19v-553q89 -25 151 -49t116 -57t85 -74t48.5 -97t17.5 -129q0 -192 -112 -298t-306 -116v-156q0 -25 -18 -40t-39 -16t-39 13.5t-18 42.5zM492 819v523q-129 -16 -195 -85
t-66 -172q0 -113 62.5 -170t198.5 -96zM606 78q287 36 287 301q0 43 -7.5 77t-25.5 60.5t-39.5 46t-57.5 37t-70.5 30t-86.5 28.5v-580z" />
    <glyph glyph-name="greater.cap" horiz-adv-x="1045" 
d="M231 -13q-39 -32 -80 -12q-31 15 -28 42q2 17 21 31l640 466l-640 466q-36 27 -17 56q18 27 58 24q25 -2 46 -19l662 -475q32 -24 31 -52t-31 -52z" />
    <glyph glyph-name="less.cap" horiz-adv-x="1045" 
d="M815 -13l-662 475q-30 24 -31 52t31 52l662 475q40 32 80 13q31 -14 28 -42q-2 -17 -21 -32l-641 -466l641 -466q34 -25 15 -54q-18 -28 -57 -25q-24 1 -45 18z" />
    <glyph glyph-name="at.cap" horiz-adv-x="1834" 
d="M911 -4q109 0 194.5 18.5t125 41t71 42t44.5 20.5q26 11 43 -9q22 -25 -12 -61q-11 -11 -26 -22q-112 -73 -242.5 -103t-254 -17.5t-239.5 64.5t-202.5 133.5t-138.5 198.5t-52 251q0 133 42 250.5t114.5 203t167 147t201.5 92.5t216 31q138 0 255.5 -38t204 -109
t136 -179t49.5 -241q0 -114 -32.5 -205t-87.5 -146.5t-122.5 -85t-141.5 -29.5q-89 0 -132 37t-46 98q-202 -180 -335 -115q-94 45 -126 192q-32 149 14 303q48 163 158 224q161 89 385 -84l13 -10q20 56 56 61q28 3 39 -24q6 -17 1 -37q-97 -342 -109 -426q-14 -95 21 -118
q21 -14 70 -14q54 0 102.5 22t89 65.5t64 119t23.5 172.5q0 222 -151.5 351t-397.5 129q-97 0 -190 -26.5t-174.5 -80t-143.5 -128.5t-97.5 -179t-35.5 -223q0 -166 78.5 -294t211.5 -195.5t299 -67.5zM1055 497l69 318q-194 143 -325 67q-88 -52 -119 -181
q-28 -122 10 -223t122 -110q103 -11 243 129z" />
    <glyph glyph-name="paragraph.cap" horiz-adv-x="1154" 
d="M697 -31q-27 0 -44 15.5t-17 41.5v654h-17q-114 0 -202 19.5t-157 63t-105.5 120.5t-36.5 185q0 110 36.5 187t107 120t160.5 61.5t210 18.5h335q30 0 50 -18t20 -47v-1364q0 -26 -17 -41.5t-44 -15.5h-4q-24 0 -40.5 15.5t-16.5 41.5v1312h-157v-1312q0 -26 -15 -41.5
t-41 -15.5h-5z" />
    <glyph glyph-name="dagger.cap" horiz-adv-x="1032" 
d="M837 932q74 0 74 -61v-4q0 -27 -19.5 -44t-54.5 -17q-46 0 -110.5 5.5t-111 11t-49.5 5.5l5 -885q0 -25 -16.5 -40.5t-40.5 -15.5q-21 0 -36.5 15.5t-15.5 40.5l4 885q-3 0 -49.5 -5.5t-111.5 -11t-113 -5.5q-32 0 -51 17t-19 44v4q0 61 70 61q48 0 113.5 -4t113 -8.5
t52.5 -4.5q-4 16 -11 141.5t-7 224.5q0 32 17 51t44 19q30 0 48 -18.5t18 -51.5q0 -99 -7 -224.5t-11 -141.5q3 0 50.5 4.5t113 8.5t111.5 4zM571 -57z" />
    <glyph glyph-name="daggerdbl.cap" horiz-adv-x="1028" 
d="M514 -231q-65 0 -65 70q0 61 4.5 145t8.5 144t4 64q-3 0 -49.5 -4.5t-111.5 -9t-113 -4.5q-36 0 -55 15t-19 42v4q0 27 19.5 44t54.5 17q72 0 166 -8.5t108 -12.5q0 5 -5.5 55.5t-11 118t-5.5 113.5q0 48 5.5 117.5t11 120.5t5.5 54q-3 0 -49.5 -5.5t-111.5 -11
t-113 -5.5q-74 0 -74 61q0 30 19.5 48t54.5 18q72 0 166 -9t108 -13q0 4 -4 65t-8.5 144.5t-4.5 143.5q0 33 17.5 51.5t47.5 18.5t48 -18.5t18 -51.5q0 -60 -4.5 -143.5t-9 -144.5t-4.5 -65q14 4 108.5 13t166.5 9q35 0 54.5 -18t19.5 -48q0 -61 -74 -61q-48 0 -113.5 4.5
t-112 9t-49.5 4.5q0 -3 5.5 -53t11 -118.5t5.5 -116.5q0 -46 -5.5 -113.5t-11 -118t-5.5 -55.5q14 4 108.5 12.5t166.5 8.5q35 0 54.5 -17t19.5 -44v-4q0 -27 -19 -42t-55 -15q-48 0 -113.5 4.5t-112 9t-49.5 4.5q0 -4 4.5 -64t9 -144t4.5 -145q0 -35 -18 -52.5t-48 -17.5z
" />
    <glyph glyph-name="grave" horiz-adv-x="2614" 
d="M732 1216l-379 56q-27 4 -35 27t3 43t32 18l388 -57q34 -2 38 -35q4 -31 -18 -47q-13 -9 -29 -5z" />
    <glyph glyph-name="dotcenterar" 
d="M0 1107v70q0 37 31.5 53t63 1t31.5 -54v-70q0 -41 -31.5 -58t-63 0t-31.5 58z" />
    <glyph glyph-name="waslaar" 
d="M35 1904q-16 -22 -35 -9q-15 15 0 53l35 52q15 28 52 13l70 -35q6 9 25.5 38t28.5 41.5t29 32.5t36.5 25.5t41.5 6t52 -12.5q84 -50 76 -119q-7 -57 -70 -90q-83 -45 -184 -7q-3 1 -5 2q-111 50 -115 51q-12 3 -18 -8q-1 -1 -2 -3zM222 1952q55 -16 96 -5t64 32l23 21
q-5 12 -36.5 36.5t-59.5 24.5q-20 -2 -41.5 -29t-33.5 -54z" />
    <glyph glyph-name="uni0654064B" 
d="M57 1712q-27 0 -38 20t0 39.5t38 19.5h69q-33 58 -38 114.5t14 98.5t55.5 72.5t81 41t95 -2t93.5 -50.5q17 -17 13 -38t-21 -27t-40 9q-44 34 -94 34.5t-83.5 -28.5t-35.5 -76q-3 -70 24 -109t71 -39h136q18 0 28.5 -12.5t10.5 -27t-10.5 -27t-28.5 -12.5h-340zM52 1508
q-30 -8 -43 22q-12 29 7 49q11 10 28 11l387 57q21 2 32 -18t3 -41.5t-35 -23.5zM52 1329q-30 -8 -43 24q-12 31 7 51q11 11 28 12l387 57q21 2 32 -18t3 -42.5t-35 -26.5z" />
    <glyph glyph-name="uni0654064C" 
d="M253 2013q-30 6 -50.5 38t-18 71.5t33.5 64.5q48 44 109 23t74 -73.5t-39 -105.5q-51 -41 -90.5 -59t-65 -14.5t-42.5 13t-35 25.5t-29 21q-10 5 -29 1t-30.5 -6t-23.5 10q-10 21 21 38q39 22 75 2q10 -6 18 -14q50 -40 70 -45q26 -8 52 10zM253 2070q10 -16 30.5 -16
t43.5 16q20 13 21.5 33.5t-17.5 40.5q-37 31 -78 4q-33 -28 0 -78zM74 1482q-29 0 -41 20.5t0 41t41 20.5h70q-33 56 -38.5 112t13 98t54.5 72t79.5 40.5t94 -2t93.5 -50.5q19 -15 16 -36t-20 -27.5t-39 7.5q-44 34 -94 35t-84 -27.5t-36 -73.5q-3 -72 24 -110t72 -38h135
q25 0 35 -20.5t0 -41t-35 -20.5h-340z" />
    <glyph glyph-name="uni0654064E" 
d="M48 1551q-22 0 -34 13t-12 28.5t12 28.5t34 13h70q-33 58 -38.5 114t13 98t54.5 72.5t79.5 41t94 -1.5t93.5 -49q19 -17 16 -39.5t-20.5 -29t-39.5 7.5q-44 35 -94 36t-83.5 -28t-35.5 -74q-3 -72 24 -110t72 -38h135q18 0 28.5 -13t10.5 -28.5t-10.5 -28.5t-28.5 -13
h-340zM39 1312q-30 -8 -43 23q-13 30 9 52q10 10 26 12l387 56q21 2 31 -19t1.5 -43.5t-32.5 -24.5z" />
    <glyph glyph-name="uni0654064F" 
d="M183 1956q-25 -14 -42 8q-16 20 0 36q6 6 16 9q76 41 135 100q-86 -26 -136 43q-42 57 -31 134q13 82 80 112q37 17 87 12q113 -10 132 -98q19 -84 -52 -191q-71 -106 -189 -165zM261 2170q52 -10 81.5 32t13.5 90t-73 52q-43 3 -70.5 -20.5t-31 -55t17 -61t62.5 -37.5z
M122 1508q-29 0 -41 20.5t0 41t41 20.5h70q-33 58 -38.5 114t13 98t54.5 72.5t79.5 41t94 -1.5t93.5 -49q19 -17 16 -39.5t-20.5 -29t-39.5 7.5q-44 34 -94 35t-83.5 -27t-35.5 -73q-3 -72 24 -110.5t72 -38.5h135q25 0 35 -20.5t0 -41t-35 -20.5h-340z" />
    <glyph glyph-name="uni06540652" 
d="M109 2174q0 65 48 113.5t113 48.5q69 0 117.5 -48t48.5 -114q0 -69 -48 -115t-118 -46q-66 0 -113.5 46.5t-47.5 114.5zM174 2174q0 -40 27 -67.5t69 -27.5q43 0 71.5 26.5t28.5 68.5q0 40 -27.5 68t-72.5 28q-40 0 -68 -27t-28 -69zM105 1508q-29 0 -41 20.5t-1.5 41
t37.5 20.5h70q-33 58 -38 114t14 98t55.5 72.5t81 41t95 -1.5t93.5 -49q17 -17 13 -39.5t-21 -29t-40 7.5q-44 34 -94 35t-84 -27t-36 -73q-3 -72 24 -110.5t72 -38.5h135q25 0 35 -20.5t0 -41t-35 -20.5h-335z" />
    <glyph glyph-name="uni06550650" 
d="M26 -449q-27 0 -38 19.5t0 39.5t38 20h70q-33 58 -38 114.5t14 98.5t55.5 72.5t81 41t95 -2t93.5 -50.5q17 -15 13 -36.5t-21 -28.5t-40 8q-44 34 -94 35t-84 -27t-36 -73q-3 -72 24 -112t72 -40h135q18 0 28.5 -12.5t10.5 -27t-10.5 -27t-28.5 -12.5h-340zM39 -614
q-34 -10 -47 12q-11 21 10 37q13 9 33 12l370 48q19 0 27.5 -13.5t1 -28.5t-28.5 -19z" />
    <glyph glyph-name="uni0651064B" 
d="M87 1939q-30 -8 -43 24q-13 31 7 51q10 11 27 12l388 57q21 2 32 -18t3 -42.5t-35 -26.5zM87 1765q-30 -8 -43 23q-13 30 8 52q10 10 26 12l388 57q21 2 32 -19.5t3 -44t-35 -24.5zM135 1438q-70 0 -102.5 49t-32.5 125t36 84q24 5 39 -21q8 -13 8 -28q0 -74 12 -109
t40 -35q43 0 56.5 42.5t13.5 140.5q0 45 29 56q23 8 36 -15q4 -9 5 -19q0 -174 69 -174q70 0 70 192q0 19 17.5 26t35 -1.5t17.5 -29.5q0 -122 -36 -187.5t-104 -65.5q-65 0 -91 53q-49 -83 -118 -83z" />
    <glyph glyph-name="uniFC5E" 
d="M261 1904q-22 5 -39 25.5t-24 47t0 56.5t29 50q48 44 109 21.5t73.5 -76t-39.5 -106.5q-51 -41 -89.5 -59t-64 -14t-42 13.5t-34.5 25.5t-31 21q-10 6 -43.5 -1.5t-39.5 5.5q-10 21 21 38q39 21 73 3q11 -5 19 -15q50 -40 70 -45q26 -8 52 10zM261 1961q10 -17 31 -17
t44 17q42 36 4 74t-79 4q-33 -28 0 -78zM135 1438q-70 0 -102.5 49t-32.5 125t36 84q24 5 39 -21q8 -13 8 -28q0 -74 12 -109t40 -35q43 0 56.5 42.5t13.5 140.5q0 45 29 56q23 8 36 -15q4 -9 5 -19q0 -174 69 -174q70 0 70 192q0 19 17.5 26t35 -1.5t17.5 -29.5
q0 -122 -36 -187.5t-104 -65.5q-65 0 -91 53q-49 -83 -118 -83z" />
    <glyph glyph-name="uniFC5F" 
d="M135 1002q-70 0 -102.5 49.5t-32.5 125.5q0 74 35 83q24 7 40 -20q8 -13 8 -29q0 -74 12 -108.5t40 -34.5q43 0 56.5 42.5t13.5 140.5q0 45 29 55q23 8 36 -15q4 -9 5 -19q0 -174 69 -174q70 0 70 192q0 19 17.5 26t35 -1.5t17.5 -29.5q0 -122 -35.5 -187t-104.5 -65
q-66 0 -91 52q-49 -83 -118 -83zM74 876q-34 -10 -49 12q-13 21 8 37q12 9 32 12l375 52q29 -3 29 -30.5t-29 -30.5zM74 745q-34 -10 -49 12q-13 21 8 37q12 9 32 12l375 52q29 -3 29 -30.5t-29 -30.5z" />
    <glyph glyph-name="uniFC60" 
d="M61 1342q-30 -7 -43 22.5t7 49.5q10 10 27 11l388 57q21 2 31 -18t1.5 -41.5t-32.5 -23.5zM135 1002q-70 0 -102.5 49.5t-32.5 125.5q0 74 35 83q24 7 40 -20q8 -13 8 -29q0 -74 12 -108.5t40 -34.5q43 0 56.5 42.5t13.5 140.5q0 45 29 55q23 8 36 -15q4 -9 5 -19
q0 -174 69 -174q70 0 70 192q0 19 17.5 26t35 -1.5t17.5 -29.5q0 -122 -35.5 -187t-104.5 -65q-66 0 -91 52q-49 -83 -118 -83z" />
    <glyph glyph-name="uniFC61" 
d="M183 1342q-23 -11 -39 10q-15 20 2 35l15 7q83 45 131 105q-84 -27 -134 39q-42 56 -31 133q11 83 78 113q38 16 87 11q115 -10 135 -98q19 -84 -52 -190q-72 -106 -192 -165zM266 1556q50 -10 79.5 32t14.5 90t-72 52q-45 3 -72.5 -20.5t-31 -55t18 -61t63.5 -37.5z
M148 1002q-70 0 -104.5 49.5t-34.5 125.5q0 74 37 83q25 6 42 -21q8 -13 8 -28q0 -74 12 -108.5t40 -34.5q42 0 54 41.5t12 141.5q0 44 29 55q24 8 36 -14q4 -9 4 -20q0 -82 19 -128t55 -46q66 0 66 192q0 19 18.5 26t37 -1.5t18.5 -29.5q0 -120 -37 -186t-103 -66
q-72 0 -91 52q-58 -83 -118 -83z" />
    <glyph glyph-name="uniFC62" 
d="M135 1002q-70 0 -102.5 49.5t-32.5 125.5q0 74 35 83q24 7 40 -20q8 -13 8 -29q0 -74 12 -108.5t40 -34.5q43 0 56.5 42.5t13.5 140.5q0 45 29 55q23 8 36 -15q4 -9 5 -19q0 -174 69 -174q70 0 70 192q0 19 17.5 26t35 -1.5t17.5 -29.5q0 -122 -35.5 -187t-104.5 -65
q-66 0 -91 52q-49 -83 -118 -83zM61 850q-34 -10 -49 12q-13 21 8 37q12 9 32 12l375 52q29 -3 29 -30.5t-29 -30.5z" />
    <glyph glyph-name="uniFC63" 
d="M227 1708q0 18 -1 37t-2 34t-4.5 36t-5 33t-6.5 34.5t-6.5 31.5t-7.5 33l-7.5 30t-8.5 32.5t-8 29.5l57 18q56 -157 56 -336zM135 1342q-70 0 -102.5 49t-32.5 125t36 84q24 5 39 -21q8 -13 8 -28q0 -74 12 -109t40 -35q43 0 56.5 42.5t13.5 140.5q0 45 29 56
q23 8 36 -15q4 -9 5 -19q0 -174 69 -174q70 0 70 192q0 19 17.5 26t35 -1.5t17.5 -29.5q0 -122 -35.5 -187t-104.5 -65q-66 0 -91 52q-49 -83 -118 -83z" />
    <glyph glyph-name="newc" horiz-adv-x="405" 
d="M-44 0v118h493l-5 -118h-488z" />
    </font>
</defs>
</svg>
