<?xml version="1.0" standalone="no"?>
<!DOCTYPE svg PUBLIC "-//W3C//DTD SVG 1.1//EN" "http://www.w3.org/Graphics/SVG/1.1/DTD/svg11.dtd" >
<svg xmlns="http://www.w3.org/2000/svg" xmlns:xlink="http://www.w3.org/1999/xlink" version="1.1">
<metadata>
Created by FontForge 20170731 at Thu Sep 10 13:03:30 2020
 By Aleksey,,,
Copyright (c) 2018 by Mostafa Amin . All rights reserved.
</metadata>
<defs>
<font id="Fairuz-Black" horiz-adv-x="0" >
  <font-face 
    font-family="Fairuz"
    font-weight="900"
    font-stretch="normal"
    units-per-em="2048"
    panose-1="0 0 10 0 0 0 0 0 0 0"
    ascent="1638"
    descent="-410"
    x-height="1168"
    cap-height="1609.5"
    bbox="-113 -1220 3303 2702"
    underline-thickness="217"
    underline-position="-652"
    unicode-range="U+0020-FEFC"
  />
<missing-glyph horiz-adv-x="1960" 
d="M1608 2702v-3922h-1242v3922h1242zM1307 2440h-649v-131h257v-143h-261v-131h653v131h-261v143h261v131zM1046 1935h-392v-410h653v135h-261v275zM915 1800v-140h-131v140h131zM1307 1421h-653v-131h261v-144h-261v-131h392v275h261v131zM1307 1185h-130v-261h-523v-131
h653v392zM1307 706h-392v-218h131v87h131v-183h-393v314h-130v-445h653v445zM1307 26h-653v-444h653v444zM1177 -105v-183h-393v183h393zM1307 -505h-653v-131h274l-274 -183v-131h653v131h-401l275 183h126v131z" />
    <glyph glyph-name="uniFEF5" unicode="&#xfedf;&#xfe82;" horiz-adv-x="1294" arabic-form="isolated" 
d="M972 1495q0 57 36.5 89.5t81 32.5t81 -32.5t36.5 -89.5v-1077q0 -204 -108.5 -307.5t-309.5 -110.5h-345q-115 0 -213.5 65t-134.5 166q-25 68 17.5 115.5t107 38t93.5 -79.5q13 -34 50 -54t89 -20h310q115 0 162 39.5t47 147.5v1077zM357 1381q-21 -18 -40.5 -21
t-32 7.5t-20 26t-6 33t11.5 28.5q41 39 84.5 52t74 6.5t55.5 -23.5q36 -27 70 -29t55 11.5t36 35.5q16 17 37.5 24t39 2.5t31.5 -15.5t16.5 -29t-6.5 -39q-32 -60 -88.5 -83t-125.5 -13q-20 3 -47 16t-46.5 23.5t-46 9t-52.5 -22.5zM431 1146q0 57 37.5 89.5t82.5 32.5
t82.5 -32.5t37.5 -89.5v-662q0 -42 -24.5 -71.5t-60 -36.5t-71 -0.5t-60 35.5t-24.5 73v662z" />
    <glyph glyph-name="uniFEF6" unicode="&#xfee0;&#xfe82;" horiz-adv-x="1507" arabic-form="final" 
d="M1564 231l31 -118l-26 -113h-192q-180 0 -261 87q-99 -81 -284 -87h-344q-115 0 -214 65t-135 166q-25 68 17.5 115.5t107 38t93.5 -79.5q13 -33 50.5 -53.5t89.5 -20.5h309q115 0 162 39.5t47 147.5v1077q0 57 37 89.5t81 32.5t81 -32.5t37 -89.5v-1042
q0 -143 21.5 -182.5t104.5 -39.5h187zM418 1386q-21 -18 -40.5 -21t-32 7.5t-20 26t-6 33t11.5 28.5q41 39 84.5 52t74 6.5t55.5 -23.5q36 -27 70 -29t55 11t36 35q16 17 37.5 24t39 2.5t31.5 -15.5t16.5 -29t-6.5 -39q-32 -60 -88.5 -82.5t-125.5 -12.5q-20 3 -47 16
t-46.5 23.5t-46 9t-52.5 -22.5zM475 1146q0 57 37.5 89.5t82.5 32.5t82.5 -32.5t37.5 -89.5v-662q0 -42 -24.5 -71.5t-60 -36.5t-71 -0.5t-60 35.5t-24.5 73v662z" />
    <glyph glyph-name="uniFEF7" unicode="&#xfedf;&#xfe84;" horiz-adv-x="1294" arabic-form="isolated" 
d="M370 1377q-57 0 -81.5 40.5t-4 80.5t72.5 40h57q-39 64 -42 126.5t22 108.5t69.5 78t96.5 41.5t108 -8t99 -63.5q17 -19 16.5 -47.5t-15.5 -48t-40 -25.5t-57 21q-46 40 -103 27t-67 -70q-6 -37 3.5 -66t28 -44t38 -22.5t35.5 -7.5h78q39 0 61 -25t22 -55.5t-22 -55.5
t-61 -25h-314zM972 1495q0 57 36.5 89.5t81 32.5t81 -32.5t36.5 -89.5v-1077q0 -204 -108.5 -307.5t-309.5 -110.5h-345q-115 0 -213.5 65t-134.5 166q-25 68 17.5 115.5t107 38t93.5 -79.5q13 -34 50 -54t89 -20h310q115 0 162 39.5t47 147.5v1077zM431 1146
q0 57 37.5 89.5t82.5 32.5t82.5 -32.5t37.5 -89.5v-662q0 -42 -24.5 -71.5t-60 -36.5t-71 -0.5t-60 35.5t-24.5 73v662z" />
    <glyph glyph-name="uniFEF8" unicode="&#xfee0;&#xfe84;" horiz-adv-x="1503" arabic-form="final" 
d="M414 1377q-57 0 -81.5 40.5t-4 80.5t72.5 40h57q-39 64 -42 126.5t21.5 108.5t69 78t96.5 41.5t108 -8t99 -63.5q17 -19 17 -47.5t-15.5 -48t-40 -25.5t-56.5 21q-46 40 -103 27t-67 -70q-11 -70 26.5 -105t77.5 -35h79q39 0 61 -25t22 -55.5t-22 -55.5t-61 -25h-314z
M1560 231l30 -118l-26 -113h-191q-183 0 -257 87q-99 -81 -284 -87h-344q-115 0 -214 65t-135 166q-25 68 17.5 115.5t107 38t93.5 -79.5q13 -33 50.5 -53.5t89.5 -20.5h309q115 0 162 39.5t47 147.5v1077q0 57 37 89.5t81 32.5t81 -32.5t37 -89.5v-1077q0 -35 -5 -56
q7 -81 32 -106t95 -25h187zM475 1146q0 57 37.5 89.5t82.5 32.5t82.5 -32.5t37.5 -89.5v-662q0 -42 -24.5 -71.5t-60 -36.5t-71 -0.5t-60 35.5t-24.5 73v662z" />
    <glyph glyph-name="uniFEF9" unicode="&#xfedf;&#xfe88;" horiz-adv-x="1294" arabic-form="isolated" 
d="M972 1495q0 57 36.5 89.5t81 32.5t81 -32.5t36.5 -89.5v-1077q0 -204 -108.5 -307.5t-309.5 -110.5h-345q-115 0 -213.5 65t-134.5 166q-25 68 17.5 115.5t107 38t93.5 -79.5q13 -34 50 -54t89 -20h310q115 0 162 39.5t47 147.5v1077zM671 484q0 -42 -24.5 -71.5
t-60 -36.5t-71 -0.5t-60 35.5t-24.5 73v662q0 57 37.5 89.5t82.5 32.5t82.5 -32.5t37.5 -89.5v-662zM558 -322q-46 40 -103 26.5t-67 -70.5q-6 -37 3.5 -65.5t28 -43.5t37 -22.5t35.5 -7.5h79q39 0 61 -25.5t22 -55.5t-22 -55.5t-61 -25.5h-314q-57 0 -81.5 40.5t-4 81
t72.5 40.5h57q-39 64 -42 126.5t22 108.5t69.5 78t96.5 41.5t108 -8t99 -63.5q17 -19 16.5 -47.5t-15.5 -48t-40 -25.5t-57 21z" />
    <glyph glyph-name="uniFEFA" unicode="&#xfee0;&#xfe88;" horiz-adv-x="1507" arabic-form="final" 
d="M1564 231l31 -118l-26 -113h-192q-180 0 -261 87q-99 -81 -284 -87h-344q-115 0 -214 65t-135 166q-25 68 17.5 115.5t107 38t93.5 -79.5q13 -33 50.5 -53.5t89.5 -20.5h309q115 0 162 39.5t47 147.5v1077q0 57 37 89.5t81 32.5t81 -32.5t37 -89.5v-1042
q0 -143 21.5 -182.5t104.5 -39.5h187zM715 484q0 -42 -24.5 -71.5t-60 -36.5t-71 -0.5t-60 35.5t-24.5 73v662q0 57 37.5 89.5t82.5 32.5t82.5 -32.5t37.5 -89.5v-662zM627 -248q-46 40 -102.5 26.5t-66.5 -70.5q-6 -37 3.5 -65.5t28 -43.5t37 -22.5t35.5 -7.5h79
q39 0 61 -25.5t22 -55.5t-22 -55.5t-61 -25.5h-314q-57 0 -81.5 40.5t-4 81t72.5 40.5h56q-39 64 -42 126.5t22 108.5t69.5 78t96.5 41.5t108 -8t99 -63.5q17 -19 16.5 -47.5t-15.5 -48t-40 -25.5t-57 21z" />
    <glyph glyph-name="uniFEFB" unicode="&#xfedf;&#xfe8e;" horiz-adv-x="1294" arabic-form="isolated" 
d="M972 1495q0 57 36.5 89.5t81 32.5t81 -32.5t36.5 -89.5v-1077q0 -204 -108.5 -307.5t-309.5 -110.5h-345q-115 0 -213.5 65t-134.5 166q-25 68 17.5 115.5t107 38t93.5 -79.5q13 -34 50 -54t89 -20h310q115 0 162 39.5t47 147.5v1077zM671 484q0 -42 -24.5 -71.5
t-60 -36.5t-71 -0.5t-60 35.5t-24.5 73v662q0 57 37.5 89.5t82.5 32.5t82.5 -32.5t37.5 -89.5v-662z" />
    <glyph glyph-name="uniFEFC" unicode="&#xfee0;&#xfe8e;" horiz-adv-x="1507" arabic-form="final" 
d="M1564 231l31 -118l-26 -113h-192q-180 0 -261 87q-99 -81 -284 -87h-344q-115 0 -214 65t-135 166q-25 68 17.5 115.5t107 38t93.5 -79.5q13 -33 50.5 -53.5t89.5 -20.5h309q115 0 162 39.5t47 147.5v1077q0 57 37 89.5t81 32.5t81 -32.5t37 -89.5v-1042
q0 -143 21.5 -182.5t104.5 -39.5h187zM715 484q0 -42 -24.5 -71.5t-60 -36.5t-71 -0.5t-60 35.5t-24.5 73v662q0 57 37.5 89.5t82.5 32.5t82.5 -32.5t37.5 -89.5v-662z" />
    <glyph glyph-name="uni06440671" unicode="&#xfedf;&#xfb51;" horiz-adv-x="1294" 
d="M235 1325q-22 12 -22 40.5t14 50.5l61 100q13 23 38.5 28.5t48.5 -10.5l78 -44q8 12 28 43t31 47t32 38t39 30t45 8.5t56 -13.5q73 -44 99.5 -99.5t6.5 -100.5t-62.5 -81.5t-107.5 -42t-128 18.5q-28 11 -55 25t-40 21.5t-26.5 12t-22 -0.5t-17.5 -19l-22 -35
q-24 -44 -74 -17zM972 1495q0 57 36.5 89.5t81 32.5t81 -32.5t36.5 -89.5v-1077q0 -204 -108.5 -307.5t-309.5 -110.5h-345q-115 0 -213.5 65t-134.5 166q-25 68 17.5 115.5t107 38t93.5 -79.5q13 -34 50 -54t89 -20h310q115 0 162 39.5t47 147.5v1077zM619 1538
q-16 -6 -33.5 -28.5t-27.5 -42.5l-9 -20q44 -12 79 -4.5t56 23.5l22 16q-16 31 -42.5 47t-44.5 9zM431 1146q0 57 37.5 89.5t82.5 32.5t82.5 -32.5t37.5 -89.5v-662q0 -42 -24.5 -71.5t-60 -36.5t-71 -0.5t-60 35.5t-24.5 73v662z" />
    <glyph glyph-name="uni06440671.fina" unicode="&#xfee0;&#xfb51;" horiz-adv-x="1481" 
d="M235 1325q-22 12 -22 40.5t14 50.5l61 100q13 23 38.5 28.5t48.5 -10.5l78 -44q8 12 28 43t31 47t32 38t39 30t45 8.5t56 -13.5q73 -44 99.5 -99.5t6.5 -100.5t-62.5 -81.5t-107.5 -42t-128 18.5q-28 11 -55 25t-40 21.5t-26.5 12t-22 -0.5t-17.5 -19l-22 -35
q-24 -44 -74 -17zM1495 231l30 -118l-26 -113h-192q-168 0 -248 74q-108 -68 -270 -74h-345q-115 0 -213.5 65t-134.5 166q-25 68 17.5 115.5t107 38t93.5 -79.5q13 -34 50 -54t89 -20h310q91 0 137.5 24t62.5 85v113h9v1042q0 57 36.5 89.5t81 32.5t81 -32.5t36.5 -89.5
v-1077q0 -75 -13 -126q9 -35 35.5 -48t77.5 -13h188zM619 1538q-16 -6 -33.5 -28.5t-27.5 -42.5l-9 -20q44 -12 79 -4.5t56 23.5l22 16q-16 31 -42.5 47t-44.5 9zM431 1146q0 57 37.5 89.5t82.5 32.5t82.5 -32.5t37.5 -89.5v-662q0 -42 -24.5 -71.5t-60 -36.5t-71 -0.5
t-60 35.5t-24.5 73v662z" />
    <glyph glyph-name="uniFED3" unicode="&#x641;" horiz-adv-x="1298" arabic-form="initial" 
d="M802 1482q0 -56 -37 -87.5t-81 -31.5t-81 31.5t-37 87.5v69q0 54 37 85.5t81 32t81 -30.5t37 -87v-69zM1168 614v-614l-275 4v-4h-937v231h371q-58 90 -83.5 196.5t-25.5 186.5q0 252 130 414t332 162h4q215 0 349.5 -161.5t134.5 -414.5zM950 231l-9 383q0 163 -69 258
t-184 95h-4q-115 0 -177.5 -91.5t-62.5 -261.5q0 -95 40 -182t115.5 -144t167.5 -57h183z" />
    <glyph glyph-name="uni066E.init" unicode="&#x66e;" horiz-adv-x="854" 
d="M-44 231h441q60 0 99.5 44.5t39.5 121.5v596q0 42 24 71.5t58 36.5t67.5 0t57.5 -37t24 -75v-601q0 -183 -98 -285.5t-272 -102.5h-441v231z" />
    <glyph glyph-name="uni066E.medi" unicode="&#x66e;" horiz-adv-x="1080" 
d="M1081 231l30 -118l-26 -113h-192q-166 0 -252 78q-91 -78 -244 -78h-441v231h441q60 0 99.5 44.5t39.5 121.5v596q0 42 24 71.5t58 36.5t67.5 0t57.5 -37t24 -75v-536q0 -143 21.5 -182.5t104.5 -39.5h188z" />
    <glyph glyph-name="uni066E.fina" unicode="&#x66e;" horiz-adv-x="1699" 
d="M1721 231l66 -122l-66 -109h-96q-141 0 -213 78q-86 -78 -240 -78h-714q-171 0 -271 104t-100 284v475q0 54 36 85t79.5 31t79.5 -31t36 -85v-466q-3 -76 38 -121t102 -45h714q60 0 100 44.5t40 121.5v596q0 42 24 71.5t58 36.5t67.5 0t57.5 -37t24 -75v-601v-26
q0 -21 0.5 -35.5t3.5 -28t4 -22.5t8.5 -16.5t11 -12t17 -8t20.5 -5t27.5 -2.5t32 -1h40.5h13z" />
    <glyph glyph-name="uni066F.fina" unicode="&#x66f;" horiz-adv-x="2008" 
d="M1678 231h374l-4 -231h-370v-131q-3 -244 -204.5 -372.5t-554.5 -128.5h-4q-215 0 -395 110.5t-284.5 304t-104.5 426.5q0 88 23 131t90 43t91.5 -43t17.5 -131q0 -133 45 -248.5t121.5 -195t179.5 -125t216 -45.5q240 0 383 72t153 202v131h-174q-98 0 -180 26
t-137 67.5t-98 97.5t-67.5 112.5t-40.5 117.5t-21 105.5t-5 83.5q0 252 130 413.5t332 161.5h4q215 0 349.5 -161t134.5 -414v-379zM954 610q0 -95 40 -182t115.5 -144t167.5 -57h183l-9 383q0 163 -69 258t-184 95h-4q-115 0 -177.5 -91.5t-62.5 -261.5z" />
    <glyph glyph-name="uni06A1.init" unicode="&#x6a1;" horiz-adv-x="1298" 
d="M1168 614v-614l-275 4v-4h-937v231h371q-58 90 -83.5 196.5t-25.5 186.5q0 252 130 414t332 162h4q215 0 349.5 -161.5t134.5 -414.5zM950 231l-9 383q0 163 -69 258t-184 95h-4q-115 0 -177.5 -91.5t-62.5 -261.5q0 -95 40 -182t115.5 -144t167.5 -57h183z" />
    <glyph glyph-name="uni06A1.medi" unicode="&#x6a1;" horiz-adv-x="1381" 
d="M1168 231h300l-4 -231h-1508v231h371q-58 90 -83.5 196.5t-25.5 186.5q0 252 130 414t332 162h4q215 0 349.5 -161.5t134.5 -414.5v-383zM444 614q0 -95 40 -182t115.5 -144t167.5 -57h183l-9 383q0 163 -69 258t-184 95h-4q-115 0 -177.5 -91.5t-62.5 -261.5z" />
    <glyph glyph-name="uni06A1.fina" unicode="&#x6a1;" horiz-adv-x="2300" 
d="M2026 231h362l-4 -231h-589v4h-43v-4h-985q-150 0 -277 52.5t-215.5 146.5t-138 228t-49.5 292v57q0 49 32.5 83t80.5 34q49 0 83.5 -34t34.5 -83v-40q0 -235 121 -370t328 -135h418q-58 90 -83.5 196.5t-25.5 186.5q0 252 130 414t332 162h5q215 0 349 -161.5
t134 -414.5v-383zM1808 231l-8 383q0 163 -69 258t-184 95h-4q-115 0 -177.5 -91.5t-62.5 -261.5q0 -95 39.5 -182t115 -144t167.5 -57h183z" />
    <glyph glyph-name="uni06C2.fina" unicode="&#x6c2;" horiz-adv-x="1451" 
d="M527 1333q-57 0 -81.5 40.5t-4 81t72.5 40.5h57q-39 64 -42 126.5t22 108.5t69.5 78t96.5 41.5t108 -8t99 -63.5q17 -19 16.5 -47.5t-15.5 -48t-40 -25.5t-57 21q-46 40 -103 26.5t-67 -70.5q-6 -37 3.5 -65.5t28.5 -43.5t37.5 -22.5t35.5 -7.5h78q39 0 61 -25.5
t22 -55.5t-22 -55.5t-61 -25.5h-314zM1050 588q0 160 -106.5 267.5t-263.5 107.5q-153 0 -257.5 -109t-104.5 -266v-4q0 -567 4 -584h-230q-5 21 -5 580v4q0 125 47 237.5t127 193.5t191.5 128t235.5 47q122 0 232 -46.5t189 -126.5t125.5 -192t46.5 -237v-357h183l31 -122
l-31 -109h-414v588z" />
    <glyph glyph-name="uni06C3.fina" unicode="&#x6c3;" horiz-adv-x="1451" 
d="M418 1451v70q0 54 37 85.5t81 32t81 -30.5t37 -87v-70q0 -56 -37 -87.5t-81 -31.5t-81 31.5t-37 87.5zM723 1451v70q0 54 37 85.5t81 32t81 -30.5t37 -87v-70q0 -56 -37 -87.5t-81 -31.5t-81 31.5t-37 87.5zM1050 588q0 160 -106.5 267.5t-263.5 107.5
q-153 0 -257.5 -109t-104.5 -266v-4q0 -567 4 -584h-230q-5 21 -5 580v4q0 125 47 237.5t127 193.5t191.5 128t235.5 47q122 0 232 -46.5t189 -126.5t125.5 -192t46.5 -237v-357h183l31 -122l-31 -109h-414v588z" />
    <glyph glyph-name="uniFB51" unicode="&#x671;" horiz-adv-x="592" arabic-form="final" 
d="M22 1726q-25 -45 -74 -18q-22 12 -22.5 41t13.5 51l61 100q13 23 38.5 28t48.5 -11l79 -43q8 12 28 43t30.5 46.5t32 38t39.5 30t45 8t56 -13.5q73 -44 99.5 -99.5t6.5 -100.5t-62.5 -81.5t-107.5 -42t-128 18.5q-28 11 -55 25t-40 21.5t-26.5 12t-22 -0.5t-17.5 -19z
M261 1830q44 -12 79 -4.5t56 23.5l22 16q-16 32 -42.5 48t-44.5 9q-16 -6 -33.5 -29t-27.5 -43zM497 0q-167 0 -263 82.5t-103 253.5v1159q0 56 36 87.5t79.5 31.5t79.5 -31.5t36 -87.5v-1116q0 -99 45 -123.5t207 -24.5v-231h-117z" />
    <glyph glyph-name="uniFB57" unicode="&#x67e;" horiz-adv-x="1699" arabic-form="final" 
d="M1721 231l66 -122l-66 -109h-96q-141 0 -213 78q-86 -78 -240 -78h-714q-171 0 -271 104t-100 284v475q0 54 36 85t79.5 31t79.5 -31t36 -85v-466q-3 -76 38 -121t102 -45h714q60 0 100 44.5t40 121.5v596q0 42 24 71.5t58 36.5t67.5 0t57.5 -37t24 -75v-601v-26
q0 -21 0.5 -35.5t3.5 -28t4 -22.5t8.5 -16.5t11 -12t17 -8t20.5 -5t27.5 -2.5t32 -1h40.5h13zM815 -414q0 -56 -36.5 -87t-81 -30.5t-81 32t-36.5 85.5v70q0 56 36.5 87.5t81 31.5t81 -31.5t36.5 -87.5v-70zM885 -344q0 56 36.5 87.5t81 31.5t81 -31.5t36.5 -87.5v-70
q0 -56 -36.5 -87t-81 -30.5t-81 32t-36.5 85.5v70zM732 -736q0 56 36.5 87.5t81 31.5t81 -31.5t36.5 -87.5v-70q0 -56 -36.5 -87t-81 -30.5t-81 32t-36.5 85.5v70z" />
    <glyph glyph-name="uniFB58" unicode="&#x67e;" horiz-adv-x="854" arabic-form="initial" 
d="M-44 231h441q60 0 99.5 44.5t39.5 121.5v596q0 42 24 71.5t58 36.5t67.5 0t57.5 -37t24 -75v-601q0 -183 -98 -285.5t-272 -102.5h-441v231zM122 -340q0 56 36.5 87.5t81 31.5t81 -31.5t36.5 -87.5v-70q0 -56 -36.5 -87t-81 -30.5t-81 32t-36.5 85.5v70zM427 -340
q0 56 36.5 87.5t81 31.5t81 -31.5t36.5 -87.5v-70q0 -56 -36.5 -87t-81 -30.5t-81 32t-36.5 85.5v70zM275 -732q0 56 36.5 87.5t81 31.5t81 -31.5t36.5 -87.5v-70q0 -56 -36.5 -87t-81 -30.5t-81 32t-36.5 85.5v70z" />
    <glyph glyph-name="uniFB59" unicode="&#x67e;" horiz-adv-x="1080" arabic-form="medial" 
d="M1081 231l30 -118l-26 -113h-192q-166 0 -252 78q-91 -78 -244 -78h-441v231h441q60 0 99.5 44.5t39.5 121.5v596q0 42 24 71.5t58 36.5t67.5 0t57.5 -37t24 -75v-536q0 -143 21.5 -182.5t104.5 -39.5h188zM505 -444q0 -56 -36.5 -87t-81 -30.5t-81 32t-36.5 85.5v69
q0 56 36.5 87.5t81 31.5t81 -31.5t36.5 -87.5v-69zM575 -375q0 56 36.5 87.5t81 31.5t81 -31.5t36.5 -87.5v-69q0 -56 -36.5 -87t-81 -30.5t-81 32t-36.5 85.5v69zM423 -767q0 56 36.5 87.5t81 31.5t81 -31.5t36.5 -87.5v-70q0 -56 -36.5 -87t-81 -30.5t-81 32t-36.5 85.5
v70z" />
    <glyph glyph-name="uniFB67" unicode="&#x679;" horiz-adv-x="1699" arabic-form="final" 
d="M536 1185q-20 0 -36 11.5t-16 27.5v48q0 18 15.5 29t36.5 11h39v353q0 23 21.5 32t43.5 0t22 -32v-114q48 48 157 48q209 0 209 -253q0 -161 -126 -161h-366zM819 1477q-68 0 -96 -36t-35 -129h197q13 0 18 1.5t8.5 10.5t3.5 31q0 64 -23.5 93t-72.5 29zM1721 231
l66 -122l-66 -109h-96q-141 0 -213 78q-86 -78 -240 -78h-714q-171 0 -271 104t-100 284v475q0 54 36 85t79.5 31t79.5 -31t36 -85v-466q-3 -76 38 -121t102 -45h714q60 0 100 44.5t40 121.5v596q0 42 24 71.5t58 36.5t67.5 0t57.5 -37t24 -75v-601v-26q0 -21 0.5 -35.5
t3.5 -28t4 -22.5t8.5 -16.5t11 -12t17 -8t20.5 -5t27.5 -2.5t32 -1h40.5h13z" />
    <glyph glyph-name="uniFB68" unicode="&#x679;" horiz-adv-x="854" arabic-form="initial" 
d="M619 1599q209 0 209 -253q0 -161 -126 -161h-366q-20 0 -36.5 11.5t-16.5 27.5v48q0 18 16 29t37 11h39v353q0 23 21.5 32t43.5 0t22 -32v-114q48 48 157 48zM684 1312q14 0 18.5 1.5t8.5 11t4 30.5q0 64 -23.5 93t-72.5 29q-68 0 -96 -36t-35 -129h196zM536 993
q0 42 24 71.5t58 36.5t67.5 0t57.5 -37t24 -75v-601q0 -183 -98 -285.5t-272 -102.5h-441v231h441q60 0 99.5 44.5t39.5 121.5v596z" />
    <glyph glyph-name="uniFB69" unicode="&#x679;" horiz-adv-x="1080" arabic-form="medial" 
d="M418 1185q-20 0 -36 11.5t-16 27.5v48q0 18 15.5 29t36.5 11h40v353q0 23 22 32t43.5 0t21.5 -32v-114q48 48 157 48q209 0 209 -253q0 -161 -127 -161h-366zM702 1477q-68 0 -96 -36t-35 -129h196q13 0 18 1.5t8.5 10.5t3.5 31q0 65 -23 93.5t-72 28.5zM1081 231
l30 -118l-26 -113h-192q-166 0 -252 78q-91 -78 -244 -78h-441v231h441q60 0 99.5 44.5t39.5 121.5v596q0 42 24 71.5t58 36.5t67.5 0t57.5 -37t24 -75v-536q0 -143 21.5 -182.5t104.5 -39.5h188z" />
    <glyph glyph-name="uniFB6B" unicode="&#x6a4;" horiz-adv-x="2300" arabic-form="final" 
d="M1612 1904q0 -56 -36.5 -87.5t-81 -31.5t-81 31.5t-36.5 87.5v70q0 54 36.5 85.5t81 32t81 -30.5t36.5 -87v-70zM1460 1512q0 -56 -37 -87.5t-81 -31.5t-81 31.5t-37 87.5v70q0 54 37 85.5t81 32t81 -30.5t37 -87v-70zM1529 1582q0 54 37 85.5t81 32t81 -30.5t37 -87v-70
q0 -56 -37 -87.5t-81 -31.5t-81 31.5t-37 87.5v70zM2026 231h362l-4 -231h-589v4h-43v-4h-985q-150 0 -277 52.5t-215.5 146.5t-138 228t-49.5 292v57q0 49 32.5 83t80.5 34q49 0 83.5 -34t34.5 -83v-40q0 -235 121 -370t328 -135h418q-58 90 -83.5 196.5t-25.5 186.5
q0 252 130 414t332 162h5q215 0 349 -161.5t134 -414.5v-383zM1808 231l-8 383q0 163 -69 258t-184 95h-4q-115 0 -177.5 -91.5t-62.5 -261.5q0 -95 39.5 -182t115 -144t167.5 -57h183z" />
    <glyph glyph-name="uniFB6C" unicode="&#x6a4;" horiz-adv-x="1298" arabic-form="initial" 
d="M802 1874q0 -56 -37 -87.5t-81 -31.5t-81 31.5t-37 87.5v69q0 54 37 85.5t81 32t81 -30.5t37 -87v-69zM649 1482q0 -56 -36.5 -87.5t-81 -31.5t-81 31.5t-36.5 87.5v69q0 54 36.5 85.5t81 32t81 -30.5t36.5 -87v-69zM719 1551q0 54 36.5 85.5t81 32t81 -30.5t36.5 -87
v-69q0 -56 -36.5 -87.5t-81 -31.5t-81 31.5t-36.5 87.5v69zM1168 614v-614l-275 4v-4h-937v231h371q-58 90 -83.5 196.5t-25.5 186.5q0 252 130 414t332 162h4q215 0 349.5 -161.5t134.5 -414.5zM950 231l-9 383q0 163 -69 258t-184 95h-4q-115 0 -177.5 -91.5t-62.5 -261.5
q0 -95 40 -182t115.5 -144t167.5 -57h183z" />
    <glyph glyph-name="uniFB6D" unicode="&#x6a4;" horiz-adv-x="1381" arabic-form="medial" 
d="M802 1874q0 -56 -37 -87.5t-81 -31.5t-81 31.5t-37 87.5v69q0 54 37 85.5t81 32t81 -30.5t37 -87v-69zM649 1482q0 -56 -36.5 -87.5t-81 -31.5t-81 31.5t-36.5 87.5v69q0 54 36.5 85.5t81 32t81 -30.5t36.5 -87v-69zM719 1551q0 54 36.5 85.5t81 32t81 -30.5t36.5 -87
v-69q0 -56 -36.5 -87.5t-81 -31.5t-81 31.5t-36.5 87.5v69zM1168 231h300l-4 -231h-1508v231h371q-58 90 -83.5 196.5t-25.5 186.5q0 252 130 414t332 162h4q215 0 349.5 -161.5t134.5 -414.5v-383zM444 614q0 -95 40 -182t115.5 -144t167.5 -57h183l-9 383q0 163 -69 258
t-184 95h-4q-115 0 -177.5 -91.5t-62.5 -261.5z" />
    <glyph glyph-name="uniFB7B" unicode="&#x686;" horiz-adv-x="1838" arabic-form="final" 
d="M1852 231l30 -118l-26 -113h-191q-71 0 -122 13v-13h-1077q-69 0 -110.5 -52t-41.5 -140q0 -94 66 -160t160 -66q49 0 83 -37.5t31 -89.5q-7 -43 -41 -71.5t-77 -28.5q-122 0 -225.5 61t-163.5 165.5t-60 226.5q0 185 123.5 312t294.5 111h802v231q0 244 -118 370.5
t-339 126.5q-105 0 -188 -35.5t-161 -113.5q-28 -28 -63 -33t-62 11.5t-45 42t-15.5 59t28.5 60.5q78 107 223 173.5t296 66.5q309 0 494.5 -192.5t185.5 -518.5v-143q7 -64 32.5 -84.5t89.5 -20.5h187zM1024 -322q0 -56 -36.5 -87t-81 -30.5t-81 32t-36.5 85.5v69
q0 56 36.5 87.5t81 31.5t81 -31.5t36.5 -87.5v-69zM1094 -253q0 56 36.5 87.5t81 31.5t81 -31.5t36.5 -87.5v-69q0 -56 -36.5 -87t-81 -30.5t-81 32t-36.5 85.5v69zM941 -645q0 56 37 87.5t81 31.5t81 -31.5t37 -87.5v-70q0 -56 -37 -87t-81 -30.5t-81 32t-37 85.5v70z" />
    <glyph glyph-name="uniFB7C" unicode="&#x686;" horiz-adv-x="1542" arabic-form="initial" 
d="M776 1190q310 0 494.5 -196t184.5 -523v-471h-1477l-22 113l22 118h1246v222q0 245 -119.5 375.5t-341.5 130.5q-205 0 -340 -149q-36 -36 -82 -36.5t-78 29.5t-32 77q0 13 9.5 40t16.5 30q207 240 519 240zM810 -410q0 -56 -36.5 -87t-81 -30.5t-81 32t-36.5 85.5v70
q0 56 36.5 87.5t81 31.5t81 -31.5t36.5 -87.5v-70zM880 -340q0 56 37 87.5t81 31.5t81 -31.5t37 -87.5v-70q0 -56 -37 -87t-81 -30.5t-81 32t-37 85.5v70zM728 -732q0 56 36.5 87.5t81 31.5t81 -31.5t36.5 -87.5v-70q0 -56 -36.5 -87t-81 -30.5t-81 32t-36.5 85.5v70z" />
    <glyph glyph-name="uniFB7D" unicode="&#x686;" horiz-adv-x="1577" arabic-form="medial" 
d="M1438 231h183l-4 -231h-1656l-22 113l22 118h1246v222q0 245 -120 375.5t-342 130.5q-205 0 -340 -149q-36 -36 -81.5 -36.5t-77.5 29.5t-32 77q0 13 9.5 40t16.5 30q207 240 518 240q310 0 495 -196t185 -523v-240zM758 -410q0 -56 -36.5 -87t-81 -30.5t-81 32
t-36.5 85.5v70q0 56 36.5 87.5t81 31.5t81 -31.5t36.5 -87.5v-70zM828 -340q0 56 36.5 87.5t81 31.5t81 -31.5t36.5 -87.5v-70q0 -56 -36.5 -87t-81 -30.5t-81 32t-36.5 85.5v70zM675 -732q0 56 37 87.5t81 31.5t81 -31.5t37 -87.5v-70q0 -56 -37 -87t-81 -30.5t-81 32
t-37 85.5v70z" />
    <glyph glyph-name="uniFB89" unicode="&#x688;" horiz-adv-x="1246" arabic-form="final" 
d="M144 1320q-20 0 -36 12t-16 28v47q0 19 15.5 29.5t36.5 10.5h39v353q0 23 21.5 32t43.5 0t22 -32v-114q48 48 157 48q209 0 209 -252q0 -162 -126 -162h-366zM427 1612q-68 0 -96 -36t-35 -129h196q14 0 18.5 1.5t8.5 11t4 30.5q0 64 -23.5 93t-72.5 29zM989 231h301
l-5 -231h-1085q-42 0 -71.5 24t-36.5 58t-0.5 67.5t35.5 57.5t73 24h554v235q0 219 -103.5 348t-293.5 145q-46 7 -75 39t-29 78q0 53 37.5 87t92.5 27q179 -11 317 -105t213.5 -255t75.5 -364v-235z" />
    <glyph glyph-name="uniFB8B" unicode="&#x698;" horiz-adv-x="897" arabic-form="final" 
d="M549 1787q0 -56 -36.5 -87.5t-81 -31.5t-81 31.5t-36.5 87.5v69q0 54 36.5 85.5t81 32t81 -30.5t36.5 -87v-69zM397 1394q0 -56 -37 -87.5t-81 -31.5t-81 31.5t-37 87.5v70q0 54 37 85.5t81 32t81 -30.5t37 -87v-70zM466 1464q0 54 37 85.5t81 32t81 -30.5t37 -87v-70
q0 -56 -37 -87.5t-81 -31.5t-81 31.5t-37 87.5v70zM911 231l52 -109l-52 -122h-183q-96 0 -179 35q-3 -190 -104 -300t-271 -110q-36 0 -64 12.5t-42.5 32.5t-21.5 44t-0.5 48.5t20.5 44.5t41.5 32.5t62.5 12.5q69 0 106.5 47.5t37.5 135.5v967q0 54 36.5 85.5t81 32
t81 -30.5t36.5 -87v-562q1 -63 19 -107.5t46.5 -65t55.5 -28.5t58 -8h183z" />
    <glyph glyph-name="uniFB8D" unicode="&#x691;" horiz-adv-x="897" arabic-form="final" 
d="M192 1185q-20 0 -36.5 11.5t-16.5 27.5v48q0 18 16 29t37 11h39v353q0 23 21.5 32t43.5 0t22 -32v-114q48 48 157 48q209 0 209 -253q0 -161 -126 -161h-366zM475 1477q-68 0 -96 -36t-35 -129h196q14 0 18.5 1.5t8.5 11t4 30.5q0 64 -23.5 93t-72.5 29zM911 231l52 -109
l-52 -122h-183q-96 0 -179 35q-3 -190 -104 -300t-271 -110q-36 0 -64 12.5t-42.5 32.5t-21.5 44t-0.5 48.5t20.5 44.5t41.5 32.5t62.5 12.5q69 0 106.5 47.5t37.5 135.5v967q0 54 36.5 85.5t81 32t81 -30.5t36.5 -87v-562q1 -63 19 -107.5t46.5 -65t55.5 -28.5t58 -8h183z
" />
    <glyph glyph-name="uniFB8F" unicode="&#x6a9;" horiz-adv-x="2204" arabic-form="final" 
d="M2218 231l30 -118l-26 -113h-191q-119 0 -197 39q-46 -39 -108 -39h-1112q-99 5 -181.5 36.5t-138 81t-94 112t-54.5 131t-14.5 138t21.5 133.5q41 128 121 153q58 18 101 -24q45 -45 30 -112q-2 -13 -8 -26q-31 -72 -36 -139t18 -125t92 -93t178 -35h1016v253
q0 221 -115 350t-330 129h-462q-58 0 -101 42.5t-43 101.5q0 27 12.5 55.5t31.5 44.5l401 357q27 35 78 35q36 0 64.5 -21t40.5 -50.5t6.5 -63.5t-32.5 -57l-253 -217h257q216 0 371.5 -89.5t234 -248t78.5 -368.5v-31q0 -143 22 -182.5t105 -39.5h187z" />
    <glyph glyph-name="uniFB90" unicode="&#x6a9;" horiz-adv-x="1533" arabic-form="initial" 
d="M745 1190q334 0 518 -195.5t184 -528.5v-287q0 -74 -53 -126.5t-126 -52.5h-1294l-61 122l61 109h1233v253q0 221 -111.5 350t-319.5 129h-475q-59 0 -101.5 42.5t-42.5 101.5q0 27 12 55.5t31 44.5l401 357q27 35 79 35q36 0 64.5 -21t40.5 -50.5t6 -63.5t-33 -57
l-253 -217h240z" />
    <glyph glyph-name="uniFB91" unicode="&#x6a9;" horiz-adv-x="1703" arabic-form="medial" 
d="M1760 231l31 -118l-26 -113h-192q-118 0 -196 39q-47 -39 -109 -39h-1294l-61 122l61 109h1233v253q0 221 -111.5 350t-319.5 129h-475q-59 0 -101.5 42.5t-42.5 101.5q0 27 12 55.5t31 44.5l401 357q27 35 79 35q36 0 64.5 -21t40.5 -50.5t6 -63.5t-33 -57l-253 -217
h240q334 0 518 -195.5t184 -528.5v-13q0 -143 21.5 -182.5t104.5 -39.5h187z" />
    <glyph glyph-name="uniFB93" unicode="&#x6af;" horiz-adv-x="2204" arabic-form="final" 
d="M575 1259q-21 -20 -49 -21t-49.5 14.5t-35.5 37.5t-9.5 50t30.5 50l510 440q31 23 60 13t50 -32.5t20 -56.5t-30 -59zM2218 231l30 -118l-26 -113h-191q-119 0 -197 39q-46 -39 -108 -39h-1112q-99 5 -181.5 36.5t-138 81t-94 112t-54.5 131t-14.5 138t21.5 133.5
q41 128 121 153q58 18 101 -24q45 -45 30 -112q-2 -13 -8 -26q-31 -72 -36 -139t18 -125t92 -93t178 -35h1016v253q0 221 -115 350t-330 129h-462q-58 0 -101 42.5t-43 101.5q0 27 12.5 55.5t31.5 44.5l401 357q27 35 78 35q36 0 64.5 -21t40.5 -50.5t6.5 -63.5t-32.5 -57
l-253 -217h257q216 0 371.5 -89.5t234 -248t78.5 -368.5v-31q0 -143 22 -182.5t105 -39.5h187z" />
    <glyph glyph-name="uniFB94" unicode="&#x6af;" horiz-adv-x="1533" arabic-form="initial" 
d="M118 1259q-35 -33 -83 -14.5t-59 61t28 84.5l510 440q31 23 60 13t50 -32.5t20 -56.5t-30 -59zM745 1190q334 0 518 -195.5t184 -528.5v-287q0 -74 -53 -126.5t-126 -52.5h-1294l-61 122l61 109h1233v253q0 221 -111.5 350t-319.5 129h-475q-59 0 -101.5 42.5
t-42.5 101.5q0 27 12 55.5t31 44.5l401 357q27 35 79 35q36 0 64.5 -21t40.5 -50.5t6 -63.5t-33 -57l-253 -217h240z" />
    <glyph glyph-name="uniFB95" unicode="&#x6af;" horiz-adv-x="1703" arabic-form="medial" 
d="M144 1320q-21 -20 -49 -21t-49.5 14.5t-35.5 37.5t-9.5 50t30.5 50l444 379q31 23 60 13t50 -32.5t20 -56.5t-30 -59zM1760 231l31 -118l-26 -113h-192q-118 0 -196 39q-47 -39 -109 -39h-1294l-61 122l61 109h1233v253q0 221 -111.5 350t-319.5 129h-475
q-59 0 -101.5 42.5t-42.5 101.5q0 27 12 55.5t31 44.5l401 357q27 35 79 35q36 0 64.5 -21t40.5 -50.5t6 -63.5t-33 -57l-253 -217h240q334 0 518 -195.5t184 -528.5v-13q0 -143 21.5 -182.5t104.5 -39.5h187z" />
    <glyph glyph-name="uniFB9F" unicode="&#x6ba;" horiz-adv-x="1738" arabic-form="final" 
d="M1752 231l30 -118l-26 -113h-192q-124 0 -196 39q-82 -200 -240.5 -305.5t-351.5 -108.5q-104 -3 -204 25t-188.5 88t-155.5 146.5t-106 209.5t-39 268l30 483q4 72 62.5 95t113.5 -14t51 -111l-26 -453q-13 -231 110.5 -360.5t346.5 -136.5q436 13 436 566v562
q0 42 24 71.5t57.5 36.5t67.5 0t58 -37t24 -75v-536q0 -143 21.5 -182.5t104.5 -39.5h188z" />
    <glyph glyph-name="uniFBA7" unicode="&#x6c1;" horiz-adv-x="1451" arabic-form="final" 
d="M1050 588q0 160 -106.5 267.5t-263.5 107.5q-153 0 -257.5 -109t-104.5 -266v-4q0 -567 4 -584h-230q-5 21 -5 580v4q0 125 47 237.5t127 193.5t191.5 128t235.5 47q122 0 232 -46.5t189 -126.5t125.5 -192t46.5 -237v-357h183l31 -122l-31 -109h-414v588z" />
    <glyph glyph-name="uniFBA8" unicode="&#x6c1;" horiz-adv-x="854" arabic-form="initial" 
d="M-44 231h441q60 0 99.5 44.5t39.5 121.5v596q0 42 24 71.5t58 36.5t67.5 0t57.5 -37t24 -75v-601q0 -183 -98 -285.5t-272 -102.5h-441v231zM305 -549q-16 0 -24.5 11t-5.5 28l69 362q5 22 31 22h78q13 0 25.5 -14t9.5 -26l-57 -357q0 -9 -10 -17.5t-20 -8.5h-96z" />
    <glyph glyph-name="uniFBA9" unicode="&#x6c1;" horiz-adv-x="1106" arabic-form="medial" 
d="M1116 231l34 -113l-34 -118h-166v-636h-283q-144 0 -249 33.5t-164.5 94t-87 134.5t-27.5 165v209h-135l-48 118l48 113h366v-440q0 -32 4 -55.5t21 -53.5t47 -49.5t87.5 -33t137.5 -13.5h52v645h397z" />
    <glyph glyph-name="uniFBAB" unicode="&#x6be;" horiz-adv-x="2100" arabic-form="final" 
d="M2157 231l30 -118l-26 -113h-191q-76 0 -127 13v-13h-1852l-35 113l35 118h318q-117 152 -117 383q0 107 29.5 198.5t80 158t119 115t146 75t161.5 33.5q166 152 427 152q318 0 503 -193.5t185 -529.5v-170q0 -143 22 -182.5t105 -39.5h187zM1251 231h357v392
q0 235 -120 366t-333 131q-44 0 -61 -4q125 -73 199.5 -200t74.5 -302q0 -231 -117 -383zM423 614q0 -161 103.5 -272t253.5 -111q156 0 256.5 108t100.5 275q0 144 -106.5 248.5t-250.5 104.5q-150 0 -253.5 -103t-103.5 -250z" />
    <glyph glyph-name="uniFBAC" unicode="&#x6be;" horiz-adv-x="1930" arabic-form="initial" 
d="M1155 1346q318 0 503 -193.5t185 -529.5v-623h-1852l-35 113l35 118h318q-117 152 -117 383q0 107 29.5 198.5t80 158t119 115t146 75t161.5 33.5q166 152 427 152zM1251 231h357v392q0 235 -120 366t-333 131q-44 0 -61 -4q125 -73 199.5 -200t74.5 -302
q0 -231 -117 -383zM423 614q0 -161 103.5 -272t253.5 -111q156 0 256.5 108t100.5 275q0 144 -106.5 248.5t-250.5 104.5q-150 0 -253.5 -103t-103.5 -250z" />
    <glyph glyph-name="uniFBAD" unicode="&#x6be;" horiz-adv-x="2100" arabic-form="medial" 
d="M2157 231l30 -118l-26 -113h-191q-76 0 -127 13v-13h-1852l-35 113l35 118h318q-117 152 -117 383q0 107 29.5 198.5t80 158t119 115t146 75t161.5 33.5q166 152 427 152q318 0 503 -193.5t185 -529.5v-170q0 -143 22 -182.5t105 -39.5h187zM1251 231h357v392
q0 235 -120 366t-333 131q-44 0 -61 -4q125 -73 199.5 -200t74.5 -302q0 -231 -117 -383zM423 614q0 -161 103.5 -272t253.5 -111q156 0 256.5 108t100.5 275q0 144 -106.5 248.5t-250.5 104.5q-150 0 -253.5 -103t-103.5 -250z" />
    <glyph glyph-name="uniFBAF" unicode="&#x6d2;" horiz-adv-x="1812" arabic-form="final" 
d="M754 -540q-117 0 -205 20.5t-164.5 72.5t-125 137.5t-75.5 218.5t-27 313l1717 9v-231h-1434q0 -151 90.5 -239t223.5 -88h396q36 0 62 -25.5t26 -61.5v-17q0 -51 -25 -80t-63 -29h-396z" />
    <glyph glyph-name="uniFBB1" unicode="&#x6d3;" horiz-adv-x="1812" arabic-form="final" 
d="M131 436q-57 0 -81.5 40t-4 80.5t72.5 40.5h56q-39 64 -42 126.5t22 108.5t69.5 78t96.5 41.5t108 -8t99 -63.5q17 -19 16.5 -47.5t-15.5 -48t-40 -25.5t-57 21q-46 40 -103 26.5t-67 -70.5q-6 -37 3.5 -65.5t28.5 -43.5t37.5 -22.5t35.5 -7.5h78q39 0 61 -25t22 -55.5
t-22 -55.5t-61 -25h-313zM754 -540q-117 0 -205 20.5t-164.5 72.5t-125 137.5t-75.5 218.5t-27 313l1717 9v-231h-1434q0 -151 90.5 -239t223.5 -88h396q36 0 62 -25.5t26 -61.5v-17q0 -51 -25 -80t-63 -29h-396z" />
    <glyph glyph-name="uniFBFD" unicode="&#x6cc;" horiz-adv-x="1729" arabic-form="final" 
d="M1773 231v-231h-204q-28 -133 -93.5 -244.5t-161.5 -193t-225.5 -127t-278.5 -45.5q-172 0 -315 66t-233 185.5t-121.5 285t20.5 365.5q19 72 87 100q60 25 103 -2q48 -30 28 -98q-40 -142 -32.5 -254.5t46 -195.5t105.5 -138.5t146 -84.5t166 -33q88 -5 172 19.5
t156.5 75t127.5 134t80 189.5q-102 13 -174 61.5t-100 130.5q-25 68 17.5 115.5t107 38t93.5 -79.5q11 -29 28.5 -34t84.5 -5h31h339z" />
    <glyph glyph-name="uniFBFE" unicode="&#x6cc;" horiz-adv-x="854" arabic-form="initial" 
d="M-44 231h441q60 0 99.5 44.5t39.5 121.5v596q0 42 24 71.5t58 36.5t67.5 0t57.5 -37t24 -75v-601q0 -183 -98 -285.5t-272 -102.5h-441v231zM122 -370v69q0 54 36.5 85.5t81 32t81 -30.5t36.5 -87v-69q0 -56 -36.5 -87.5t-81 -31.5t-81 31.5t-36.5 87.5zM427 -370v69
q0 54 36.5 85.5t81 32t81 -30.5t36.5 -87v-69q0 -56 -36.5 -87.5t-81 -31.5t-81 31.5t-36.5 87.5z" />
    <glyph glyph-name="uniFBFF" unicode="&#x6cc;" horiz-adv-x="1080" arabic-form="medial" 
d="M1081 231l30 -118l-26 -113h-192q-166 0 -252 78q-91 -78 -244 -78h-441v231h441q60 0 99.5 44.5t39.5 121.5v596q0 42 24 71.5t58 36.5t67.5 0t57.5 -37t24 -75v-536q0 -143 21.5 -182.5t104.5 -39.5h188zM270 -336q0 54 36.5 85.5t81 32t81 -30.5t36.5 -87v-69
q0 -56 -36.5 -87.5t-81 -31.5t-81 31.5t-36.5 87.5v69zM575 -336q0 54 36.5 85.5t81 32t81 -30.5t36.5 -87v-69q0 -56 -36.5 -87.5t-81 -31.5t-81 31.5t-36.5 87.5v69z" />
    <glyph glyph-name="uniFE82" unicode="&#x622;" horiz-adv-x="592" arabic-form="final" 
d="M70 1765q-21 -18 -40.5 -21t-32 7.5t-20 26t-6 33t11.5 28.5q41 39 84 52t73.5 7t55.5 -24q36 -27 70 -29t55 11t36 35q16 17 37.5 24t39 2.5t31.5 -15.5t16.5 -29t-6.5 -39q-32 -60 -88.5 -82.5t-125.5 -12.5q-20 3 -46.5 16t-46 23.5t-46 9t-52.5 -22.5zM497 0
q-167 0 -263 82.5t-103 253.5v1159q0 56 36 87.5t79.5 31.5t79.5 -31.5t36 -87.5v-1116q0 -99 45 -123.5t207 -24.5v-231h-117z" />
    <glyph glyph-name="uniFE84" unicode="&#x623;" horiz-adv-x="592" arabic-form="final" 
d="M65 1756q-57 0 -81.5 40t-4 80.5t72.5 40.5h57q-33 55 -40.5 109.5t9 97t46.5 77.5t73.5 52.5t88 21.5t92 -15t84.5 -59q17 -19 16.5 -47.5t-15.5 -48.5t-40 -26t-57 21q-46 40 -103 27t-67 -70q-6 -37 3.5 -66t28 -44t38 -22.5t35.5 -7.5h78q39 0 61 -25t22 -55.5
t-22 -55.5t-61 -25h-314zM497 0q-167 0 -263 82.5t-103 253.5v1159q0 56 36 87.5t79.5 31.5t79.5 -31.5t36 -87.5v-1116q0 -99 45 -123.5t207 -24.5v-231h-117z" />
    <glyph glyph-name="uniFE86" unicode="&#x624;" horiz-adv-x="1363" arabic-form="final" 
d="M471 1368q-57 0 -81.5 40t-4 80.5t72.5 40.5h56q-33 55 -40.5 109.5t9 97t46.5 77.5t73.5 52.5t88 21.5t92 -15t84.5 -59q17 -19 16.5 -47.5t-15.5 -48.5t-40 -26t-57 21q-46 40 -103 27t-67 -70q-6 -37 3.5 -66t28 -44t38 -22.5t35.5 -7.5h78q39 0 61 -25t22 -55.5
t-22 -55.5t-61 -25h-313zM1464 113l-70 -113h-226q-13 -174 -112.5 -274.5t-262.5 -100.5q-36 0 -64 12.5t-42.5 32.5t-21.5 44t-0.5 48.5t20.5 44.5t41.5 32.5t62.5 12.5q123 0 143 148h-191q-321 0 -487.5 149t-166.5 439q0 170 69 307.5t192 216t275 78.5
q258 0 401.5 -152.5t143.5 -427.5v-379h226zM318 588q0 -182 105 -269.5t318 -87.5h191v379q0 186 -71 265t-238 79q-135 0 -220 -101.5t-85 -264.5z" />
    <glyph glyph-name="uniFE88" unicode="&#x625;" horiz-adv-x="592" arabic-form="final" 
d="M497 0q-167 0 -263 82.5t-103 253.5v1159q0 56 36 87.5t79.5 31.5t79.5 -31.5t36 -87.5v-1116q0 -99 45 -123.5t207 -24.5v-231h-117zM144 -732q-57 0 -81.5 40t-4 80.5t72.5 40.5h56q-39 64 -42 126.5t22 108.5t69.5 78t96.5 41.5t108 -8t99 -63.5q17 -19 16.5 -47.5
t-15.5 -48t-40 -25.5t-57 21q-46 40 -102.5 27t-66.5 -70q-11 -70 26.5 -105t77.5 -35h79q39 0 61 -25t22 -55.5t-22 -55.5t-61 -25h-314z" />
    <glyph glyph-name="uniFE8A" unicode="&#x626;" horiz-adv-x="1729" arabic-form="final" 
d="M401 767q39 0 61 -25t22 -55.5t-22 -55.5t-61 -25h-314q-57 0 -81.5 40t-4 80.5t72.5 40.5h57q-39 64 -42 126.5t22 108.5t69.5 78t96.5 41.5t108 -8t99 -63.5q17 -19 16.5 -47.5t-15.5 -48t-40 -25.5t-57 21q-46 40 -103 26.5t-67 -70.5q-6 -37 3.5 -65.5t28 -43.5
t37 -22.5t35.5 -7.5h79zM1773 231v-231h-204q-28 -133 -93.5 -244.5t-161.5 -193t-225.5 -127t-278.5 -45.5q-172 0 -315 66t-233 185.5t-121.5 285t20.5 365.5q19 72 87 100q60 25 103 -2q48 -30 28 -98q-40 -142 -32.5 -254.5t46 -195.5t105.5 -138.5t146 -84.5t166 -33
q88 -5 172 19.5t156.5 75t127.5 134t80 189.5q-102 13 -174 61.5t-100 130.5q-25 68 17.5 115.5t107 38t93.5 -79.5q11 -29 28.5 -34t84.5 -5h31h339z" />
    <glyph glyph-name="uniFE8B" unicode="&#x626;" horiz-adv-x="854" arabic-form="initial" 
d="M414 1277q-57 0 -81.5 40.5t-4 80.5t72.5 40h57q-39 64 -42 126.5t21.5 108.5t69 78t96.5 41.5t108 -8t99 -63.5q17 -19 17 -47.5t-15.5 -48t-40 -25.5t-56.5 21q-46 40 -103 26.5t-67 -70.5q-6 -37 3.5 -65.5t28 -43.5t37 -22.5t35.5 -7.5h79q39 0 61 -25t22 -55.5
t-22 -55.5t-61 -25h-314zM-44 231h441q60 0 99.5 44.5t39.5 121.5v596q0 42 24 71.5t58 36.5t67.5 0t57.5 -37t24 -75v-601q0 -183 -98 -285.5t-272 -102.5h-441v231z" />
    <glyph glyph-name="uniFE8C" unicode="&#x626;" horiz-adv-x="1080" arabic-form="medial" 
d="M497 1277q-57 0 -81.5 40.5t-4 80.5t72.5 40h56q-39 64 -42 126.5t22 108.5t69.5 78t96.5 41.5t108 -8t99 -63.5q17 -19 16.5 -47.5t-15.5 -48t-40 -25.5t-57 21q-46 40 -103 26.5t-67 -70.5q-6 -37 3.5 -65.5t28.5 -43.5t37.5 -22.5t35.5 -7.5h78q39 0 61 -25t22 -55.5
t-22 -55.5t-61 -25h-313zM1081 231l30 -118l-26 -113h-192q-166 0 -252 78q-91 -78 -244 -78h-441v231h441q60 0 99.5 44.5t39.5 121.5v596q0 42 24 71.5t58 36.5t67.5 0t57.5 -37t24 -75v-536q0 -143 21.5 -182.5t104.5 -39.5h188z" />
    <glyph glyph-name="uniFE8E" unicode="&#x627;" horiz-adv-x="592" arabic-form="final" 
d="M497 0q-167 0 -263 82.5t-103 253.5v1159q0 56 36 87.5t79.5 31.5t79.5 -31.5t36 -87.5v-1116q0 -99 45 -123.5t207 -24.5v-231h-117z" />
    <glyph glyph-name="uniFE90" unicode="&#x628;" horiz-adv-x="1699" arabic-form="final" 
d="M1721 231l66 -122l-66 -109h-96q-141 0 -213 78q-86 -78 -240 -78h-714q-171 0 -271 104t-100 284v475q0 54 36 85t79.5 31t79.5 -31t36 -85v-466q-3 -76 38 -121t102 -45h714q60 0 100 44.5t40 121.5v596q0 42 24 71.5t58 36.5t67.5 0t57.5 -37t24 -75v-601v-26
q0 -21 0.5 -35.5t3.5 -28t4 -22.5t8.5 -16.5t11 -12t17 -8t20.5 -5t27.5 -2.5t32 -1h40.5h13zM732 -344q0 54 36.5 85.5t81 32t81 -30.5t36.5 -87v-70q0 -56 -36.5 -87.5t-81 -31.5t-81 31.5t-36.5 87.5v70z" />
    <glyph glyph-name="uniFE91" unicode="&#x628;" horiz-adv-x="854" arabic-form="initial" 
d="M-44 231h441q60 0 99.5 44.5t39.5 121.5v596q0 42 24 71.5t58 36.5t67.5 0t57.5 -37t24 -75v-601q0 -183 -98 -285.5t-272 -102.5h-441v231zM275 -410v70q0 54 36.5 85.5t81 32t81 -30.5t36.5 -87v-70q0 -56 -36.5 -87.5t-81 -31.5t-81 31.5t-36.5 87.5z" />
    <glyph glyph-name="uniFE92" unicode="&#x628;" horiz-adv-x="1080" arabic-form="medial" 
d="M1081 231l30 -118l-26 -113h-192q-166 0 -252 78q-91 -78 -244 -78h-441v231h441q60 0 99.5 44.5t39.5 121.5v596q0 42 24 71.5t58 36.5t67.5 0t57.5 -37t24 -75v-536q0 -143 21.5 -182.5t104.5 -39.5h188zM423 -375q0 54 36.5 85.5t81 32t81 -30.5t36.5 -87v-69
q0 -56 -36.5 -87.5t-81 -31.5t-81 31.5t-36.5 87.5v69z" />
    <glyph glyph-name="uniFE94" unicode="&#x629;" horiz-adv-x="1459" arabic-form="final" 
d="M418 1451v70q0 54 37 85.5t81 32t81 -30.5t37 -87v-70q0 -56 -37 -87.5t-81 -31.5t-81 31.5t-37 87.5zM723 1451v70q0 54 37 85.5t81 32t81 -30.5t37 -87v-70q0 -56 -37 -87.5t-81 -31.5t-81 31.5t-37 87.5zM87 580v4q0 125 47 237.5t127 193.5t191.5 128t235.5 47
q122 0 232 -46.5t189 -126.5t125.5 -192t46.5 -237v-357h183l31 -122l-31 -109h-863q-135 0 -254 80t-189.5 214t-70.5 286zM318 584q0 -84 38.5 -166t98.5 -132.5t120 -50.5h475v353q0 160 -106.5 267.5t-263.5 107.5q-153 0 -257.5 -109t-104.5 -266v-4z" />
    <glyph glyph-name="uniFE96" unicode="&#x62a;" horiz-adv-x="1699" arabic-form="final" 
d="M741 1394q0 -56 -37 -87.5t-81 -31.5t-81 31.5t-37 87.5v70q0 54 37 85.5t81 32t81 -30.5t37 -87v-70zM1046 1394q0 -56 -37 -87.5t-81 -31.5t-81 31.5t-37 87.5v70q0 54 37 85.5t81 32t81 -30.5t37 -87v-70zM1721 231l66 -122l-66 -109h-96q-141 0 -213 78
q-86 -78 -240 -78h-714q-171 0 -271 104t-100 284v475q0 54 36 85t79.5 31t79.5 -31t36 -85v-466q-3 -76 38 -121t102 -45h714q60 0 100 44.5t40 121.5v596q0 42 24 71.5t58 36.5t67.5 0t57.5 -37t24 -75v-601v-26q0 -21 0.5 -35.5t3.5 -28t4 -22.5t8.5 -16.5t11 -12t17 -8
t20.5 -5t27.5 -2.5t32 -1h40.5h13z" />
    <glyph glyph-name="uniFE97" unicode="&#x62a;" horiz-adv-x="854" arabic-form="initial" 
d="M305 1394v70q0 54 36.5 85.5t81 32t81 -30.5t36.5 -87v-70q0 -56 -36.5 -87.5t-81 -31.5t-81 31.5t-36.5 87.5zM610 1394v70q0 54 36.5 85.5t81 32t81 -30.5t36.5 -87v-70q0 -56 -36.5 -87.5t-81 -31.5t-81 31.5t-36.5 87.5zM-44 231h441q60 0 99.5 44.5t39.5 121.5v596
q0 42 24 71.5t58 36.5t67.5 0t57.5 -37t24 -75v-601q0 -183 -98 -285.5t-272 -102.5h-441v231z" />
    <glyph glyph-name="uniFE98" unicode="&#x62a;" horiz-adv-x="1080" arabic-form="medial" 
d="M623 1394q0 -56 -36.5 -87.5t-81 -31.5t-81 31.5t-36.5 87.5v70q0 54 36.5 85.5t81 32t81 -30.5t36.5 -87v-70zM928 1394q0 -56 -36.5 -87.5t-81 -31.5t-81 31.5t-36.5 87.5v70q0 54 36.5 85.5t81 32t81 -30.5t36.5 -87v-70zM1081 231l30 -118l-26 -113h-192
q-166 0 -252 78q-91 -78 -244 -78h-441v231h441q60 0 99.5 44.5t39.5 121.5v596q0 42 24 71.5t58 36.5t67.5 0t57.5 -37t24 -75v-536q0 -143 21.5 -182.5t104.5 -39.5h188z" />
    <glyph glyph-name="uniFE9A" unicode="&#x62b;" horiz-adv-x="1699" arabic-form="final" 
d="M893 1787q0 -56 -36.5 -87.5t-81 -31.5t-81 31.5t-36.5 87.5v69q0 54 36.5 85.5t81 32t81 -30.5t36.5 -87v-69zM741 1394q0 -56 -37 -87.5t-81 -31.5t-81 31.5t-37 87.5v70q0 54 37 85.5t81 32t81 -30.5t37 -87v-70zM810 1464q0 54 37 85.5t81 32t81 -30.5t37 -87v-70
q0 -56 -37 -87.5t-81 -31.5t-81 31.5t-37 87.5v70zM1721 231l66 -122l-66 -109h-96q-141 0 -213 78q-86 -78 -240 -78h-714q-171 0 -271 104t-100 284v475q0 54 36 85t79.5 31t79.5 -31t36 -85v-466q-3 -76 38 -121t102 -45h714q60 0 100 44.5t40 121.5v596q0 42 24 71.5
t58 36.5t67.5 0t57.5 -37t24 -75v-601v-26q0 -21 0.5 -35.5t3.5 -28t4 -22.5t8.5 -16.5t11 -12t17 -8t20.5 -5t27.5 -2.5t32 -1h40.5h13z" />
    <glyph glyph-name="uniFE9B" unicode="&#x62b;" horiz-adv-x="854" arabic-form="initial" 
d="M458 1787v69q0 54 36.5 85.5t81 32t81 -30.5t36.5 -87v-69q0 -56 -36.5 -87.5t-81 -31.5t-81 31.5t-36.5 87.5zM305 1394v70q0 54 36.5 85.5t81 32t81 -30.5t36.5 -87v-70q0 -56 -36.5 -87.5t-81 -31.5t-81 31.5t-36.5 87.5zM610 1394v70q0 54 36.5 85.5t81 32t81 -30.5
t36.5 -87v-70q0 -56 -36.5 -87.5t-81 -31.5t-81 31.5t-36.5 87.5zM-44 231h441q60 0 99.5 44.5t39.5 121.5v596q0 42 24 71.5t58 36.5t67.5 0t57.5 -37t24 -75v-601q0 -183 -98 -285.5t-272 -102.5h-441v231z" />
    <glyph glyph-name="uniFE9C" unicode="&#x62b;" horiz-adv-x="1080" arabic-form="medial" 
d="M776 1787q0 -56 -37 -87.5t-81 -31.5t-81 31.5t-37 87.5v69q0 54 37 85.5t81 32t81 -30.5t37 -87v-69zM623 1394q0 -56 -36.5 -87.5t-81 -31.5t-81 31.5t-36.5 87.5v70q0 54 36.5 85.5t81 32t81 -30.5t36.5 -87v-70zM693 1464q0 54 36.5 85.5t81 32t81 -30.5t36.5 -87
v-70q0 -56 -36.5 -87.5t-81 -31.5t-81 31.5t-36.5 87.5v70zM1081 231l30 -118l-26 -113h-192q-166 0 -252 78q-91 -78 -244 -78h-441v231h441q60 0 99.5 44.5t39.5 121.5v596q0 42 24 71.5t58 36.5t67.5 0t57.5 -37t24 -75v-536q0 -143 21.5 -182.5t104.5 -39.5h188z" />
    <glyph glyph-name="uniFE9E" unicode="&#x62c;" horiz-adv-x="1834" arabic-form="final" 
d="M1856 231l31 -118l-26 -113h-192q-75 0 -126 13v-13h-1077q-69 0 -110.5 -52t-41.5 -140q0 -94 66 -160t160 -66q49 0 83 -37.5t31 -89.5q-7 -43 -41 -71.5t-77 -28.5q-122 0 -225.5 61t-163.5 165.5t-60 226.5q0 185 123.5 312t294.5 111h802v231q0 244 -118 370.5
t-339 126.5q-105 0 -188 -35.5t-161 -113.5q-28 -28 -63 -33t-62 11.5t-45 42t-15.5 59t28.5 60.5q78 107 223 173.5t296 66.5q309 0 494.5 -192.5t185.5 -518.5v-26q0 -143 21.5 -182.5t104.5 -39.5h187zM998 -253q0 54 36.5 85.5t81 32t81 -30.5t36.5 -87v-69
q0 -56 -36.5 -87.5t-81 -31.5t-81 31.5t-36.5 87.5v69z" />
    <glyph glyph-name="uniFE9F" unicode="&#x62c;" horiz-adv-x="1542" arabic-form="initial" 
d="M776 1190q310 0 494.5 -196t184.5 -523v-471h-1477l-22 113l22 118h1246v222q0 245 -119.5 375.5t-341.5 130.5q-205 0 -340 -149q-36 -36 -82 -36.5t-78 29.5t-32 77q0 13 9.5 40t16.5 30q207 240 519 240zM728 -340q0 54 36.5 85.5t81 32t81 -30.5t36.5 -87v-70
q0 -56 -36.5 -87.5t-81 -31.5t-81 31.5t-36.5 87.5v70z" />
    <glyph glyph-name="uniFEA0" unicode="&#x62c;" horiz-adv-x="1551" arabic-form="medial" 
d="M1455 231h140l-5 -231h-1612l-22 113l22 118h1246v222q0 245 -119.5 375.5t-341.5 130.5q-205 0 -340 -149q-36 -36 -82 -36.5t-78 29.5t-32 77q0 13 9.5 40t16.5 30q207 240 519 240q310 0 494.5 -196t184.5 -523v-240zM728 -340q0 54 36.5 85.5t81 32t81 -30.5
t36.5 -87v-70q0 -56 -36.5 -87.5t-81 -31.5t-81 31.5t-36.5 87.5v70z" />
    <glyph glyph-name="uniFEA2" unicode="&#x62d;" horiz-adv-x="1760" arabic-form="final" 
d="M1543 231h261l-4 -231h-1334q-69 0 -110.5 -52t-41.5 -140q0 -94 66 -160t160 -66q49 0 83 -37.5t31 -89.5q-7 -43 -41 -71.5t-77 -28.5q-122 0 -225.5 61t-163.5 165.5t-60 226.5q0 185 123.5 312t294.5 111h802v231q0 244 -118 370.5t-339 126.5q-105 0 -188 -35.5
t-161 -113.5q-28 -28 -63 -33t-62 11.5t-45 42t-15.5 59t28.5 60.5q78 107 223 173.5t296 66.5q309 0 494.5 -192.5t185.5 -518.5v-248z" />
    <glyph glyph-name="uniFEA3" unicode="&#x62d;" horiz-adv-x="1542" arabic-form="initial" 
d="M776 1190q310 0 494.5 -196t184.5 -523v-471h-1477l-22 113l22 118h1246v222q0 245 -119.5 375.5t-341.5 130.5q-205 0 -340 -149q-36 -36 -82 -36.5t-78 29.5t-32 77q0 13 9.5 40t16.5 30q207 240 519 240z" />
    <glyph glyph-name="uniFEA4" unicode="&#x62d;" horiz-adv-x="1577" arabic-form="medial" 
d="M1438 231h183l-4 -231h-1656l-22 113l22 118h1246v222q0 245 -120 375.5t-342 130.5q-205 0 -340 -149q-36 -36 -81.5 -36.5t-77.5 29.5t-32 77q0 13 9.5 40t16.5 30q207 240 518 240q310 0 495 -196t185 -523v-240z" />
    <glyph glyph-name="uniFEA6" unicode="&#x62e;" horiz-adv-x="1760" arabic-form="final" 
d="M1028 1560q0 -56 -36.5 -87.5t-81 -31.5t-81 31.5t-36.5 87.5v70q0 54 36.5 85.5t81 32t81 -30.5t36.5 -87v-70zM1543 231h261l-4 -231h-1334q-69 0 -110.5 -52t-41.5 -140q0 -94 66 -160t160 -66q49 0 83 -37.5t31 -89.5q-7 -43 -41 -71.5t-77 -28.5q-122 0 -225.5 61
t-163.5 165.5t-60 226.5q0 185 123.5 312t294.5 111h802v231q0 244 -118 370.5t-339 126.5q-105 0 -188 -35.5t-161 -113.5q-28 -28 -63 -33t-62 11.5t-45 42t-15.5 59t28.5 60.5q78 107 223 173.5t296 66.5q309 0 494.5 -192.5t185.5 -518.5v-248z" />
    <glyph glyph-name="uniFEA7" unicode="&#x62e;" horiz-adv-x="1542" arabic-form="initial" 
d="M893 1512q0 -56 -36.5 -87.5t-81 -31.5t-81 31.5t-36.5 87.5v70q0 54 36.5 85.5t81 32t81 -30.5t36.5 -87v-70zM776 1190q310 0 494.5 -196t184.5 -523v-471h-1477l-22 113l22 118h1246v222q0 245 -119.5 375.5t-341.5 130.5q-205 0 -340 -149q-36 -36 -82 -36.5
t-78 29.5t-32 77q0 13 9.5 40t16.5 30q207 240 519 240z" />
    <glyph glyph-name="uniFEA8" unicode="&#x62e;" horiz-adv-x="1577" arabic-form="medial" 
d="M824 1512q0 -56 -37 -87.5t-81 -31.5t-81 31.5t-37 87.5v70q0 54 37 85.5t81 32t81 -30.5t37 -87v-70zM1438 231h183l-4 -231h-1656l-22 113l22 118h1246v222q0 245 -120 375.5t-342 130.5q-205 0 -340 -149q-36 -36 -81.5 -36.5t-77.5 29.5t-32 77q0 13 9.5 40t16.5 30
q207 240 518 240q310 0 495 -196t185 -523v-240z" />
    <glyph glyph-name="uniFEAA" unicode="&#x62f;" horiz-adv-x="1246" arabic-form="final" 
d="M989 231h301l-5 -231h-1085q-42 0 -71.5 24t-36.5 58t-0.5 67.5t35.5 57.5t73 24h554v235q0 219 -103.5 348t-293.5 145q-46 7 -75 39t-29 78q0 53 37.5 87t92.5 27q179 -11 317 -105t213.5 -255t75.5 -364v-235z" />
    <glyph glyph-name="uniFEAC" unicode="&#x630;" horiz-adv-x="1115" arabic-form="final" 
d="M501 1529q0 -56 -36.5 -87.5t-81 -31.5t-81 31.5t-36.5 87.5v70q0 54 36.5 85.5t81 32t81 -30.5t36.5 -87v-70zM1333 231l-4 -231h-1129q-42 0 -71.5 24t-36.5 58t-0.5 67.5t35.5 57.5t73 24h554v235q0 219 -103.5 348t-293.5 145q-46 7 -75 39t-29 78q0 53 37.5 87
t92.5 27q179 -11 317 -105t213.5 -255t75.5 -364v-235h344z" />
    <glyph glyph-name="uniFEAE" unicode="&#x631;" horiz-adv-x="897" arabic-form="final" 
d="M911 231l52 -109l-52 -122h-183q-96 0 -179 35q-3 -190 -104 -300t-271 -110q-36 0 -64 12.5t-42.5 32.5t-21.5 44t-0.5 48.5t20.5 44.5t41.5 32.5t62.5 12.5q69 0 106.5 47.5t37.5 135.5v967q0 54 36.5 85.5t81 32t81 -30.5t36.5 -87v-562q1 -63 19 -107.5t46.5 -65
t55.5 -28.5t58 -8h183z" />
    <glyph glyph-name="uniFEB0" unicode="&#x632;" horiz-adv-x="897" arabic-form="final" 
d="M549 1394q0 -56 -36.5 -87.5t-81 -31.5t-81 31.5t-36.5 87.5v70q0 54 36.5 85.5t81 32t81 -30.5t36.5 -87v-70zM911 231l52 -109l-52 -122h-183q-96 0 -179 35q-3 -190 -104 -300t-271 -110q-36 0 -64 12.5t-42.5 32.5t-21.5 44t-0.5 48.5t20.5 44.5t41.5 32.5t62.5 12.5
q69 0 106.5 47.5t37.5 135.5v967q0 54 36.5 85.5t81 32t81 -30.5t36.5 -87v-562q1 -63 19 -107.5t46.5 -65t55.5 -28.5t58 -8h183z" />
    <glyph glyph-name="uniFEB2" unicode="&#x633;" horiz-adv-x="2827" arabic-form="final" 
d="M2858 231l31 -118l-26 -113h-192q-204 0 -283 118q-156 -132 -510 -118v92q-149 -92 -436 -92h-74q-86 -177 -245.5 -274.5t-342.5 -100.5q-104 -3 -204 25t-188.5 88t-155.5 146.5t-106 209.5t-39 268l79 636q8 72 68 95t113 -14.5t45 -111.5l-74 -605
q-28 -229 97.5 -359.5t351.5 -137.5q222 7 331 151.5t109 414.5v449q0 52 36.5 82t81 30t81 -30t36.5 -82v-649q132 0 212.5 14.5t131 53.5t69.5 99t23 160v510q0 42 23.5 71t57 35.5t66.5 0t56.5 -35.5t23.5 -71v-393q6 -70 0 -135v-309q118 -3 172 106t54 330v457
q0 51 35.5 80t78 29t78 -29t35.5 -80v-457q0 -120 -13 -214q0 -143 21.5 -182.5t104.5 -39.5h187z" />
    <glyph glyph-name="uniFEB3" unicode="&#x633;" horiz-adv-x="1695" arabic-form="initial" 
d="M1377 1081q0 51 35.5 80t78 29t78 -29t35.5 -80v-414q0 -196 -35 -324t-117.5 -208t-209.5 -110.5t-318 -24.5v92q-158 -92 -436 -92h-235v39q-91 -39 -196 -39h-101l-48 126l48 105h101q24 0 47 4t50.5 17t48 34.5t35 60t15.5 89.5v444q0 52 36.5 82t81 30t81 -30
t36.5 -82v-427v-52v-170q101 0 167.5 8t118 27.5t81 56t46 88t23.5 129.5v484q0 42 23.5 71t56.5 35.5t66 0t56.5 -35.5t23.5 -71v-349v-65v-379q124 0 175.5 106t51.5 330v414z" />
    <glyph glyph-name="uniFEB4" unicode="&#x633;" horiz-adv-x="1817" arabic-form="medial" 
d="M1817 231l44 -113l-44 -118h-44q-225 0 -326 126q-147 -140 -519 -126v92q-158 -92 -436 -92h-235v39q-91 -39 -196 -39h-100l-48 126l48 105h100q24 0 47 4t50.5 17t48 34.5t35 60t15.5 89.5v444q0 52 36.5 82t81 30t81 -30t36.5 -82v-427v-52v-170q101 0 167.5 8
t118 27.5t81 56t46 88t23.5 129.5v484q0 42 23.5 71t57 35.5t66.5 0t56.5 -35.5t23.5 -71v-349v-65v-379q124 0 175 106t51 330v414q0 51 35.5 80t78 29t78 -29t35.5 -80v-628q0 -222 165 -222h44z" />
    <glyph glyph-name="uniFEB6" unicode="&#x634;" horiz-adv-x="2827" arabic-form="final" 
d="M2122 1787q0 -56 -36.5 -87.5t-81 -31.5t-81 31.5t-36.5 87.5v69q0 54 36.5 85.5t81 32t81 -30.5t36.5 -87v-69zM1970 1394q0 -56 -37 -87.5t-81 -31.5t-81 31.5t-37 87.5v70q0 54 37 85.5t81 32t81 -30.5t37 -87v-70zM2039 1464q0 54 37 85.5t81 32t81 -30.5t37 -87v-70
q0 -56 -37 -87.5t-81 -31.5t-81 31.5t-37 87.5v70zM2858 231l31 -118l-26 -113h-192q-204 0 -283 118q-156 -132 -510 -118v92q-149 -92 -436 -92h-74q-86 -177 -245.5 -274.5t-342.5 -100.5q-104 -3 -204 25t-188.5 88t-155.5 146.5t-106 209.5t-39 268l79 636q8 72 68 95
t113 -14.5t45 -111.5l-74 -605q-28 -229 97.5 -359.5t351.5 -137.5q222 7 331 151.5t109 414.5v449q0 52 36.5 82t81 30t81 -30t36.5 -82v-649q132 0 212.5 14.5t131 53.5t69.5 99t23 160v510q0 42 23.5 71t57 35.5t66.5 0t56.5 -35.5t23.5 -71v-393q6 -70 0 -135v-309
q118 -3 172 106t54 330v457q0 51 35.5 80t78 29t78 -29t35.5 -80v-457q0 -120 -13 -214q0 -143 21.5 -182.5t104.5 -39.5h187z" />
    <glyph glyph-name="uniFEB7" unicode="&#x634;" horiz-adv-x="1695" arabic-form="initial" 
d="M1146 1795q0 -56 -36.5 -87.5t-81 -31.5t-81 31.5t-36.5 87.5v70q0 54 36.5 85.5t81 32t81 -30.5t36.5 -87v-70zM993 1403q0 -56 -36.5 -87.5t-81 -31.5t-81 31.5t-36.5 87.5v70q0 54 36.5 85.5t81 32t81 -30.5t36.5 -87v-70zM1063 1473q0 54 37 85.5t81 32t81 -30.5
t37 -87v-70q0 -56 -37 -87.5t-81 -31.5t-81 31.5t-37 87.5v70zM1377 1081q0 51 35.5 80t78 29t78 -29t35.5 -80v-414q0 -196 -35 -324t-117.5 -208t-209.5 -110.5t-318 -24.5v92q-158 -92 -436 -92h-235v39q-91 -39 -196 -39h-101l-48 126l48 105h101q24 0 47 4t50.5 17
t48 34.5t35 60t15.5 89.5v444q0 52 36.5 82t81 30t81 -30t36.5 -82v-427v-52v-170q101 0 167.5 8t118 27.5t81 56t46 88t23.5 129.5v484q0 42 23.5 71t56.5 35.5t66 0t56.5 -35.5t23.5 -71v-349v-65v-379q124 0 175.5 106t51.5 330v414z" />
    <glyph glyph-name="uniFEB8" unicode="&#x634;" horiz-adv-x="1817" arabic-form="medial" 
d="M1146 1795q0 -56 -36.5 -87.5t-81 -31.5t-81 31.5t-36.5 87.5v70q0 54 36.5 85.5t81 32t81 -30.5t36.5 -87v-70zM993 1403q0 -56 -36.5 -87.5t-81 -31.5t-81 31.5t-36.5 87.5v70q0 54 36.5 85.5t81 32t81 -30.5t36.5 -87v-70zM1063 1473q0 54 37 85.5t81 32t81 -30.5
t37 -87v-70q0 -56 -37 -87.5t-81 -31.5t-81 31.5t-37 87.5v70zM1817 231l44 -113l-44 -118h-44q-225 0 -326 126q-147 -140 -519 -126v92q-158 -92 -436 -92h-235v39q-91 -39 -196 -39h-100l-48 126l48 105h100q24 0 47 4t50.5 17t48 34.5t35 60t15.5 89.5v444q0 52 36.5 82
t81 30t81 -30t36.5 -82v-427v-52v-170q101 0 167.5 8t118 27.5t81 56t46 88t23.5 129.5v484q0 42 23.5 71t57 35.5t66.5 0t56.5 -35.5t23.5 -71v-349v-65v-379q124 0 175 106t51 330v414q0 51 35.5 80t78 29t78 -29t35.5 -80v-628q0 -222 165 -222h44z" />
    <glyph glyph-name="uniFEBA" unicode="&#x635;" horiz-adv-x="2915" arabic-form="final" 
d="M2928 231l31 -118l-26 -113h-192q-167 0 -253 78q-92 -78 -240 -78h-897q-86 -178 -240 -275t-335 -100q-104 -3 -204 25t-188.5 88t-155.5 146.5t-106 209.5t-39 268l78 636q8 72 68 95t113.5 -14.5t45.5 -111.5l-74 -605q-28 -228 101 -359t356 -138q436 13 436 566
v562q0 41 23 70t56 36.5t66.5 2t58 -33.5t27.5 -70q91 88 225.5 140t271.5 52q307 0 495.5 -200.5t188.5 -527.5v-83v-26q3 -73 29 -97.5t93 -24.5h187zM2384 383v79q0 102 -34 188t-90.5 144t-131 95.5t-155 50t-163 1t-154.5 -46.5t-130 -98t-88 -147v-248q0 -72 -17 -170
h819q144 6 144 152z" />
    <glyph glyph-name="uniFEBB" unicode="&#x635;" horiz-adv-x="1668" arabic-form="initial" 
d="M898 1190q307 0 495.5 -200.5t188.5 -527.5v-83q-7 -176 -107 -277.5t-264 -101.5h-1237l-61 109l56 122h201v762q0 41 23 70t56 36.5t66.5 2t58 -33.5t27.5 -70q91 88 225.5 140t271.5 52zM1346 383v79q0 104 -32.5 192t-86.5 147.5t-126 97.5t-150.5 50.5t-160.5 -1
t-155 -51t-135 -104.5t-99 -157v-405h802q143 6 143 152z" />
    <glyph glyph-name="uniFEBC" unicode="&#x635;" horiz-adv-x="1882" arabic-form="medial" 
d="M1895 231l31 -118l-26 -113h-192q-177 0 -253 83q-104 -83 -244 -83h-1237l-61 109l56 122h201v762q0 41 23 70t56 36.5t66.5 2t58 -33.5t27.5 -70q91 88 225.5 140t271.5 52q307 0 495.5 -200.5t188.5 -527.5v-9q0 -143 21.5 -182.5t104.5 -39.5h187zM1346 383v79
q0 104 -32.5 192t-86.5 147.5t-126 97.5t-150.5 50.5t-160.5 -1t-155 -51t-135 -104.5t-99 -157v-405h802q143 6 143 152z" />
    <glyph glyph-name="uniFEBE" unicode="&#x636;" horiz-adv-x="2915" arabic-form="final" 
d="M2052 1394q0 -56 -36.5 -87.5t-81 -31.5t-81 31.5t-36.5 87.5v70q0 54 36.5 85.5t81 32t81 -30.5t36.5 -87v-70zM2928 231l31 -118l-26 -113h-192q-167 0 -253 78q-92 -78 -240 -78h-897q-86 -178 -240 -275t-335 -100q-104 -3 -204 25t-188.5 88t-155.5 146.5
t-106 209.5t-39 268l78 636q8 72 68 95t113.5 -14.5t45.5 -111.5l-74 -605q-28 -228 101 -359t356 -138q436 13 436 566v562q0 41 23 70t56 36.5t66.5 2t58 -33.5t27.5 -70q91 88 225.5 140t271.5 52q307 0 495.5 -200.5t188.5 -527.5v-83v-26q3 -73 29 -97.5t93 -24.5h187z
M2384 383v79q0 102 -34 188t-90.5 144t-131 95.5t-155 50t-163 1t-154.5 -46.5t-130 -98t-88 -147v-248q0 -72 -17 -170h819q144 6 144 152z" />
    <glyph glyph-name="uniFEBF" unicode="&#x636;" horiz-adv-x="1668" arabic-form="initial" 
d="M1015 1394q0 -56 -36.5 -87.5t-81 -31.5t-81 31.5t-36.5 87.5v70q0 54 36.5 85.5t81 32t81 -30.5t36.5 -87v-70zM898 1190q307 0 495.5 -200.5t188.5 -527.5v-83q-7 -176 -107 -277.5t-264 -101.5h-1237l-61 109l56 122h201v762q0 41 23 70t56 36.5t66.5 2t58 -33.5
t27.5 -70q91 88 225.5 140t271.5 52zM1346 383v79q0 104 -32.5 192t-86.5 147.5t-126 97.5t-150.5 50.5t-160.5 -1t-155 -51t-135 -104.5t-99 -157v-405h802q143 6 143 152z" />
    <glyph glyph-name="uniFEC0" unicode="&#x636;" horiz-adv-x="1882" arabic-form="medial" 
d="M1015 1394q0 -56 -36.5 -87.5t-81 -31.5t-81 31.5t-36.5 87.5v70q0 54 36.5 85.5t81 32t81 -30.5t36.5 -87v-70zM1895 231l31 -118l-26 -113h-192q-177 0 -253 83q-104 -83 -244 -83h-1237l-61 109l56 122h201v762q0 41 23 70t56 36.5t66.5 2t58 -33.5t27.5 -70
q91 88 225.5 140t271.5 52q307 0 495.5 -200.5t188.5 -527.5v-9q0 -143 21.5 -182.5t104.5 -39.5h187zM1346 383v79q0 104 -32.5 192t-86.5 147.5t-126 97.5t-150.5 50.5t-160.5 -1t-155 -51t-135 -104.5t-99 -157v-405h802q143 6 143 152z" />
    <glyph glyph-name="uniFEC2" unicode="&#x637;" horiz-adv-x="2152" arabic-form="final" 
d="M2166 231l30 -118l-26 -113h-192q-174 0 -252 78q-97 -78 -244 -78h-1395l-43 231h392v1390q0 56 36.5 87.5t81 31.5t81 -31.5t36.5 -87.5v-649q185 218 497 218q307 0 495.5 -200.5t188.5 -527.5v-9q0 -143 21.5 -182.5t104.5 -39.5h188zM1617 383v79q0 140 -53 248.5
t-135.5 168t-186.5 78t-203.5 -8t-189 -105t-139.5 -198.5q-39 -98 -39 -414h802q70 0 107 39t37 113z" />
    <glyph glyph-name="uniFEC3" unicode="&#x637;" horiz-adv-x="1834" arabic-form="initial" 
d="M1020 1190q307 0 495.5 -200.5t188.5 -527.5v-83q0 -174 -102.5 -276.5t-268.5 -102.5h-1394l-44 231h393v1390q0 56 36.5 87.5t81 31.5t81 -31.5t36.5 -87.5v-649q185 218 497 218zM1468 383v79q0 140 -53 248.5t-135.5 168t-186.5 78t-203 -8t-188.5 -105
t-139.5 -198.5q-39 -98 -39 -414h802q69 0 106 38.5t37 113.5z" />
    <glyph glyph-name="uniFEC4" unicode="&#x637;" horiz-adv-x="2065" arabic-form="medial" 
d="M2079 231l30 -118l-26 -113h-192q-175 0 -253 78q-98 -78 -244 -78h-1394l-44 231h393v1390q0 56 36.5 87.5t81 31.5t81 -31.5t36.5 -87.5v-649q185 218 497 218q307 0 495.5 -200.5t188.5 -527.5v-9q0 -143 21.5 -182.5t104.5 -39.5h188zM1529 383v79q0 140 -53 248.5
t-135.5 168t-186.5 78t-203 -8t-188.5 -105t-139.5 -198.5q-39 -98 -39 -414h802q69 0 106 38.5t37 113.5z" />
    <glyph glyph-name="uniFEC6" unicode="&#x638;" horiz-adv-x="2152" arabic-form="final" 
d="M2166 231l30 -118l-26 -113h-192q-174 0 -252 78q-97 -78 -244 -78h-1395l-43 231h392v1390q0 56 36.5 87.5t81 31.5t81 -31.5t36.5 -87.5v-649q185 218 497 218q307 0 495.5 -200.5t188.5 -527.5v-9q0 -143 21.5 -182.5t104.5 -39.5h188zM1285 1394q0 -56 -36.5 -87.5
t-81 -31.5t-81 31.5t-36.5 87.5v70q0 54 36.5 85.5t81 32t81 -30.5t36.5 -87v-70zM1617 383v79q0 140 -53 248.5t-135.5 168t-186.5 78t-203.5 -8t-189 -105t-139.5 -198.5q-39 -98 -39 -414h802q70 0 107 39t37 113z" />
    <glyph glyph-name="uniFEC7" unicode="&#x638;" horiz-adv-x="1834" arabic-form="initial" 
d="M1020 1190q307 0 495.5 -200.5t188.5 -527.5v-83q0 -174 -102.5 -276.5t-268.5 -102.5h-1394l-44 231h393v1390q0 56 36.5 87.5t81 31.5t81 -31.5t36.5 -87.5v-649q185 218 497 218zM1116 1460q0 -56 -37 -87.5t-81 -31.5t-81 31.5t-37 87.5v69q0 54 37 85.5t81 32
t81 -30.5t37 -87v-69zM1468 383v79q0 140 -53 248.5t-135.5 168t-186.5 78t-203 -8t-188.5 -105t-139.5 -198.5q-39 -98 -39 -414h802q69 0 106 38.5t37 113.5z" />
    <glyph glyph-name="uniFEC8" unicode="&#x638;" horiz-adv-x="2065" arabic-form="medial" 
d="M2079 231l30 -118l-26 -113h-192q-175 0 -253 78q-98 -78 -244 -78h-1394l-44 231h393v1390q0 56 36.5 87.5t81 31.5t81 -31.5t36.5 -87.5v-649q185 218 497 218q307 0 495.5 -200.5t188.5 -527.5v-9q0 -143 21.5 -182.5t104.5 -39.5h188zM1198 1394q0 -56 -36.5 -87.5
t-81 -31.5t-81 31.5t-36.5 87.5v70q0 54 36.5 85.5t81 32t81 -30.5t36.5 -87v-70zM1529 383v79q0 140 -53 248.5t-135.5 168t-186.5 78t-203 -8t-188.5 -105t-139.5 -198.5q-39 -98 -39 -414h802q69 0 106 38.5t37 113.5z" />
    <glyph glyph-name="uniFECA" unicode="&#x639;" horiz-adv-x="1756" arabic-form="final" 
d="M1787 231l74 -118l-70 -113h-61q-389 0 -758 244q-70 -29 -164 -61t-158.5 -52t-134 -50t-111 -60t-68.5 -76.5t-27 -105.5q0 -72 14.5 -118.5t45 -70.5t67 -33t91.5 -9h31q48 0 75 -34t27 -75t-27 -75t-75 -34h-31q-196 0 -318 124.5t-122 324.5q0 73 16.5 132.5
t43.5 101.5t71.5 77.5t89.5 58t109.5 45.5t119.5 38.5t131.5 38.5t133.5 44q-330 271 -588 693q-31 49 -14 82q21 35 79 35h889q328 0 414.5 -115t-48.5 -347q-123 -216 -331 -357q237 -135 523 -135h61zM562 963q132 -161 243 -277.5t223 -201.5q163 100 279 257
q32 44 49.5 76.5t22 61t-10 46.5t-50 28t-94.5 10h-662z" />
    <glyph glyph-name="uniFECB" unicode="&#x639;" horiz-adv-x="1363" arabic-form="initial" 
d="M1198 231q52 0 82 -36t30 -79.5t-30 -79.5t-82 -36h-1224l-61 109l56 122h380q-18 84 -18 231q0 330 188 529t501 199h96q57 0 89.5 -36t32.5 -79.5t-32.5 -79.5t-89.5 -36h-96q-216 0 -336.5 -132.5t-117.5 -364.5q1 -43 1 -63t2.5 -49t3 -40t6 -28.5t7.5 -22t12.5 -13
t16.5 -9.5t23 -3.5t28 -2.5h36h496z" />
    <glyph glyph-name="uniFECC" unicode="&#x639;" horiz-adv-x="1394" arabic-form="medial" 
d="M1421 231l69 -118l-69 -113h-105q-332 0 -610 161q-304 -161 -628 -161h-91l-79 113l70 118h100q68 0 115 2.5t138.5 20t173.5 51.5q-80 69 -151 149.5t-128.5 168t-91 143.5t-77 139.5t-48.5 92.5q-37 65 -5 122q12 32 41.5 48.5t67.5 16.5h802q98 0 179 -30.5
t131 -84.5t72 -122t6 -148.5t-70 -158.5q-131 -190 -279 -310q193 -100 362 -100h105zM301 963q63 -126 184 -263.5t269 -246.5q155 126 283 314q52 79 15.5 137.5t-137.5 58.5h-614z" />
    <glyph glyph-name="uniFECE" unicode="&#x63a;" horiz-adv-x="1756" arabic-form="final" 
d="M1024 1512q0 -56 -36.5 -87.5t-81 -31.5t-81 31.5t-36.5 87.5v70q0 54 36.5 85.5t81 32t81 -30.5t36.5 -87v-70zM1787 231l74 -118l-70 -113h-61q-389 0 -758 244q-70 -29 -164 -61t-158.5 -52t-134 -50t-111 -60t-68.5 -76.5t-27 -105.5q0 -72 14.5 -118.5t45 -70.5
t67 -33t91.5 -9h31q48 0 75 -34t27 -75t-27 -75t-75 -34h-31q-196 0 -318 124.5t-122 324.5q0 73 16.5 132.5t43.5 101.5t71.5 77.5t89.5 58t109.5 45.5t119.5 38.5t131.5 38.5t133.5 44q-330 271 -588 693q-31 49 -14 82q21 35 79 35h889q328 0 414.5 -115t-48.5 -347
q-123 -216 -331 -357q237 -135 523 -135h61zM562 963q132 -161 243 -277.5t223 -201.5q163 100 279 257q32 44 49.5 76.5t22 61t-10 46.5t-50 28t-94.5 10h-662z" />
    <glyph glyph-name="uniFECF" unicode="&#x63a;" horiz-adv-x="1363" arabic-form="initial" 
d="M1011 1512q0 -56 -36.5 -87.5t-81 -31.5t-81 31.5t-36.5 87.5v70q0 54 36.5 85.5t81 32t81 -30.5t36.5 -87v-70zM1198 231q52 0 82 -36t30 -79.5t-30 -79.5t-82 -36h-1224l-61 109l56 122h380q-18 84 -18 231q0 330 188 529t501 199h96q57 0 89.5 -36t32.5 -79.5
t-32.5 -79.5t-89.5 -36h-96q-216 0 -336.5 -132.5t-117.5 -364.5q1 -43 1 -63t2.5 -49t3 -40t6 -28.5t7.5 -22t12.5 -13t16.5 -9.5t23 -3.5t28 -2.5h36h496z" />
    <glyph glyph-name="uniFED0" unicode="&#x63a;" horiz-adv-x="1394" arabic-form="medial" 
d="M806 1451q0 -56 -36.5 -87.5t-81 -31.5t-81 31.5t-36.5 87.5v70q0 54 36.5 85.5t81 32t81 -30.5t36.5 -87v-70zM1421 231l69 -118l-69 -113h-105q-332 0 -610 161q-304 -161 -628 -161h-91l-79 113l70 118h100q68 0 115 2.5t138.5 20t173.5 51.5q-80 69 -151 149.5
t-128.5 168t-91 143.5t-77 139.5t-48.5 92.5q-37 65 -5 122q12 32 41.5 48.5t67.5 16.5h802q98 0 179 -30.5t131 -84.5t72 -122t6 -148.5t-70 -158.5q-131 -190 -279 -310q193 -100 362 -100h105zM301 963q63 -126 184 -263.5t269 -246.5q155 126 283 314q52 79 15.5 137.5
t-137.5 58.5h-614z" />
    <glyph glyph-name="uniFED2" unicode="&#x641;" horiz-adv-x="2300" arabic-form="final" 
d="M1612 1512q0 -56 -36.5 -87.5t-81 -31.5t-81 31.5t-36.5 87.5v70q0 54 36.5 85.5t81 32t81 -30.5t36.5 -87v-70zM2026 231h362l-4 -231h-589v4h-43v-4h-985q-150 0 -277 52.5t-215.5 146.5t-138 228t-49.5 292v57q0 49 32.5 83t80.5 34q49 0 83.5 -34t34.5 -83v-40
q0 -235 121 -370t328 -135h418q-58 90 -83.5 196.5t-25.5 186.5q0 252 130 414t332 162h5q215 0 349 -161.5t134 -414.5v-383zM1808 231l-8 383q0 163 -69 258t-184 95h-4q-115 0 -177.5 -91.5t-62.5 -261.5q0 -95 39.5 -182t115 -144t167.5 -57h183z" />
    <glyph glyph-name="uniFED4" unicode="&#x641;" horiz-adv-x="1381" arabic-form="medial" 
d="M802 1482q0 -56 -37 -87.5t-81 -31.5t-81 31.5t-37 87.5v69q0 54 37 85.5t81 32t81 -30.5t37 -87v-69zM1168 231h300l-4 -231h-1508v231h371q-58 90 -83.5 196.5t-25.5 186.5q0 252 130 414t332 162h4q215 0 349.5 -161.5t134.5 -414.5v-383zM444 614q0 -95 40 -182
t115.5 -144t167.5 -57h183l-9 383q0 163 -69 258t-184 95h-4q-115 0 -177.5 -91.5t-62.5 -261.5z" />
    <glyph glyph-name="uniFED6" unicode="&#x642;" horiz-adv-x="2008" arabic-form="final" 
d="M1076 1451q0 -56 -36.5 -87.5t-81 -31.5t-81 31.5t-36.5 87.5v70q0 54 36.5 85.5t81 32t81 -30.5t36.5 -87v-70zM1381 1451q0 -56 -36.5 -87.5t-81 -31.5t-81 31.5t-36.5 87.5v70q0 54 36.5 85.5t81 32t81 -30.5t36.5 -87v-70zM1678 231h374l-4 -231h-370v-131
q-3 -244 -204.5 -372.5t-554.5 -128.5h-4q-215 0 -395 110.5t-284.5 304t-104.5 426.5q0 88 23 131t90 43t91.5 -43t17.5 -131q0 -133 45 -248.5t121.5 -195t179.5 -125t216 -45.5q240 0 383 72t153 202v131h-174q-98 0 -180 26t-137 67.5t-98 97.5t-67.5 112.5t-40.5 117.5
t-21 105.5t-5 83.5q0 252 130 413.5t332 161.5h4q215 0 349.5 -161t134.5 -414v-379zM954 610q0 -95 40 -182t115.5 -144t167.5 -57h183l-9 383q0 163 -69 258t-184 95h-4q-115 0 -177.5 -91.5t-62.5 -261.5z" />
    <glyph glyph-name="uniFED7" unicode="&#x642;" horiz-adv-x="1298" arabic-form="initial" 
d="M649 1482q0 -56 -36.5 -87.5t-81 -31.5t-81 31.5t-36.5 87.5v69q0 54 36.5 85.5t81 32t81 -30.5t36.5 -87v-69zM954 1482q0 -56 -36.5 -87.5t-81 -31.5t-81 31.5t-36.5 87.5v69q0 54 36.5 85.5t81 32t81 -30.5t36.5 -87v-69zM1168 614v-614l-275 4v-4h-937v231h371
q-58 90 -83.5 196.5t-25.5 186.5q0 252 130 414t332 162h4q215 0 349.5 -161.5t134.5 -414.5zM950 231l-9 383q0 163 -69 258t-184 95h-4q-115 0 -177.5 -91.5t-62.5 -261.5q0 -95 40 -182t115.5 -144t167.5 -57h183z" />
    <glyph glyph-name="uniFED8" unicode="&#x642;" horiz-adv-x="1381" arabic-form="medial" 
d="M649 1482q0 -56 -36.5 -87.5t-81 -31.5t-81 31.5t-36.5 87.5v69q0 54 36.5 85.5t81 32t81 -30.5t36.5 -87v-69zM954 1482q0 -56 -36.5 -87.5t-81 -31.5t-81 31.5t-36.5 87.5v69q0 54 36.5 85.5t81 32t81 -30.5t36.5 -87v-69zM1168 231h300l-4 -231h-1508v231h371
q-58 90 -83.5 196.5t-25.5 186.5q0 252 130 414t332 162h4q215 0 349.5 -161.5t134.5 -414.5v-383zM444 614q0 -95 40 -182t115.5 -144t167.5 -57h183l-9 383q0 163 -69 258t-184 95h-4q-115 0 -177.5 -91.5t-62.5 -261.5z" />
    <glyph glyph-name="uniFEDA" unicode="&#x643;" horiz-adv-x="2204" arabic-form="final" 
d="M2218 231l30 -118l-26 -113h-191q-119 0 -197 39q-46 -39 -108 -39h-1338q-166 0 -268.5 98.5t-102.5 276.5q1 4 2 11.5t8.5 26.5t18.5 33t32 26t48 12q31 0 53 -11t32.5 -27t16.5 -32.5t6 -27.5l1 -11q0 -42 8.5 -70t19.5 -43t35 -22t41 -8t53 -1h1273v253
q0 221 -115 350t-330 129h-462q-58 0 -101 42.5t-43 101.5q0 27 12.5 55.5t31.5 44.5l401 357q27 35 78 35q36 0 64.5 -21t40.5 -50.5t6.5 -63.5t-32.5 -57l-253 -217h257q216 0 371.5 -89.5t234 -248t78.5 -368.5v-31q0 -143 22 -182.5t105 -39.5h187z" />
    <glyph glyph-name="uniFEDB" unicode="&#x643;" horiz-adv-x="1533" arabic-form="initial" 
d="M745 1190q334 0 518 -195.5t184 -528.5v-287q0 -74 -53 -126.5t-126 -52.5h-1294l-61 122l61 109h1233v253q0 221 -111.5 350t-319.5 129h-475q-59 0 -101.5 42.5t-42.5 101.5q0 27 12 55.5t31 44.5l401 357q27 35 79 35q36 0 64.5 -21t40.5 -50.5t6 -63.5t-33 -57
l-253 -217h240z" />
    <glyph glyph-name="uniFEDC" unicode="&#x643;" horiz-adv-x="1703" arabic-form="medial" 
d="M1760 231l31 -118l-26 -113h-192q-118 0 -196 39q-47 -39 -109 -39h-1294l-61 122l61 109h1233v253q0 221 -111.5 350t-319.5 129h-475q-59 0 -101.5 42.5t-42.5 101.5q0 27 12 55.5t31 44.5l401 357q27 35 79 35q36 0 64.5 -21t40.5 -50.5t6 -63.5t-33 -57l-253 -217
h240q334 0 518 -195.5t184 -528.5v-13q0 -143 21.5 -182.5t104.5 -39.5h187z" />
    <glyph glyph-name="uniFEDE" unicode="&#x644;" horiz-adv-x="1459" arabic-form="final" 
d="M1473 231l30 -118l-26 -113h-192q-79 0 -135 13q-33 -246 -176 -391t-355 -145h-9q-225 0 -374 171.5t-149 429.5q0 54 36 85t79.5 31t79.5 -31t36 -85q0 -166 83 -266t218 -100h4q145 0 225 114t80 322v1325q0 54 36.5 85t81 31t81 -31t36.5 -85v-1137q7 -64 32.5 -84.5
t89.5 -20.5h188z" />
    <glyph glyph-name="uniFEDF" unicode="&#x644;" horiz-adv-x="522" arabic-form="initial" 
d="M322 1612q46 0 80 -29.5t34 -79.5v-1050q0 -207 -98 -330t-277 -123h-105v231h105q79 0 110.5 50.5t28.5 171.5v1055q0 49 34.5 78t87.5 26z" />
    <glyph glyph-name="uniFEE0" unicode="&#x644;" horiz-adv-x="553" arabic-form="medial" 
d="M580 231l61 -118l-61 -113h-92q-125 0 -200 61q-75 -61 -201 -61h-118l-56 113l56 118h118q45 0 62.5 25t20.5 101v1142q0 52 39 86.5t92 31.5q43 -7 73.5 -42t30.5 -80v-1138q3 -76 21 -101t62 -25h92z" />
    <glyph glyph-name="uniFEE2" unicode="&#x645;" horiz-adv-x="1529" arabic-form="final" 
d="M87 -449v440q0 244 201 331q-57 135 -57 275q0 143 50.5 258.5t133 186.5t188.5 109.5t216 38.5t216 -38.5t188.5 -109.5t133 -186.5t50.5 -258.5q0 -119 -43 -235q0 -35 14 -61.5t34 -39t39.5 -20t33.5 -9.5l14 -1h87l70 -118l-70 -113h-87q-239 0 -309 126
q-104 -86 -232 -120t-266 -4.5t-252 124.5q-126 -19 -126 -135v-440q0 -57 -35.5 -89.5t-78 -32.5t-78 32.5t-35.5 89.5zM819 231q156 0 257 104t101 262q0 150 -105.5 258t-252.5 108q-153 0 -255 -105.5t-102 -260.5q0 -153 104.5 -259.5t252.5 -106.5z" />
    <glyph glyph-name="uniFEE3" unicode="&#x645;" horiz-adv-x="1468" arabic-form="initial" 
d="M205 597q0 143 50.5 258.5t133 186.5t188.5 109.5t216 38.5t216 -38.5t188.5 -109.5t133 -186.5t50.5 -258.5t-49.5 -259t-130 -188t-185 -112t-212 -40.5t-214 35t-189.5 106.5q-39 -72 -110 -105.5t-186 -33.5h-192l-26 113l30 118h188q78 0 100.5 32.5t25.5 141.5
q-26 87 -26 192zM793 231q154 0 255.5 103t101.5 263q0 150 -105 258t-252 108q-153 0 -255 -105.5t-102 -260.5q0 -153 104.5 -259.5t252.5 -106.5z" />
    <glyph glyph-name="uniFEE4" unicode="&#x645;" horiz-adv-x="1664" arabic-form="medial" 
d="M1678 231l30 -118l-26 -113h-192q-115 0 -188 34.5t-112 109.5q-105 -94 -249 -128t-288.5 -1.5t-251.5 124.5q-39 -72 -110 -105.5t-186 -33.5h-192l-26 113l30 118h188q78 0 100.5 32.5t25.5 141.5q-26 87 -26 192q0 143 50.5 258.5t133 186.5t188.5 109.5t216 38.5
t216 -38.5t188.5 -109.5t133 -186.5t50.5 -258.5q0 -93 -17 -161q0 -129 22.5 -167t103.5 -38h188zM793 231q154 0 255.5 103t101.5 263q0 150 -105 258t-252 108q-153 0 -255 -105.5t-102 -260.5q0 -153 104.5 -259.5t252.5 -106.5z" />
    <glyph glyph-name="uniFEE6" unicode="&#x646;" horiz-adv-x="1738" arabic-form="final" 
d="M924 1394q0 -56 -37 -87.5t-81 -31.5t-81 31.5t-37 87.5v70q0 54 37 85.5t81 32t81 -30.5t37 -87v-70zM1752 231l30 -118l-26 -113h-192q-124 0 -196 39q-82 -200 -240.5 -305.5t-351.5 -108.5q-104 -3 -204 25t-188.5 88t-155.5 146.5t-106 209.5t-39 268l30 483
q4 72 62.5 95t113.5 -14t51 -111l-26 -453q-13 -231 110.5 -360.5t346.5 -136.5q436 13 436 566v562q0 42 24 71.5t57.5 36.5t67.5 0t58 -37t24 -75v-536q0 -143 21.5 -182.5t104.5 -39.5h188z" />
    <glyph glyph-name="uniFEE7" unicode="&#x646;" horiz-adv-x="854" arabic-form="initial" 
d="M458 1394v70q0 54 36.5 85.5t81 32t81 -30.5t36.5 -87v-70q0 -56 -36.5 -87.5t-81 -31.5t-81 31.5t-36.5 87.5zM-44 231h441q60 0 99.5 44.5t39.5 121.5v596q0 42 24 71.5t58 36.5t67.5 0t57.5 -37t24 -75v-601q0 -183 -98 -285.5t-272 -102.5h-441v231z" />
    <glyph glyph-name="uniFEE8" unicode="&#x646;" horiz-adv-x="1080" arabic-form="medial" 
d="M776 1394q0 -56 -37 -87.5t-81 -31.5t-81 31.5t-37 87.5v70q0 54 37 85.5t81 32t81 -30.5t37 -87v-70zM1081 231l30 -118l-26 -113h-192q-166 0 -252 78q-91 -78 -244 -78h-441v231h441q60 0 99.5 44.5t39.5 121.5v596q0 42 24 71.5t58 36.5t67.5 0t57.5 -37t24 -75v-536
q0 -143 21.5 -182.5t104.5 -39.5h188z" />
    <glyph glyph-name="uniFEEA" unicode="&#x647;" horiz-adv-x="1459" arabic-form="final" 
d="M87 580v4q0 125 47 237.5t127 193.5t191.5 128t235.5 47q122 0 232 -46.5t189 -126.5t125.5 -192t46.5 -237v-357h183l31 -122l-31 -109h-863q-135 0 -254 80t-189.5 214t-70.5 286zM318 584q0 -84 38.5 -166t98.5 -132.5t120 -50.5h475v353q0 160 -106.5 267.5
t-263.5 107.5q-153 0 -257.5 -109t-104.5 -266v-4z" />
    <glyph glyph-name="uniFEEB" unicode="&#x647;" horiz-adv-x="1930" arabic-form="initial" 
d="M1155 1346q318 0 503 -193.5t185 -529.5v-623h-1852l-35 113l35 118h318q-117 152 -117 383q0 107 29.5 198.5t80 158t119 115t146 75t161.5 33.5q166 152 427 152zM1251 231h357v392q0 235 -120 366t-333 131q-44 0 -61 -4q125 -73 199.5 -200t74.5 -302
q0 -231 -117 -383zM423 614q0 -161 103.5 -272t253.5 -111q156 0 256.5 108t100.5 275q0 144 -106.5 248.5t-250.5 104.5q-150 0 -253.5 -103t-103.5 -250z" />
    <glyph glyph-name="uniFEEC" unicode="&#x647;" horiz-adv-x="2100" arabic-form="medial" 
d="M2157 231l30 -118l-26 -113h-191q-76 0 -127 13v-13h-1852l-35 113l35 118h318q-117 152 -117 383q0 107 29.5 198.5t80 158t119 115t146 75t161.5 33.5q166 152 427 152q318 0 503 -193.5t185 -529.5v-170q0 -143 22 -182.5t105 -39.5h187zM1251 231h357v392
q0 235 -120 366t-333 131q-44 0 -61 -4q125 -73 199.5 -200t74.5 -302q0 -231 -117 -383zM423 614q0 -161 103.5 -272t253.5 -111q156 0 256.5 108t100.5 275q0 144 -106.5 248.5t-250.5 104.5q-150 0 -253.5 -103t-103.5 -250z" />
    <glyph glyph-name="uniFEEE" unicode="&#x648;" horiz-adv-x="1363" arabic-form="final" 
d="M1464 113l-70 -113h-226q-13 -174 -112.5 -274.5t-262.5 -100.5q-36 0 -64 12.5t-42.5 32.5t-21.5 44t-0.5 48.5t20.5 44.5t41.5 32.5t62.5 12.5q123 0 143 148h-191q-321 0 -487.5 149t-166.5 439q0 170 69 307.5t192 216t275 78.5q258 0 401.5 -152.5t143.5 -427.5
v-379h226zM318 588q0 -182 105 -269.5t318 -87.5h191v379q0 186 -71 265t-238 79q-135 0 -220 -101.5t-85 -264.5z" />
    <glyph glyph-name="uniFEF0" unicode="&#x649;" horiz-adv-x="1729" arabic-form="final" 
d="M1773 231v-231h-204q-28 -133 -93.5 -244.5t-161.5 -193t-225.5 -127t-278.5 -45.5q-172 0 -315 66t-233 185.5t-121.5 285t20.5 365.5q19 72 87 100q60 25 103 -2q48 -30 28 -98q-40 -142 -32.5 -254.5t46 -195.5t105.5 -138.5t146 -84.5t166 -33q88 -5 172 19.5
t156.5 75t127.5 134t80 189.5q-102 13 -174 61.5t-100 130.5q-25 68 17.5 115.5t107 38t93.5 -79.5q11 -29 28.5 -34t84.5 -5h31h339z" />
    <glyph glyph-name="uniFEF2" unicode="&#x64a;" horiz-adv-x="1729" arabic-form="final" 
d="M1773 231v-231h-204q-28 -133 -93.5 -244.5t-161.5 -193t-225.5 -127t-278.5 -45.5q-172 0 -315 66t-233 185.5t-121.5 285t20.5 365.5q19 72 87 100q60 25 103 -2q48 -30 28 -98q-40 -142 -32.5 -254.5t46 -195.5t105.5 -138.5t146 -84.5t166 -33q88 -5 172 19.5
t156.5 75t127.5 134t80 189.5q-102 13 -174 61.5t-100 130.5q-25 68 17.5 115.5t107 38t93.5 -79.5q11 -29 28.5 -34t84.5 -5h31h339zM540 -776q0 54 37 85.5t81 32t81 -30.5t37 -87v-69q0 -56 -37 -87.5t-81 -31.5t-81 31.5t-37 87.5v69zM845 -776q0 54 37 85.5t81 32
t81 -30.5t37 -87v-69q0 -56 -37 -87.5t-81 -31.5t-81 31.5t-37 87.5v69z" />
    <glyph glyph-name="uniFEF3" unicode="&#x64a;" horiz-adv-x="854" arabic-form="initial" 
d="M-44 231h441q60 0 99.5 44.5t39.5 121.5v596q0 42 24 71.5t58 36.5t67.5 0t57.5 -37t24 -75v-601q0 -183 -98 -285.5t-272 -102.5h-441v231zM122 -370v69q0 54 36.5 85.5t81 32t81 -30.5t36.5 -87v-69q0 -56 -36.5 -87.5t-81 -31.5t-81 31.5t-36.5 87.5zM427 -370v69
q0 54 36.5 85.5t81 32t81 -30.5t36.5 -87v-69q0 -56 -36.5 -87.5t-81 -31.5t-81 31.5t-36.5 87.5z" />
    <glyph glyph-name="uniFEF4" unicode="&#x64a;" horiz-adv-x="1080" arabic-form="medial" 
d="M1081 231l30 -118l-26 -113h-192q-166 0 -252 78q-91 -78 -244 -78h-441v231h441q60 0 99.5 44.5t39.5 121.5v596q0 42 24 71.5t58 36.5t67.5 0t57.5 -37t24 -75v-536q0 -143 21.5 -182.5t104.5 -39.5h188zM270 -336q0 54 36.5 85.5t81 32t81 -30.5t36.5 -87v-69
q0 -56 -36.5 -87.5t-81 -31.5t-81 31.5t-36.5 87.5v69zM575 -336q0 54 36.5 85.5t81 32t81 -30.5t36.5 -87v-69q0 -56 -36.5 -87.5t-81 -31.5t-81 31.5t-36.5 87.5v69z" />
    <glyph glyph-name=".notdef" horiz-adv-x="1960" 
d="M1608 2702v-3922h-1242v3922h1242zM1307 2440h-649v-131h257v-143h-261v-131h653v131h-261v143h261v131zM1046 1935h-392v-410h653v135h-261v275zM915 1800v-140h-131v140h131zM1307 1421h-653v-131h261v-144h-261v-131h392v275h261v131zM1307 1185h-130v-261h-523v-131
h653v392zM1307 706h-392v-218h131v87h131v-183h-393v314h-130v-445h653v445zM1307 26h-653v-444h653v444zM1177 -105v-183h-393v183h393zM1307 -505h-653v-131h274l-274 -183v-131h653v131h-401l275 183h126v131z" />
    <glyph glyph-name=".null" 
 />
    <glyph glyph-name="nonmarkingreturn" horiz-adv-x="682" 
 />
    <glyph glyph-name="space" unicode=" " horiz-adv-x="479" 
 />
    <glyph glyph-name="exclam" unicode="!" horiz-adv-x="527" 
d="M362 392q-3 -43 -30 -69.5t-66 -26.5h-5q-39 0 -65 27t-26 69q-13 742 -13 1085q0 49 29 79t75 30h5q46 0 77.5 -31.5t31.5 -77.5q0 -153 -3.5 -424t-6.5 -466zM397 -4q0 -56 -39 -93.5t-97 -37.5q-55 0 -92.5 39t-37.5 92q0 54 38 94.5t92 40.5q56 0 96 -40t40 -95z" />
    <glyph glyph-name="quotedbl" unicode="&#x22;" horiz-adv-x="649" 
d="M192 1386q-36 0 -61.5 25.5t-25.5 61.5q0 6 -9 125.5t-9 157.5q0 48 29.5 78.5t75.5 30.5q48 0 78.5 -31.5t30.5 -77.5q0 -29 -4.5 -99.5t-8.5 -126.5l-5 -57q0 -36 -26 -61.5t-65 -25.5zM453 1386q-36 0 -61.5 26t-25.5 65q0 6 -8.5 123.5t-8.5 155.5q0 49 29 79t75 30
q48 0 78.5 -31.5t30.5 -77.5q0 -29 -4 -99.5t-8 -126.5l-5 -57q0 -36 -26.5 -61.5t-65.5 -25.5z" />
    <glyph glyph-name="numbersign" unicode="#" horiz-adv-x="1128" 
d="M192 -13l61 414h-74q-48 0 -75 31.5t-27 68.5t27 68.5t75 31.5h104l22 162h-70q-48 0 -75 30.5t-27 67.5t27 67.5t75 30.5h101l52 392q5 36 28 59t51.5 26t55.5 -6.5t42.5 -39t9.5 -70.5l-52 -361h170l52 392q5 36 28.5 59t53 26t57 -6.5t43.5 -39t10 -70.5l-52 -361h69
q46 0 72.5 -30.5t26.5 -67.5t-26.5 -67.5t-72.5 -30.5h-100l-22 -162h70q48 0 75 -31.5t27 -68.5t-27 -68.5t-75 -31.5h-100l-61 -445q-5 -37 -28.5 -61t-53 -26.5t-57 7.5t-43.5 40t-10 71l61 414h-170l-61 -445q-5 -37 -28 -61t-51.5 -26.5t-55.5 7.5t-42.5 40t-9.5 71z
M475 601h166l21 162h-165z" />
    <glyph glyph-name="dollar" unicode="$" horiz-adv-x="1176" 
d="M479 -187v117q-218 14 -322 111q-68 62 -54 126q6 27 28 47q45 45 117 -9q27 -22 50 -35t70.5 -27.5t110.5 -20.5v536q-213 66 -302.5 160.5t-89.5 257.5q0 169 104 278.5t288 135.5v96q0 43 30 67.5t66 24.5t66 -24.5t30 -67.5v-91q152 -13 254.5 -68.5t102.5 -136.5
q0 -73 -61 -94t-126 33q-76 57 -170 70v-480q232 -65 325 -162.5t93 -273.5q0 -193 -109.5 -311.5t-308.5 -141.5v-117q0 -43 -30 -69t-66 -27t-66 24.5t-30 71.5zM479 871v423q-89 -20 -136 -73.5t-47 -135.5q0 -83 40 -130.5t143 -83.5zM671 126q107 19 158 81.5t51 171.5
q0 92 -42.5 138t-166.5 89v-480z" />
    <glyph glyph-name="percent" unicode="%" horiz-adv-x="1716" 
d="M492 44q-33 -59 -90 -51q-44 7 -65 47q-25 46 12 91l880 1368q20 26 47.5 35.5t51 1.5t41.5 -26t19 -46.5t-15 -60.5zM488 758q-138 0 -226 98.5t-88 254.5t88 254.5t226 98.5q140 0 229 -98.5t89 -254.5t-89 -254.5t-229 -98.5zM488 915q69 0 106.5 51t37.5 145
q0 95 -37.5 148t-106.5 53q-65 0 -100 -51.5t-35 -149.5q0 -196 135 -196zM1233 74q-144 0 -233 98.5t-89 258.5t89 259t233 99q141 0 229.5 -99t88.5 -259t-88.5 -258.5t-229.5 -98.5zM1233 227q66 0 105 53.5t39 150.5q0 94 -39 149.5t-105 55.5t-105 -54t-39 -151
t39 -150.5t105 -53.5z" />
    <glyph glyph-name="ampersand" unicode="&#x26;" horiz-adv-x="1363" 
d="M362 815q-66 99 -72 208.5t38 196.5t139.5 144t220.5 57q82 0 159 -20t129 -60t52 -90q0 -39 -28.5 -67.5t-67.5 -28.5q-25 0 -59.5 19.5t-81.5 39t-103 19.5q-115 0 -163 -60.5t-17.5 -162.5t133.5 -217l335 -379q92 184 92 301q0 43 26.5 71.5t68.5 28.5q104 0 91 -150
q-13 -149 -123 -361l-20 -38l135 -157q46 -54 25.5 -109t-75 -60.5t-111.5 47.5l-92 109q-186 -189 -415 -176q-178 10 -322 134q-132 114 -170 268q-45 183 68 330q73 97 208 163zM484 667q-170 -85 -193 -224q-19 -111 59 -210q75 -95 191 -119q152 -31 281 81
q21 18 41 40z" />
    <glyph glyph-name="quotesingle" unicode="'" horiz-adv-x="383" 
d="M100 1242q-13 218 -13 283q0 51 32.5 80.5t72 30t72 -29t32.5 -81.5l-13 -283q-6 -40 -34 -63.5t-59 -24t-58 22.5t-32 65z" />
    <glyph glyph-name="parenleft" unicode="(" horiz-adv-x="832" 
d="M244 789q0 313 81.5 555t223.5 408q50 58 122 42t90.5 -75t-38.5 -129q-106 -106 -168.5 -319.5t-62.5 -481.5q0 -153 20 -285.5t46 -213.5t64.5 -152.5t60.5 -99.5t48 -58q7 -8 10 -11q56 -66 26 -137q-22 -53 -77 -70q-70 -21 -127 42l-18 22q-7 11 -33.5 49t-38.5 57
t-38.5 63t-41 74t-37.5 82.5t-36.5 97.5t-30 109t-25 127t-14.5 141.5t-6 162.5z" />
    <glyph glyph-name="parenright" unicode=")" horiz-adv-x="832" 
d="M588 789q0 -84 -6 -162.5t-14.5 -141.5t-25 -127t-29.5 -109t-36 -97.5t-37.5 -82.5t-41 -74.5t-38.5 -62.5t-38.5 -57t-33.5 -49q-53 -78 -127.5 -67.5t-95.5 75t27 135.5q50 59 59 71q189 259 189 749q0 268 -62.5 481.5t-168.5 319.5q-63 63 -38 129t90.5 75
t121.5 -42q142 -166 223.5 -408t81.5 -555z" />
    <glyph glyph-name="asterisk" unicode="*" horiz-adv-x="888" 
d="M519 1024l-79 122l-83 -118q-23 -27 -51 -38.5t-52 -7.5t-44 19t-30.5 37t-7 51t23.5 57l92 109l-153 52q-54 25 -58.5 80.5t41.5 89t113 5.5l118 -57l-5 152q-1 42 19.5 71.5t51 36.5t61 0.5t52 -35.5t21.5 -73l-9 -156l122 56q63 23 110.5 -14t37.5 -94t-87 -84
l-130 -34l91 -105q47 -55 20 -112t-83 -60.5t-102 50.5z" />
    <glyph glyph-name="plus" unicode="+" horiz-adv-x="1150" 
d="M954 915q48 0 78.5 -31.5t30.5 -77.5v-4q0 -49 -30.5 -81.5t-78.5 -32.5h-266v-265q0 -48 -31 -78.5t-77 -30.5h-5q-49 0 -81 30.5t-32 78.5v265h-266q-48 0 -78.5 32.5t-30.5 81.5v4q0 46 30.5 77.5t78.5 31.5h266v266q0 48 32 78.5t81 30.5h5q46 0 77 -30.5t31 -78.5
v-266h266z" />
    <glyph glyph-name="comma" unicode="," horiz-adv-x="474" 
d="M362 305q38 -10 55 -37.5t1 -62.5l-213 -501q-37 -50 -74 -35l-13 4q-19 8 -27.5 28.5t1.5 54.5l152 523q10 16 36.5 27t46.5 8z" />
    <glyph glyph-name="hyphen" unicode="-" horiz-adv-x="1237" 
d="M1059 497q0 -49 -30.5 -81.5t-78.5 -32.5h-758q-48 0 -78.5 32.5t-30.5 81.5v4q0 46 30.5 77.5t78.5 31.5h758q48 0 78.5 -31.5t30.5 -77.5v-4z" />
    <glyph glyph-name="period" unicode="." horiz-adv-x="492" 
d="M405 157q0 -64 -49 -110.5t-112 -46.5q-65 0 -111 46t-46 111q0 63 46.5 112t110.5 49q62 0 111.5 -49.5t49.5 -111.5z" />
    <glyph glyph-name="slash" unicode="/" horiz-adv-x="993" 
d="M397 83q-12 -35 -35 -57t-47.5 -26t-49.5 2.5t-41.5 27t-23.5 48t5 66.5l396 1394q10 35 28 58t38.5 31t43 7t40.5 -14.5t31.5 -32t16 -47t-5.5 -58.5z" />
    <glyph glyph-name="zero" unicode="0" horiz-adv-x="1429" 
d="M1368 806q0 -240 -80 -423t-228.5 -283t-344.5 -100t-345 100t-229 283t-80 423q0 241 81.5 424.5t230 282.5t342.5 99t342.5 -99t229.5 -282.5t81 -424.5zM309 806q0 -274 106.5 -424.5t299.5 -150.5q191 0 296 149.5t105 425.5t-105 425.5t-296 149.5
q-193 0 -299.5 -150.5t-106.5 -424.5z" />
    <glyph glyph-name="one" unicode="1" horiz-adv-x="662" 
d="M349 100v1177l-114 -66q-64 -37 -120 -2t-53 94.5t69 108.5l257 152q82 44 143.5 16.5t61.5 -98.5v-1382q0 -47 -25 -79.5t-61 -40t-72 0t-61 40t-25 79.5z" />
    <glyph glyph-name="two" unicode="2" horiz-adv-x="1172" 
d="M209 1320q-34 44 -19 98t63 81q101 56 205 82t196.5 22.5t174.5 -35.5t141 -88.5t93.5 -141.5t34.5 -188q0 -49 -5.5 -90.5t-23.5 -88.5t-38 -85t-64 -95t-85 -103.5t-117.5 -126t-145 -147t-183.5 -179.5h562q42 0 71.5 -24t36.5 -58.5t0.5 -69.5t-35.5 -59t-73 -24
h-824q-67 0 -100.5 40t-22.5 100t62 113q93 98 193 201t159.5 163.5t123 127t96.5 102t68 77.5t49.5 66t27.5 53.5t16.5 53t3.5 53.5q0 72 -31.5 123.5t-83 75.5t-113 28t-126 -15.5t-117.5 -58.5q-39 -26 -91.5 -21t-78.5 38z" />
    <glyph glyph-name="three" unicode="3" horiz-adv-x="1167" 
d="M122 113q-38 34 -54 72t-11.5 68t25 53t51 32.5t70.5 0.5t80 -38q35 -26 60 -41t79 -30.5t118 -15.5q174 0 265 95q73 76 58 172q-16 101 -123 162q-104 59 -265 59q-36 0 -64 12.5t-42 33t-20.5 45t0.5 49t21.5 45t42 33t62.5 12.5q199 0 299 100q74 73 62 162
q-12 87 -99 134q-66 36 -162 36q-77 0 -136 -18.5t-87.5 -40.5t-61 -40.5t-63.5 -18.5q-63 0 -93.5 42.5t-17 99t66.5 94.5q72 52 179 82.5t218 30.5q233 0 360.5 -114.5t127.5 -325.5q0 -100 -40 -183.5t-113 -139.5q93 -59 142.5 -149t49.5 -204t-43.5 -209.5t-116 -160
t-171.5 -101t-206.5 -38.5t-225 34t-222.5 109z" />
    <glyph glyph-name="four" unicode="4" horiz-adv-x="1311" 
d="M963 -52q-48 0 -78.5 33t-30.5 80v301h-671q-40 0 -72 21t-48 52t-13 68.5t28 67.5l785 1019q38 40 89 46.5t87.5 -23.5t36.5 -84v-967h118q42 0 69 -28.5t27 -71.5t-27 -71.5t-69 -28.5h-118v-301q0 -48 -33.5 -80.5t-79.5 -32.5zM854 562v693l-527 -689z" />
    <glyph glyph-name="five" unicode="5" horiz-adv-x="1185" 
d="M523 0q-58 0 -114.5 12t-102.5 33t-85.5 48.5t-64.5 59t-37.5 63.5t-7.5 63t28 57q31 35 61 37t62 -21t66 -50.5t86 -51t109 -23.5q170 0 263.5 89t93.5 250q0 137 -70 210.5t-200 73.5q-59 0 -108.5 -15t-81 -36t-58.5 -42t-56 -36t-58 -15q-54 0 -90 36t-36 86v636
q0 56 33.5 91t88.5 35h693q47 0 79.5 -24t40 -59t0 -69.5t-40 -58.5t-79.5 -24h-593v-344q123 65 266 65q231 0 364 -137t133 -373q0 -255 -161 -410.5t-423 -155.5z" />
    <glyph glyph-name="six" unicode="6" horiz-adv-x="1350" 
d="M706 0q-279 0 -447 206q-143 176 -167 446q-23 267 80 507q107 249 313 367q152 86 339 86q87 0 163 -14t131 -41t72.5 -68t-13.5 -95q-27 -44 -69.5 -54t-82 2t-100.5 28t-106 16q-192 0 -312.5 -121t-153.5 -341q96 59 203.5 87t207.5 24.5t191.5 -38t159.5 -95
t108.5 -153t40.5 -204.5q0 -245 -154.5 -395t-403.5 -150zM706 227q147 0 228 83t81 230q0 82 -34.5 141.5t-90.5 89.5t-128 37t-145 -9.5t-144.5 -56.5t-123.5 -97q46 -418 357 -418z" />
    <glyph glyph-name="seven" unicode="7" horiz-adv-x="1281" 
d="M540 57q-16 -33 -41.5 -54t-52 -25.5t-54 0t-48.5 22t-34 41.5t-11.5 58t19.5 71l575 1168h-684q-46 0 -77.5 25.5t-38.5 62t0 73t38.5 62t77.5 25.5h828q110 0 144 -75.5t-22 -190.5z" />
    <glyph glyph-name="eight" unicode="8" horiz-adv-x="1337" 
d="M667 -4q-139 0 -254.5 47.5t-187 122.5t-108 171t-30 190.5t61 183.5t152.5 147q-75 54 -113 132.5t-37 160.5t38 165t101 147t163 104.5t214 40.5t212.5 -40t161 -104t100 -146t37.5 -164.5t-35.5 -161.5t-109.5 -134q75 -43 125.5 -104.5t71.5 -129.5t18.5 -142
t-28.5 -143t-76.5 -132t-118.5 -109.5t-160.5 -74t-197.5 -27.5zM667 963q124 0 192.5 55t68.5 154t-68.5 154t-192.5 55t-193 -55t-69 -154t69 -154t193 -55zM667 222q160 0 243 66t83 191q0 121 -85 189t-241 68t-241.5 -68t-85.5 -189q0 -125 83.5 -191t243.5 -66z" />
    <glyph glyph-name="nine" unicode="9" horiz-adv-x="1307" 
d="M645 1612q276 0 443 -206q142 -176 164 -447q23 -268 -80 -508q-107 -250 -313 -366q-149 -85 -332 -85q-87 0 -163 14t-131 41t-72.5 68t13.5 95q27 44 69.5 54t82 -2t100.5 -27.5t106 -15.5q195 0 329 122.5t167 338.5q-96 -59 -205.5 -87t-213 -24.5t-199 38.5
t-167 95.5t-114 153t-42.5 204.5q0 244 154.5 394t403.5 150zM645 1386q-146 0 -227.5 -83t-81.5 -231q0 -82 37 -142t96 -89.5t135.5 -36.5t153 9.5t150 56.5t125.5 97q-23 204 -126.5 311.5t-261.5 107.5z" />
    <glyph glyph-name="colon" unicode=":" horiz-adv-x="492" 
d="M405 858q0 -62 -49.5 -111.5t-111.5 -49.5q-64 0 -110.5 49t-46.5 112q0 65 46 111t111 46q63 0 112 -46.5t49 -110.5zM405 161q0 -62 -49.5 -111.5t-111.5 -49.5q-64 0 -110.5 49t-46.5 112q0 65 46 111t111 46q63 0 112 -46.5t49 -110.5z" />
    <glyph glyph-name="semicolon" unicode=";" horiz-adv-x="692" 
d="M562 858q0 -62 -49.5 -111.5t-111.5 -49.5q-64 0 -110.5 49t-46.5 112q0 65 46 111t111 46q63 0 112 -46.5t49 -110.5zM405 305q38 -10 55.5 -37.5t1.5 -62.5l-214 -501q-37 -50 -74 -35l-13 4q-19 8 -27.5 28.5t1.5 54.5l153 523q10 16 36 27t46 8z" />
    <glyph glyph-name="less" unicode="&#x3c;" horiz-adv-x="1106" 
d="M1020 1194q0 -52 -48 -83l-610 -322l597 -314q61 -34 61 -92q0 -56 -47.5 -84.5t-96.5 -2.5l-741 401q-48 34 -48 92v4q0 58 48 92l736 400q52 29 100.5 -1t48.5 -86v-4z" />
    <glyph glyph-name="equal" unicode="=" horiz-adv-x="1154" 
d="M1020 1211q0 -49 -30.5 -81t-78.5 -32h-671q-48 0 -78.5 32t-30.5 81v5q0 46 30.5 77.5t78.5 31.5h671q48 0 78.5 -31.5t30.5 -77.5v-5zM1020 850q0 -49 -30.5 -81.5t-78.5 -32.5h-671q-48 0 -78.5 32.5t-30.5 81.5v4q0 46 30.5 77.5t78.5 31.5h671q48 0 78.5 -31.5
t30.5 -77.5v-4z" />
    <glyph glyph-name="greater" unicode="&#x3e;" horiz-adv-x="1106" 
d="M972 885q48 -34 48 -92v-4q0 -58 -48 -92l-741 -401q-49 -26 -96.5 2.5t-47.5 84.5q0 58 61 92l597 314l-610 322q-48 31 -48 83v4q0 57 48 86.5t100 0.5z" />
    <glyph glyph-name="question" unicode="?" horiz-adv-x="1111" 
d="M340 301q-6 82 13 155.5t55.5 128.5t81.5 106t91.5 97.5t85 93t63 103t24.5 117.5q0 175 -205 175q-59 0 -105 -11.5t-68.5 -24t-53.5 -34.5q-88 -60 -146 -40t-58 101q0 94 129 160.5t306 66.5q207 0 323.5 -104t116.5 -293q0 -83 -24 -151.5t-62.5 -116.5t-84.5 -91
t-92.5 -85t-85 -89t-62.5 -113.5t-24 -146.5q0 -49 -33.5 -78.5t-74 -30.5t-75 26.5t-35.5 78.5zM458 -135q-55 0 -93 39t-38 92q0 54 38.5 94.5t92.5 40.5q53 0 94 -40t41 -95q0 -54 -40.5 -92.5t-94.5 -38.5z" />
    <glyph glyph-name="at" unicode="@" horiz-adv-x="1642" 
d="M815 -166q73 0 135 5.5t98 11t76 19.5t51.5 19t43 22.5t32.5 18.5q59 33 90 2q28 -26 7 -72q-18 -40 -67 -69q-125 -72 -265.5 -100.5t-271 -14.5t-251.5 68t-210 138.5t-142.5 205.5t-53.5 261q0 214 103.5 390.5t282.5 276.5t394 100q308 0 498.5 -168.5t190.5 -442.5
q0 -222 -120.5 -363.5t-306.5 -141.5q-148 0 -205 100q-203 -151 -340 -73q-98 56 -131 208q-34 156 17 312q54 167 178 232q163 85 393 -43q13 29 36.5 41.5t46 7.5t42.5 -19.5t25 -41t-6 -57.5q-161 -387 -125 -467q14 -29 65 -30h12q111 0 175.5 89.5t64.5 245.5
q0 203 -137.5 322t-372.5 119q-168 0 -304.5 -76t-214.5 -212.5t-78 -308.5q0 -226 152 -370.5t393 -144.5zM924 314l61 283q-167 112 -277 35q-74 -53 -94 -168q-18 -109 24 -185q47 -84 138 -60q67 17 148 95z" />
    <glyph glyph-name="A" unicode="A" horiz-adv-x="1538" 
d="M1163 105l-130 361h-532l-126 -357q-31 -86 -101 -103.5t-115.5 35.5t-14.5 138l479 1316q28 76 89.5 104.5t122.5 0t89 -104.5l475 -1316q29 -81 -17.5 -134t-117 -38.5t-101.5 98.5zM588 697h362l-179 510z" />
    <glyph glyph-name="B" unicode="B" horiz-adv-x="1342" 
d="M253 0q-50 0 -86 35t-36 87v1346q0 52 34.5 87t87.5 35q133 0 228 -2.5t187.5 -11t153.5 -22t116.5 -36.5t88.5 -54.5t57.5 -76t34.5 -100t10 -128.5q0 -206 -136 -309q218 -112 218 -379q0 -63 -8 -115t-26.5 -94.5t-43 -76.5t-63 -60.5t-81.5 -46t-103.5 -33.5
t-123.5 -22.5t-147.5 -13.5t-168.5 -7t-193 -2zM379 946h227q146 0 214.5 52t68.5 161q0 46 -5 74t-25 52.5t-51 36.5t-92 21.5t-138 12.5t-199 4v-414zM379 231q133 1 220.5 5t156 15.5t105.5 27.5t60.5 45t30.5 63t7 88q0 124 -82 182t-258 58h-240v-484z" />
    <glyph glyph-name="C" unicode="C" horiz-adv-x="1503" 
d="M828 257q75 0 138 18t103.5 43.5t72.5 51t60.5 43.5t52.5 18q65 0 96 -42t17 -101.5t-69 -108.5q-89 -78 -189 -122.5t-197.5 -53t-195.5 13.5t-183.5 71t-160 125t-128 170t-84 212t-30.5 246q0 177 52.5 329t145 258.5t224 167t284.5 60.5q98 0 202 -25.5t183.5 -66
t116 -97t3.5 -112.5q-22 -38 -59.5 -46t-87.5 7.5t-102.5 36.5t-121 40t-126.5 19q-213 0 -337.5 -153.5t-124.5 -417.5q0 -281 116 -432.5t329 -151.5z" />
    <glyph glyph-name="D" unicode="D" horiz-adv-x="1546" 
d="M257 0q-53 0 -89.5 35t-36.5 87v1346q0 55 35 88.5t91 33.5h336q199 0 360.5 -68.5t260 -180t152 -254.5t53.5 -292t-54 -292t-153 -254.5t-259.5 -180t-359.5 -68.5h-336zM383 231h210q139 0 251.5 48.5t181.5 128t106.5 181t38 207t-37 207t-106.5 181t-182 128
t-252 48.5h-210v-1129z" />
    <glyph glyph-name="E" unicode="E" horiz-adv-x="1224" 
d="M253 0q-55 0 -88.5 35t-33.5 91v1347q0 56 33.5 91t88.5 35h719q57 0 89.5 -36.5t32.5 -81t-32.5 -81t-89.5 -36.5h-593v-453h466q42 0 72.5 -18t44 -45t13.5 -59t-13.5 -59t-44 -45t-72.5 -18h-466v-436h593q57 0 89.5 -36t32.5 -79.5t-32.5 -79.5t-89.5 -36h-719z" />
    <glyph glyph-name="F" unicode="F" horiz-adv-x="1220" 
d="M379 126q0 -41 -18.5 -71t-46 -43.5t-59.5 -14t-59.5 13t-46 43.5t-18.5 72v1364q0 52 36 87t86 35h723q54 0 85 -36.5t31 -81t-31 -81t-85 -36.5h-597v-466h453q54 0 85 -36t31 -79.5t-31 -79.5t-85 -36h-453v-554z" />
    <glyph glyph-name="G" unicode="G" horiz-adv-x="1546" 
d="M1294 863q52 0 87 -36t35 -86v-480q0 -110 -130 -184q-140 -80 -351 -78q-253 3 -454 127q-257 159 -327 466q-23 104 -23 223q0 363 204.5 580t544.5 217q134 0 246 -27.5t177 -76.5q40 -30 55 -69t5.5 -73t-37.5 -59t-67 -30q-34 -4 -72 11t-71 36t-96.5 39t-139.5 18
q-236 0 -364 -146t-128 -420q0 -125 39.5 -228.5t109.5 -173t168 -111t214.5 -41.5t248.5 35v340h-214q-57 0 -89.5 35.5t-32.5 78t32.5 78t89.5 35.5h340zM1168 296h4h-4z" />
    <glyph glyph-name="H" unicode="H" horiz-adv-x="1416" 
d="M379 126q0 -47 -25.5 -79.5t-62 -40t-73 0t-62 40t-25.5 79.5v1342q0 41 18.5 71t46 43.5t59.5 14t59.5 -13t46 -43.5t18.5 -72v-610h658v610q0 41 18.5 71t46 43.5t59.5 14t59.5 -13t46 -43.5t18.5 -72v-1342q0 -47 -25.5 -79.5t-62 -40t-73 0t-62 40t-25.5 79.5v501
h-658v-501z" />
    <glyph glyph-name="I" unicode="I" horiz-adv-x="509" 
d="M379 1490v-1364q0 -47 -25.5 -79.5t-62 -40t-73 0t-62 40t-25.5 79.5v1364q0 47 25.5 79.5t62 40t73 0t62 -40t25.5 -79.5z" />
    <glyph glyph-name="J" unicode="J" horiz-adv-x="958" 
d="M915 436q0 -94 -32.5 -174.5t-86 -135t-125.5 -88.5t-148.5 -41t-156.5 13t-148 68q-96 67 -86 150q7 57 59 87q56 33 107 -2q11 -7 20 -17q43 -43 74.5 -54.5t95.5 -14.5q90 -7 132 64t42 223v994q0 42 18.5 72.5t47 44t61 13.5t61 -13.5t47 -44t18.5 -72.5v-1072z" />
    <glyph glyph-name="K" unicode="K" horiz-adv-x="1302" 
d="M963 1547q45 56 111 36.5t87.5 -79t-19.5 -123.5l-379 -427l357 -762q37 -78 1 -136.5t-102.5 -53.5t-103.5 81l-327 671l-213 -244v-379q0 -36 -13.5 -64t-35 -42t-47.5 -20.5t-52 0.5t-47.5 21.5t-35 42t-13.5 62.5v1337q0 47 25 80t61 41t72 0.5t61 -40.5t25 -81v-588
z" />
    <glyph glyph-name="L" unicode="L" horiz-adv-x="1024" 
d="M131 344v1133q0 38 14 67.5t36 44.5t49 22.5t54 0t49 -22.5t36 -44.5t14 -67.5v-1111q0 -131 122 -131h271q56 0 87.5 -36.5t31.5 -81t-31.5 -81t-87.5 -36.5h-271q-215 0 -294.5 73.5t-79.5 270.5z" />
    <glyph glyph-name="M" unicode="M" horiz-adv-x="1729" 
d="M1272 1486q23 62 78 94t110 28t97 -43.5t42 -104.5v-1347q0 -56 -39.5 -87.5t-87 -31.5t-87 31.5t-39.5 87.5v894l-366 -937q-21 -48 -70.5 -66.5t-98.5 0t-70 66.5l-366 937v-898q0 -54 -38 -85t-84 -31t-84 31t-38 85v1351q0 65 42 104t97 43t110 -26.5t78 -90.5
l413 -1063z" />
    <glyph glyph-name="N" unicode="N" horiz-adv-x="1451" 
d="M1076 1477q0 42 18 72.5t45 44t59 13.5t59 -13.5t45 -44t18 -72.5v-1355q0 -69 -47.5 -103t-110.5 -18t-103 77l-684 1068v-1028q0 -57 -38 -89.5t-84 -32.5t-84 32.5t-38 89.5v1350q0 60 33 97t79 43.5t97.5 -18.5t86.5 -78l649 -1011v976z" />
    <glyph glyph-name="O" unicode="O" horiz-adv-x="1695" 
d="M850 -22q-148 0 -281.5 64t-229 172t-152 257t-56.5 313t56.5 313t152 257t229 172t281.5 64q146 0 278.5 -64t228 -172t151.5 -257t56 -313t-56 -313t-151.5 -257t-228 -172t-278.5 -64zM867 218q124 0 230 76.5t167 207t61 282.5t-61 282.5t-167 207.5t-230 77
t-229.5 -77t-166.5 -207.5t-61 -282.5t61 -282.5t166.5 -207t229.5 -76.5z" />
    <glyph glyph-name="P" unicode="P" horiz-adv-x="1289" 
d="M131 118v1372q0 52 34.5 87t87.5 35q141 0 248 -4.5t200 -15.5t158.5 -28t119 -45t86 -63t55 -84.5t31 -107.5t8.5 -135q0 -254 -149.5 -386.5t-434.5 -132.5h-196v-492q0 -57 -38.5 -89.5t-85.5 -32.5t-85.5 32.5t-38.5 89.5zM379 841h196q176 0 256 68t80 215
q0 57 -6 93t-27.5 67t-55 47.5t-96.5 28.5t-143 16t-204 5v-540z" />
    <glyph glyph-name="Q" unicode="Q" horiz-adv-x="1695" 
d="M1373 -4q10 -7 -6.5 -35.5t-50.5 -65.5l-13 -13q-81 -74 -100 -61l-188 179q-88 -22 -165 -22q-148 0 -281.5 64t-229 172t-152 257t-56.5 313t56.5 313t152 257t229 172t281.5 64q146 0 278.5 -64t228 -172t151.5 -257t56 -313q0 -205 -84.5 -381t-228.5 -290zM410 784
q0 -152 61 -282.5t166.5 -207t229.5 -76.5t230 76.5t167 207t61 282.5t-61 282.5t-167 207.5t-230 77t-229.5 -77t-166.5 -207.5t-61 -282.5z" />
    <glyph glyph-name="R" unicode="R" horiz-adv-x="1363" 
d="M131 126v1351q0 52 36.5 87t89.5 35q186 0 317 -8t236 -29t168.5 -53.5t106 -86.5t58.5 -122.5t16 -166.5q0 -297 -235 -405l292 -545q39 -72 1.5 -129t-108 -53.5t-111.5 77.5l-323 593l-292 -4v-541q0 -47 -26 -80t-63 -41t-74 -0.5t-63 40.5t-26 81zM383 893
q125 1 204 4.5t142 14.5t94.5 25t52 43t25.5 61.5t5 87.5q0 54 -6 87.5t-27.5 62t-54 43.5t-95 26t-141 15t-199.5 5v-475z" />
    <glyph glyph-name="S" unicode="S" horiz-adv-x="1315" 
d="M632 0q-264 0 -388 70q-113 64 -113 174v17q0 57 29.5 92t83.5 35q30 0 57 -16t52 -39t57 -46.5t87 -39.5t126 -16q141 0 225 60t84 153q0 40 -11 72t-35 56t-49 41t-65.5 32t-70.5 24.5t-79 23t-77 22.5q-211 67 -304 174.5t-93 265.5q0 150 73 254.5t196 153.5t285 49
q191 0 322 -52q67 -26 96.5 -66t29.5 -100v-8q0 -55 -30 -88.5t-79 -33.5q-29 0 -62.5 18.5t-62.5 40t-86 40t-128 18.5q-123 0 -199 -57.5t-76 -168.5q0 -32 9.5 -58.5t32 -47.5t46 -37t64.5 -31.5t74.5 -26.5t87.5 -26q257 -75 350.5 -177.5t93.5 -306.5
q0 -210 -135.5 -327t-417.5 -117z" />
    <glyph glyph-name="T" unicode="T" horiz-adv-x="1446" 
d="M253 1377q-57 0 -89.5 36t-32.5 79.5t32.5 79.5t89.5 36h945q56 0 87.5 -36t31.5 -79.5t-31.5 -79.5t-87.5 -36h-322v-1255q0 -47 -26 -80t-63 -41t-74.5 -0.5t-63.5 40.5t-26 81v1255h-370z" />
    <glyph glyph-name="U" unicode="U" horiz-adv-x="1468" 
d="M1338 584q0 -143 -52 -257.5t-136.5 -183.5t-193 -106t-222 -35.5t-222 40t-193 109t-136.5 183t-52 250.5v902q0 36 14 64t36 42.5t49 21.5t54 0t49 -21.5t36 -42.5t14 -64v-906q0 -170 89.5 -253t272.5 -83q180 0 262 80t82 256v910q0 41 18.5 71t46 43.5t60 14t60 -13
t46 -43.5t18.5 -72v-906z" />
    <glyph glyph-name="V" unicode="V" horiz-adv-x="1538" 
d="M623 109l-479 1320q-13 38 -11 70.5t18 53.5t38.5 34.5t50 14.5t53 -7t48 -31t34.5 -56l396 -1098l388 1093q29 85 100 106q61 18 108 -20q55 -47 35 -134q-3 -13 -8 -26l-479 -1320q-17 -49 -59 -75.5t-87 -26.5t-87 26.5t-59 75.5z" />
    <glyph glyph-name="W" unicode="W" horiz-adv-x="2248" 
d="M1983 1503q17 53 51 82.5t67.5 28.5t63.5 -20.5t38.5 -63.5t-7.5 -101l-431 -1320q-16 -49 -53.5 -75.5t-77.5 -26.5t-77.5 26.5t-53.5 75.5l-335 1037l-336 -1037q-16 -49 -53 -75.5t-77.5 -26.5t-77.5 26.5t-53 75.5l-432 1320q-29 92 23 144q41 40 98 27
q63 -16 88 -89l1 -3l353 -1094l348 1089q21 64 63 92.5t83 16t63 -55.5q16 -23 22 -48l357 -1094z" />
    <glyph glyph-name="X" unicode="X" horiz-adv-x="1542" 
d="M375 0q-47 -71 -127 -70q-65 1 -99 45q-40 54 8 121l444 680l-453 692q-41 68 1 123q35 45 97 44q75 -1 120 -75l405 -623l392 619q53 82 133 83q63 0 97 -46q40 -54 -1 -120q-3 -4 -6 -9l-445 -680l453 -692q41 -67 -1 -119q-36 -45 -99 -43q-73 2 -117 70l-401 623z
" />
    <glyph glyph-name="Y" unicode="Y" horiz-adv-x="1542" 
d="M153 1464q-43 72 0 124q36 43 99 39q71 -4 114 -67l405 -619l397 619q48 76 127 76q63 0 98 -45q41 -54 -2 -120q-3 -4 -5 -7l-484 -736v-602q0 -47 -26 -80t-63 -41t-74.5 -0.5t-63.5 40.5t-26 81v597z" />
    <glyph glyph-name="Z" unicode="Z" horiz-adv-x="1442" 
d="M1168 222q45 0 76 -23t38.5 -55.5t1 -65t-36.5 -55.5t-75 -23h-919q-59 0 -91.5 38t-29 95t41.5 111l802 1142h-680q-47 0 -79.5 24t-39.5 58t1 67.5t41.5 57.5t81.5 24h880q106 0 127.5 -73t-49.5 -171l-806 -1151h715z" />
    <glyph glyph-name="bracketleft" unicode="[" horiz-adv-x="649" 
d="M196 -78q-46 0 -77.5 29.5t-31.5 74.5v1534q0 45 31.5 75t77.5 30h275q39 0 65 -26.5t26 -65.5v-4q0 -39 -26 -65.5t-65 -26.5h-175v-1368h175q39 0 65 -26.5t26 -65.5v-4q0 -39 -26 -65t-65 -26h-275z" />
    <glyph glyph-name="backslash" unicode="\" horiz-adv-x="854" 
d="M566 -48l-470 1530q-12 42 -3.5 79t35.5 54t56.5 19.5t59 -23t44.5 -73.5l470 -1525q9 -31 7 -58t-15 -45t-31 -30t-40.5 -13t-43.5 6t-39.5 28t-29.5 51z" />
    <glyph glyph-name="bracketright" unicode="]" horiz-adv-x="631" 
d="M436 -78h-275q-39 0 -65 26t-26 65v4q0 39 26 65.5t65 26.5h175v1368h-175q-39 0 -65 26.5t-26 65.5v4q0 39 26 65.5t65 26.5h275q46 0 77.5 -30t31.5 -75v-1534q0 -45 -31.5 -74.5t-77.5 -29.5z" />
    <glyph glyph-name="asciicircum" unicode="^" horiz-adv-x="784" 
d="M109 1573l174 235q43 58 109.5 58t112.5 -58l175 -235q17 -28 16 -56.5t-20.5 -48.5t-44.5 -30.5t-55.5 -3t-52.5 33.5l-126 157l-131 -157q-41 -47 -95.5 -40.5t-73 49.5t11.5 96z" />
    <glyph glyph-name="underscore" unicode="_" horiz-adv-x="976" 
d="M889 -13q0 -40 -24 -66t-63 -26h-623q-43 0 -67.5 24.5t-24.5 67.5v4q0 43 24.5 67.5t67.5 24.5h623q39 0 63 -26t24 -66v-4z" />
    <glyph glyph-name="a" unicode="a" horiz-adv-x="1207" 
d="M523 4q-183 0 -287.5 104t-104.5 284q0 81 26 146.5t72 110t108.5 74.5t137 43t154.5 12t164 -15v43q0 16 -2 30.5t-10.5 35.5t-23 36.5t-42 31t-65 23t-95 7.5t-128.5 -11q-83 -12 -123 44q-34 48 -11 103q27 65 112 78l13 1q610 55 610 -379l5 -457q1 -72 -16 -128
t-40.5 -92t-68 -61t-79 -37.5t-95.5 -19t-94 -7t-96 -0.5h-21zM536 227q145 0 196.5 16.5t51.5 57.5v231q-71 17 -143.5 18.5t-135.5 -12.5t-103 -54t-40 -101q0 -156 174 -156z" />
    <glyph glyph-name="b" unicode="b" horiz-adv-x="1333" 
d="M658 0q-296 0 -411.5 75.5t-115.5 273.5v1119q0 64 31.5 104t85.5 40q62 0 94.5 -37.5t32.5 -106.5v-396q159 118 353 118q230 0 352.5 -160t122.5 -450q0 -285 -137.5 -432.5t-407.5 -147.5zM658 222q161 0 228.5 79.5t67.5 269.5q0 194 -65 295t-187 101
q-84 0 -163 -43t-164 -135v-440q0 -32 1.5 -49t12 -34t26 -23.5t50.5 -12.5t78 -7t115 -1z" />
    <glyph glyph-name="c" unicode="c" horiz-adv-x="1176" 
d="M641 1190q204 0 370 -135q35 -27 35 -75v-43q0 -55 -40.5 -78t-86.5 4q-129 94 -278 100q-97 5 -163.5 -69.5t-81.5 -184.5t0 -220.5t81.5 -188.5t163.5 -78q71 0 136 29.5t138 92.5q49 29 90 7.5t41 -76.5v-53q0 -43 -31 -74q-175 -148 -374 -148q-140 0 -249.5 65.5
t-166 170.5t-82.5 232t0.5 254t83 232t166 170.5t248.5 65.5z" />
    <glyph glyph-name="d" unicode="d" horiz-adv-x="1333" 
d="M675 -70q-270 0 -407 147t-137 433q0 288 128.5 449t359.5 161q181 0 340 -118v397q0 70 32 107t94 37q54 0 86 -40t32 -104v-1120q0 -198 -116 -273.5t-412 -75.5zM675 153q54 0 90 0.5t68 3.5t50.5 6t34.5 11t22.5 15.5t11.5 22.5t6 29t1 38v440q-85 92 -164 135.5
t-163 43.5q-122 0 -187.5 -101.5t-65.5 -295.5q0 -189 67.5 -268.5t228.5 -79.5z" />
    <glyph glyph-name="e" unicode="e" horiz-adv-x="1163" 
d="M641 1185q183 0 287.5 -104t104.5 -284q0 -81 -26 -146.5t-72.5 -109.5t-109 -74t-137 -43t-154.5 -12t-164 15v-44q0 -208 471 -148q74 10 110.5 -44t8.5 -115t-110 -67q-111 -7 -201 -7t-161 14t-125 32t-93 47t-65 59.5t-41.5 69.5t-22 77t-6.5 82l-4 458
q-1 72 16 127.5t40 91.5t68 61t79 37.5t95 19t93.5 7t96.5 0.5h22zM627 963q-145 0 -196.5 -16.5t-51.5 -57.5v-231q71 -17 143.5 -19t136 12.5t103.5 54t40 100.5q0 157 -175 157z" />
    <glyph glyph-name="f" unicode="f" horiz-adv-x="954" 
d="M710 1194q54 0 85 -38t31 -84t-31 -84t-85 -38h-187v-832q0 -52 -34.5 -85t-87.5 -33h-4q-50 0 -84 33t-34 85v832h-31q-56 0 -87.5 38t-31.5 84t31.5 84t87.5 38h31v70q0 160 86 250t236 90q59 0 87 -5q42 -7 71.5 -36.5t29.5 -72.5v-4q0 -54 -27 -81.5t-87 -27.5
q-12 0 -31.5 2t-24.5 2q-56 0 -76 -25t-20 -97v-65h187z" />
    <glyph glyph-name="g" unicode="g" horiz-adv-x="1298" 
d="M1168 819v-96v-13v-741q0 -193 -101 -305.5t-274 -112.5l-266 5q-44 1 -73.5 25t-37.5 58.5t-2.5 68.5t31.5 59t65 28h266q143 0 143 166v56q-80 -17 -244 -17q-270 0 -407 147t-137 433q0 284 137 447t373 163q129 0 252.5 -55t199 -141.5t75.5 -174.5zM919 288v470
q0 50 -13 79t-48 52q-92 74 -222 74q-122 0 -189.5 -102t-67.5 -290q0 -189 64.5 -269t214.5 -80q110 0 163.5 6t73 19t24.5 41z" />
    <glyph glyph-name="h" unicode="h" horiz-adv-x="1307" 
d="M244 0q-49 0 -81 32t-32 81v1355q0 64 31.5 104t85.5 40q62 0 94.5 -37.5t32.5 -106.5v-374q142 96 327 96q228 0 351.5 -159t123.5 -451v-467q0 -49 -32.5 -81t-81.5 -32h-22q-49 0 -81 32t-32 81v449q0 196 -61 296.5t-179 100.5q-84 0 -154 -40t-159 -139v-667
q0 -49 -32.5 -81t-81.5 -32h-17z" />
    <glyph glyph-name="i" unicode="i" horiz-adv-x="501" 
d="M135 1407v70q0 54 36.5 85.5t81 32t81 -30.5t36.5 -87v-70q0 -56 -36.5 -87.5t-81 -31.5t-81 31.5t-36.5 87.5zM248 0q-50 0 -83.5 33t-33.5 85v932q0 66 29.5 103t87.5 37t90 -37t32 -103v-932q0 -52 -33.5 -85t-83.5 -33h-5z" />
    <glyph glyph-name="j" unicode="j" horiz-adv-x="749" 
d="M423 1390v70q0 54 36.5 85.5t81 32t81 -30.5t36.5 -87v-70q0 -56 -36.5 -87.5t-81 -31.5t-81 31.5t-36.5 87.5zM340 -436h-92q-42 0 -72 22.5t-38 55t-3.5 65.5t30.5 57t66 27h91q92 0 92 144l4 1146q0 56 38 87.5t84 31.5t84 -31.5t38 -87.5v-1138q0 -186 -88 -282.5
t-234 -96.5z" />
    <glyph glyph-name="k" unicode="k" horiz-adv-x="1146" 
d="M688 749l253 -544q23 -46 30.5 -70t-0.5 -51.5t-39 -52.5q-49 -39 -103.5 -27t-83.5 70l-235 479l-135 -148v-296q0 -49 -32.5 -81t-81.5 -32h-17q-49 0 -81 32t-32 81v1355q0 64 31.5 104t85.5 40q62 0 94.5 -37.5t32.5 -106.5v-697l87 96l113 126l214 231
q40 44 85.5 52t92.5 -26q48 -40 47 -89t-47 -102z" />
    <glyph glyph-name="l" unicode="l" horiz-adv-x="505" 
d="M131 113v1355q0 64 31.5 104t85.5 40q62 0 94.5 -37.5t32.5 -106.5v-1355q0 -49 -32.5 -81t-81.5 -32h-17q-49 0 -81 32t-32 81z" />
    <glyph glyph-name="m" unicode="m" horiz-adv-x="1939" 
d="M1329 1194q231 0 355 -159t124 -451v-466q0 -44 -25.5 -73.5t-62 -36.5t-73 0t-62 36.5t-25.5 73.5v448q0 195 -59.5 296t-171.5 101q-74 0 -131 -20.5t-113 -66.5q35 -132 35 -301v-457q0 -54 -39 -85t-85.5 -31t-85.5 31t-39 85v457q0 206 -42 297t-132 91
q-91 0 -162 -40t-160 -139v-666q0 -54 -38 -85t-84 -31t-84 31t-38 85v932q0 64 31.5 104t85.5 40q62 0 94.5 -37.5t32.5 -106.5v48q142 96 322 96q193 0 296 -122q164 122 336 122z" />
    <glyph glyph-name="n" unicode="n" horiz-adv-x="1307" 
d="M697 1185q232 0 356 -160.5t124 -458.5v-457q0 -54 -39 -85t-85.5 -31t-85.5 31t-39 85v457q0 189 -60 288.5t-171 99.5q-91 0 -162 -39.5t-160 -138.5v-667q0 -54 -38 -85t-84 -31t-84 31t-38 85v941q0 64 31.5 104t85.5 40q52 0 83.5 -28t38.5 -77q151 96 327 96z" />
    <glyph glyph-name="o" unicode="o" horiz-adv-x="1407" 
d="M1277 597q0 -268 -158.5 -432.5t-416.5 -164.5q-255 0 -413 165t-158 432q0 265 158 429t413 164q261 0 418 -162.5t157 -430.5zM375 597q0 -179 86 -277t241 -98q157 0 244 98t87 277q0 176 -87 271t-244 95t-242 -95t-85 -271z" />
    <glyph glyph-name="p" unicode="p" horiz-adv-x="1298" 
d="M649 1190q252 0 385.5 -149.5t133.5 -430.5q0 -295 -133.5 -452.5t-385.5 -157.5q-187 0 -274 39v-327q0 -69 -32.5 -106t-94.5 -37q-54 0 -85.5 39.5t-31.5 103.5v1129q0 105 24.5 171t86.5 106.5t157.5 56t249.5 15.5zM649 967q-206 0 -240 -15t-34 -104v-7v-514
q52 -55 111.5 -75.5t162.5 -20.5q137 0 203.5 96t66.5 292q0 182 -64.5 265t-205.5 83z" />
    <glyph glyph-name="q" unicode="q" horiz-adv-x="1298" 
d="M649 1185q123 0 207 -10t146.5 -33t97.5 -64t51.5 -99t16.5 -142v-1129q0 -64 -32 -104t-86 -40q-62 0 -94 37t-32 107v327q-87 -39 -275 -39q-251 0 -384.5 157.5t-133.5 452.5q0 281 133 430t385 149zM649 963q-141 0 -205.5 -83t-64.5 -266q0 -196 66.5 -291.5
t203.5 -95.5q103 0 163 20t112 75v515v5q0 91 -34.5 106t-240.5 15z" />
    <glyph glyph-name="r" unicode="r" horiz-adv-x="993" 
d="M244 0q-49 0 -81 32t-32 81v963q0 57 38 90t84 33.5t84 -32t38 -91.5v-100q88 66 195.5 113.5t192.5 47.5q64 0 90.5 -55.5t-3 -111t-101.5 -55.5q-90 0 -191.5 -46t-182.5 -133v-623q0 -49 -32.5 -81t-81.5 -32h-17z" />
    <glyph glyph-name="s" unicode="s" horiz-adv-x="1132" 
d="M553 -17q-111 0 -207 24t-154 67q-61 54 -61 109v4q0 73 59.5 93t131.5 -32q46 -36 97.5 -50.5t133.5 -14.5q118 0 174.5 39.5t56.5 121.5q0 61 -46 89t-206 68q-199 46 -285 127t-86 222q0 153 115 246.5t299 93.5q170 0 310 -74q66 -40 69 -106.5t-47.5 -88.5
t-130.5 25q-28 15 -85 29t-116 14q-102 0 -149 -31t-47 -100q0 -63 42 -92.5t172 -55.5q227 -53 318 -132t91 -225q0 -175 -119.5 -272.5t-329.5 -97.5z" />
    <glyph glyph-name="t" unicode="t" horiz-adv-x="1063" 
d="M819 1194q54 0 85 -38t31 -84t-31 -84t-85 -38h-244l5 -545q0 -88 37 -135.5t106 -47.5h74q48 -3 75 -37t26 -74t-31.5 -74t-82.5 -37l-78 -4q-171 -10 -273 106.5t-102 311.5v536h-83q-56 0 -87.5 38t-31.5 84t31.5 84t87.5 38h83v122q0 56 38 87.5t84 31.5t84 -31.5
t38 -87.5v-122h244z" />
    <glyph glyph-name="u" unicode="u" horiz-adv-x="1307" 
d="M932 1081q0 44 25 73.5t61 36.5t72.5 0t61.5 -36.5t25 -73.5v-933q0 -64 -32 -106t-86 -42q-121 0 -127 179q-47 -70 -143 -124.5t-179 -54.5q-231 0 -355 162t-124 461v458q0 54 38.5 85t85.5 31t85.5 -31t38.5 -85v-458q0 -189 60 -288.5t171 -99.5q91 0 162 40
t160 139v667z" />
    <glyph glyph-name="v" unicode="v" horiz-adv-x="1224" 
d="M540 83l-392 906q-25 48 -14 98t58 72q56 29 102 9t72 -83l292 -675l288 675q26 63 72 83t102 -9q47 -22 57.5 -72t-14.5 -98l-392 -906q-14 -38 -47 -58.5t-68.5 -20.5t-68.5 20.5t-47 58.5z" />
    <glyph glyph-name="w" unicode="w" horiz-adv-x="2082" 
d="M144 1002q-33 71 8.5 125.5t112.5 46.5t110 -89l274 -671l275 667q16 44 51 68.5t73 25.5t73 -22.5t51 -67.5l275 -671l274 667q27 74 96 81.5t113 -48.5t9 -134l-383 -923q-17 -38 -64 -53t-94.5 0t-64.5 57l-283 693l-292 -697q-17 -38 -64 -53t-94 0t-64 57z" />
    <glyph glyph-name="x" unicode="x" horiz-adv-x="1228" 
d="M1085 139q33 -63 -11 -107q-40 -39 -105 -31q-61 8 -102 60l-253 366l-252 -370q-51 -64 -127 -58q-63 5 -91 49.5t4 99.5l305 445l-309 444q-31 58 3.5 101t101 41.5t113.5 -55.5l252 -370l253 370q51 64 127 58q63 -5 91 -50q27 -45 -4 -99l-305 -440z" />
    <glyph glyph-name="y" unicode="y" horiz-adv-x="1220" 
d="M131 946q-12 43 -1 75.5t33 57.5t54 34t62.5 6t58 -26.5t41.5 -64.5l153 -675l326 763q33 73 102 79.5t109 -51.5t3 -142l-562 -1346q-37 -74 -107.5 -88t-115 33.5t-17.5 123.5l118 266z" />
    <glyph glyph-name="z" unicode="z" horiz-adv-x="1246" 
d="M1089 998l-610 -789h440q57 0 89.5 -26.5t32.5 -77.5q0 -49 -33 -77t-89 -28h-662q-85 0 -117 53.5t21 125.5l619 793h-479q-49 0 -81.5 29.5t-32.5 74.5q0 46 32.5 75.5t81.5 29.5h662q90 0 132 -59t-6 -124z" />
    <glyph glyph-name="braceleft" unicode="{" horiz-adv-x="832" 
d="M179 484q-38 0 -65 27t-27 64v5q0 39 26.5 65t65.5 26h26q42 0 60 17.5t18 56.5v401q0 140 75.5 214t216.5 74h79q39 0 65 -26.5t26 -65.5v-4q0 -39 -26 -65.5t-65 -26.5h-70q-52 0 -72 -22t-20 -78v-401q0 -107 -65 -165q65 -58 65 -170v-427q0 -58 21.5 -81.5
t70.5 -23.5h70q39 0 65 -26.5t26 -65.5v-4q0 -39 -26 -65t-65 -26h-79q-140 0 -216 76t-76 216v431q0 39 -17.5 54.5t-60.5 15.5h-26z" />
    <glyph glyph-name="bar" unicode="|" horiz-adv-x="370" 
d="M87 1377q0 43 26.5 69.5t69.5 26.5h4q43 0 69.5 -26.5t26.5 -69.5v-1560q0 -43 -26.5 -69.5t-69.5 -26.5h-4q-43 0 -69.5 26.5t-26.5 69.5v1560z" />
    <glyph glyph-name="braceright" unicode="}" horiz-adv-x="832" 
d="M627 527q-43 0 -60.5 -15t-17.5 -54v-432q0 -140 -76 -216t-216 -76h-78q-39 0 -65.5 26.5t-26.5 65.5v4q0 39 26.5 65.5t65.5 26.5h69q50 0 71 23t21 81v427q0 112 65 170q-65 58 -65 166v401q0 56 -20 78t-72 22h-69q-39 0 -65.5 26t-26.5 65v5q0 39 26.5 65t65.5 26
h78q141 0 216.5 -73.5t75.5 -213.5v-401q0 -39 18 -56.5t60 -17.5h27q39 0 65 -26.5t26 -65.5v-4q0 -37 -26.5 -64.5t-64.5 -27.5h-27z" />
    <glyph glyph-name="asciitilde" unicode="~" horiz-adv-x="949" 
d="M235 1015q-32 -31 -62 -34.5t-49 15t-30 45t-8.5 56.5t19.5 49q45 53 93.5 80t91 27.5t77 -11.5t60.5 -35q42 -36 81 -47.5t70 -0.5t54 30.5t43 48.5q21 31 52 43t58 3.5t49.5 -28t26.5 -51.5t-11 -68q-47 -101 -135.5 -143t-187.5 -22q-31 7 -73 31t-71 40.5t-69 13
t-79 -41.5z" />
    <glyph glyph-name="exclamdown" unicode="&#xa1;" horiz-adv-x="527" 
d="M131 1133q0 56 38.5 93.5t96.5 37.5q55 0 93 -39t38 -92q0 -54 -38.5 -94.5t-92.5 -40.5q-56 0 -95.5 40t-39.5 95zM166 780q3 43 29.5 69.5t65.5 26.5h5q42 0 66.5 -26.5t24.5 -69.5q13 -725 13 -1068q0 -49 -29 -79t-75 -30h-5q-46 0 -77 31.5t-31 77.5q0 153 3.5 420
t6.5 458z" />
    <glyph glyph-name="cent" unicode="&#xa2;" horiz-adv-x="1150" 
d="M1011 -113q-108 -89 -270 -109v-122q0 -43 -30 -68t-66 -25.5t-66 24t-30 69.5v122q-216 29 -339 188.5t-123 408.5q0 244 124.5 404t337.5 193v39q0 43 30 67t66 23.5t66 -24.5t30 -66v-39q140 -13 248 -83q44 -34 54 -82t-16 -83.5t-77 -35.5l-209 92v-815
q43 6 72 17.5t44.5 24.5t27 26t27.5 25.5t38 19.5q31 10 55.5 3t37.5 -30.5t16.5 -51t-9.5 -59t-39 -53.5zM296 375q0 -170 64.5 -273.5t188.5 -132.5v811q-119 -33 -186 -139.5t-67 -265.5z" />
    <glyph glyph-name="sterling" unicode="&#xa3;" horiz-adv-x="1215" 
d="M166 -9q-39 0 -62.5 31t-22 70t18.5 74q41 55 62 82.5t44.5 66.5t32.5 55.5t17.5 52t8 52.5t-4.5 60.5t-10 73.5t-19 93h-74q-49 5 -76.5 37t-26.5 68t29.5 65.5t77.5 29.5h35q-75 383 43 566t441 183q114 0 216.5 -33.5t175.5 -92.5q42 -32 52 -82t-17 -88.5t-79 -38.5
q-27 0 -52.5 13t-50 31.5t-55 37t-79.5 31.5t-111 13q-88 0 -144 -15.5t-92.5 -51t-47.5 -99.5t-5 -153t32 -221h357q46 0 72 -31t25.5 -69t-26.5 -69t-71 -31h-322q15 -115 16.5 -193t-17.5 -160t-65 -149h667q48 0 75.5 -32.5t28 -72t-27 -72t-76.5 -32.5h-893z" />
    <glyph glyph-name="yen" unicode="&#xa5;" horiz-adv-x="1237" 
d="M1050 1503q63 0 90.5 -52.5t-7.5 -108.5l-340 -588h209q34 0 53.5 -29.5t19.5 -64.5t-19.5 -64.5t-53.5 -29.5h-270v-78h270q34 0 53.5 -29t19.5 -64.5t-19.5 -64.5t-53.5 -29h-270v-266q0 -45 -31 -75t-74 -30h-4q-46 0 -77.5 30t-31.5 75v266h-270q-42 0 -66 29
t-24.5 64.5t23.5 64.5t67 29h270v78h-270q-31 0 -48.5 29.5t-17.5 64.5t17.5 64.5t48.5 29.5h205l-340 584q-37 56 -9 110.5t96 54.5q59 0 96 -65l335 -580l332 584q34 61 91 61z" />
    <glyph glyph-name="brokenbar" unicode="&#xa6;" horiz-adv-x="352" 
d="M275 815q0 -43 -26.5 -69.5t-69.5 -26.5h-5q-43 0 -69.5 26.5t-26.5 69.5v667q0 43 26.5 69t69.5 26h5q43 0 69.5 -26t26.5 -69v-667zM275 -170q0 -43 -26.5 -69.5t-69.5 -26.5h-5q-43 0 -69.5 26.5t-26.5 69.5v667q0 43 26.5 69.5t69.5 26.5h5q43 0 69.5 -26.5
t26.5 -69.5v-667z" />
    <glyph glyph-name="section" unicode="&#xa7;" horiz-adv-x="1207" 
d="M558 -244q-108 0 -211.5 37.5t-167.5 80.5q-31 20 -43 49.5t-4.5 55t25.5 47t47.5 25t61.5 -11.5q225 -118 388 -95q103 14 134 79q32 67 -34 143q-78 90 -262 143q-114 33 -202.5 87.5t-139 117t-69 132.5t-2.5 134t69.5 120.5t139.5 92.5q-137 105 -122 244
q13 120 130 214q134 109 327 121q151 10 301 -47q67 -26 79 -90q10 -56 -25 -91q-36 -37 -93 -15q-246 81 -397 36q-93 -27 -108 -90q-16 -67 66 -131q75 -60 212 -94q119 -30 214 -84t151 -118.5t80 -138t11 -141t-66 -128.5t-142 -100q55 -51 79.5 -116t18 -128.5
t-41.5 -125.5t-90.5 -109t-137.5 -76t-176 -29zM675 458q183 21 228 105q37 70 -39 150q-97 103 -315 156l-9 2q-85 -9 -145 -32.5t-88.5 -55t-28 -70.5t29.5 -77t91 -75t150 -64z" />
    <glyph glyph-name="copyright" unicode="&#xa9;" horiz-adv-x="688" 
d="M340 959q-132 0 -218.5 83.5t-86.5 216.5t86.5 215t218.5 82q74 0 134 -25.5t97 -67.5t57 -96t20 -109.5t-20 -109.5t-57 -96t-97 -67.5t-134 -25.5zM340 1041q69 0 119.5 32.5t74 80.5t23.5 105t-22.5 105t-73.5 80.5t-121 32.5q-69 0 -119.5 -32.5t-74 -80.5
t-23.5 -105t22.5 -105t73.5 -80.5t121 -32.5zM349 1124q-63 0 -99 35t-36 100q0 61 38 98t97 37q46 0 78 -17q22 -19 15 -40t-28 -21q-4 0 -25.5 11t-39.5 11q-33 0 -51.5 -21.5t-18.5 -57.5q0 -78 70 -78q24 0 41 13t28 13q10 0 18 -9t8 -21q0 -18 -13 -31q-37 -22 -82 -22
z" />
    <glyph glyph-name="guillemotleft" unicode="&#xab;" horiz-adv-x="1093" 
d="M505 135q-50 0 -87 52l-296 362q-29 36 -32.5 78.5t19.5 78.5l318 392q25 30 57.5 38.5t59.5 -4.5t45.5 -35t18.5 -54.5t-24 -62.5l-266 -344l270 -340q22 -35 19.5 -70.5t-30 -63t-67.5 -27.5h-5zM902 135q-50 0 -87 52l-296 362q-29 36 -33 78.5t19 78.5l319 392
q25 30 57.5 38.5t59 -4.5t45.5 -35t18.5 -54.5t-24.5 -62.5l-265 -344l270 -340q36 -49 9.5 -105t-88.5 -56h-4z" />
    <glyph glyph-name="registered" unicode="&#xae;" horiz-adv-x="784" 
d="M392 959q-132 0 -218.5 83.5t-86.5 216.5t86.5 215t218.5 82q74 0 134 -25.5t97 -67.5t57 -96t20 -109.5t-20 -109.5t-57 -96t-97 -67.5t-134 -25.5zM392 1041q69 0 119.5 32.5t74 80.5t23.5 105t-22.5 105t-73.5 80.5t-121 32.5q-69 0 -119.5 -32.5t-74 -80.5
t-23.5 -105t22.5 -105t73.5 -80.5t121 -32.5zM344 1142q-14 0 -20 5t-6 21v183q0 16 9 25.5t22 9.5h61q87 0 87 -79q0 -46 -44 -61l44 -69q9 -13 2.5 -24t-20.5 -11q-21 0 -26 17l-48 79h-39v-70q0 -26 -22 -26zM366 1272h39q48 0 48 35q0 44 -48 44h-39v-79z" />
    <glyph glyph-name="degree" unicode="&#xb0;" horiz-adv-x="888" 
d="M131 1477q0 134 89.5 224t223.5 90q137 0 225.5 -88.5t88.5 -225.5q0 -134 -90 -224t-224 -90t-223.5 90t-89.5 224zM322 1477q0 -58 34.5 -94.5t87.5 -36.5q55 0 88.5 36t33.5 95q0 62 -33 98.5t-89 36.5q-53 0 -87.5 -38.5t-34.5 -96.5z" />
    <glyph glyph-name="plusminus" unicode="&#xb1;" horiz-adv-x="1093" 
d="M911 915q48 0 78.5 -31.5t30.5 -77.5v-4q0 -49 -30.5 -81.5t-78.5 -32.5h-266v-178q0 -48 -31.5 -78.5t-77.5 -30.5h-4q-49 0 -81.5 30.5t-32.5 78.5v178h-265q-48 0 -78.5 32.5t-30.5 81.5v4q0 46 30.5 77.5t78.5 31.5h265v179q0 48 32.5 78.5t81.5 30.5h4
q46 0 77.5 -30.5t31.5 -78.5v-179h266zM854 270q48 0 78.5 -31.5t30.5 -77.5v-4q0 -49 -30.5 -81t-78.5 -32h-627q-48 0 -78.5 32t-30.5 81v4q0 46 30.5 77.5t78.5 31.5h627z" />
    <glyph glyph-name="acute" unicode="&#xb4;" horiz-adv-x="514" 
d="M65 1407q-37 -6 -56.5 27.5t-7.5 72t51 44.5l401 57q35 2 52 -31.5t3 -70t-55 -42.5z" />
    <glyph glyph-name="paragraph" unicode="&#xb6;" horiz-adv-x="1207" 
d="M697 -466q-43 0 -71.5 27t-28.5 69v801h22q-268 0 -404.5 107.5t-136.5 319.5q0 218 138 325t416 107h335q46 0 77.5 -31.5t31.5 -77.5v-1551q0 -42 -28.5 -69t-71.5 -27h-4q-43 0 -69.5 26.5t-26.5 69.5v1464h-79v-1464q0 -43 -26 -69.5t-69 -26.5h-5z" />
    <glyph glyph-name="periodcentered" unicode="&#xb7;" horiz-adv-x="422" 
d="M344 1272q0 -54 -40.5 -92t-94.5 -38q-55 0 -93 38.5t-38 91.5q0 54 38.5 94.5t92.5 40.5q53 0 94 -40t41 -95z" />
    <glyph glyph-name="guillemotright" unicode="&#xbb;" horiz-adv-x="1093" 
d="M192 135h-5q-40 0 -67.5 27.5t-30 63t19.5 70.5l270 340l-266 344q-24 30 -24 62.5t18.5 54.5t45.5 35t59.5 4.5t57.5 -38.5l318 -392q23 -36 19.5 -78.5t-32.5 -78.5l-296 -362q-37 -52 -87 -52zM588 135h-4q-62 0 -88.5 56t9.5 105l271 340l-266 344q-24 30 -24 62.5
t18.5 54.5t45.5 35t59.5 4.5t57.5 -38.5l318 -392q23 -36 19.5 -78.5t-32.5 -78.5l-297 -362q-37 -52 -87 -52z" />
    <glyph glyph-name="questiondown" unicode="&#xbf;" horiz-adv-x="1111" 
d="M654 1133q55 0 92.5 -39t37.5 -92q0 -54 -38 -94.5t-92 -40.5q-53 0 -94 40t-41 95q0 54 40.5 92.5t94.5 38.5zM758 697q6 -83 -13 -156.5t-55.5 -128.5t-81.5 -105t-91.5 -96.5t-85 -92.5t-63 -103.5t-24.5 -119.5q0 -92 55 -139.5t163 -47.5q74 0 129 18.5t80.5 40.5
t56 40.5t61.5 18.5q42 0 66.5 -26.5t24.5 -69.5q0 -61 -63 -111t-159.5 -76.5t-199.5 -26.5q-203 0 -315 100.5t-112 283.5q0 40 7.5 78t17 67t30.5 63t35.5 55.5t45 54t47 48.5t53 51t51.5 49q95 92 121.5 149.5t26.5 177.5q0 43 29.5 69t65 27t66 -23t31.5 -69z" />
    <glyph glyph-name="multiply" unicode="&#xd7;" horiz-adv-x="941" 
d="M632 1020l187 -188q35 -37 34.5 -77.5t-34.5 -74.5l-4 -5q-36 -36 -78.5 -38t-78.5 34l-187 187l-188 -187q-37 -35 -77.5 -34.5t-74.5 34.5l-5 4q-36 36 -38 78.5t34 78.5l187 188l-187 187q-36 36 -34 78.5t38 78.5l5 4q34 34 74.5 34.5t77.5 -34.5l188 -187l187 187
q36 36 78.5 34t78.5 -38l4 -4q34 -34 34.5 -75t-34.5 -78z" />
    <glyph glyph-name="germandbls" unicode="&#xdf;" horiz-adv-x="1176" 
d="M549 -48q-72 21 -83.5 87.5t38 111.5t123.5 15q95 -25 146 8t51 105q0 36 -21.5 80t-52 86t-64 89t-55 95t-28 98t18.5 105.5t84 108.5q28 31 30.5 70.5t-16 71.5t-55.5 54t-81 22q-95 0 -154.5 -88t-59.5 -234v-759q0 -47 -24.5 -79t-59.5 -39t-70.5 0.5t-60 39.5
t-24.5 78v759q0 271 115.5 412t337.5 141q85 0 161 -31.5t128 -82t83.5 -116.5t35 -133.5t-25.5 -134t-90 -116.5q-32 -25 -34 -59.5t18 -71t50.5 -82.5t61 -89.5t52.5 -96t22 -98.5q0 -127 -67.5 -219.5t-178 -121t-251.5 13.5z" />
    <glyph glyph-name="adieresis" unicode="&#xe4;" horiz-adv-x="1207" 
d="M383 1429v70q0 54 37 85.5t81 32t81 -30.5t37 -87v-70q0 -56 -37 -87.5t-81 -31.5t-81 31.5t-37 87.5zM688 1429v70q0 54 37 85.5t81 32t81 -30.5t37 -87v-70q0 -56 -37 -87.5t-81 -31.5t-81 31.5t-37 87.5zM523 4q-183 0 -287.5 104t-104.5 284q0 81 26 146.5t72 110
t108.5 74.5t137 43t154.5 12t164 -15v43q0 16 -2 30.5t-10.5 35.5t-23 36.5t-42 31t-65 23t-95 7.5t-128.5 -11q-83 -12 -123 44q-34 48 -11 103q27 65 112 78l13 1q610 55 610 -379l5 -457q1 -72 -16 -128t-40.5 -92t-68 -61t-79 -37.5t-95.5 -19t-94 -7t-96 -0.5h-21z
M536 227q145 0 196.5 16.5t51.5 57.5v231q-71 17 -143.5 18.5t-135.5 -12.5t-103 -54t-40 -101q0 -156 174 -156z" />
    <glyph glyph-name="egrave" unicode="&#xe8;" horiz-adv-x="1163" 
d="M706 1312l-388 56q-41 6 -55 42.5t3 70t52 31.5l401 -57q39 -6 51 -44.5t-7.5 -71.5t-56.5 -27zM641 1185q183 0 287.5 -104t104.5 -284q0 -81 -26 -146.5t-72.5 -109.5t-109 -74t-137 -43t-154.5 -12t-164 15v-44q0 -208 471 -148q74 10 110.5 -44t8.5 -115t-110 -67
q-111 -7 -201 -7t-161 14t-125 32t-93 47t-65 59.5t-41.5 69.5t-22 77t-6.5 82l-4 458q-1 72 16 127.5t40 91.5t68 61t79 37.5t95 19t93.5 7t96.5 0.5h22zM627 963q-145 0 -196.5 -16.5t-51.5 -57.5v-231q71 -17 143.5 -19t136 12.5t103.5 54t40 100.5q0 157 -175 157z" />
    <glyph glyph-name="eacute" unicode="&#xe9;" horiz-adv-x="1163" 
d="M340 1312q-37 -6 -56.5 27t-7.5 71.5t51 44.5l401 57q35 2 52 -31.5t3 -70t-55 -42.5zM641 1185q183 0 287.5 -104t104.5 -284q0 -81 -26 -146.5t-72.5 -109.5t-109 -74t-137 -43t-154.5 -12t-164 15v-44q0 -208 471 -148q74 10 110.5 -44t8.5 -115t-110 -67
q-111 -7 -201 -7t-161 14t-125 32t-93 47t-65 59.5t-41.5 69.5t-22 77t-6.5 82l-4 458q-1 72 16 127.5t40 91.5t68 61t79 37.5t95 19t93.5 7t96.5 0.5h22zM627 963q-145 0 -196.5 -16.5t-51.5 -57.5v-231q71 -17 143.5 -19t136 12.5t103.5 54t40 100.5q0 157 -175 157z" />
    <glyph glyph-name="ecircumflex" unicode="&#xea;" horiz-adv-x="1115" 
d="M819 1386q35 -39 19 -79t-55.5 -44.5t-76.5 31.5l-183 188l-179 -188q-37 -37 -81.5 -29.5t-55.5 43t20 78.5l235 261q23 23 59.5 23t62.5 -23zM619 1185q183 0 287.5 -104t104.5 -284q0 -81 -26 -146.5t-72 -109.5t-108.5 -74t-137 -43t-154.5 -12t-164 15v-44
q0 -17 2 -31t12.5 -35t28.5 -36.5t53.5 -30.5t83.5 -22t122.5 -6t167.5 13q74 10 110.5 -44t8.5 -115t-110 -67q-111 -7 -201 -7t-161 14t-125 32t-93 47t-65 59.5t-41.5 69.5t-22 77t-6.5 82l-4 458q-1 72 16 127.5t40 91.5t68 61t79 37.5t95 19t93.5 7t96.5 0.5h22z
M606 963q-145 0 -197 -16.5t-52 -57.5v-231q71 -17 143.5 -19t136 12.5t103.5 54t40 100.5q0 157 -174 157z" />
    <glyph glyph-name="odieresis" unicode="&#xf6;" horiz-adv-x="1407" 
d="M431 1394v70q0 54 37 85.5t81 32t81 -30.5t37 -87v-70q0 -56 -37 -87.5t-81 -31.5t-81 31.5t-37 87.5zM736 1394v70q0 54 37 85.5t81 32t81 -30.5t37 -87v-70q0 -56 -37 -87.5t-81 -31.5t-81 31.5t-37 87.5zM1277 597q0 -268 -158.5 -432.5t-416.5 -164.5
q-255 0 -413 165t-158 432q0 265 158 429t413 164q261 0 418 -162.5t157 -430.5zM375 597q0 -179 86 -277t241 -98q157 0 244 98t87 277q0 176 -87 271t-244 95t-242 -95t-85 -271z" />
    <glyph glyph-name="divide" unicode="&#xf7;" horiz-adv-x="1124" 
d="M431 1163q0 58 37.5 97t93.5 39q55 0 95 -40t40 -96q0 -54 -40.5 -92t-94.5 -38q-55 0 -93 38.5t-38 91.5zM1059 797q0 -49 -30.5 -81t-78.5 -32h-758q-48 0 -78.5 32t-30.5 81v5q0 46 30.5 77.5t78.5 31.5h758q48 0 78.5 -31.5t30.5 -77.5v-5zM431 388q0 58 37.5 96.5
t93.5 38.5t95.5 -39.5t39.5 -95.5q-3 -57 -42 -94t-93 -37q-55 0 -93 39t-38 92z" />
    <glyph glyph-name="udieresis" unicode="&#xfc;" horiz-adv-x="1307" 
d="M619 1429q0 -56 -37 -87.5t-81 -31.5t-81 31.5t-37 87.5v70q0 54 37 85.5t81 32t81 -30.5t37 -87v-70zM924 1429q0 -56 -37 -87.5t-81 -31.5t-81 31.5t-37 87.5v70q0 54 37 85.5t81 32t81 -30.5t37 -87v-70zM932 1081q0 44 25 73.5t61 36.5t72.5 0t61.5 -36.5t25 -73.5
v-933q0 -64 -32 -106t-86 -42q-121 0 -127 179q-47 -70 -143 -124.5t-179 -54.5q-231 0 -355 162t-124 461v458q0 54 38.5 85t85.5 31t85.5 -31t38.5 -85v-458q0 -189 60 -288.5t171 -99.5q91 0 162 40t160 139v667z" />
    <glyph glyph-name="dotlessi" unicode="&#x131;" horiz-adv-x="501" 
d="M248 0q-50 0 -83.5 33t-33.5 85v932q0 66 29.5 103t87.5 37t90 -37t32 -103v-932q0 -52 -33.5 -85t-83.5 -33h-5z" />
    <glyph glyph-name="florin" unicode="&#x192;" horiz-adv-x="1058" 
d="M166 -514q-39 5 -59.5 33.5t-19 60.5t24.5 58t62 26q50 0 80.5 5.5t54 18t37 40.5t22 66t15.5 101l79 663h-44q-42 0 -65.5 29t-23.5 64.5t23.5 64.5t65.5 29h70q13 106 22 167t23.5 131.5t31.5 107t42.5 74t60.5 54t81.5 27t108.5 10.5q69 0 99 -47t6.5 -93.5
t-83.5 -46.5q-27 0 -42.5 -1t-32.5 -8.5t-25.5 -15t-19 -31t-16 -45.5t-13.5 -69.5t-14 -91.5t-15 -122h135q42 0 65.5 -29t23.5 -64.5t-23.5 -64.5t-65.5 -29h-157l-83 -671q-20 -239 -117.5 -329.5t-313.5 -71.5z" />
    <glyph glyph-name="circumflex" unicode="&#x2c6;" horiz-adv-x="640" 
d="M619 1386q35 -39 19 -79t-56 -44.5t-77 31.5l-183 188l-178 -188q-37 -37 -81.5 -29.5t-56 43t19.5 78.5l235 261q23 23 59.5 23t62.5 -23z" />
    <glyph glyph-name="uni060C" unicode="&#x60c;" horiz-adv-x="457" 
d="M96 -370q-38 10 -55.5 37.5t-1.5 62.5l214 501q37 50 74 35l13 -5q19 -8 27.5 -28t-1.5 -54l-152 -523q-10 -16 -36.5 -27t-46.5 -8z" />
    <glyph glyph-name="uni0615" unicode="&#x615;" 
d="M336 1477q209 0 209 -253q0 -161 -127 -161h-366q-20 0 -36 11.5t-16 27.5v48q0 18 15.5 29t36.5 11h40v353q0 23 21.5 32t43.5 0t22 -32v-114q48 48 157 48zM401 1190q13 0 18 1.5t8.5 10.5t3.5 31q0 65 -23 93.5t-72 28.5q-68 0 -96 -36t-35 -129h196z" />
    <glyph glyph-name="uni061F" unicode="&#x61f;" horiz-adv-x="1111" 
d="M758 301q-1 -45 -31.5 -69t-66 -23t-65 27t-29.5 69q0 120 -26.5 177.5t-121.5 149.5q-15 14 -51.5 49t-53 51t-47 48.5t-45 54t-35.5 55.5t-30.5 63t-17 67t-7.5 78q0 183 112 283.5t315 100.5q103 0 199.5 -26.5t159.5 -76.5t63 -111q0 -43 -24.5 -69.5t-66.5 -26.5
q-31 0 -61.5 18.5t-56 40.5t-80.5 40.5t-129 18.5q-108 0 -163 -48t-55 -140q0 -62 24.5 -119.5t63 -103.5t85 -92.5t91.5 -96.5t81.5 -104.5t55.5 -128t13 -156.5zM654 -135q-54 0 -94.5 38.5t-40.5 92.5q0 55 41 95t94 40q54 0 92 -40.5t38 -94.5q0 -53 -37.5 -92
t-92.5 -39z" />
    <glyph glyph-name="uni0621" unicode="&#x621;" horiz-adv-x="745" 
d="M126 0q-80 0 -113.5 57.5t-4 115.5t104.5 58h79q-41 68 -54 135.5t0 123t45 102.5t77 79t100 48t111.5 13t113.5 -29.5t103 -75.5q20 -21 24.5 -52t-8 -58t-33 -45.5t-52.5 -16.5t-66 29q-43 36 -96 42.5t-94 -20.5t-49 -79q-9 -52 4.5 -92.5t40.5 -61.5t54 -31.5
t49 -10.5h113q54 0 85 -36t31 -79.5t-31 -79.5t-85 -36h-449z" />
    <glyph glyph-name="uni0622" unicode="&#x622;" horiz-adv-x="492" 
d="M83 1743q-21 -18 -40.5 -21t-32 7.5t-20 26t-6 33t11.5 28.5q41 39 84 52t73.5 7t55.5 -24q36 -27 70 -29t55 11t36 35q16 18 37.5 24.5t39 2t31.5 -15t16.5 -28.5t-6.5 -39q-63 -118 -213 -96q-20 3 -47 16t-46.5 23.5t-46 9t-52.5 -22.5zM131 118v1385q0 51 36 80.5
t79.5 30t79.5 -29t36 -81.5v-1385q0 -54 -36 -85t-79.5 -31t-79.5 31t-36 85z" />
    <glyph glyph-name="uni0623" unicode="&#x623;" horiz-adv-x="505" 
d="M92 1734q-57 0 -81.5 40t-4.5 80.5t72 40.5h57q-33 55 -40.5 109.5t9 97t46.5 77.5t73.5 52.5t88 21.5t92 -15t84.5 -59q17 -19 16.5 -47.5t-15.5 -48t-40 -25.5t-57 21q-46 40 -103 26.5t-67 -70.5q-6 -37 3.5 -66t28 -44t38 -22.5t35.5 -7.5h78q39 0 61 -25t22 -55.5
t-22 -55.5t-61 -25h-313zM144 118v1385q0 51 36 80.5t79.5 30t79.5 -29t36 -81.5v-1385q0 -54 -36 -85t-79.5 -31t-79.5 31t-36 85z" />
    <glyph glyph-name="uni0624" unicode="&#x624;" horiz-adv-x="1254" 
d="M471 1368q-57 0 -81.5 40t-4 80.5t72.5 40.5h56q-33 55 -40.5 109.5t9 97t46.5 77.5t73.5 52.5t88 21.5t92 -15t84.5 -59q17 -19 16.5 -47.5t-15.5 -48.5t-40 -26t-57 21q-46 40 -103 27t-67 -70q-6 -37 3.5 -66t28 -44t38 -22.5t35.5 -7.5h78q39 0 61 -25t22 -55.5
t-22 -55.5t-61 -25h-313zM623 1190q258 0 401.5 -152.5t143.5 -427.5v-566q0 -193 -101 -306t-274 -113q-36 0 -64 12.5t-42.5 32.5t-21.5 44t-0.5 48.5t20.5 44.5t41.5 32.5t62.5 12.5q123 0 143 148h-191q-321 0 -487.5 149t-166.5 439q0 170 69 307.5t192 216t275 78.5z
M932 231v379q0 186 -71 265t-238 79q-135 0 -220 -101.5t-85 -264.5q0 -182 105 -269.5t318 -87.5h191z" />
    <glyph glyph-name="uni0625" unicode="&#x625;" horiz-adv-x="492" 
d="M131 118v1385q0 51 36 80.5t79.5 30t79.5 -29t36 -81.5v-1385q0 -54 -36 -85t-79.5 -31t-79.5 31t-36 85zM96 -558q-57 0 -81.5 40t-4 80.5t72.5 40.5h56q-33 55 -40.5 109.5t9 97t46.5 77.5t73.5 52.5t88 21.5t92 -15t84.5 -59q17 -19 17 -47.5t-15.5 -48.5t-40 -26
t-56.5 21q-46 40 -103 27t-67 -70q-11 -70 26.5 -105t77.5 -35h79q39 0 61 -25t22 -55.5t-22 -55.5t-61 -25h-314z" />
    <glyph glyph-name="uni0626" unicode="&#x626;" horiz-adv-x="1860" 
d="M61 854q-57 0 -81.5 40t-4 80.5t72.5 40.5h57q-33 55 -40.5 109.5t9 97t46.5 77.5t73.5 52.5t88 21.5t92 -15t84.5 -59q17 -19 16.5 -47.5t-15.5 -48.5t-40 -26t-57 21q-46 40 -103 27t-67 -70q-11 -70 26.5 -105t77.5 -35h79q39 0 61 -25t22 -55.5t-22 -55.5t-61 -25
h-314zM871 -383q-215 0 -395 110.5t-284.5 304t-104.5 426.5q0 88 23 131t90 43t91.5 -43t17.5 -131q0 -133 45 -248.5t121.5 -195.5t179.5 -125.5t216 -45.5q250 0 393 78.5t143 217.5q0 66 -32 116.5t-83 83.5t-112.5 62t-123.5 62.5t-113 75t-83 109t-32 154.5
q0 173 139.5 280.5t361.5 107.5q142 0 269 -48t175 -122q0 -45 -45.5 -95.5t-102.5 -74.5q-76 66 -137 89.5t-159 23.5q-119 0 -199 -47.5t-80 -113.5q0 -53 32 -96t83.5 -75t114 -63.5t125 -70.5t114 -86t83.5 -119t32 -161q0 -251 -201 -382.5t-557 -131.5h-5z" />
    <glyph glyph-name="uni0627" unicode="&#x627;" horiz-adv-x="492" 
d="M131 118v1385q0 51 36 80.5t79.5 30t79.5 -29t36 -81.5v-1385q0 -54 -36 -85t-79.5 -31t-79.5 31t-36 85z" />
    <glyph glyph-name="uni0628" unicode="&#x628;" horiz-adv-x="1629" 
d="M458 0q-172 0 -271.5 101t-99.5 282v480q0 54 36 85t79.5 31t79.5 -31t36 -85v-466q0 -77 40 -121.5t100 -44.5h714q60 0 100 44.5t40 121.5v596q0 42 24 71.5t58 36.5t67.5 0t57.5 -37t24 -75v-606q0 -184 -98 -283.5t-273 -99.5h-714zM710 -275v70q0 54 37 85.5t81 32
t81 -30.5t37 -87v-70q0 -56 -37 -87.5t-81 -31.5t-81 31.5t-37 87.5z" />
    <glyph glyph-name="uni0629" unicode="&#x629;" horiz-adv-x="1250" 
d="M357 1407v70q0 54 37 85.5t81 32t81 -30.5t37 -87v-70q0 -56 -37 -87.5t-81 -31.5t-81 31.5t-37 87.5zM662 1407v70q0 54 37 85.5t81 32t81 -30.5t37 -87v-70q0 -56 -37 -87.5t-81 -31.5t-81 31.5t-37 87.5zM623 4q-232 0 -384 153.5t-152 391.5q0 166 71 303t195 215.5
t274 78.5q111 0 210.5 -46.5t171 -125.5t113 -189t41.5 -232v-4q0 -238 -152 -391.5t-388 -153.5zM627 231q150 0 241 93t91 247v4q0 165 -95 274.5t-241 109.5q-145 0 -238 -106t-93 -278v-4q0 -153 92.5 -246.5t242.5 -93.5z" />
    <glyph glyph-name="uni062A" unicode="&#x62a;" horiz-adv-x="1629" 
d="M549 1394v70q0 54 36.5 85.5t81 32t81 -30.5t36.5 -87v-70q0 -56 -36.5 -87.5t-81 -31.5t-81 31.5t-36.5 87.5zM854 1394v70q0 54 36.5 85.5t81 32t81 -30.5t36.5 -87v-70q0 -56 -36.5 -87.5t-81 -31.5t-81 31.5t-36.5 87.5zM458 0q-172 0 -271.5 101t-99.5 282v480
q0 54 36 85t79.5 31t79.5 -31t36 -85v-466q0 -77 40 -121.5t100 -44.5h714q60 0 100 44.5t40 121.5v596q0 42 24 71.5t58 36.5t67.5 0t57.5 -37t24 -75v-606q0 -184 -98 -283.5t-273 -99.5h-714z" />
    <glyph glyph-name="uni062B" unicode="&#x62b;" horiz-adv-x="1629" 
d="M702 1787v69q0 54 36.5 85.5t81 32t81 -30.5t36.5 -87v-69q0 -56 -36.5 -87.5t-81 -31.5t-81 31.5t-36.5 87.5zM549 1394v70q0 54 36.5 85.5t81 32t81 -30.5t36.5 -87v-70q0 -56 -36.5 -87.5t-81 -31.5t-81 31.5t-36.5 87.5zM854 1394v70q0 54 36.5 85.5t81 32t81 -30.5
t36.5 -87v-70q0 -56 -36.5 -87.5t-81 -31.5t-81 31.5t-36.5 87.5zM458 0q-172 0 -271.5 101t-99.5 282v480q0 54 36 85t79.5 31t79.5 -31t36 -85v-466q0 -77 40 -121.5t100 -44.5h714q60 0 100 44.5t40 121.5v596q0 42 24 71.5t58 36.5t67.5 0t57.5 -37t24 -75v-606
q0 -184 -98 -283.5t-273 -99.5h-714z" />
    <glyph glyph-name="uni062C" unicode="&#x62c;" horiz-adv-x="1629" 
d="M863 1190q309 0 494.5 -192.5t185.5 -518.5v-479h-1077q-69 0 -110.5 -52t-41.5 -140q0 -94 66 -160t160 -66q49 0 83 -37.5t31 -89.5q-7 -43 -41 -71.5t-77 -28.5q-122 0 -225.5 61t-163.5 165.5t-60 226.5q0 185 123.5 312t294.5 111h802v231q0 244 -118 370.5
t-339 126.5q-105 0 -188 -35.5t-161 -113.5q-28 -28 -63 -33t-62 11.5t-45 42t-15.5 59t28.5 60.5q78 107 223 173.5t296 66.5zM998 -253q0 54 36.5 85.5t81 32t81 -30.5t36.5 -87v-69q0 -56 -36.5 -87.5t-81 -31.5t-81 31.5t-36.5 87.5v69z" />
    <glyph glyph-name="uni062D" unicode="&#x62d;" horiz-adv-x="1629" 
d="M863 1190q309 0 494.5 -192.5t185.5 -518.5v-479h-1077q-69 0 -110.5 -52t-41.5 -140q0 -94 66 -160t160 -66q49 0 83 -37.5t31 -89.5q-7 -43 -41 -71.5t-77 -28.5q-122 0 -225.5 61t-163.5 165.5t-60 226.5q0 185 123.5 312t294.5 111h802v231q0 244 -118 370.5
t-339 126.5q-105 0 -188 -35.5t-161 -113.5q-28 -28 -63 -33t-62 11.5t-45 42t-15.5 59t28.5 60.5q78 107 223 173.5t296 66.5z" />
    <glyph glyph-name="uni062E" unicode="&#x62e;" horiz-adv-x="1629" 
d="M980 1512q0 -56 -36.5 -87.5t-81 -31.5t-81 31.5t-36.5 87.5v70q0 54 36.5 85.5t81 32t81 -30.5t36.5 -87v-70zM863 1190q309 0 494.5 -192.5t185.5 -518.5v-479h-1077q-69 0 -110.5 -52t-41.5 -140q0 -94 66 -160t160 -66q49 0 83 -37.5t31 -89.5q-7 -43 -41 -71.5
t-77 -28.5q-122 0 -225.5 61t-163.5 165.5t-60 226.5q0 185 123.5 312t294.5 111h802v231q0 244 -118 370.5t-339 126.5q-105 0 -188 -35.5t-161 -113.5q-28 -28 -63 -33t-62 11.5t-45 42t-15.5 59t28.5 60.5q78 107 223 173.5t296 66.5z" />
    <glyph glyph-name="uni062F" unicode="&#x62f;" horiz-adv-x="1076" 
d="M383 1190q179 -11 317 -105t213.5 -255t75.5 -364v-466h-789q-42 0 -71.5 24t-36.5 58t-0.5 67.5t35.5 57.5t73 24h554v235q0 219 -103.5 348t-293.5 145q-46 7 -75 39t-29 78q0 53 37.5 87t92.5 27z" />
    <glyph glyph-name="uni0630" unicode="&#x630;" horiz-adv-x="1076" 
d="M501 1529q0 -56 -36.5 -87.5t-81 -31.5t-81 31.5t-36.5 87.5v70q0 54 36.5 85.5t81 32t81 -30.5t36.5 -87v-70zM383 1190q179 -11 317 -105t213.5 -255t75.5 -364v-466h-789q-42 0 -71.5 24t-36.5 58t-0.5 67.5t35.5 57.5t73 24h554v235q0 219 -103.5 348t-293.5 145
q-46 7 -75 39t-29 78q0 53 37.5 87t92.5 27z" />
    <glyph glyph-name="uni0631" unicode="&#x631;" horiz-adv-x="679" 
d="M218 -375q-36 0 -64 12.5t-42.5 32.5t-21.5 44t-0.5 48.5t20.5 44.5t41.5 32.5t62.5 12.5q69 0 106 47.5t37 135.5v889q0 56 37 87.5t81 31.5t81 -31.5t37 -87.5v-880q0 -193 -101 -306t-274 -113z" />
    <glyph glyph-name="uni0632" unicode="&#x632;" horiz-adv-x="679" 
d="M353 1394v70q0 54 36.5 85.5t81 32t81 -30.5t36.5 -87v-70q0 -56 -36.5 -87.5t-81 -31.5t-81 31.5t-36.5 87.5zM218 -375q-36 0 -64 12.5t-42.5 32.5t-21.5 44t-0.5 48.5t20.5 44.5t41.5 32.5t62.5 12.5q69 0 106 47.5t37 135.5v889q0 56 37 87.5t81 31.5t81 -31.5
t37 -87.5v-880q0 -193 -101 -306t-274 -113z" />
    <glyph glyph-name="uni0633" unicode="&#x633;" horiz-adv-x="2644" 
d="M2331 1124q0 51 35.5 80t78 29t78 -29t35.5 -80v-457q0 -196 -35 -324t-117.5 -208t-209.5 -110.5t-318 -24.5v92q-149 -92 -436 -92h-74q-86 -177 -245.5 -274.5t-342.5 -100.5q-104 -3 -204 25t-188.5 88t-155.5 146.5t-106 209.5t-39 268l79 636q8 72 68 95t113 -14.5
t45 -111.5l-74 -605q-28 -229 97.5 -359.5t351.5 -137.5q222 7 331 151.5t109 414.5v449q0 52 36.5 82t81 30t81 -30t36.5 -82v-649q132 0 212.5 14.5t131 53.5t69.5 99t23 160v510q0 42 23.5 71t57 35.5t66.5 0t56.5 -35.5t23.5 -71v-393q6 -70 0 -135v-309q118 -3 172 106
t54 330v457z" />
    <glyph glyph-name="uni0634" unicode="&#x634;" horiz-adv-x="2644" 
d="M2105 1795q0 -56 -37 -87.5t-81 -31.5t-81 31.5t-37 87.5v70q0 54 37 85.5t81 32t81 -30.5t37 -87v-70zM1952 1403q0 -56 -36.5 -87.5t-81 -31.5t-81 31.5t-36.5 87.5v70q0 54 36.5 85.5t81 32t81 -30.5t36.5 -87v-70zM2022 1473q0 54 36.5 85.5t81 32t81 -30.5t36.5 -87
v-70q0 -56 -36.5 -87.5t-81 -31.5t-81 31.5t-36.5 87.5v70zM2331 1124q0 51 35.5 80t78 29t78 -29t35.5 -80v-457q0 -196 -35 -324t-117.5 -208t-209.5 -110.5t-318 -24.5v92q-149 -92 -436 -92h-74q-86 -177 -245.5 -274.5t-342.5 -100.5q-104 -3 -204 25t-188.5 88
t-155.5 146.5t-106 209.5t-39 268l79 636q8 72 68 95t113 -14.5t45 -111.5l-74 -605q-28 -229 97.5 -359.5t351.5 -137.5q222 7 331 151.5t109 414.5v449q0 52 36.5 82t81 30t81 -30t36.5 -82v-649q132 0 212.5 14.5t131 53.5t69.5 99t23 160v510q0 42 23.5 71t57 35.5
t66.5 0t56.5 -35.5t23.5 -71v-393q6 -70 0 -135v-309q118 -3 172 106t54 330v457z" />
    <glyph glyph-name="uni0635" unicode="&#x635;" horiz-adv-x="2710" 
d="M1935 1190q307 0 495.5 -200.5t188.5 -527.5v-83q-7 -176 -107 -277.5t-264 -101.5h-897q-86 -178 -240 -275t-335 -100q-104 -3 -204 25t-188.5 88t-155.5 146.5t-106 209.5t-39 268l78 636q8 72 68 95t113.5 -14.5t45.5 -111.5l-74 -605q-28 -228 101 -359t356 -138
q436 13 436 566v562q0 41 23 70t56 36.5t66.5 2t58 -33.5t27.5 -70q91 88 225.5 140t271.5 52zM2384 383v79q0 102 -34 188t-90.5 144t-131 95.5t-155 50t-163 1t-154.5 -46.5t-130 -98t-88 -147v-248q0 -72 -17 -170h819q144 6 144 152z" />
    <glyph glyph-name="uni0636" unicode="&#x636;" horiz-adv-x="2710" 
d="M2057 1569q0 -56 -37 -87.5t-81 -31.5t-81 31.5t-37 87.5v69q0 54 37 85.5t81 32t81 -30.5t37 -87v-69zM1935 1190q307 0 495.5 -200.5t188.5 -527.5v-83q-7 -176 -107 -277.5t-264 -101.5h-897q-86 -178 -240 -275t-335 -100q-104 -3 -204 25t-188.5 88t-155.5 146.5
t-106 209.5t-39 268l78 636q8 72 68 95t113.5 -14.5t45.5 -111.5l-74 -605q-28 -228 101 -359t356 -138q436 13 436 566v562q0 41 23 70t56 36.5t66.5 2t58 -33.5t27.5 -70q91 88 225.5 140t271.5 52zM2384 383v79q0 102 -34 188t-90.5 144t-131 95.5t-155 50t-163 1
t-154.5 -46.5t-130 -98t-88 -147v-248q0 -72 -17 -170h819q144 6 144 152z" />
    <glyph glyph-name="uni0637" unicode="&#x637;" horiz-adv-x="1939" 
d="M1168 1190q307 0 495.5 -200.5t188.5 -527.5v-83q0 -174 -102 -276.5t-268 -102.5h-1395l-43 231h392v1390q0 56 36.5 87.5t81 31.5t81 -31.5t36.5 -87.5v-649q185 218 497 218zM1617 383v79q0 140 -53 248.5t-135.5 168t-186.5 78t-203.5 -8t-189 -105t-139.5 -198.5
q-39 -98 -39 -414h802q70 0 107 39t37 113z" />
    <glyph glyph-name="uni0638" unicode="&#x638;" horiz-adv-x="1939" 
d="M1168 1190q307 0 495.5 -200.5t188.5 -527.5v-83q0 -174 -102 -276.5t-268 -102.5h-1395l-43 231h392v1390q0 56 36.5 87.5t81 31.5t81 -31.5t36.5 -87.5v-649q185 218 497 218zM1285 1394q0 -56 -36.5 -87.5t-81 -31.5t-81 31.5t-36.5 87.5v70q0 54 36.5 85.5t81 32
t81 -30.5t36.5 -87v-70zM1617 383v79q0 140 -53 248.5t-135.5 168t-186.5 78t-203.5 -8t-189 -105t-139.5 -198.5q-39 -98 -39 -414h802q70 0 107 39t37 113z" />
    <glyph glyph-name="uni0639" unicode="&#x639;" horiz-adv-x="1738" 
d="M1543 231q52 0 82 -36t30 -79.5t-30 -79.5t-82 -36h-1077q-69 0 -110.5 -52t-41.5 -140q0 -94 66 -160t160 -66q49 0 83 -37.5t31 -89.5q-7 -43 -41 -71.5t-77 -28.5q-122 0 -225.5 61t-163.5 165.5t-60 226.5q0 185 123.5 312t294.5 111h197q-27 96 -27 248
q0 330 186 516t503 186h96q57 0 89.5 -34.5t32.5 -76.5t-32.5 -76.5t-89.5 -34.5h-96q-218 0 -335.5 -123t-117.5 -357v-63.5t1 -50.5t2.5 -42t5.5 -30.5t8 -24.5t13 -15.5t17.5 -12t23.5 -5.5t30 -4h38h493z" />
    <glyph glyph-name="uni063A" unicode="&#x63a;" horiz-adv-x="1738" 
d="M1416 1512q0 -56 -36.5 -87.5t-81 -31.5t-81 31.5t-36.5 87.5v70q0 54 36.5 85.5t81 32t81 -30.5t36.5 -87v-70zM1543 231q52 0 82 -36t30 -79.5t-30 -79.5t-82 -36h-1077q-69 0 -110.5 -52t-41.5 -140q0 -94 66 -160t160 -66q49 0 83 -37.5t31 -89.5q-7 -43 -41 -71.5
t-77 -28.5q-122 0 -225.5 61t-163.5 165.5t-60 226.5q0 185 123.5 312t294.5 111h197q-27 96 -27 248q0 330 186 516t503 186h96q57 0 89.5 -34.5t32.5 -76.5t-32.5 -76.5t-89.5 -34.5h-96q-218 0 -335.5 -123t-117.5 -357v-63.5t1 -50.5t2.5 -42t5.5 -30.5t8 -24.5
t13 -15.5t17.5 -12t23.5 -5.5t30 -4h38h493z" />
    <glyph glyph-name="uni0640" unicode="&#x640;" horiz-adv-x="610" 
d="M-52 0v231h714l-4 -231h-710z" />
    <glyph glyph-name="uni0641" unicode="&#x641;" horiz-adv-x="2113" 
d="M1630 1499q0 -56 -37 -87.5t-81 -31.5t-81 31.5t-37 87.5v70q0 54 37 85.5t81 32t81 -30.5t37 -87v-70zM2026 614v-614l-274 4v-4h-985q-150 0 -277 52.5t-215.5 146.5t-138 228t-49.5 292v57q0 49 32.5 83t80.5 34q49 0 83.5 -34t34.5 -83v-40q0 -235 121 -370t328 -135
h418q-58 90 -83.5 196.5t-25.5 186.5q0 252 130 414t332 162h5q215 0 349 -161.5t134 -414.5zM1808 231l-8 383q0 163 -69 258t-184 95h-4q-115 0 -177.5 -91.5t-62.5 -261.5q0 -95 39.5 -182t115 -144t167.5 -57h183z" />
    <glyph glyph-name="uni0642" unicode="&#x642;" horiz-adv-x="1808" 
d="M1155 1455q0 -56 -37 -87.5t-81 -31.5t-81 31.5t-37 87.5v70q0 54 37 85.5t81 32t81 -30.5t37 -87v-70zM1460 1455q0 -56 -37 -87.5t-81 -31.5t-81 31.5t-37 87.5v70q0 54 37 85.5t81 32t81 -30.5t37 -87v-70zM1194 1185q215 0 349.5 -161t134.5 -414v-741
q-3 -244 -204.5 -372.5t-554.5 -128.5h-4q-215 0 -395 110.5t-284.5 304t-104.5 426.5q0 88 23 131t90 43t91.5 -43t17.5 -131q0 -133 45 -248.5t121.5 -195t179.5 -125t216 -45.5q240 0 383 72t153 202v131h-174q-98 0 -180 26t-137 67.5t-98 97.5t-67.5 112.5t-40.5 117.5
t-21 105.5t-5 83.5q0 252 130 413.5t332 161.5h4zM954 610q0 -95 40 -182t115.5 -144t167.5 -57h183l-9 383q0 163 -69 258t-184 95h-4q-115 0 -177.5 -91.5t-62.5 -261.5z" />
    <glyph glyph-name="uni0643" unicode="&#x643;" horiz-adv-x="1921" 
d="M1220 1190q216 0 371.5 -89.5t234 -248t78.5 -368.5v-305q0 -74 -52.5 -126.5t-125.5 -52.5h-1338q-166 0 -268.5 98.5t-102.5 276.5q1 4 2 11.5t8.5 26.5t18.5 33t32 26t48 12q31 0 53 -11t32.5 -27t16.5 -32.5t6 -27.5l1 -11q0 -42 8.5 -70t19.5 -43t35 -22t41 -8
t53 -1h1273v253q0 221 -115 350t-330 129h-462q-58 0 -101 42.5t-43 101.5q0 27 12.5 55.5t31.5 44.5l401 357q27 35 78 35q36 0 64.5 -21t40.5 -50.5t6.5 -63.5t-32.5 -57l-253 -217h257z" />
    <glyph glyph-name="uni0644" unicode="&#x644;" horiz-adv-x="1250" 
d="M318 78q0 -166 83 -266t218 -100h4q145 0 225 114t80 322v1325q0 54 36.5 85t81 31t81 -31t36.5 -85v-1303q0 -311 -149.5 -502t-394.5 -191h-9q-225 0 -374 171.5t-149 429.5q0 54 36 85t79.5 31t79.5 -31t36 -85z" />
    <glyph glyph-name="uni0645" unicode="&#x645;" horiz-adv-x="1390" 
d="M17 -318v309q0 118 51.5 203t149.5 128q-57 127 -57 275q0 143 50.5 258.5t133.5 186.5t188.5 109.5t216 38.5t216 -38.5t188.5 -109.5t133.5 -186.5t50.5 -258.5q0 -106 -28 -198.5t-76 -159.5t-113.5 -118.5t-140 -79.5t-156.5 -38t-161 0.5t-155 41.5t-138 81
q-126 -19 -126 -135v-309q0 -57 -35.5 -89.5t-78 -32.5t-78 32.5t-35.5 89.5zM749 227q154 0 256 105t102 265q0 150 -105.5 258t-252.5 108q-153 0 -255 -105.5t-102 -260.5q0 -153 105 -261.5t252 -108.5z" />
    <glyph glyph-name="uni0646" unicode="&#x646;" horiz-adv-x="1498" 
d="M819 1394q0 -56 -36.5 -87.5t-81 -31.5t-81 31.5t-36.5 87.5v70q0 54 36.5 85.5t81 32t81 -30.5t36.5 -87v-70zM1207 993q0 42 24 71.5t57.5 36.5t67.5 0t58 -37t24 -75v-588q-5 -187 -61 -336t-148 -242.5t-207.5 -144t-245.5 -53.5q-104 -3 -204 25t-188.5 88
t-155.5 146.5t-106 209.5t-39 268l30 483q4 72 62.5 95t113.5 -14t51 -111l-26 -453q-13 -231 110.5 -360.5t346.5 -136.5q436 13 436 566v562z" />
    <glyph glyph-name="uni0647" unicode="&#x647;" horiz-adv-x="1250" 
d="M623 4q-232 0 -384 153.5t-152 391.5q0 166 71 303t195 215.5t274 78.5q111 0 210.5 -46.5t171 -125.5t113 -189t41.5 -232v-4q0 -238 -152 -391.5t-388 -153.5zM627 231q150 0 241 93t91 247v4q0 165 -95 274.5t-241 109.5q-145 0 -238 -106t-93 -278v-4
q0 -153 92.5 -246.5t242.5 -93.5z" />
    <glyph glyph-name="uni0648" unicode="&#x648;" horiz-adv-x="1254" 
d="M623 1190q258 0 401.5 -152.5t143.5 -427.5v-566q0 -193 -101 -306t-274 -113q-36 0 -64 12.5t-42.5 32.5t-21.5 44t-0.5 48.5t20.5 44.5t41.5 32.5t62.5 12.5q123 0 143 148h-191q-321 0 -487.5 149t-166.5 439q0 170 69 307.5t192 216t275 78.5zM932 231v379
q0 186 -71 265t-238 79q-135 0 -220 -101.5t-85 -264.5q0 -182 105 -269.5t318 -87.5h191z" />
    <glyph glyph-name="uni0649" unicode="&#x649;" horiz-adv-x="1860" 
d="M871 -383q-215 0 -395 110.5t-284.5 304t-104.5 426.5q0 88 23 131t90 43t91.5 -43t17.5 -131q0 -133 45 -248.5t121.5 -195.5t179.5 -125.5t216 -45.5q250 0 393 78.5t143 217.5q0 66 -32 116.5t-83 83.5t-112.5 62t-123.5 62.5t-113 75t-83 109t-32 154.5
q0 173 139.5 280.5t361.5 107.5q142 0 269 -48t175 -122q0 -45 -45.5 -95.5t-102.5 -74.5q-76 66 -137 89.5t-159 23.5q-119 0 -199 -47.5t-80 -113.5q0 -53 32 -96t83.5 -75t114 -63.5t125 -70.5t114 -86t83.5 -119t32 -161q0 -251 -201 -382.5t-557 -131.5h-5z" />
    <glyph glyph-name="uni064A" unicode="&#x64a;" horiz-adv-x="1860" 
d="M871 -383q-215 0 -395 110.5t-284.5 304t-104.5 426.5q0 88 23 131t90 43t91.5 -43t17.5 -131q0 -133 45 -248.5t121.5 -195.5t179.5 -125.5t216 -45.5q250 0 393 78.5t143 217.5q0 66 -32 116.5t-83 83.5t-112.5 62t-123.5 62.5t-113 75t-83 109t-32 154.5
q0 173 139.5 280.5t361.5 107.5q142 0 269 -48t175 -122q0 -45 -45.5 -95.5t-102.5 -74.5q-76 66 -137 89.5t-159 23.5q-119 0 -199 -47.5t-80 -113.5q0 -53 32 -96t83.5 -75t114 -63.5t125 -70.5t114 -86t83.5 -119t32 -161q0 -251 -201 -382.5t-557 -131.5h-5zM601 -619
v70q0 54 37 85.5t81 32t81 -30.5t37 -87v-70q0 -56 -37 -87.5t-81 -31.5t-81 31.5t-37 87.5zM906 -619v70q0 54 37 85.5t81 32t81 -30.5t37 -87v-70q0 -56 -37 -87.5t-81 -31.5t-81 31.5t-37 87.5z" />
    <glyph glyph-name="uni064B" unicode="&#x64b;" 
d="M65 1996q-37 -6 -56.5 27.5t-7.5 72t51 44.5l401 56q35 2 52 -31.5t3 -70t-55 -42.5zM65 1752q-37 -6 -56.5 27t-7.5 71.5t51 44.5l401 57q35 2 52 -31.5t3 -70t-55 -42.5z" />
    <glyph glyph-name="uni064C" unicode="&#x64c;" 
d="M318 1482q-57 34 -65 105.5t43 120.5q64 58 144.5 28t97.5 -100t-50 -137q-45 -37 -82.5 -59.5t-64 -30t-49 -7.5t-37.5 9t-29.5 19.5t-25 23t-24 20t-26 11.5t-32.5 -3q-23 -10 -37.5 -9t-23.5 17q-23 35 12.5 63.5t79.5 16.5q22 -6 38 -23q87 -87 131 -65zM344 1551
q30 -36 92 5q23 16 23 39t-23 43q-19 23 -43.5 24.5t-43.5 -15.5q-40 -40 -5 -96z" />
    <glyph glyph-name="uni064D" unicode="&#x64d;" 
d="M57 -410q-37 -6 -53.5 15.5t-4.5 47t45 29.5l357 48q25 -2 36 -21t1 -41t-37 -30zM57 -540q-37 -6 -53.5 15t-4.5 46.5t45 29.5l357 48q25 -2 36 -21t1 -40.5t-37 -29.5z" />
    <glyph glyph-name="uni064E" unicode="&#x64e;" 
d="M65 1839q-37 -6 -56.5 27.5t-7.5 72t51 44.5l401 56q35 2 52 -31.5t3 -70t-55 -42.5z" />
    <glyph glyph-name="uni064F" unicode="&#x64f;" 
d="M83 1412q-37 -12 -63 8.5t-18.5 51t50.5 40.5q29 10 79 35q-40 14 -66 49t-34 78t1.5 87t33.5 77.5t70 48.5t104 0q115 -24 133 -115q18 -88 -60 -192q-85 -114 -230 -168zM192 1651q37 -8 58.5 21t12 63t-48.5 38q-26 3 -45.5 -7.5t-26 -28t-5 -35.5t16 -32.5
t38.5 -18.5z" />
    <glyph glyph-name="uni0650" unicode="&#x650;" 
d="M57 -410q-37 -6 -53.5 15.5t-4.5 47t45 29.5l357 48q25 -2 36 -21t1 -41t-37 -30z" />
    <glyph glyph-name="uni0651" unicode="&#x651;" 
d="M153 963q-72 0 -112.5 50.5t-40.5 141.5q0 87 46 101q32 9 59 -21q17 -19 17 -45q0 -122 31 -122q27 0 37 31.5t10 129.5q0 44 26.5 66t55 9.5t32.5 -53.5q0 -157 48 -157t48 174q0 33 28 46.5t56.5 -1t28.5 -49.5q0 -131 -41.5 -203t-119.5 -72q-57 0 -92 35
q-48 -61 -117 -61z" />
    <glyph glyph-name="uni0652" unicode="&#x652;" 
d="M0 2196q0 72 53.5 125.5t125.5 53.5t125 -53.5t53 -125.5t-53 -125.5t-125 -53.5t-125.5 53.5t-53.5 125.5zM109 2196q0 -30 19 -50t51 -20q30 0 49.5 19t19.5 51q0 30 -18.5 50t-50.5 20q-30 0 -50 -19t-20 -51z" />
    <glyph glyph-name="uni0653" unicode="&#x653;" 
d="M100 1686q-21 -18 -40.5 -21t-32 7.5t-20 26t-6 33t11.5 28.5q41 39 84.5 52t74 6.5t55.5 -23.5q36 -27 70 -29t55 11.5t36 35.5q16 17 37 24t38.5 2.5t31.5 -15.5t16.5 -29t-6.5 -39q-63 -118 -213 -96q-20 3 -47 16t-46.5 23.5t-46 9t-52.5 -22.5z" />
    <glyph glyph-name="uni0654" unicode="&#x654;" 
d="M48 1508q-57 0 -81.5 40t-4 80.5t72.5 40.5h57q-39 64 -42 126.5t21.5 108.5t69 78t96.5 41.5t108 -8t99 -63.5q17 -19 17 -47.5t-15.5 -48t-40 -25.5t-56.5 21q-46 40 -103 26.5t-67 -70.5q-6 -37 3.5 -65.5t28 -43.5t37 -22.5t35.5 -7.5h79q39 0 61 -25t22 -55.5
t-22 -55.5t-61 -25h-314z" />
    <glyph glyph-name="uni0655" unicode="&#x655;" 
d="M57 1508q-57 0 -81.5 40t-4 80.5t72.5 40.5h56q-39 64 -42 126.5t22 108.5t69.5 78t96.5 41.5t108 -8t99 -63.5q17 -19 16.5 -47.5t-15.5 -48t-40 -25.5t-57 21q-46 40 -103 26.5t-67 -70.5q-6 -37 3.5 -65.5t28.5 -43.5t37.5 -22.5t35.5 -7.5h78q39 0 61 -25t22 -55.5
t-22 -55.5t-61 -25h-313z" />
    <glyph glyph-name="uni0656" unicode="&#x656;" 
d="M74 1142q2 104 -9.5 203t-23 149.5t-41.5 174.5l105 30q106 -280 100 -514z" />
    <glyph glyph-name="uni0657" unicode="&#x657;" 
d="M170 1451q-75 0 -122.5 50t-47.5 129q0 81 50 160.5t159 174.5q33 28 70 3q31 -22 26 -54q-3 -21 -26 -36q-70 -52 -92 -74q64 -3 113 -55.5t49 -123.5q0 -72 -53.5 -123t-125.5 -51zM170 1556q33 0 53.5 19.5t20.5 49.5q0 45 -36 64.5t-72 1t-36 -65.5q0 -29 20.5 -49
t49.5 -20z" />
    <glyph glyph-name="uni0658" unicode="&#x658;" 
d="M383 1743q19 -3 31 -17t9 -31q-17 -125 -81.5 -191t-158.5 -53q-82 7 -134 77t-49 171q0 10 11.5 23.5t23.5 16.5h26q17 0 32 -14t12 -30q3 -63 25.5 -99.5t61.5 -39.5q49 -7 83 33t47 119q0 19 31 35h30z" />
    <glyph glyph-name="uni0660" unicode="&#x660;" horiz-adv-x="579" 
d="M292 322q-69 0 -115 46.5t-46 115.5q0 66 46 111.5t115 45.5q65 0 111 -46t46 -111q0 -70 -44 -116t-113 -46z" />
    <glyph glyph-name="uni0661" unicode="&#x661;" horiz-adv-x="418" 
d="M209 1333q50 0 86 -35t36 -87v-1224q0 -49 -35 -83.5t-87 -34.5q-53 0 -87.5 33t-34.5 85v1224q0 52 36 87t86 35z" />
    <glyph glyph-name="uni0662" unicode="&#x662;" horiz-adv-x="1019" 
d="M671 1163q0 52 38 82t84 30t84 -30t38 -82q0 -316 -87 -445.5t-305 -129.5q-108 0 -174 18v-615q0 -47 -25 -79.5t-61 -40t-72 0t-61 40t-25 79.5v1194q3 49 40.5 77t81.5 28t81.5 -28t40.5 -77v-130q0 -47 0.5 -76.5t4.5 -57.5t7 -42.5t15 -28t21 -18t31.5 -8.5
t40.5 -4.5t54 -0.5q40 0 64 7.5t42 26t26.5 60t12 98.5t3.5 152z" />
    <glyph glyph-name="uni0663" unicode="&#x663;" horiz-adv-x="1307" 
d="M122 -4v1176q0 48 25 81.5t61 41.5t72 1t61 -39.5t25 -79.5l4 -310q0 -48 26.5 -72t58.5 -21.5t58.5 28t26.5 65.5v305q0 48 24.5 82t59 42t69 0.5t59 -41t24.5 -83.5l8 -305q0 -70 38.5 -96.5t80 3t47.5 97.5v310q0 46 24 77.5t59 38.5t69.5 -0.5t58.5 -40t24 -79.5
v-310q0 -75 -27 -140.5t-71 -110.5t-102 -73t-117 -33t-118.5 14t-104.5 64q-59 -36 -134.5 -47.5t-144.5 4.5v-549q0 -50 -25 -83.5t-61 -41.5t-72 0t-61 41.5t-25 83.5z" />
    <glyph glyph-name="uni0664" unicode="&#x664;" horiz-adv-x="949" 
d="M697 458q-39 0 -105 1q-168 1 -195.5 -18.5t-23.5 -138.5q2 -39 2 -62q-1 -30 6 -53t17.5 -38t31 -24.5t38 -14t48 -6.5t52 -1.5t59.5 1.5t61 1q47 0 79.5 -24.5t40 -60t0 -71t-40 -60t-79.5 -24.5h-191q-184 0 -275 92t-91 283q0 136 14 217t51 127q-65 90 -65 253
q-2 104 4.5 172.5t31.5 123t62.5 84.5t106.5 50t153 26t213 6q56 0 87.5 -38t31.5 -84t-31.5 -84t-87.5 -38q-40 0 -106 1q-56 -3 -94.5 0t-63 -4.5t-38.5 -13.5t-19.5 -26.5t-6.5 -44t0 -65.5q1 -41 1 -65q0 -43 13.5 -71t41.5 -42t57.5 -19.5t74.5 -7.5q49 5 126 5h5h4
q41 0 70 -22q38 -22 47 -70.5t-12 -86.5q-10 -28 -38.5 -46.5t-66.5 -18.5z" />
    <glyph glyph-name="uni0665" unicode="&#x665;" horiz-adv-x="1228" 
d="M131 492q0 174 64 318t176.5 227t247.5 83q133 0 243 -83.5t173 -228t63 -316.5q0 -150 -41.5 -272t-109.5 -197.5t-155 -116t-177.5 -41t-177.5 40t-155 115.5t-109.5 197.5t-41.5 273.5zM375 492q0 -146 72.5 -249.5t171.5 -103.5t167 102t68 251t-70.5 251t-169.5 102
q-102 0 -170.5 -100t-68.5 -253z" />
    <glyph glyph-name="uni0666" unicode="&#x666;" horiz-adv-x="984" 
d="M87 1190v8q0 52 31 80.5t87 28.5h148q166 0 273 -23t163.5 -69t81 -114.5t26 -159.5t-2.5 -205q-5 -131 -5 -204v-541q0 -52 -36 -87t-86 -35q-48 0 -83 36.5t-35 85.5v541q0 64 1 170q3 205 -8 261q-14 70 -64 92q-45 20 -189 21h-49h-135q-56 0 -87 29.5t-31 84.5z" />
    <glyph glyph-name="uni0667" unicode="&#x667;" horiz-adv-x="1128" 
d="M893 1290q51 -7 80.5 -50.5t19.5 -93.5l-309 -1194q-10 -45 -42.5 -69.5t-75.5 -21.5q-43 -3 -75 21.5t-42 69.5l-314 1194q-10 49 19 93t77 51q49 7 87.5 -18.5t51.5 -73.5l196 -758l192 758q13 48 51 73.5t84 18.5z" />
    <glyph glyph-name="uni0668" unicode="&#x668;" horiz-adv-x="1128" 
d="M993 9q10 -49 -18.5 -93t-76.5 -51q-49 -7 -88 18t-52 73l-192 759l-196 -759q-13 -48 -51 -73t-84 -18q-51 7 -80.5 50.5t-19.5 93.5l309 1194q10 45 42.5 69.5t75.5 21.5q43 3 75.5 -21.5t42.5 -69.5z" />
    <glyph glyph-name="uni0669" unicode="&#x669;" horiz-adv-x="1137" 
d="M1007 854v-4l-5 -867q0 -52 -34.5 -85t-87.5 -33q-52 0 -87 34.5t-35 83.5l5 470q-101 -43 -192 -43q-183 0 -311.5 129t-128.5 315t127 315.5t313 129.5q183 0 309.5 -129.5t126.5 -315.5zM571 654q72 0 125 59t53 141q0 79 -51.5 133t-126.5 54q-81 0 -132 -52.5
t-51 -134.5t54 -141t129 -59z" />
    <glyph glyph-name="uni066A" unicode="&#x66a;" horiz-adv-x="2614" 
 />
    <glyph glyph-name="uni066B" unicode="&#x66b;" horiz-adv-x="344" 
d="M166 -96q-65 0 -104.5 40.5t-39.5 103.5q0 58 42.5 98.5t101.5 40.5q96 0 138.5 -68.5t-8.5 -153.5l-109 -218q4 27 11 67q11 63 6.5 76.5t-38.5 13.5z" />
    <glyph glyph-name="uni066C" unicode="&#x66c;" horiz-adv-x="623" 
d="M266 -4q-60 -66 -123 -84q-53 -15 -57 23q-2 19 10 48q24 60 47.5 119t37 97t28 74.5t22 57t17 40t16 28t15.5 16t17.5 9.5t21.5 3l105 9q42 6 74.5 -17.5t38.5 -61t-13 -78.5z" />
    <glyph glyph-name="uni066E" unicode="&#x66e;" horiz-adv-x="1629" 
d="M458 0q-172 0 -271.5 101t-99.5 282v480q0 54 36 85t79.5 31t79.5 -31t36 -85v-466q0 -77 40 -121.5t100 -44.5h714q60 0 100 44.5t40 121.5v596q0 42 24 71.5t58 36.5t67.5 0t57.5 -37t24 -75v-606q0 -184 -98 -283.5t-273 -99.5h-714z" />
    <glyph glyph-name="uni066F" unicode="&#x66f;" horiz-adv-x="1808" 
d="M1194 1185q215 0 349.5 -161t134.5 -414v-741q-3 -244 -204.5 -372.5t-554.5 -128.5h-4q-215 0 -395 110.5t-284.5 304t-104.5 426.5q0 88 23 131t90 43t91.5 -43t17.5 -131q0 -133 45 -248.5t121.5 -195t179.5 -125t216 -45.5q240 0 383 72t153 202v131h-174
q-98 0 -180 26t-137 67.5t-98 97.5t-67.5 112.5t-40.5 117.5t-21 105.5t-5 83.5q0 252 130 413.5t332 161.5h4zM954 610q0 -95 40 -182t115.5 -144t167.5 -57h183l-9 383q0 163 -69 258t-184 95h-4q-115 0 -177.5 -91.5t-62.5 -261.5z" />
    <glyph glyph-name="uni0670" unicode="&#x670;" 
d="M57 1216q6 70 -14.5 194.5t-42.5 175.5l109 57q65 -177 65 -397z" />
    <glyph glyph-name="uni0671" unicode="&#x671;" horiz-adv-x="492" 
d="M35 1704q-25 -45 -74 -18q-22 12 -22.5 41t13.5 51l61 100q13 23 38.5 28t48.5 -11l79 -43q8 12 28 43t30.5 46.5t32 38t39.5 30t45 8t56 -13.5q73 -44 99.5 -99.5t6.5 -100.5t-62.5 -81.5t-107.5 -42t-128 18.5q-28 11 -55 25.5t-40.5 22t-26.5 11.5t-21.5 -0.5
t-17.5 -18.5zM275 1808q44 -12 79 -4.5t56 23.5l21 16q-16 32 -42.5 48t-44.5 9q-16 -6 -33 -29t-27 -43zM131 118v1385q0 51 36 80.5t79.5 30t79.5 -29t36 -81.5v-1385q0 -54 -36 -85t-79.5 -31t-79.5 31t-36 85z" />
    <glyph glyph-name="uni0679" unicode="&#x679;" horiz-adv-x="1629" 
d="M580 1185q-20 0 -36.5 11.5t-16.5 27.5v48q0 18 16 29t37 11h39v353q0 23 21.5 32t43.5 0t22 -32v-114q48 48 157 48q209 0 209 -253q0 -161 -126 -161h-366zM863 1477q-68 0 -96 -36t-35 -129h196q14 0 18.5 1.5t8.5 11t4 30.5q0 64 -23.5 93t-72.5 29zM1312 993
q0 42 24 71.5t58 36.5t67.5 0t57.5 -37t24 -75v-606q0 -184 -98 -283.5t-273 -99.5h-714q-172 0 -271.5 101t-99.5 282v480q0 54 36 85t79.5 31t79.5 -31t36 -85v-466q0 -77 40 -121.5t100 -44.5h714q60 0 100 44.5t40 121.5v596z" />
    <glyph glyph-name="uni067E" unicode="&#x67e;" horiz-adv-x="1629" 
d="M458 0q-172 0 -271.5 101t-99.5 282v480q0 54 36 85t79.5 31t79.5 -31t36 -85v-466q0 -77 40 -121.5t100 -44.5h714q60 0 100 44.5t40 121.5v596q0 42 24 71.5t58 36.5t67.5 0t57.5 -37t24 -75v-606q0 -184 -98 -283.5t-273 -99.5h-714zM558 -205q0 56 36.5 87.5t81 31.5
t81 -31.5t36.5 -87.5v-70q0 -56 -36.5 -87t-81 -30.5t-81 32t-36.5 85.5v70zM863 -205q0 56 36.5 87.5t81 31.5t81 -31.5t36.5 -87.5v-70q0 -56 -36.5 -87t-81 -30.5t-81 32t-36.5 85.5v70zM710 -597q0 56 37 87.5t81 31.5t81 -31.5t37 -87.5v-70q0 -56 -37 -87t-81 -30.5
t-81 32t-37 85.5v70z" />
    <glyph glyph-name="uni0686" unicode="&#x686;" horiz-adv-x="1629" 
d="M863 1190q309 0 494.5 -192.5t185.5 -518.5v-479h-1077q-69 0 -110.5 -52t-41.5 -140q0 -94 66 -160t160 -66q49 0 83 -37.5t31 -89.5q-7 -43 -41 -71.5t-77 -28.5q-122 0 -225.5 61t-163.5 165.5t-60 226.5q0 185 123.5 312t294.5 111h802v231q0 244 -118 370.5
t-339 126.5q-105 0 -188 -35.5t-161 -113.5q-28 -28 -63 -33t-62 11.5t-45 42t-15.5 59t28.5 60.5q78 107 223 173.5t296 66.5zM1024 -322q0 -56 -36.5 -87t-81 -30.5t-81 32t-36.5 85.5v69q0 56 36.5 87.5t81 31.5t81 -31.5t36.5 -87.5v-69zM1094 -253q0 56 36.5 87.5
t81 31.5t81 -31.5t36.5 -87.5v-69q0 -56 -36.5 -87t-81 -30.5t-81 32t-36.5 85.5v69zM941 -645q0 56 37 87.5t81 31.5t81 -31.5t37 -87.5v-70q0 -56 -37 -87t-81 -30.5t-81 32t-37 85.5v70z" />
    <glyph glyph-name="uni0688" unicode="&#x688;" horiz-adv-x="1076" 
d="M144 1320q-20 0 -36 12t-16 28v47q0 19 15.5 29.5t36.5 10.5h39v353q0 23 21.5 32t43.5 0t22 -32v-114q48 48 157 48q209 0 209 -252q0 -162 -126 -162h-366zM427 1612q-68 0 -96 -36t-35 -129h196q14 0 18.5 1.5t8.5 11t4 30.5q0 64 -23.5 93t-72.5 29zM383 1190
q179 -11 317 -105t213.5 -255t75.5 -364v-466h-789q-42 0 -71.5 24t-36.5 58t-0.5 67.5t35.5 57.5t73 24h554v235q0 219 -103.5 348t-293.5 145q-46 7 -75 39t-29 78q0 53 37.5 87t92.5 27z" />
    <glyph glyph-name="uni0691" unicode="&#x691;" horiz-adv-x="679" 
d="M514 1599q209 0 209 -253q0 -161 -126 -161h-366q-20 0 -36 11.5t-16 27.5v48q0 18 15.5 29t36.5 11h39v353q0 23 22 32t43.5 0t21.5 -32v-114q48 48 157 48zM580 1312q13 0 18 1.5t8.5 10.5t3.5 31q0 64 -23.5 93t-72.5 29q-68 0 -96 -36t-35 -129h197zM357 924
q0 56 37 87.5t81 31.5t81 -31.5t37 -87.5v-880q0 -193 -101 -306t-274 -113q-36 0 -64 12.5t-42.5 32.5t-21.5 44t-0.5 48.5t20.5 44.5t41.5 32.5t62.5 12.5q69 0 106 47.5t37 135.5v889z" />
    <glyph glyph-name="uni0698" unicode="&#x698;" horiz-adv-x="679" 
d="M353 1787v69q0 54 36.5 85.5t81 32t81 -30.5t36.5 -87v-69q0 -56 -36.5 -87.5t-81 -31.5t-81 31.5t-36.5 87.5zM200 1394v70q0 54 37 85.5t81 32t81 -30.5t37 -87v-70q0 -56 -37 -87.5t-81 -31.5t-81 31.5t-37 87.5zM505 1394v70q0 54 37 85.5t81 32t81 -30.5t37 -87v-70
q0 -56 -37 -87.5t-81 -31.5t-81 31.5t-37 87.5zM218 -375q-36 0 -64 12.5t-42.5 32.5t-21.5 44t-0.5 48.5t20.5 44.5t41.5 32.5t62.5 12.5q69 0 106 47.5t37 135.5v889q0 56 37 87.5t81 31.5t81 -31.5t37 -87.5v-880q0 -193 -101 -306t-274 -113z" />
    <glyph glyph-name="uni06A1" unicode="&#x6a1;" horiz-adv-x="2113" 
d="M2026 614v-614l-274 4v-4h-985q-150 0 -277 52.5t-215.5 146.5t-138 228t-49.5 292v57q0 49 32.5 83t80.5 34q49 0 83.5 -34t34.5 -83v-40q0 -235 121 -370t328 -135h418q-58 90 -83.5 196.5t-25.5 186.5q0 252 130 414t332 162h5q215 0 349 -161.5t134 -414.5zM1808 231
l-8 383q0 163 -69 258t-184 95h-4q-115 0 -177.5 -91.5t-62.5 -261.5q0 -95 39.5 -182t115 -144t167.5 -57h183z" />
    <glyph glyph-name="uni06A4" unicode="&#x6a4;" horiz-adv-x="2113" 
d="M1630 1891q0 -56 -37 -87.5t-81 -31.5t-81 31.5t-37 87.5v70q0 54 37 85.5t81 32t81 -30.5t37 -87v-70zM1477 1499q0 -56 -36.5 -87.5t-81 -31.5t-81 31.5t-36.5 87.5v70q0 54 36.5 85.5t81 32t81 -30.5t36.5 -87v-70zM1547 1569q0 54 36.5 85.5t81 32t81 -30.5t36.5 -87
v-70q0 -56 -36.5 -87.5t-81 -31.5t-81 31.5t-36.5 87.5v70zM2026 614v-614l-274 4v-4h-985q-150 0 -277 52.5t-215.5 146.5t-138 228t-49.5 292v57q0 49 32.5 83t80.5 34q49 0 83.5 -34t34.5 -83v-40q0 -235 121 -370t328 -135h418q-58 90 -83.5 196.5t-25.5 186.5
q0 252 130 414t332 162h5q215 0 349 -161.5t134 -414.5zM1808 231l-8 383q0 163 -69 258t-184 95h-4q-115 0 -177.5 -91.5t-62.5 -261.5q0 -95 39.5 -182t115 -144t167.5 -57h183z" />
    <glyph glyph-name="uni06A9" unicode="&#x6a9;" horiz-adv-x="2030" 
d="M1216 1190q216 0 371.5 -89.5t234 -248t78.5 -368.5v-305q0 -74 -53 -126.5t-126 -52.5h-1111q-99 5 -180.5 36.5t-136 80.5t-92.5 111t-54 131t-16 138.5t17 134.5q35 137 114 165q57 21 103 -21q48 -44 38 -113q-3 -20 -11 -40q-24 -58 -33 -112.5t1 -106t41 -89.5
t93.5 -61t150.5 -23h1015v253q0 221 -114.5 350t-329.5 129h-462q-58 0 -101 42.5t-43 101.5q0 27 12.5 55.5t31.5 44.5l401 357q27 35 78 35q36 0 64.5 -21t40.5 -50.5t6 -63.5t-33 -57l-252 -217h257z" />
    <glyph glyph-name="uni06AF" unicode="&#x6af;" horiz-adv-x="2030" 
d="M575 1255q-37 -31 -84 -10.5t-56.5 63t31.5 82.5l523 423q33 21 62.5 9.5t49.5 -35.5t17.5 -57.5t-33.5 -56.5zM1216 1190q216 0 371.5 -89.5t234 -248t78.5 -368.5v-305q0 -74 -53 -126.5t-126 -52.5h-1111q-99 5 -180.5 36.5t-136 80.5t-92.5 111t-54 131t-16 138.5
t17 134.5q35 137 114 165q57 21 103 -21q48 -44 38 -113q-3 -20 -11 -40q-24 -58 -33 -112.5t1 -106t41 -89.5t93.5 -61t150.5 -23h1015v253q0 221 -114.5 350t-329.5 129h-462q-58 0 -101 42.5t-43 101.5q0 27 12.5 55.5t31.5 44.5l401 357q27 35 78 35q36 0 64.5 -21
t40.5 -50.5t6 -63.5t-33 -57l-252 -217h257z" />
    <glyph glyph-name="uni06BA" unicode="&#x6ba;" horiz-adv-x="1498" 
d="M1207 993q0 42 24 71.5t57.5 36.5t67.5 0t58 -37t24 -75v-588q-5 -187 -61 -336t-148 -242.5t-207.5 -144t-245.5 -53.5q-104 -3 -204 25t-188.5 88t-155.5 146.5t-106 209.5t-39 268l30 483q4 72 62.5 95t113.5 -14t51 -111l-26 -453q-13 -231 110.5 -360.5
t346.5 -136.5q436 13 436 566v562z" />
    <glyph glyph-name="uni06BE" unicode="&#x6be;" horiz-adv-x="1930" 
d="M1155 1346q318 0 503 -193.5t185 -529.5v-623h-1852l-35 113l35 118h318q-117 152 -117 383q0 107 29.5 198.5t80 158t119 115t146 75t161.5 33.5q166 152 427 152zM1251 231h357v392q0 235 -120 366t-333 131q-44 0 -61 -4q125 -73 199.5 -200t74.5 -302
q0 -231 -117 -383zM423 614q0 -161 103.5 -272t253.5 -111q156 0 256.5 108t100.5 275q0 144 -106.5 248.5t-250.5 104.5q-150 0 -253.5 -103t-103.5 -250z" />
    <glyph glyph-name="uni06C1" unicode="&#x6c1;" horiz-adv-x="1250" 
d="M623 4q-232 0 -384 153.5t-152 391.5q0 166 71 303t195 215.5t274 78.5q111 0 210.5 -46.5t171 -125.5t113 -189t41.5 -232v-4q0 -238 -152 -391.5t-388 -153.5zM627 231q150 0 241 93t91 247v4q0 165 -95 274.5t-241 109.5q-145 0 -238 -106t-93 -278v-4
q0 -153 92.5 -246.5t242.5 -93.5z" />
    <glyph glyph-name="uni06C2" unicode="&#x6c2;" horiz-adv-x="1250" 
d="M466 1290q-57 0 -81.5 40t-4 80.5t72.5 40.5h57q-39 64 -42 126.5t22 108.5t69.5 78t96.5 41.5t108 -8t99 -63.5q17 -19 16.5 -47.5t-15.5 -48t-40 -25.5t-57 21q-46 40 -103 26.5t-67 -70.5q-6 -37 3.5 -65.5t28.5 -43.5t37.5 -22.5t35.5 -7.5h78q39 0 61 -25t22 -55.5
t-22 -55.5t-61 -25h-314zM623 4q-232 0 -384 153.5t-152 391.5q0 166 71 303t195 215.5t274 78.5q111 0 210.5 -46.5t171 -125.5t113 -189t41.5 -232v-4q0 -238 -152 -391.5t-388 -153.5zM627 231q150 0 241 93t91 247v4q0 165 -95 274.5t-241 109.5q-145 0 -238 -106
t-93 -278v-4q0 -153 92.5 -246.5t242.5 -93.5z" />
    <glyph glyph-name="uni06C3" unicode="&#x6c3;" horiz-adv-x="1250" 
d="M357 1407v70q0 54 37 85.5t81 32t81 -30.5t37 -87v-70q0 -56 -37 -87.5t-81 -31.5t-81 31.5t-37 87.5zM662 1407v70q0 54 37 85.5t81 32t81 -30.5t37 -87v-70q0 -56 -37 -87.5t-81 -31.5t-81 31.5t-37 87.5zM623 4q-232 0 -384 153.5t-152 391.5q0 166 71 303t195 215.5
t274 78.5q111 0 210.5 -46.5t171 -125.5t113 -189t41.5 -232v-4q0 -238 -152 -391.5t-388 -153.5zM627 231q150 0 241 93t91 247v4q0 165 -95 274.5t-241 109.5q-145 0 -238 -106t-93 -278v-4q0 -153 92.5 -246.5t242.5 -93.5z" />
    <glyph glyph-name="uni06CC" unicode="&#x6cc;" horiz-adv-x="1860" 
d="M871 -383q-215 0 -395 110.5t-284.5 304t-104.5 426.5q0 88 23 131t90 43t91.5 -43t17.5 -131q0 -133 45 -248.5t121.5 -195.5t179.5 -125.5t216 -45.5q250 0 393 78.5t143 217.5q0 66 -32 116.5t-83 83.5t-112.5 62t-123.5 62.5t-113 75t-83 109t-32 154.5
q0 173 139.5 280.5t361.5 107.5q142 0 269 -48t175 -122q0 -45 -45.5 -95.5t-102.5 -74.5q-76 66 -137 89.5t-159 23.5q-119 0 -199 -47.5t-80 -113.5q0 -53 32 -96t83.5 -75t114 -63.5t125 -70.5t114 -86t83.5 -119t32 -161q0 -251 -201 -382.5t-557 -131.5h-5z" />
    <glyph glyph-name="uni06D2" unicode="&#x6d2;" horiz-adv-x="1812" 
d="M1503 819q0 42 24 71.5t57.5 36.5t67.5 0t58 -37t24 -75v-427q0 -183 -98 -285.5t-272 -102.5h-924q0 -151 90.5 -239t223.5 -88h396q36 0 62 -25.5t26 -61.5v-17q0 -51 -25 -80t-63 -29h-396q-117 0 -205 20.5t-164.5 72.5t-125 137.5t-75.5 218.5t-27 313l767 9h440
q60 0 99.5 44.5t39.5 121.5v422z" />
    <glyph glyph-name="uni06D3" unicode="&#x6d3;" horiz-adv-x="1812" 
d="M444 597q39 0 61 -25t22 -55.5t-22 -55.5t-61 -25h-313q-57 0 -81.5 40t-4 80.5t72.5 40.5h56q-39 64 -42 126.5t22 108.5t69.5 78t96.5 41.5t108 -8t99 -63.5q17 -19 16.5 -47.5t-15.5 -48t-40 -25.5t-57 21q-46 40 -103 26.5t-67 -70.5q-6 -37 3.5 -65.5t28.5 -43.5
t37.5 -22.5t35.5 -7.5h78zM1503 819q0 42 24 71.5t57.5 36.5t67.5 0t58 -37t24 -75v-427q0 -183 -98 -285.5t-272 -102.5h-924q0 -151 90.5 -239t223.5 -88h396q36 0 62 -25.5t26 -61.5v-17q0 -51 -25 -80t-63 -29h-396q-117 0 -205 20.5t-164.5 72.5t-125 137.5
t-75.5 218.5t-27 313l767 9h440q60 0 99.5 44.5t39.5 121.5v422z" />
    <glyph glyph-name="uni06D4" unicode="&#x6d4;" horiz-adv-x="492" 
d="M405 157q0 -64 -49 -110.5t-112 -46.5q-65 0 -111 46t-46 111q0 63 46.5 112t110.5 49q62 0 111.5 -49.5t49.5 -111.5z" />
    <glyph glyph-name="uni06F0" unicode="&#x6f0;" horiz-adv-x="527" 
d="M292 322q-69 0 -115 46.5t-46 115.5q0 66 46 111.5t115 45.5q65 0 111 -46t46 -111q0 -70 -44 -116t-113 -46z" />
    <glyph glyph-name="uni06F1" unicode="&#x6f1;" horiz-adv-x="383" 
d="M209 1333q50 0 86 -35t36 -87v-1224q0 -49 -35 -83.5t-87 -34.5q-53 0 -87.5 33t-34.5 85v1224q0 52 36 87t86 35z" />
    <glyph glyph-name="uni06F2" unicode="&#x6f2;" horiz-adv-x="1058" 
d="M671 1163q0 52 38 82t84 30t84 -30t38 -82q0 -316 -87 -445.5t-305 -129.5q-108 0 -174 18v-615q0 -47 -25 -79.5t-61 -40t-72 0t-61 40t-25 79.5v1194q3 49 40.5 77t81.5 28t81.5 -28t40.5 -77v-130q0 -47 0.5 -76.5t4.5 -57.5t7 -42.5t15 -28t21 -18t31.5 -8.5
t40.5 -4.5t54 -0.5q40 0 64 7.5t42 26t26.5 60t12 98.5t3.5 152z" />
    <glyph glyph-name="uni06F3" unicode="&#x6f3;" horiz-adv-x="1289" 
d="M122 -4v1176q0 48 25 81.5t61 41.5t72 1t61 -39.5t25 -79.5l4 -310q0 -48 26.5 -72t58.5 -21.5t58.5 28t26.5 65.5v305q0 48 24.5 82t59 42t69 0.5t59 -41t24.5 -83.5l8 -305q0 -70 38.5 -96.5t80 3t47.5 97.5v310q0 46 24 77.5t59 38.5t69.5 -0.5t58.5 -40t24 -79.5
v-310q0 -75 -27 -140.5t-71 -110.5t-102 -73t-117 -33t-118.5 14t-104.5 64q-59 -36 -134.5 -47.5t-144.5 4.5v-549q0 -50 -25 -83.5t-61 -41.5t-72 0t-61 41.5t-25 83.5z" />
    <glyph glyph-name="uni06F4" unicode="&#x6f4;" horiz-adv-x="1507" 
d="M1177 1163q0 52 38 82t84 30t84 -30t38 -82q0 -315 -87.5 -445t-305.5 -130q-494 0 -697 70v-667q0 -47 -25 -79.5t-61 -40t-72 0t-61 40t-25 79.5v1212v17v9q3 49 40.5 77t81.5 28t81.5 -28t40.5 -77v-9q0 -90 2 -129.5t11.5 -92.5t31.5 -75.5t61.5 -44t102.5 -33.5
q-4 13 -4 48q0 186 88.5 275t294.5 96q77 2 111 -59q29 -50 7 -98q-22 -50 -83 -48q-59 3 -100 -3t-60.5 -19t-29.5 -30t-8.5 -37.5t2.5 -41.5q12 -80 79 -109h191q67 0 96 24.5t41 94t12 225.5z" />
    <glyph glyph-name="uni06F5" unicode="&#x6f5;" horiz-adv-x="1250" 
d="M501 1259q92 -60 168.5 -121t158 -149t138 -182t92.5 -216.5t36 -254.5q0 -183 -80 -290t-217 -107q-66 0 -109.5 18t-81.5 52q-63 -70 -192 -70q-90 0 -156 44t-97.5 118.5t-41.5 168.5t10.5 198.5t59.5 203.5t104.5 189t146.5 150q-42 35 -91 70q-36 29 -45 66t8 66.5
t45 51t68 21t76 -26.5zM767 205q48 -100 73 -36q18 46 18 167q0 287 -248 535q-170 -114 -235 -348q-42 -157 -22 -286q13 -82 43 -84q22 -2 44 47q43 85 104 116.5t121.5 1.5t101.5 -113z" />
    <glyph glyph-name="uni06F6" unicode="&#x6f6;" horiz-adv-x="897" 
d="M732 697q45 -26 52.5 -77.5t-26.5 -87.5q-29 -44 -87 -44q-107 0 -184 -22t-118 -60.5t-55 -90.5t0 -112t52 -125q35 -76 8 -135.5t-99.5 -59.5t-117.5 82q-75 192 -61 348.5t118 257.5q-95 89 -101 287q-2 104 5 176.5t29 134t62 96.5t103.5 54.5t152.5 17t210 -24.5
q71 -12 97 -79q24 -60 -3 -109q-29 -54 -94 -39q-85 19 -145 25.5t-97 1.5t-58 -20.5t-28.5 -39.5t-9 -56t0.5 -71q2 -44 2 -67q0 -32 8 -56t19.5 -39.5t34 -26t41 -15.5t51 -6.5t54 -1.5t60 1t59.5 1h4q37 0 61 -18z" />
    <glyph glyph-name="uni06F7" unicode="&#x6f7;" horiz-adv-x="1128" 
d="M893 1290q51 -7 80.5 -50.5t19.5 -93.5l-309 -1194q-10 -45 -42.5 -69.5t-75.5 -21.5q-43 -3 -75 21.5t-42 69.5l-314 1194q-10 49 19 93t77 51q49 7 87.5 -18.5t51.5 -73.5l196 -758l192 758q13 48 51 73.5t84 18.5z" />
    <glyph glyph-name="uni06F8" unicode="&#x6f8;" horiz-adv-x="1128" 
d="M993 9q10 -49 -18.5 -93t-76.5 -51q-49 -7 -88 18t-52 73l-192 759l-196 -759q-13 -48 -51 -73t-84 -18q-51 7 -80.5 50.5t-19.5 93.5l309 1194q10 45 42.5 69.5t75.5 21.5q43 3 75.5 -21.5t42.5 -69.5z" />
    <glyph glyph-name="uni06F9" unicode="&#x6f9;" horiz-adv-x="1137" 
d="M1007 854v-4l-5 -867q0 -52 -34.5 -85t-87.5 -33q-52 0 -87 34.5t-35 83.5l5 470q-101 -43 -192 -43q-183 0 -311.5 129t-128.5 315t127 315.5t313 129.5q183 0 309.5 -129.5t126.5 -315.5zM571 654q72 0 125 59t53 141q0 79 -51.5 133t-126.5 54q-81 0 -132 -52.5
t-51 -134.5t54 -141t129 -59z" />
    <glyph glyph-name="endash" unicode="&#x2013;" horiz-adv-x="1695" 
d="M231 532q-43 0 -71.5 26.5t-28.5 68.5v5q0 42 28.5 69t71.5 27h1237q43 0 69.5 -26.5t26.5 -69.5v-5q0 -39 -28.5 -67t-67.5 -28h-1237z" />
    <glyph glyph-name="emdash" unicode="&#x2014;" horiz-adv-x="2156" 
d="M231 532q-43 0 -71.5 26.5t-28.5 68.5v5q0 42 28.5 69t71.5 27h1717q43 0 69.5 -26.5t26.5 -69.5v-5q0 -39 -28.5 -67t-67.5 -28h-1717z" />
    <glyph glyph-name="quoteleft" unicode="&#x2018;" horiz-adv-x="409" 
d="M370 1621l-91 -558h-244l213 562z" />
    <glyph glyph-name="quoteright" unicode="&#x2019;" horiz-adv-x="326" 
d="M327 1586l-122 -562h-205l100 562h227z" />
    <glyph glyph-name="quotesinglbase" unicode="&#x201a;" horiz-adv-x="366" 
d="M65 -161l205 562h140l-101 -562h-244z" />
    <glyph glyph-name="quotedblleft" unicode="&#x201c;" horiz-adv-x="845" 
d="M758 1590l-122 -562h-205l101 562h226zM414 1586l-122 -562h-205l100 562h227z" />
    <glyph glyph-name="quotedblright" unicode="&#x201d;" horiz-adv-x="845" 
d="M758 1590l-122 -562h-205l101 562h226zM414 1573l-122 -562h-205l100 562h227z" />
    <glyph glyph-name="quotedblbase" unicode="&#x201e;" horiz-adv-x="705" 
d="M758 401l-122 -562h-205l101 562h226zM414 397l-122 -563h-205l100 563h227z" />
    <glyph glyph-name="dagger" unicode="&#x2020;" horiz-adv-x="1028" 
d="M514 -283q-43 0 -69.5 26.5t-26.5 69.5q-2 331 -2 573t1 318l1 76q-198 -13 -226 -13q-47 0 -80.5 28t-33.5 72v4q0 48 30.5 74.5t83.5 26.5q33 0 231 -13q-13 253 -13 322q0 47 28 78t76 31t76.5 -31t28.5 -78q0 -69 -13 -322q198 13 231 13q53 0 83 -26.5t30 -74.5v-4
q0 -45 -33 -72.5t-80 -27.5q-29 0 -227 13v-967q0 -43 -26.5 -69.5t-69.5 -26.5z" />
    <glyph glyph-name="daggerdbl" unicode="&#x2021;" horiz-adv-x="1028" 
d="M514 -283q-48 0 -76 31.5t-28 81.5q0 65 13 305q-198 -13 -231 -13q-47 0 -80.5 28t-33.5 72v5q0 44 33.5 72t80.5 28q28 0 226 -13q-13 211 -13 239q0 33 13 244q-115 -17 -226 -17q-50 0 -82 28.5t-32 76.5t32 76t82 28q33 0 231 -13q-13 241 -13 305q0 47 28 78t76 31
t76.5 -31t28.5 -78q0 -65 -13 -305q198 13 231 13q50 0 81.5 -28t31.5 -76t-31.5 -76.5t-81.5 -28.5q-29 0 -227 13q13 -198 13 -240q0 -28 -13 -239q198 13 227 13q47 0 80 -27.5t33 -72.5v-5q0 -45 -33 -72.5t-80 -27.5q-33 0 -231 13q13 -241 13 -305q0 -50 -28.5 -81.5
t-76.5 -31.5z" />
    <glyph glyph-name="bullet" unicode="&#x2022;" horiz-adv-x="592" 
d="M514 549q0 -98 -60 -158t-158 -60t-158 60t-60 158t60 158t158 60t158 -60t60 -158z" />
    <glyph glyph-name="ellipsis" unicode="&#x2026;" horiz-adv-x="1106" 
d="M349 131q0 -55 -39 -93t-92 -38q-56 0 -93.5 38t-37.5 93q0 56 38 95.5t93 39.5q54 0 92.5 -40.5t38.5 -94.5zM684 131q0 -55 -39 -93t-92 -38q-54 0 -94.5 38.5t-40.5 92.5q0 53 40 94t95 41q54 0 92.5 -40.5t38.5 -94.5zM1020 131q0 -55 -39 -93t-92 -38q-55 0 -93 38
t-38 93q0 56 38 95.5t93 39.5q54 0 92.5 -40.5t38.5 -94.5z" />
    <glyph glyph-name="perthousand" unicode="&#x2030;" horiz-adv-x="2614" 
d="M458 -157q-35 -61 -93.5 -57.5t-80 51t11.5 102.5l972 1503q21 29 51 39t55 1.5t45 -28t21.5 -50.5t-15.5 -66zM453 606q-164 0 -265 113t-101 296t101.5 298.5t264.5 115.5t264.5 -115.5t101.5 -298.5t-101 -296t-265 -113zM453 784q79 0 122.5 60t43.5 171t-43.5 173.5
t-122.5 62.5q-76 0 -118.5 -61t-42.5 -175q0 -231 161 -231zM2109 -105q-164 0 -265 114t-101 300q0 183 101.5 296.5t264.5 113.5t264.5 -113.5t101.5 -296.5q0 -186 -101 -300t-265 -114zM1264 -144q-164 0 -265 114t-101 300q0 183 101.5 296.5t264.5 113.5t264.5 -113.5
t101.5 -296.5q0 -186 -101 -300t-265 -114zM2109 74q79 0 122.5 60t43.5 171t-43.5 173t-122.5 62q-76 0 -118.5 -61t-42.5 -174q0 -110 42.5 -170.5t118.5 -60.5zM1264 35q79 0 122 60t43 171t-43 173t-122 62q-76 0 -119 -61t-43 -174q0 -110 43 -170.5t119 -60.5z" />
    <glyph glyph-name="guilsinglleft" unicode="&#x2039;" horiz-adv-x="697" 
d="M492 92q-50 0 -87 52l-296 361q-29 36 -32.5 78.5t19.5 78.5l318 393q25 30 57.5 38.5t59.5 -4.5t45.5 -35t18.5 -54.5t-24 -62.5l-266 -344l270 -340q22 -35 19.5 -70.5t-30 -63t-67.5 -27.5h-5z" />
    <glyph glyph-name="guilsinglright" unicode="&#x203a;" horiz-adv-x="697" 
d="M205 92h-5q-40 0 -67.5 27.5t-30 63t19.5 70.5l270 340l-266 344q-24 30 -24 62.5t18.5 54.5t45.5 35t59.5 4.5t57.5 -38.5l318 -393q23 -36 19.5 -78.5t-32.5 -78.5l-296 -361q-37 -52 -87 -52z" />
    <glyph glyph-name="fraction" unicode="&#x2044;" horiz-adv-x="1394" 
d="M305 -161q-41 -70 -110 -65.5t-94.5 59.5t12.5 123l976 1491q41 70 110 65.5t94.5 -60t-12.5 -123.5z" />
    <glyph glyph-name="Euro" unicode="&#x20ac;" horiz-adv-x="1424" 
d="M1294 87q-150 -95 -296 -137.5t-272 -27t-228.5 79.5t-171.5 184.5t-95 284.5h-61q-57 0 -80 46.5t0.5 93.5t79.5 47h48v131h-48q-57 0 -80 46.5t0.5 93.5t79.5 47h70q24 121 83.5 223t139 171.5t178 110t199.5 46t205 -28t193 -104.5q26 -20 35 -48.5t0.5 -53t-26 -44.5
t-44 -22.5t-53.5 12.5q-159 89 -302.5 91t-247.5 -89t-142 -264h440q46 0 72.5 -29t26.5 -64.5t-26.5 -64.5t-72.5 -29h-462v-131h422q43 0 68 -29t25.5 -64.5t-24 -64.5t-69.5 -29h-405q36 -197 143 -289t262 -72.5t340 143.5q31 17 62 14.5t51.5 -24t30 -47.5t-2 -57
t-45.5 -52z" />
    <glyph glyph-name="trademark" unicode="&#x2122;" horiz-adv-x="1533" 
d="M715 1355v484q0 42 20 73.5t51 44t65 11.5t65 -21.5t47 -55.5l92 -270l91 240q17 56 60 84.5t86.5 24.5t77 -38.5t33.5 -92.5v-479q0 -43 -30.5 -68t-67.5 -25.5t-67.5 24t-30.5 69.5v130q-55 -119 -104 -155t-98.5 6t-106.5 167v-153q0 -43 -28.5 -68t-63 -25.5t-63 24
t-28.5 69.5zM296 1360v405h-96q-34 0 -53.5 28t-19.5 61t19.5 61t53.5 28h393q34 0 53.5 -28t19.5 -61t-19.5 -61t-53.5 -28h-96v-405q0 -51 -31.5 -80t-69 -29t-69 29t-31.5 80z" />
    <glyph glyph-name="minus" unicode="&#x2212;" horiz-adv-x="1019" 
d="M932 802q0 -49 -30 -81.5t-78 -32.5h-628q-48 0 -78.5 32.5t-30.5 81.5v4q0 46 30.5 77.5t78.5 31.5h628q48 0 78 -31t30 -78v-4z" />
    <glyph glyph-name="lessequal" unicode="&#x2264;" horiz-adv-x="1193" 
d="M1063 1063q0 -52 -48 -83l-575 -187l562 -187q61 -34 61 -92q0 -54 -47 -80.5t-97 -6.5l-740 270q-48 34 -48 92v4q0 58 48 92l736 270q56 20 102 -6t46 -81v-5zM946 314q48 0 78.5 -31.5t30.5 -77.5v-5q0 -49 -30.5 -81t-78.5 -32h-706q-48 0 -78.5 32t-30.5 81v5
q0 46 30.5 77.5t78.5 31.5h706z" />
    <glyph glyph-name="greaterequal" unicode="&#x2265;" horiz-adv-x="1089" 
d="M959 885q48 -34 48 -92v-4q0 -58 -48 -92l-741 -270q-50 -20 -97 6.5t-47 80.5q0 58 61 92l562 187l-575 187q-48 31 -48 83v5q0 55 46 81t102 6zM898 314q48 0 78.5 -31.5t30.5 -77.5v-5q0 -49 -30.5 -81t-78.5 -32h-706q-48 0 -78.5 32t-30.5 81v5q0 46 30.5 77.5
t78.5 31.5h706z" />
    <glyph glyph-name="uniFBB2" unicode="&#xfbb2;" 
d="M0 1146v70q0 54 36.5 85.5t81 32t81 -30.5t36.5 -87v-70q0 -56 -36.5 -87.5t-81 -31.5t-81 31.5t-36.5 87.5z" />
    <glyph glyph-name="uniFBB3" unicode="&#xfbb3;" 
d="M0 1146v70q0 54 36.5 85.5t81 32t81 -30.5t36.5 -87v-70q0 -56 -36.5 -87.5t-81 -31.5t-81 31.5t-36.5 87.5z" />
    <glyph glyph-name="uniFBB4" unicode="&#xfbb4;" 
d="M0 1146v70q0 54 36.5 85.5t81 32t81 -30.5t36.5 -87v-70q0 -56 -36.5 -87.5t-81 -31.5t-81 31.5t-36.5 87.5zM305 1146v70q0 54 36.5 85.5t81 32t81 -30.5t36.5 -87v-70q0 -56 -36.5 -87.5t-81 -31.5t-81 31.5t-36.5 87.5z" />
    <glyph glyph-name="uniFBB5" unicode="&#xfbb5;" 
d="M0 1146v70q0 54 36.5 85.5t81 32t81 -30.5t36.5 -87v-70q0 -56 -36.5 -87.5t-81 -31.5t-81 31.5t-36.5 87.5zM305 1146v70q0 54 36.5 85.5t81 32t81 -30.5t36.5 -87v-70q0 -56 -36.5 -87.5t-81 -31.5t-81 31.5t-36.5 87.5z" />
    <glyph glyph-name="uniFBB6" unicode="&#xfbb6;" 
d="M153 985v70q0 54 36.5 85.5t81 32t81 -30.5t36.5 -87v-70q0 -56 -36.5 -87.5t-81 -31.5t-81 31.5t-36.5 87.5zM0 593v69q0 54 36.5 85.5t81 32t81 -30.5t36.5 -87v-69q0 -56 -36.5 -87.5t-81 -31.5t-81 31.5t-36.5 87.5zM305 593v69q0 54 36.5 85.5t81 32t81 -30.5
t36.5 -87v-69q0 -56 -36.5 -87.5t-81 -31.5t-81 31.5t-36.5 87.5z" />
    <glyph glyph-name="uniFBB7" unicode="&#xfbb7;" 
d="M153 985v70q0 54 36.5 85.5t81 32t81 -30.5t36.5 -87v-70q0 -56 -36.5 -87.5t-81 -31.5t-81 31.5t-36.5 87.5zM0 593v69q0 54 36.5 85.5t81 32t81 -30.5t36.5 -87v-69q0 -56 -36.5 -87.5t-81 -31.5t-81 31.5t-36.5 87.5zM305 593v69q0 54 36.5 85.5t81 32t81 -30.5
t36.5 -87v-69q0 -56 -36.5 -87.5t-81 -31.5t-81 31.5t-36.5 87.5z" />
    <glyph glyph-name="uniFBB8" unicode="&#xfbb8;" 
d="M0 1085q0 56 36.5 87.5t81 31.5t81 -31.5t36.5 -87.5v-70q0 -56 -36.5 -87t-81 -30.5t-81 32t-36.5 85.5v70zM305 1085q0 56 36.5 87.5t81 31.5t81 -31.5t36.5 -87.5v-70q0 -56 -36.5 -87t-81 -30.5t-81 32t-36.5 85.5v70zM153 693q0 56 36.5 87.5t81 31.5t81 -31.5
t36.5 -87.5v-70q0 -56 -36.5 -87t-81 -30.5t-81 32t-36.5 85.5v70z" />
    <glyph glyph-name="uniFBB9" unicode="&#xfbb9;" 
d="M0 1085q0 56 36.5 87.5t81 31.5t81 -31.5t36.5 -87.5v-70q0 -56 -36.5 -87t-81 -30.5t-81 32t-36.5 85.5v70zM305 1085q0 56 36.5 87.5t81 31.5t81 -31.5t36.5 -87.5v-70q0 -56 -36.5 -87t-81 -30.5t-81 32t-36.5 85.5v70zM153 693q0 56 36.5 87.5t81 31.5t81 -31.5
t36.5 -87.5v-70q0 -56 -36.5 -87t-81 -30.5t-81 32t-36.5 85.5v70z" />
    <glyph glyph-name="uniFBBD" unicode="&#xfbbd;" 
d="M0 1028v70q0 54 36.5 85.5t81 32t81 -30.5t36.5 -87v-70q0 -56 -36.5 -87.5t-81 -31.5t-81 31.5t-36.5 87.5zM0 636v70q0 54 36.5 85.5t81 32t81 -30.5t36.5 -87v-70q0 -56 -36.5 -87.5t-81 -31.5t-81 31.5t-36.5 87.5z" />
    <glyph glyph-name="uniFBBE" unicode="&#xfbbe;" 
d="M0 1028v70q0 54 36.5 85.5t81 32t81 -30.5t36.5 -87v-70q0 -56 -36.5 -87.5t-81 -31.5t-81 31.5t-36.5 87.5zM0 636v70q0 54 36.5 85.5t81 32t81 -30.5t36.5 -87v-70q0 -56 -36.5 -87.5t-81 -31.5t-81 31.5t-36.5 87.5z" />
    <glyph glyph-name="uniFCFB.001" horiz-adv-x="2989" 
d="M2641 1072q0 40 22.5 67t54.5 33t63.5 0t54 -33t22.5 -67v-414q0 -192 -34.5 -318.5t-115 -205.5t-206.5 -109.5t-315 -24.5v35q-107 -30 -244 -35h-43h-35q-124 6 -165 66t-44 200v26v144v331l-392 -4h-388q-54 0 -74 -38t18 -72q51 -47 178 -47q275 0 425 -146
q113 -110 116 -263q3 -149 -100 -262q-125 -139 -349 -152q-26 -1 -53 -1l-427 4q-93 1 -181.5 39.5t-153.5 100.5t-104.5 146t-39.5 172v370q0 54 34 85t75 31t75 -31t34 -85v-370q0 -92 80 -166t181 -74l427 -4q145 -2 223 81q62 66 45 147q-19 86 -120 130
q-78 34 -187 34q-205 4 -324 125q-92 94 -93 212q-2 117 85 187q80 64 210 64l993 -4v-706q0 -51 5 -56h21h5h43q58 1 94 5t65.5 17.5t44.5 31t25 53t12.5 76.5t2.5 108v510q0 49 34 78t75 29.5t75 -28t34 -79.5v-353v-91v-353q127 16 181.5 118t54.5 322v414z" />
    <glyph glyph-name="uniFD17.001" horiz-adv-x="3124" 
d="M3155 231l43 -113l-43 -118h-131q-223 0 -314 135q-149 -149 -523 -135v35q-107 -30 -244 -35h-43h-35q-124 6 -165 66t-44 200v26v144v331l-392 -4h-388q-54 0 -74 -38t18 -72q51 -47 178 -47q275 0 425 -146q113 -110 116 -263q3 -149 -100 -262q-125 -139 -349 -152
q-26 -1 -53 -1l-427 4q-93 1 -181.5 39.5t-153.5 100.5t-104.5 146t-39.5 172v370q0 54 34 85t75 31t75 -31t34 -85v-370q0 -92 80 -166t181 -74l427 -4q145 -2 223 81q62 66 45 147q-19 86 -120 130q-78 34 -187 34q-205 4 -324 125q-92 94 -93 212q-2 117 85 187
q80 64 210 64l993 -4v-706q0 -51 5 -56h21h5h43q58 1 94 5t65.5 17.5t44.5 31t25 53t12.5 76.5t2.5 108v510q0 49 34 78t75 29.5t75 -28t34 -79.5v-353v-91v-353q127 16 181.5 118t54.5 322v414q0 40 22.5 67t54.5 33t63.5 0t54 -33t22.5 -67v-414v-44v-161q0 -222 166 -222
h131z" />
    <glyph glyph-name="uniFD18.001" horiz-adv-x="3124" 
d="M3155 231l43 -113l-43 -118h-131q-223 0 -314 135q-149 -149 -523 -135v35q-107 -30 -244 -35h-43h-35q-124 6 -165 66t-44 200v26v144v331l-392 -4h-388q-54 0 -74 -38t18 -72q51 -47 178 -47q275 0 425 -146q113 -110 116 -263q3 -149 -100 -262q-125 -139 -349 -152
q-26 -1 -53 -1l-427 4q-93 1 -181.5 39.5t-153.5 100.5t-104.5 146t-39.5 172v370q0 54 34 85t75 31t75 -31t34 -85v-370q0 -92 80 -166t181 -74l427 -4q145 -2 223 81q62 66 45 147q-19 86 -120 130q-78 34 -187 34q-205 4 -324 125q-92 94 -93 212q-2 117 85 187
q80 64 210 64l993 -4v-706q0 -51 5 -56h21h5h43q58 1 94 5t65.5 17.5t44.5 31t25 53t12.5 76.5t2.5 108v510q0 49 34 78t75 29.5t75 -28t34 -79.5v-353v-91v-353q127 16 181.5 118t54.5 322v414q0 40 22.5 67t54.5 33t63.5 0t54 -33t22.5 -67v-414v-44v-161q0 -222 166 -222
h131zM619 -423q0 54 36.5 85.5t81 32t81 -30.5t36.5 -87v-69q0 -56 -36.5 -87.5t-81 -31.5t-81 31.5t-36.5 87.5v69zM924 -423q0 54 36.5 85.5t81 32t81 -30.5t36.5 -87v-69q0 -56 -36.5 -87.5t-81 -31.5t-81 31.5t-36.5 87.5v69z" />
    <glyph glyph-name="uni06330626.001" horiz-adv-x="2989" 
d="M440 911q39 0 61 -26t22 -57t-22 -57t-61 -26h-318q-57 0 -81.5 41.5t-3 83t75.5 41.5h53q-33 55 -40.5 109.5t9 96.5t46.5 77t73.5 52.5t88 20.5t92 -16.5t84.5 -60.5q19 -19 19.5 -47.5t-15 -48.5t-41.5 -26t-59 21q-46 40 -103 29t-67 -68q-11 -69 27.5 -104t76.5 -35
h83zM2641 1072q0 40 22.5 67t54.5 33t63.5 0t54 -33t22.5 -67v-414q0 -192 -34.5 -318.5t-115 -205.5t-206.5 -109.5t-315 -24.5v35q-107 -30 -244 -35h-43h-35q-124 6 -165 66t-44 200v26v144v331l-392 -4h-388q-54 0 -74 -38t18 -72q51 -47 178 -47q275 0 425 -146
q113 -110 116 -263q3 -149 -100 -262q-125 -139 -349 -152q-26 -1 -53 -1l-427 4q-93 1 -181.5 39.5t-153.5 100.5t-104.5 146t-39.5 172v370q0 54 34 85t75 31t75 -31t34 -85v-370q0 -92 80 -166t181 -74l427 -4q145 -2 223 81q62 66 45 147q-19 86 -120 130
q-78 34 -187 34q-205 4 -324 125q-92 94 -93 212q-2 117 85 187q80 64 210 64l993 -4v-706q0 -51 5 -56h21h5h43q58 1 94 5t65.5 17.5t44.5 31t25 53t12.5 76.5t2.5 108v510q0 49 34 78t75 29.5t75 -28t34 -79.5v-353v-91v-353q127 16 181.5 118t54.5 322v414z" />
    <glyph glyph-name="uni06330626.fina.001" horiz-adv-x="3215" 
d="M484 911q39 0 61 -26t22 -57t-22 -57t-61 -26h-318q-57 0 -81.5 41.5t-3 83t75.5 41.5h52q-33 55 -40.5 109.5t9 96.5t46.5 77t73.5 52.5t88 20.5t92 -16.5t84.5 -60.5q19 -19 19.5 -47.5t-15 -48.5t-41.5 -26t-59 21q-46 40 -103 29t-67 -68q-6 -37 4 -65.5t29 -43.5
t38 -22.5t34 -7.5h83zM3259 231l44 -113l-44 -118h-130q-227 0 -323 126q-77 -74 -202 -103.5t-312 -22.5v35q-107 -30 -244 -35h-44h-34q-124 6 -165.5 66t-44.5 200v26v144v331l-392 -4h-388q-54 0 -74 -38t18 -72q51 -47 178 -47q275 0 425 -146q113 -110 116 -263
q3 -149 -99 -262q-125 -139 -349 -152q-26 -1 -53 -1l-427 4q-93 1 -181.5 39.5t-154 100.5t-105 146t-39.5 172v370q0 54 34 85t75 31t75 -31t34 -85v-370q0 -92 80.5 -166t181.5 -74l427 -4q145 -2 223 81q62 66 44 147q-19 85 -119 130q-78 34 -188 34q-205 4 -324 125
q-92 94 -93 212q-2 117 85 187q80 64 210 64l994 -4v-706q0 -52 4 -56h22h4h44q58 1 94 5t65.5 17.5t44.5 31t25 53t12.5 76.5t2.5 108v510q0 49 34 78t75 29.5t75 -28t34 -79.5v-353v-91v-353q127 16 181 118t54 322v414q0 49 34 77t75 28t75 -28t34 -77v-619
q0 -222 166 -222h130z" />
    <glyph glyph-name="uniFCFD.001" horiz-adv-x="2862" 
d="M2275 1782q0 -56 -37 -87.5t-81 -31.5t-81 31.5t-37 87.5v70q0 54 37 85.5t81 32t81 -30.5t37 -87v-70zM2100 1477q0 -56 -36.5 -87.5t-81 -31.5t-81 31.5t-36.5 87.5v70q0 54 36.5 85.5t81 32t81 -30.5t36.5 -87v-70zM2214 1547q0 54 36.5 85.5t81 32t81 -30.5t36.5 -87
v-70q0 -56 -36.5 -87.5t-81 -31.5t-81 31.5t-36.5 87.5v70zM2553 1072q0 49 34 77t75 28t75 -28t34 -77v-414q0 -192 -34.5 -318.5t-115 -205.5t-206.5 -109.5t-315 -24.5v35q-107 -30 -244 -35h-43h-35q-124 6 -165 66t-44 200v26v144v331l-392 -4h-388q-54 0 -74 -38
t18 -72q51 -47 178 -47q275 0 425 -146q113 -110 116 -263q3 -149 -100 -262q-125 -139 -349 -152q-26 -1 -53 -1l-427 4q-93 1 -181.5 39.5t-153.5 100.5t-104.5 146t-39.5 172v370q0 54 34 85t74.5 31t74.5 -31t34 -85v-370q0 -92 80.5 -166t181.5 -74l427 -4
q145 -2 223 81q62 66 45 147q-19 86 -120 130q-77 34 -187 34q-205 4 -324 125q-92 94 -93 212q-2 117 85 187q80 64 210 64l993 -4v-706q0 -51 5 -56h21h5h43q58 1 94 5t65.5 17.5t44.5 31t25 53t12.5 76.5t2.5 108v510q0 49 34 78t75 29.5t75 -28t34 -79.5v-353v-91v-353
q127 16 181 118t54 322v414z" />
    <glyph glyph-name="uniFCFD.002" horiz-adv-x="2862" 
d="M2318 1782q0 -56 -36.5 -87.5t-81 -31.5t-81 31.5t-36.5 87.5v70q0 54 36.5 85.5t81 32t81 -30.5t36.5 -87v-70zM2144 1477q0 -56 -36.5 -87.5t-81 -31.5t-81 31.5t-36.5 87.5v70q0 54 36.5 85.5t81 32t81 -30.5t36.5 -87v-70zM2257 1547q0 54 36.5 85.5t81 32t81 -30.5
t36.5 -87v-70q0 -56 -36.5 -87.5t-81 -31.5t-81 31.5t-36.5 87.5v70zM2553 1072q0 49 34 77t75 28t75 -28t34 -77v-414q0 -192 -34.5 -318.5t-115 -205.5t-206.5 -109.5t-315 -24.5v35q-107 -30 -244 -35h-43h-35q-124 6 -165 66t-44 200v26v144v331l-392 -4h-388
q-54 0 -74 -38t18 -72q51 -47 178 -47q275 0 425 -146q113 -110 116 -263q3 -149 -100 -262q-125 -139 -349 -152q-26 -1 -53 -1l-427 4q-93 1 -181.5 39.5t-153.5 100.5t-104.5 146t-39.5 172v370q0 54 34 85t74.5 31t74.5 -31t34 -85v-370q0 -92 80.5 -166t181.5 -74
l427 -4q145 -2 223 81q62 66 45 147q-19 86 -120 130q-77 34 -187 34q-205 4 -324 125q-92 94 -93 212q-2 117 85 187q80 64 210 64l993 -4v-706q0 -51 5 -56h21h5h43q58 1 94 5t65.5 17.5t44.5 31t25 53t12.5 76.5t2.5 108v510q0 49 34 78t75 29.5t75 -28t34 -79.5v-353
v-91v-353q127 16 181 118t54 322v414z" />
    <glyph glyph-name="uniFD19.001" horiz-adv-x="2980" 
d="M2270 1782q0 -56 -36.5 -87.5t-81 -31.5t-81 31.5t-36.5 87.5v70q0 54 36.5 85.5t81 32t81 -30.5t36.5 -87v-70zM2096 1477q0 -56 -36.5 -87.5t-81 -31.5t-81 31.5t-36.5 87.5v70q0 54 36.5 85.5t81 32t81 -30.5t36.5 -87v-70zM2209 1547q0 54 37 85.5t81 32t81 -30.5
t37 -87v-70q0 -56 -37 -87.5t-81 -31.5t-81 31.5t-37 87.5v70zM3068 231l43 -113l-43 -118h-131q-227 0 -323 126q-77 -74 -202 -103.5t-312 -22.5v35q-107 -30 -244 -35h-43h-35q-124 6 -165 66t-44 200v26v144v331l-392 -4h-388q-54 0 -74 -38t18 -72q51 -47 178 -47
q275 0 425 -146q113 -110 116 -263q3 -149 -100 -262q-125 -139 -349 -152q-26 -1 -53 -1l-427 4q-93 1 -181.5 39.5t-153.5 100.5t-104.5 146t-39.5 172v370q0 54 34 85t74.5 31t74.5 -31t34 -85v-370q0 -92 80.5 -166t181.5 -74l427 -4q145 -2 223 81q62 66 45 147
q-19 86 -120 130q-77 34 -187 34q-205 4 -324 125q-92 94 -93 212q-2 117 85 187q80 64 210 64l993 -4v-706q0 -51 5 -56h21h5h43q58 1 94 5t65.5 17.5t44.5 31t25 53t12.5 76.5t2.5 108v510q0 49 34 78t75 29.5t75 -28t34 -79.5v-353v-91v-353q127 16 181 118t54 322v414
q0 49 34 77t75 28t75 -28t34 -77v-619q0 -222 166 -222h131z" />
    <glyph glyph-name="uniFCFE.001" horiz-adv-x="3050" 
d="M2270 1782q0 -56 -36.5 -87.5t-81 -31.5t-81 31.5t-36.5 87.5v70q0 54 36.5 85.5t81 32t81 -30.5t36.5 -87v-70zM2096 1477q0 -56 -36.5 -87.5t-81 -31.5t-81 31.5t-36.5 87.5v70q0 54 36.5 85.5t81 32t81 -30.5t36.5 -87v-70zM2209 1547q0 54 37 85.5t81 32t81 -30.5
t37 -87v-70q0 -56 -37 -87.5t-81 -31.5t-81 31.5t-37 87.5v70zM2553 1072q0 49 34 77t75 28t75 -28t34 -77v-414q0 -192 -34.5 -318.5t-115 -205.5t-206.5 -109.5t-315 -24.5v35q-107 -30 -244 -35h-43h-35q-124 6 -165 66t-44 200v26v144v331l-392 -4h-388q-54 0 -74 -38
t18 -72q51 -47 178 -47q275 0 425 -146q113 -110 116 -263q3 -149 -100 -262q-125 -139 -349 -152q-26 -1 -53 -1l-427 4q-93 1 -181.5 39.5t-153.5 100.5t-104.5 146t-39.5 172v370q0 54 34 85t74.5 31t74.5 -31t34 -85v-370q0 -92 80.5 -166t181.5 -74l427 -4
q145 -2 223 81q62 66 45 147q-19 86 -120 130q-77 34 -187 34q-205 4 -324 125q-92 94 -93 212q-2 117 85 187q80 64 210 64l993 -4v-706q0 -51 5 -56h21h5h43q58 1 94 5t65.5 17.5t44.5 31t25 53t12.5 76.5t2.5 108v510q0 49 34 78t75 29.5t75 -28t34 -79.5v-353v-91v-353
q127 16 181 118t54 322v414zM697 -423q0 54 36.5 85.5t81 32t81 -30.5t36.5 -87v-69q0 -56 -36.5 -87.5t-81 -31.5t-81 31.5t-36.5 87.5v69zM1046 -423q0 54 36.5 85.5t81 32t81 -30.5t36.5 -87v-69q0 -56 -36.5 -87.5t-81 -31.5t-81 31.5t-36.5 87.5v69z" />
    <glyph glyph-name="uniFD1A.001" horiz-adv-x="3172" 
d="M2449 1782q0 -56 -36.5 -87.5t-81 -31.5t-81 31.5t-36.5 87.5v70q0 54 36.5 85.5t81 32t81 -30.5t36.5 -87v-70zM2275 1477q0 -56 -37 -87.5t-81 -31.5t-81 31.5t-37 87.5v70q0 54 37 85.5t81 32t81 -30.5t37 -87v-70zM2388 1547q0 54 36.5 85.5t81 32t81 -30.5t36.5 -87
v-70q0 -56 -36.5 -87.5t-81 -31.5t-81 31.5t-36.5 87.5v70zM3216 231l43 -113l-43 -118h-131q-226 0 -322 126q-77 -74 -202.5 -103.5t-312.5 -22.5v35q-107 -30 -244 -35h-43h-35q-124 6 -165 66t-44 200v26v144v331l-392 -4h-388q-54 0 -74 -38t18 -72q51 -47 178 -47
q275 0 425 -146q113 -110 116 -263q3 -149 -100 -262q-125 -139 -349 -152q-26 -1 -53 -1l-427 4q-93 1 -181.5 39.5t-153.5 100.5t-104.5 146t-39.5 172v370q0 54 34 85t75 31t75 -31t34 -85v-370q0 -92 80 -166t181 -74l427 -4q145 -2 223 81q62 66 45 147
q-19 86 -120 130q-78 34 -187 34q-205 4 -324 125q-92 94 -93 212q-2 117 85 187q80 64 210 64l993 -4v-706q0 -51 5 -56h21h5h43q58 1 94 5t65.5 17.5t44.5 31t25 53t12.5 76.5t2.5 108v510q0 49 34 78t75 29.5t75 -28t34 -79.5v-353v-91v-353q127 16 181.5 118t54.5 322
v414q0 40 22.5 67t54 33t63.5 0t54.5 -33t22.5 -67v-619q0 -222 166 -222h131zM654 -427q0 54 36.5 85.5t81 32t81 -30.5t36.5 -87v-70q0 -56 -36.5 -87.5t-81 -31.5t-81 31.5t-36.5 87.5v70zM1002 -427q0 54 37 85.5t81 32t81 -30.5t37 -87v-70q0 -56 -37 -87.5t-81 -31.5
t-81 31.5t-37 87.5v70z" />
    <glyph glyph-name="uni06340626.001" horiz-adv-x="2949" 
d="M2318 1782q0 -56 -36.5 -87.5t-81 -31.5t-81 31.5t-36.5 87.5v70q0 54 36.5 85.5t81 32t81 -30.5t36.5 -87v-70zM2144 1477q0 -56 -36.5 -87.5t-81 -31.5t-81 31.5t-36.5 87.5v70q0 54 36.5 85.5t81 32t81 -30.5t36.5 -87v-70zM2257 1547q0 54 36.5 85.5t81 32t81 -30.5
t36.5 -87v-70q0 -56 -36.5 -87.5t-81 -31.5t-81 31.5t-36.5 87.5v70zM349 819h-236q-41 0 -58 30.5t0 61t58 30.5h-13q-33 96 8.5 172.5t131.5 76.5q104 0 143 -61q21 -35 9.5 -65t-40 -34.5t-60.5 16.5q-26 17 -50 1t-24 -54q0 -20 11.5 -36t27.5 -16h92q41 0 58 -30.5
t0 -61t-58 -30.5zM2601 1072q0 49 34 77t75 28t75 -28t34 -77v-414q0 -192 -34.5 -318.5t-115 -205.5t-206.5 -109.5t-315 -24.5v35q-107 -30 -244 -35h-43h-35q-124 6 -165 66t-44 200v26v144v331l-393 -4h-387q-54 0 -74 -38t18 -72q51 -47 178 -47q275 0 425 -146
q113 -110 116 -263q3 -149 -100 -262q-125 -139 -349 -152q-26 -1 -53 -1l-427 4q-93 1 -181.5 39.5t-153.5 100.5t-104.5 146t-39.5 172v370q0 54 34 85t74.5 31t74.5 -31t34 -85v-370q0 -92 80.5 -166t181.5 -74l427 -4q145 -2 223 81q62 66 45 147q-19 86 -120 130
q-78 34 -187 34q-205 4 -324 125q-92 94 -93 212q-2 117 85 187q80 64 210 64l993 -4v-706q0 -52 4 -56h22h5h43q58 1 94 5t65.5 17.5t44.5 31t25 53t12.5 76.5t2.5 108v510q0 49 34 78t75 29.5t75 -28t34 -79.5v-353v-91v-353q127 16 181 118t54 322v414z" />
    <glyph glyph-name="uni06340626.fina.001" horiz-adv-x="3215" 
d="M2318 1782q0 -56 -36.5 -87.5t-81 -31.5t-81 31.5t-36.5 87.5v70q0 54 36.5 85.5t81 32t81 -30.5t36.5 -87v-70zM2144 1477q0 -56 -36.5 -87.5t-81 -31.5t-81 31.5t-36.5 87.5v70q0 54 36.5 85.5t81 32t81 -30.5t36.5 -87v-70zM2257 1547q0 54 36.5 85.5t81 32t81 -30.5
t36.5 -87v-70q0 -56 -36.5 -87.5t-81 -31.5t-81 31.5t-36.5 87.5v70zM3111 231l44 -113l-44 -118h-131q-218 0 -322 122q-148 -136 -510 -122v35q-107 -30 -244 -35h-43h-35q-124 6 -165 66t-44 200v26v144v331l-393 -4h-387q-54 0 -74 -38t18 -72q51 -47 178 -47
q275 0 425 -146q113 -110 116 -263q3 -149 -100 -262q-125 -139 -349 -152q-26 -1 -53 -1l-427 4q-93 1 -181.5 39.5t-153.5 100.5t-104.5 146t-39.5 172v370q0 54 34 85t74.5 31t74.5 -31t34 -85v-370q0 -92 80.5 -166t181.5 -74l427 -4q145 -2 223 81q62 66 45 147
q-19 86 -120 130q-78 34 -187 34q-205 4 -324 125q-92 94 -93 212q-2 117 85 187q80 64 210 64l993 -4v-706q0 -52 4 -56h22h5h43q58 1 94 5t65.5 17.5t44.5 31t25 53t12.5 76.5t2.5 108v510q0 49 34 78t75 29.5t75 -28t34 -79.5v-353v-91v-353q127 16 181 118t54 322v414
q0 49 34 77t75 28t75 -28t34 -77v-414q0 -87 -4 -131v-74q0 -222 165 -222h131zM349 780h-236q-41 0 -58 30.5t0 61t58 30.5h-13q-33 96 8.5 172t131.5 76q104 0 143 -61q21 -35 9.5 -64.5t-40 -34t-60.5 16.5q-26 17 -50 1t-24 -54q0 -20 11.5 -36t27.5 -16h92
q41 0 58 -30.5t0 -61t-58 -30.5z" />
    <glyph glyph-name="uni06F4.urdu" horiz-adv-x="1224" 
d="M1033 1577q43 0 73.5 -29t30.5 -71v-17q0 -37 -23.5 -64.5t-58.5 -27.5q-275 -20 -301 -174q-7 -35 -32.5 -54.5t-59.5 -19.5h-17q-37 0 -65 22.5t-35 60.5q-25 148 -118 148q-38 0 -61 -7t-39 -20.5t-23 -47t-9.5 -74t-2.5 -113.5v-993q0 -43 -26.5 -69.5t-69.5 -26.5
h-13q-43 0 -69.5 26.5t-26.5 69.5v993v22q0 51 0.5 79.5t7 81t18.5 84.5t36.5 72.5t60 63t91 39t126.5 16.5q128 0 240 -118q148 148 366 148z" />
    <glyph glyph-name="uni06F7.urdu" horiz-adv-x="1281" 
d="M741 1529q16 33 41.5 54t52 25.5t54 0t48.5 -22t34 -41.5t11.5 -58t-19.5 -71l-575 -1168h640q46 0 77.5 -25.5t38.5 -62t0 -73t-38.5 -62t-77.5 -25.5h-784q-110 0 -144 75.5t22 190.5z" />
    <glyph glyph-name="exclamdown.cap" horiz-adv-x="440" 
d="M87 1368q0 56 38.5 93.5t96.5 37.5q55 0 93 -39t38 -92q0 -54 -38.5 -94.5t-92.5 -40.5q-56 0 -95.5 39.5t-39.5 95.5zM122 1041q3 43 30 69.5t66 26.5h4q42 0 67 -26.5t25 -69.5q13 -724 13 -1067q0 -48 -29.5 -78.5t-75.5 -30.5h-4q-46 0 -77.5 31.5t-31.5 77.5
q0 153 3.5 419.5t6.5 456.5z" />
    <glyph glyph-name="questiondown.cap" horiz-adv-x="1037" 
d="M610 1220q-53 0 -94 40t-41 95t39.5 93t95.5 38t93.5 -38t37.5 -93q0 -54 -38.5 -94.5t-92.5 -40.5zM87 257q0 89 24 161.5t62.5 122t85 92.5t93 83.5t85 85t62.5 108t24 140.5q0 43 30.5 68t67.5 25.5t67.5 -24t30.5 -69.5q0 -87 -23 -161t-60 -128t-81.5 -102t-89 -92
t-81.5 -89t-60 -102.5t-23 -122.5q0 -92 55 -140t163 -48q64 0 114.5 14.5t69.5 27t51 37.5q71 60 135 39q48 -15 58 -64q14 -68 -60 -134q-11 -10 -24 -20q-71 -52 -158.5 -78t-172.5 -24t-166 29.5t-142.5 76.5t-99 123.5t-37.5 164.5z" />
    <glyph glyph-name="bullet.cap" horiz-adv-x="440" 
d="M87 1377q0 56 38.5 93.5t96.5 37.5q55 0 93 -39t38 -92q0 -54 -38.5 -94.5t-92.5 -40.5q-56 0 -95.5 40t-39.5 95z" />
    <glyph glyph-name="hyphen.cap" horiz-adv-x="692" 
d="M187 1312q-45 0 -72.5 28.5t-27.5 71.5v4q0 43 27.5 69.5t72.5 26.5h318q46 0 73.5 -26.5t27.5 -69.5v-4q0 -43 -28 -71.5t-73 -28.5h-318z" />
    <glyph glyph-name="endash.cap" horiz-adv-x="993" 
d="M183 1316q-43 0 -69.5 26.5t-26.5 69.5v4q0 43 26.5 69.5t69.5 26.5h627q43 0 69.5 -26.5t26.5 -69.5v-4q0 -43 -26.5 -69.5t-69.5 -26.5h-627z" />
    <glyph glyph-name="emdash.cap" horiz-adv-x="1542" 
d="M183 1316q-43 0 -69.5 26.5t-26.5 69.5v4q0 43 26.5 69.5t69.5 26.5h1177q39 0 67 -28.5t28 -67.5v-4q0 -39 -28 -67.5t-67 -28.5h-1177z" />
    <glyph glyph-name="quotedblleft.cap" horiz-adv-x="836" 
d="M87 1181l209 562h118l-100 -562h-227zM423 1181l209 562h117l-100 -562h-226z" />
    <glyph glyph-name="quotedblright.cap" horiz-adv-x="836" 
d="M414 1638l-209 -562h-118l100 562h227zM749 1638l-209 -562h-117l100 562h226z" />
    <glyph glyph-name="guillemotleft.cap" horiz-adv-x="1446" 
d="M741 196l-610 440q-43 36 -42 82t46 79l584 432q28 15 56 14.5t47 -18t28.5 -39.5t0.5 -50.5t-36 -50.5l-479 -366l505 -383q27 -21 36.5 -49t0 -50t-28.5 -39.5t-48 -17.5t-60 16zM1220 196l-610 440q-43 36 -42 82t46 79l584 432q28 15 56.5 14t47.5 -18.5t29 -40
t1 -50.5t-38 -49l-479 -366l505 -383q27 -21 36.5 -49t0 -50t-28.5 -39.5t-48 -17.5t-60 16z" />
    <glyph glyph-name="guillemotright.cap" horiz-adv-x="1446" 
d="M227 196q-31 -16 -60 -16t-48.5 17.5t-28.5 39.5t0 50t36 49l506 383l-479 366q-29 21 -38 49t0.5 50.5t28.5 40t47.5 18.5t56.5 -14l584 -432q46 -33 47 -79t-42 -82zM706 196q-31 -16 -60 -16t-48 17.5t-28.5 39.5t0 50t36.5 49l505 383l-479 366q-27 22 -36 50.5
t0.5 50.5t28.5 39.5t47 18t56 -14.5l584 -432q45 -33 46 -79t-42 -82z" />
    <glyph glyph-name="dollar.001" horiz-adv-x="1150" 
d="M453 -187v117q-218 14 -322 111q-68 62 -54 126q6 27 28 47q45 45 117 -9q27 -22 50 -35t70.5 -27.5t110.5 -20.5v536q-213 66 -302.5 160.5t-89.5 257.5q0 169 104 278.5t288 135.5v96q0 43 30 67.5t66 24.5t66 -24.5t30 -67.5v-91q152 -13 254.5 -68.5t102.5 -136.5
q0 -73 -61 -94t-126 33q-76 57 -170 70v-480q232 -65 325 -162.5t93 -273.5q0 -193 -109.5 -311.5t-308.5 -141.5v-117q0 -43 -30 -69t-66 -27t-66 24.5t-30 71.5zM453 871v423q-89 -20 -136 -73.5t-47 -135.5q0 -83 40 -130.5t143 -83.5zM645 126q107 19 158 81.5t51 171.5
q0 92 -42.5 138t-166.5 89v-480z" />
    <glyph glyph-name="greater.cap" horiz-adv-x="1058" 
d="M240 -61q-29 -14 -59.5 -12.5t-52.5 19t-34 39.5t-4.5 49.5t36.5 48.5l597 431l-597 432q-29 22 -36.5 49.5t4.5 49.5t34 39t52.5 18t59.5 -13l692 -501q39 -29 40 -72t-35 -76z" />
    <glyph glyph-name="less.cap" horiz-adv-x="1058" 
d="M819 -61l-697 501q-36 33 -35.5 76t39.5 72l693 501q29 14 59.5 13t52 -18t33.5 -39t4.5 -49.5t-36.5 -49.5l-596 -432l596 -431q29 -21 36.5 -48.5t-4.5 -49.5t-33.5 -39.5t-52 -19t-59.5 12.5z" />
    <glyph glyph-name="at.cap" horiz-adv-x="1834" 
d="M815 -166q73 0 135 5.5t98 11t76 19.5t51.5 19t43 22.5t32.5 18.5q59 33 90 2q28 -26 7 -72q-18 -40 -67 -69q-125 -72 -265.5 -100.5t-271 -14.5t-251.5 68t-210 138.5t-142.5 205.5t-53.5 261q0 214 103.5 390.5t282.5 276.5t394 100q308 0 498.5 -168.5t190.5 -442.5
q0 -222 -120.5 -363.5t-306.5 -141.5q-148 0 -205 100q-203 -151 -340 -73q-98 56 -131 208q-34 156 17 312q54 167 178 232q163 85 393 -43q13 29 36.5 41.5t46 7.5t42.5 -19.5t25 -41t-6 -57.5q-161 -387 -125 -467q14 -29 65 -30h12q111 0 175.5 89.5t64.5 245.5
q0 203 -137.5 322t-372.5 119q-168 0 -304.5 -76t-214.5 -212.5t-78 -308.5q0 -226 152 -370.5t393 -144.5zM924 314l61 283q-167 112 -277 35q-74 -53 -94 -168q-18 -109 24 -185q47 -84 138 -60q67 17 148 95z" />
    <glyph glyph-name="paragraph.cap" horiz-adv-x="1154" 
d="M697 -70q-43 0 -71.5 27t-28.5 69v615h22q-541 0 -541 427q0 218 136 322.5t418 104.5h335q46 0 77.5 -30t31.5 -75v-1364q0 -42 -28.5 -69t-71.5 -27h-4q-43 0 -69.5 26.5t-26.5 69.5v1273h-79v-1273q0 -43 -26 -69.5t-69 -26.5h-5z" />
    <glyph glyph-name="dagger.cap" horiz-adv-x="1045" 
d="M523 -153q-43 0 -69.5 26.5t-26.5 69.5q-2 331 -2 540.5t1 252.5l1 44q-198 -13 -227 -13q-47 0 -80 27.5t-33 72.5v4q0 48 30 74.5t83 26.5q33 0 231 -13q-13 253 -13 322q0 47 28.5 78t76.5 31t76 -31t28 -78q0 -69 -13 -322q198 13 231 13q53 0 83.5 -26.5t30.5 -74.5
v-4q0 -44 -33.5 -72t-80.5 -28q-28 0 -226 13v-837q0 -43 -26.5 -69.5t-69.5 -26.5z" />
    <glyph glyph-name="daggerdbl.cap" horiz-adv-x="1028" 
d="M514 -240q-48 0 -76 32t-28 82q0 64 13 305q-198 -13 -231 -13q-47 0 -80.5 28t-33.5 72v4q0 44 33.5 72t80.5 28q28 0 226 -13q-13 211 -13 240q0 33 13 244q-115 -17 -226 -17q-50 0 -82 28t-32 76t32 76.5t82 28.5q33 0 231 -13q-13 241 -13 305q0 47 28 78t76 31
t76.5 -31t28.5 -78q0 -65 -13 -305q198 13 231 13q50 0 81.5 -28.5t31.5 -76.5t-31.5 -76t-81.5 -28q-29 0 -227 13q13 -198 13 -240q0 -29 -13 -240q198 13 227 13q47 0 80 -27.5t33 -72.5v-4q0 -45 -33 -72.5t-80 -27.5q-33 0 -231 13q13 -241 13 -305q0 -50 -28.5 -82
t-76.5 -32z" />
    <glyph glyph-name="grave" horiz-adv-x="2614" 
d="M719 1312l-388 56q-41 6 -55 42.5t3 70t52 31.5l401 -57q39 -6 51 -44.5t-7.5 -71.5t-56.5 -27z" />
    <glyph glyph-name="dotcenterar" 
d="M0 1146v70q0 54 36.5 85.5t81 32t81 -30.5t36.5 -87v-70q0 -56 -36.5 -87.5t-81 -31.5t-81 31.5t-36.5 87.5z" />
    <glyph glyph-name="waslaar" 
d="M83 2087q-24 -44 -74 -17q-22 12 -22.5 40.5t13.5 50.5l61 101q13 23 38.5 28t48.5 -11l79 -44q8 12 28 43t31 47t32 38t39 30t45 8.5t56 -13.5q73 -44 99.5 -99.5t6.5 -100.5t-62.5 -81.5t-107.5 -42t-128 18.5q-28 11 -55 25t-40 21.5t-26.5 12t-22 -0.5t-17.5 -19z
M322 2192q44 -12 79 -4.5t57 23.5l21 16q-16 31 -42.5 47t-44.5 9q-16 -6 -33.5 -28.5t-26.5 -42.5z" />
    <glyph glyph-name="uni0654064B" 
d="M87 1961q-57 0 -81.5 40t-4 80.5t72.5 40.5h57q-39 64 -42 126.5t22 108.5t69.5 78t96.5 41.5t108 -8t99 -63.5q17 -19 16.5 -47.5t-15.5 -48t-40 -25.5t-57 21q-46 40 -103 27t-67 -70q-11 -70 26.5 -105t77.5 -35h79q39 0 61 -25t22 -55.5t-22 -55.5t-61 -25h-314z
M65 1682q-37 -6 -56.5 27.5t-7.5 72t51 44.5l401 56q35 2 52 -31t3 -69.5t-55 -42.5zM65 1438q-37 -6 -56.5 27.5t-7.5 72t51 44.5l401 56q35 2 52 -31t3 -69.5t-55 -42.5z" />
    <glyph glyph-name="uni0654064C" 
d="M314 2166q-57 34 -65 105.5t43 120.5q64 58 144.5 28t97.5 -100t-50 -137q-45 -37 -82.5 -59.5t-64 -30t-49.5 -7.5t-38 9t-29.5 19.5t-25 23t-24 20t-26 11.5t-32.5 -3q-23 -10 -37.5 -9t-23.5 17q-22 35 12.5 63.5t79.5 16.5q23 -6 39 -23q87 -87 131 -65zM340 2235
q30 -36 91 5q23 16 23 40t-23 43q-19 22 -43.5 23.5t-43.5 -15.5q-40 -40 -4 -96zM131 1508q-57 0 -81.5 40t-4 80.5t72.5 40.5h56q-39 64 -42 126.5t22 108.5t69.5 78t96.5 41.5t108 -8t99 -63.5q17 -19 16.5 -47.5t-15.5 -48t-40 -25.5t-57 21q-46 40 -103 26.5t-67 -70.5
q-6 -37 3.5 -65.5t28.5 -43.5t37.5 -22.5t35.5 -7.5h78q39 0 61 -25t22 -55.5t-22 -55.5t-61 -25h-313z" />
    <glyph glyph-name="uni0654064E" 
d="M74 1704q-57 0 -81.5 40t-4 80.5t72.5 40.5h57q-39 64 -42 126.5t22 108.5t69.5 78t96.5 41.5t108 -8t99 -63.5q17 -19 16.5 -47.5t-15.5 -48t-40 -25.5t-57 21q-46 40 -103 26.5t-67 -70.5q-6 -37 3.5 -65.5t28 -43.5t37 -22.5t35.5 -7.5h79q39 0 61 -25t22 -55.5
t-22 -55.5t-61 -25h-314zM65 1355q-37 -6 -56.5 27.5t-7.5 72t51 44.5l401 57q35 2 52 -31.5t3 -70t-55 -42.5z" />
    <glyph glyph-name="uni0654064F" 
d="M205 2074q-37 -12 -63 8.5t-18.5 51t50.5 40.5q29 10 79 35q-40 14 -66 49t-34 78t1.5 87t33.5 77.5t70 48.5t104 0q115 -24 133 -115q18 -88 -60 -192q-85 -114 -230 -168zM314 2314q37 -8 58.5 21t12 63t-48.5 38q-26 3 -45.5 -7.5t-26 -28t-5 -35.5t16 -32.5
t38.5 -18.5zM135 1508q-57 0 -81.5 40t-4 80.5t72.5 40.5h57q-39 64 -42 126.5t22 108.5t69.5 78t96.5 41.5t108 -8t99 -63.5q17 -19 16.5 -47.5t-15.5 -48t-40 -25.5t-57 21q-46 40 -103 26.5t-67 -70.5q-6 -37 3.5 -65.5t28 -43.5t37 -22.5t35.5 -7.5h79q39 0 61 -25
t22 -55.5t-22 -55.5t-61 -25h-314z" />
    <glyph glyph-name="uni06540652" 
d="M39 2292q0 72 53.5 125.5t125.5 53.5t125.5 -53.5t53.5 -125.5t-53.5 -125.5t-125.5 -53.5t-125.5 53.5t-53.5 125.5zM148 2292q0 -30 19 -50t51 -20q30 0 50 19t20 51q0 30 -19 50t-51 20q-30 0 -50 -19t-20 -51zM57 1508q-57 0 -81.5 40t-4 80.5t72.5 40.5h56
q-39 64 -42 126.5t22 108.5t69.5 78t96.5 41.5t108 -8t99 -63.5q17 -19 16.5 -47.5t-15.5 -48t-40 -25.5t-57 21q-46 40 -103 26.5t-67 -70.5q-6 -37 3.5 -65.5t28.5 -43.5t37.5 -22.5t35.5 -7.5h78q39 0 61 -25t22 -55.5t-22 -55.5t-61 -25h-313z" />
    <glyph glyph-name="uni06550650" 
d="M179 -440q-57 0 -81.5 40t-4 80.5t72.5 40.5h56q-39 64 -42 126.5t22 108.5t69.5 78t96.5 41.5t108 -8t99 -63.5q17 -19 16.5 -47.5t-15.5 -48t-40 -25.5t-57 21q-46 40 -103 27t-67 -70q-6 -37 3.5 -66t28 -44t38 -22.5t35.5 -7.5h78q39 0 61 -25t22 -55.5t-22 -55.5
t-61 -25h-313zM179 -636q-37 -6 -53.5 15t-4.5 46.5t45 29.5l357 48q25 -2 36 -21t1 -40.5t-37 -29.5z" />
    <glyph glyph-name="uni0651064B" 
d="M100 1913q-37 -6 -56.5 27.5t-7.5 72t51 44.5l401 56q35 2 52 -31t3 -69.5t-55 -42.5zM488 1869q31 2 48 -25.5t11 -61t-33 -48.5q9 -20 9 -35q0 -131 -41.5 -202.5t-119.5 -71.5q-57 0 -92 35q-48 -61 -117 -61q-72 0 -112.5 50t-40.5 141q0 46 13.5 72t34.5 29
q-22 29 -11.5 72.5t50.5 49.5zM362 1529q48 0 48 175v8l-101 -13q5 -5 5 -13q0 -157 48 -157zM153 1503q27 0 37 32t10 130v17l-95 -13q17 -17 17 -44q0 -122 31 -122z" />
    <glyph glyph-name="uniFC5E" 
d="M279 1895q-57 34 -65 106t43 121q64 58 144.5 28t97.5 -100t-50 -137q-78 -64 -134 -85t-86.5 -8.5t-52 33.5t-46 36.5t-52.5 5.5q-45 -19 -61 9q-22 35 12.5 63.5t79.5 16.5q23 -6 39 -23q87 -87 131 -66zM305 1965q30 -36 92 5q23 16 23 39.5t-23 42.5q-19 23 -44 24.5
t-44 -15.5q-40 -40 -4 -96zM153 1399q-72 0 -112.5 50t-40.5 141q0 87 46 101q32 9 59 -21q17 -19 17 -45q0 -122 31 -122q27 0 37 32t10 130q0 44 26.5 65.5t55 9t32.5 -53.5q0 -157 48 -157t48 175q0 20 11.5 33.5t28 16.5t33.5 -1t28.5 -18.5t11.5 -35.5
q0 -131 -41.5 -202.5t-119.5 -71.5q-57 0 -92 35q-48 -61 -117 -61z" />
    <glyph glyph-name="uniFC5F" 
d="M153 963q-72 0 -112.5 50.5t-40.5 141.5q0 87 46 101q32 9 59 -21q17 -19 17 -45q0 -122 31 -122q27 0 37 31.5t10 129.5q0 44 26.5 66t55 9.5t32.5 -53.5q0 -157 48 -157t48 174q0 33 28 46.5t56.5 -1t28.5 -49.5q0 -131 -41.5 -203t-119.5 -72q-57 0 -92 35
q-48 -61 -117 -61zM57 780q-37 -6 -53.5 15t-4.5 46.5t45 29.5l357 48q25 -2 36 -21t1 -40.5t-37 -29.5zM57 649q-37 -6 -53.5 15.5t-4.5 47t45 29.5l357 48q25 -2 36 -21t1 -41t-37 -30z" />
    <glyph glyph-name="uniFC60" 
d="M100 1303q-37 -6 -56.5 27.5t-7.5 72t51 44.5l401 56q35 2 52 -31t3 -69.5t-55 -42.5zM153 963q-72 0 -112.5 50.5t-40.5 141.5q0 87 46 101q32 9 59 -21q17 -19 17 -45q0 -122 31 -122q27 0 37 31.5t10 129.5q0 44 26.5 66t55 9.5t32.5 -53.5q0 -157 48 -157t48 174
q0 33 28 46.5t56.5 -1t28.5 -49.5q0 -131 -41.5 -203t-119.5 -72q-57 0 -92 35q-48 -61 -117 -61z" />
    <glyph glyph-name="uniFC61" 
d="M205 1342q-37 -12 -63 8.5t-18.5 51t50.5 40.5q29 10 79 35q-40 14 -66 49t-34 78t1.5 87t33.5 77.5t70 48.5t104 0q115 -24 133 -115q18 -88 -60 -192q-85 -114 -230 -168zM314 1582q37 -8 58.5 21t12 63t-48.5 38q-26 3 -45.5 -7.5t-26 -28t-5 -35.5t16 -32.5
t38.5 -18.5zM200 963q-72 0 -112 50.5t-40 141.5q0 87 46 101q32 9 59 -21q17 -19 17 -45q0 -122 30 -122q27 0 37.5 31.5t10.5 129.5q0 44 26.5 66t55 9.5t32.5 -53.5q0 -157 48 -157t48 174q0 33 28 46.5t56.5 -1t28.5 -49.5q0 -131 -41.5 -203t-119.5 -72q-57 0 -92 35
q-48 -61 -118 -61z" />
    <glyph glyph-name="uniFC62" 
d="M153 963q-72 0 -112.5 50.5t-40.5 141.5q0 87 46 101q32 9 59 -21q17 -19 17 -45q0 -122 31 -122q27 0 37 31.5t10 129.5q0 44 26.5 66t55 9.5t32.5 -53.5q0 -157 48 -157t48 174q0 33 28 46.5t56.5 -1t28.5 -49.5q0 -131 -41.5 -203t-119.5 -72q-57 0 -92 35
q-48 -61 -117 -61zM105 802q-37 -6 -53.5 15t-4.5 46.5t45 29.5l357 48q25 -2 36 -21t1 -40.5t-37 -29.5z" />
    <glyph glyph-name="uniFC63" 
d="M205 1691q6 70 -14.5 194.5t-42.5 175.5l109 57q65 -177 65 -397zM153 1303q-72 0 -112.5 50.5t-40.5 141.5q0 87 46 100q32 10 59 -20q17 -20 17 -46q0 -122 31 -122q27 0 37 32t10 130q0 44 26.5 65.5t55 9t32.5 -53.5q0 -156 48 -156t48 174q0 33 28 46.5t56.5 -1
t28.5 -49.5q0 -131 -41.5 -203t-119.5 -72q-57 0 -92 35q-48 -61 -117 -61z" />
    <glyph glyph-name="newc" horiz-adv-x="505" 
d="M-44 0v231h593l-4 -231h-589z" />
    </font>
</defs>
</svg>
